G75*
%MOIN*%
%OFA0B0*%
%FSLAX25Y25*%
%IPPOS*%
%LPD*%
%AMOC8*
5,1,8,0,0,1.08239X$1,22.5*
%
%ADD10R,0.05800X0.19300*%
%ADD11R,0.05300X0.03600*%
%ADD12C,0.00130*%
%ADD13R,0.04737X0.26784*%
%ADD14R,0.11200X0.11200*%
%ADD15C,0.00632*%
%ADD16R,0.09658X0.03359*%
%ADD17C,0.13200*%
%ADD18OC8,0.13200*%
%ADD19C,0.01066*%
%ADD20R,0.06587X0.05800*%
%ADD21R,0.05800X0.06587*%
%ADD22R,0.03162X0.09461*%
%ADD23R,0.08200X0.08200*%
%ADD24C,0.08200*%
%ADD25R,0.04600X0.03400*%
%ADD26R,0.11400X0.05200*%
%ADD27R,0.06500X0.05200*%
%ADD28R,0.10700X0.05700*%
%ADD29R,0.05000X0.05700*%
%ADD30R,0.12800X0.06800*%
%ADD31R,0.03000X0.03200*%
%ADD32R,0.03000X0.07000*%
%ADD33C,0.00960*%
%ADD34R,0.05150X0.05150*%
%ADD35C,0.05150*%
%ADD36C,0.07400*%
%ADD37C,0.12500*%
%ADD38C,0.13800*%
%ADD39R,0.05800X0.03300*%
%ADD40R,0.04343X0.04540*%
%ADD41R,0.03950X0.05524*%
%ADD42C,0.06000*%
%ADD43R,0.06312X0.04737*%
%ADD44C,0.04756*%
D10*
X0304533Y0063750D03*
X0304533Y0098750D03*
X0304533Y0133750D03*
X0344533Y0133750D03*
X0344533Y0098750D03*
X0344533Y0063750D03*
D11*
X0364583Y0061250D03*
X0364583Y0056250D03*
X0364583Y0066250D03*
X0364583Y0071250D03*
X0364583Y0091250D03*
X0364583Y0096250D03*
X0364583Y0101250D03*
X0364583Y0106250D03*
X0364583Y0126250D03*
X0364583Y0131250D03*
X0364583Y0136250D03*
X0364583Y0141250D03*
X0324583Y0141250D03*
X0324583Y0136250D03*
X0324583Y0131250D03*
X0324583Y0126250D03*
X0324583Y0106250D03*
X0324583Y0101250D03*
X0324583Y0096250D03*
X0324583Y0091250D03*
X0324583Y0071250D03*
X0324583Y0066250D03*
X0324583Y0061250D03*
X0324583Y0056250D03*
D12*
X0305598Y0055165D02*
X0305598Y0072335D01*
X0318468Y0072335D01*
X0318468Y0055165D01*
X0305598Y0055165D01*
X0305598Y0055294D02*
X0318468Y0055294D01*
X0318468Y0055423D02*
X0305598Y0055423D01*
X0305598Y0055552D02*
X0318468Y0055552D01*
X0318468Y0055681D02*
X0305598Y0055681D01*
X0305598Y0055810D02*
X0318468Y0055810D01*
X0318468Y0055939D02*
X0305598Y0055939D01*
X0305598Y0056068D02*
X0318468Y0056068D01*
X0318468Y0056197D02*
X0305598Y0056197D01*
X0305598Y0056326D02*
X0318468Y0056326D01*
X0318468Y0056455D02*
X0305598Y0056455D01*
X0305598Y0056584D02*
X0318468Y0056584D01*
X0318468Y0056713D02*
X0305598Y0056713D01*
X0305598Y0056842D02*
X0318468Y0056842D01*
X0318468Y0056971D02*
X0305598Y0056971D01*
X0305598Y0057100D02*
X0318468Y0057100D01*
X0318468Y0057229D02*
X0305598Y0057229D01*
X0305598Y0057358D02*
X0318468Y0057358D01*
X0318468Y0057487D02*
X0305598Y0057487D01*
X0305598Y0057616D02*
X0318468Y0057616D01*
X0318468Y0057745D02*
X0305598Y0057745D01*
X0305598Y0057874D02*
X0318468Y0057874D01*
X0318468Y0058003D02*
X0305598Y0058003D01*
X0305598Y0058132D02*
X0318468Y0058132D01*
X0318468Y0058261D02*
X0305598Y0058261D01*
X0305598Y0058390D02*
X0318468Y0058390D01*
X0318468Y0058519D02*
X0305598Y0058519D01*
X0305598Y0058648D02*
X0318468Y0058648D01*
X0318468Y0058777D02*
X0305598Y0058777D01*
X0305598Y0058906D02*
X0318468Y0058906D01*
X0318468Y0059035D02*
X0305598Y0059035D01*
X0305598Y0059164D02*
X0318468Y0059164D01*
X0318468Y0059293D02*
X0305598Y0059293D01*
X0305598Y0059422D02*
X0318468Y0059422D01*
X0318468Y0059551D02*
X0305598Y0059551D01*
X0305598Y0059680D02*
X0318468Y0059680D01*
X0318468Y0059809D02*
X0305598Y0059809D01*
X0305598Y0059938D02*
X0318468Y0059938D01*
X0318468Y0060067D02*
X0305598Y0060067D01*
X0305598Y0060196D02*
X0318468Y0060196D01*
X0318468Y0060325D02*
X0305598Y0060325D01*
X0305598Y0060454D02*
X0318468Y0060454D01*
X0318468Y0060583D02*
X0305598Y0060583D01*
X0305598Y0060712D02*
X0318468Y0060712D01*
X0318468Y0060841D02*
X0305598Y0060841D01*
X0305598Y0060970D02*
X0318468Y0060970D01*
X0318468Y0061099D02*
X0305598Y0061099D01*
X0305598Y0061228D02*
X0318468Y0061228D01*
X0318468Y0061357D02*
X0305598Y0061357D01*
X0305598Y0061486D02*
X0318468Y0061486D01*
X0318468Y0061615D02*
X0305598Y0061615D01*
X0305598Y0061744D02*
X0318468Y0061744D01*
X0318468Y0061873D02*
X0305598Y0061873D01*
X0305598Y0062002D02*
X0318468Y0062002D01*
X0318468Y0062131D02*
X0305598Y0062131D01*
X0305598Y0062260D02*
X0318468Y0062260D01*
X0318468Y0062389D02*
X0305598Y0062389D01*
X0305598Y0062518D02*
X0318468Y0062518D01*
X0318468Y0062647D02*
X0305598Y0062647D01*
X0305598Y0062776D02*
X0318468Y0062776D01*
X0318468Y0062905D02*
X0305598Y0062905D01*
X0305598Y0063034D02*
X0318468Y0063034D01*
X0318468Y0063163D02*
X0305598Y0063163D01*
X0305598Y0063292D02*
X0318468Y0063292D01*
X0318468Y0063421D02*
X0305598Y0063421D01*
X0305598Y0063550D02*
X0318468Y0063550D01*
X0318468Y0063679D02*
X0305598Y0063679D01*
X0305598Y0063808D02*
X0318468Y0063808D01*
X0318468Y0063937D02*
X0305598Y0063937D01*
X0305598Y0064066D02*
X0318468Y0064066D01*
X0318468Y0064195D02*
X0305598Y0064195D01*
X0305598Y0064324D02*
X0318468Y0064324D01*
X0318468Y0064453D02*
X0305598Y0064453D01*
X0305598Y0064582D02*
X0318468Y0064582D01*
X0318468Y0064711D02*
X0305598Y0064711D01*
X0305598Y0064840D02*
X0318468Y0064840D01*
X0318468Y0064969D02*
X0305598Y0064969D01*
X0305598Y0065098D02*
X0318468Y0065098D01*
X0318468Y0065227D02*
X0305598Y0065227D01*
X0305598Y0065356D02*
X0318468Y0065356D01*
X0318468Y0065485D02*
X0305598Y0065485D01*
X0305598Y0065614D02*
X0318468Y0065614D01*
X0318468Y0065743D02*
X0305598Y0065743D01*
X0305598Y0065872D02*
X0318468Y0065872D01*
X0318468Y0066001D02*
X0305598Y0066001D01*
X0305598Y0066130D02*
X0318468Y0066130D01*
X0318468Y0066259D02*
X0305598Y0066259D01*
X0305598Y0066388D02*
X0318468Y0066388D01*
X0318468Y0066517D02*
X0305598Y0066517D01*
X0305598Y0066646D02*
X0318468Y0066646D01*
X0318468Y0066775D02*
X0305598Y0066775D01*
X0305598Y0066904D02*
X0318468Y0066904D01*
X0318468Y0067033D02*
X0305598Y0067033D01*
X0305598Y0067162D02*
X0318468Y0067162D01*
X0318468Y0067291D02*
X0305598Y0067291D01*
X0305598Y0067420D02*
X0318468Y0067420D01*
X0318468Y0067549D02*
X0305598Y0067549D01*
X0305598Y0067678D02*
X0318468Y0067678D01*
X0318468Y0067807D02*
X0305598Y0067807D01*
X0305598Y0067936D02*
X0318468Y0067936D01*
X0318468Y0068065D02*
X0305598Y0068065D01*
X0305598Y0068194D02*
X0318468Y0068194D01*
X0318468Y0068323D02*
X0305598Y0068323D01*
X0305598Y0068452D02*
X0318468Y0068452D01*
X0318468Y0068581D02*
X0305598Y0068581D01*
X0305598Y0068710D02*
X0318468Y0068710D01*
X0318468Y0068839D02*
X0305598Y0068839D01*
X0305598Y0068968D02*
X0318468Y0068968D01*
X0318468Y0069097D02*
X0305598Y0069097D01*
X0305598Y0069226D02*
X0318468Y0069226D01*
X0318468Y0069355D02*
X0305598Y0069355D01*
X0305598Y0069484D02*
X0318468Y0069484D01*
X0318468Y0069613D02*
X0305598Y0069613D01*
X0305598Y0069742D02*
X0318468Y0069742D01*
X0318468Y0069871D02*
X0305598Y0069871D01*
X0305598Y0070000D02*
X0318468Y0070000D01*
X0318468Y0070129D02*
X0305598Y0070129D01*
X0305598Y0070258D02*
X0318468Y0070258D01*
X0318468Y0070387D02*
X0305598Y0070387D01*
X0305598Y0070516D02*
X0318468Y0070516D01*
X0318468Y0070645D02*
X0305598Y0070645D01*
X0305598Y0070774D02*
X0318468Y0070774D01*
X0318468Y0070903D02*
X0305598Y0070903D01*
X0305598Y0071032D02*
X0318468Y0071032D01*
X0318468Y0071161D02*
X0305598Y0071161D01*
X0305598Y0071290D02*
X0318468Y0071290D01*
X0318468Y0071419D02*
X0305598Y0071419D01*
X0305598Y0071548D02*
X0318468Y0071548D01*
X0318468Y0071677D02*
X0305598Y0071677D01*
X0305598Y0071806D02*
X0318468Y0071806D01*
X0318468Y0071935D02*
X0305598Y0071935D01*
X0305598Y0072064D02*
X0318468Y0072064D01*
X0318468Y0072193D02*
X0305598Y0072193D01*
X0305598Y0072322D02*
X0318468Y0072322D01*
X0305598Y0090165D02*
X0305598Y0107335D01*
X0318468Y0107335D01*
X0318468Y0090165D01*
X0305598Y0090165D01*
X0305598Y0090294D02*
X0318468Y0090294D01*
X0318468Y0090423D02*
X0305598Y0090423D01*
X0305598Y0090552D02*
X0318468Y0090552D01*
X0318468Y0090681D02*
X0305598Y0090681D01*
X0305598Y0090810D02*
X0318468Y0090810D01*
X0318468Y0090939D02*
X0305598Y0090939D01*
X0305598Y0091068D02*
X0318468Y0091068D01*
X0318468Y0091197D02*
X0305598Y0091197D01*
X0305598Y0091326D02*
X0318468Y0091326D01*
X0318468Y0091455D02*
X0305598Y0091455D01*
X0305598Y0091584D02*
X0318468Y0091584D01*
X0318468Y0091713D02*
X0305598Y0091713D01*
X0305598Y0091842D02*
X0318468Y0091842D01*
X0318468Y0091971D02*
X0305598Y0091971D01*
X0305598Y0092100D02*
X0318468Y0092100D01*
X0318468Y0092229D02*
X0305598Y0092229D01*
X0305598Y0092358D02*
X0318468Y0092358D01*
X0318468Y0092487D02*
X0305598Y0092487D01*
X0305598Y0092616D02*
X0318468Y0092616D01*
X0318468Y0092745D02*
X0305598Y0092745D01*
X0305598Y0092874D02*
X0318468Y0092874D01*
X0318468Y0093003D02*
X0305598Y0093003D01*
X0305598Y0093132D02*
X0318468Y0093132D01*
X0318468Y0093261D02*
X0305598Y0093261D01*
X0305598Y0093390D02*
X0318468Y0093390D01*
X0318468Y0093519D02*
X0305598Y0093519D01*
X0305598Y0093648D02*
X0318468Y0093648D01*
X0318468Y0093777D02*
X0305598Y0093777D01*
X0305598Y0093906D02*
X0318468Y0093906D01*
X0318468Y0094035D02*
X0305598Y0094035D01*
X0305598Y0094164D02*
X0318468Y0094164D01*
X0318468Y0094293D02*
X0305598Y0094293D01*
X0305598Y0094422D02*
X0318468Y0094422D01*
X0318468Y0094551D02*
X0305598Y0094551D01*
X0305598Y0094680D02*
X0318468Y0094680D01*
X0318468Y0094809D02*
X0305598Y0094809D01*
X0305598Y0094938D02*
X0318468Y0094938D01*
X0318468Y0095067D02*
X0305598Y0095067D01*
X0305598Y0095196D02*
X0318468Y0095196D01*
X0318468Y0095325D02*
X0305598Y0095325D01*
X0305598Y0095454D02*
X0318468Y0095454D01*
X0318468Y0095583D02*
X0305598Y0095583D01*
X0305598Y0095712D02*
X0318468Y0095712D01*
X0318468Y0095841D02*
X0305598Y0095841D01*
X0305598Y0095970D02*
X0318468Y0095970D01*
X0318468Y0096099D02*
X0305598Y0096099D01*
X0305598Y0096228D02*
X0318468Y0096228D01*
X0318468Y0096357D02*
X0305598Y0096357D01*
X0305598Y0096486D02*
X0318468Y0096486D01*
X0318468Y0096615D02*
X0305598Y0096615D01*
X0305598Y0096744D02*
X0318468Y0096744D01*
X0318468Y0096873D02*
X0305598Y0096873D01*
X0305598Y0097002D02*
X0318468Y0097002D01*
X0318468Y0097131D02*
X0305598Y0097131D01*
X0305598Y0097260D02*
X0318468Y0097260D01*
X0318468Y0097389D02*
X0305598Y0097389D01*
X0305598Y0097518D02*
X0318468Y0097518D01*
X0318468Y0097647D02*
X0305598Y0097647D01*
X0305598Y0097776D02*
X0318468Y0097776D01*
X0318468Y0097905D02*
X0305598Y0097905D01*
X0305598Y0098034D02*
X0318468Y0098034D01*
X0318468Y0098163D02*
X0305598Y0098163D01*
X0305598Y0098292D02*
X0318468Y0098292D01*
X0318468Y0098421D02*
X0305598Y0098421D01*
X0305598Y0098550D02*
X0318468Y0098550D01*
X0318468Y0098679D02*
X0305598Y0098679D01*
X0305598Y0098808D02*
X0318468Y0098808D01*
X0318468Y0098937D02*
X0305598Y0098937D01*
X0305598Y0099066D02*
X0318468Y0099066D01*
X0318468Y0099195D02*
X0305598Y0099195D01*
X0305598Y0099324D02*
X0318468Y0099324D01*
X0318468Y0099453D02*
X0305598Y0099453D01*
X0305598Y0099582D02*
X0318468Y0099582D01*
X0318468Y0099711D02*
X0305598Y0099711D01*
X0305598Y0099840D02*
X0318468Y0099840D01*
X0318468Y0099969D02*
X0305598Y0099969D01*
X0305598Y0100098D02*
X0318468Y0100098D01*
X0318468Y0100227D02*
X0305598Y0100227D01*
X0305598Y0100356D02*
X0318468Y0100356D01*
X0318468Y0100485D02*
X0305598Y0100485D01*
X0305598Y0100614D02*
X0318468Y0100614D01*
X0318468Y0100743D02*
X0305598Y0100743D01*
X0305598Y0100872D02*
X0318468Y0100872D01*
X0318468Y0101001D02*
X0305598Y0101001D01*
X0305598Y0101130D02*
X0318468Y0101130D01*
X0318468Y0101259D02*
X0305598Y0101259D01*
X0305598Y0101388D02*
X0318468Y0101388D01*
X0318468Y0101517D02*
X0305598Y0101517D01*
X0305598Y0101646D02*
X0318468Y0101646D01*
X0318468Y0101775D02*
X0305598Y0101775D01*
X0305598Y0101904D02*
X0318468Y0101904D01*
X0318468Y0102033D02*
X0305598Y0102033D01*
X0305598Y0102162D02*
X0318468Y0102162D01*
X0318468Y0102291D02*
X0305598Y0102291D01*
X0305598Y0102420D02*
X0318468Y0102420D01*
X0318468Y0102549D02*
X0305598Y0102549D01*
X0305598Y0102678D02*
X0318468Y0102678D01*
X0318468Y0102807D02*
X0305598Y0102807D01*
X0305598Y0102936D02*
X0318468Y0102936D01*
X0318468Y0103065D02*
X0305598Y0103065D01*
X0305598Y0103194D02*
X0318468Y0103194D01*
X0318468Y0103323D02*
X0305598Y0103323D01*
X0305598Y0103452D02*
X0318468Y0103452D01*
X0318468Y0103581D02*
X0305598Y0103581D01*
X0305598Y0103710D02*
X0318468Y0103710D01*
X0318468Y0103839D02*
X0305598Y0103839D01*
X0305598Y0103968D02*
X0318468Y0103968D01*
X0318468Y0104097D02*
X0305598Y0104097D01*
X0305598Y0104226D02*
X0318468Y0104226D01*
X0318468Y0104355D02*
X0305598Y0104355D01*
X0305598Y0104484D02*
X0318468Y0104484D01*
X0318468Y0104613D02*
X0305598Y0104613D01*
X0305598Y0104742D02*
X0318468Y0104742D01*
X0318468Y0104871D02*
X0305598Y0104871D01*
X0305598Y0105000D02*
X0318468Y0105000D01*
X0318468Y0105129D02*
X0305598Y0105129D01*
X0305598Y0105258D02*
X0318468Y0105258D01*
X0318468Y0105387D02*
X0305598Y0105387D01*
X0305598Y0105516D02*
X0318468Y0105516D01*
X0318468Y0105645D02*
X0305598Y0105645D01*
X0305598Y0105774D02*
X0318468Y0105774D01*
X0318468Y0105903D02*
X0305598Y0105903D01*
X0305598Y0106032D02*
X0318468Y0106032D01*
X0318468Y0106161D02*
X0305598Y0106161D01*
X0305598Y0106290D02*
X0318468Y0106290D01*
X0318468Y0106419D02*
X0305598Y0106419D01*
X0305598Y0106548D02*
X0318468Y0106548D01*
X0318468Y0106677D02*
X0305598Y0106677D01*
X0305598Y0106806D02*
X0318468Y0106806D01*
X0318468Y0106935D02*
X0305598Y0106935D01*
X0305598Y0107064D02*
X0318468Y0107064D01*
X0318468Y0107193D02*
X0305598Y0107193D01*
X0305598Y0107322D02*
X0318468Y0107322D01*
X0305598Y0125165D02*
X0305598Y0142335D01*
X0318468Y0142335D01*
X0318468Y0125165D01*
X0305598Y0125165D01*
X0305598Y0125294D02*
X0318468Y0125294D01*
X0318468Y0125423D02*
X0305598Y0125423D01*
X0305598Y0125552D02*
X0318468Y0125552D01*
X0318468Y0125681D02*
X0305598Y0125681D01*
X0305598Y0125810D02*
X0318468Y0125810D01*
X0318468Y0125939D02*
X0305598Y0125939D01*
X0305598Y0126068D02*
X0318468Y0126068D01*
X0318468Y0126197D02*
X0305598Y0126197D01*
X0305598Y0126326D02*
X0318468Y0126326D01*
X0318468Y0126455D02*
X0305598Y0126455D01*
X0305598Y0126584D02*
X0318468Y0126584D01*
X0318468Y0126713D02*
X0305598Y0126713D01*
X0305598Y0126842D02*
X0318468Y0126842D01*
X0318468Y0126971D02*
X0305598Y0126971D01*
X0305598Y0127100D02*
X0318468Y0127100D01*
X0318468Y0127229D02*
X0305598Y0127229D01*
X0305598Y0127358D02*
X0318468Y0127358D01*
X0318468Y0127487D02*
X0305598Y0127487D01*
X0305598Y0127616D02*
X0318468Y0127616D01*
X0318468Y0127745D02*
X0305598Y0127745D01*
X0305598Y0127874D02*
X0318468Y0127874D01*
X0318468Y0128003D02*
X0305598Y0128003D01*
X0305598Y0128132D02*
X0318468Y0128132D01*
X0318468Y0128261D02*
X0305598Y0128261D01*
X0305598Y0128390D02*
X0318468Y0128390D01*
X0318468Y0128519D02*
X0305598Y0128519D01*
X0305598Y0128648D02*
X0318468Y0128648D01*
X0318468Y0128777D02*
X0305598Y0128777D01*
X0305598Y0128906D02*
X0318468Y0128906D01*
X0318468Y0129035D02*
X0305598Y0129035D01*
X0305598Y0129164D02*
X0318468Y0129164D01*
X0318468Y0129293D02*
X0305598Y0129293D01*
X0305598Y0129422D02*
X0318468Y0129422D01*
X0318468Y0129551D02*
X0305598Y0129551D01*
X0305598Y0129680D02*
X0318468Y0129680D01*
X0318468Y0129809D02*
X0305598Y0129809D01*
X0305598Y0129938D02*
X0318468Y0129938D01*
X0318468Y0130067D02*
X0305598Y0130067D01*
X0305598Y0130196D02*
X0318468Y0130196D01*
X0318468Y0130325D02*
X0305598Y0130325D01*
X0305598Y0130454D02*
X0318468Y0130454D01*
X0318468Y0130583D02*
X0305598Y0130583D01*
X0305598Y0130712D02*
X0318468Y0130712D01*
X0318468Y0130841D02*
X0305598Y0130841D01*
X0305598Y0130970D02*
X0318468Y0130970D01*
X0318468Y0131099D02*
X0305598Y0131099D01*
X0305598Y0131228D02*
X0318468Y0131228D01*
X0318468Y0131357D02*
X0305598Y0131357D01*
X0305598Y0131486D02*
X0318468Y0131486D01*
X0318468Y0131615D02*
X0305598Y0131615D01*
X0305598Y0131744D02*
X0318468Y0131744D01*
X0318468Y0131873D02*
X0305598Y0131873D01*
X0305598Y0132002D02*
X0318468Y0132002D01*
X0318468Y0132131D02*
X0305598Y0132131D01*
X0305598Y0132260D02*
X0318468Y0132260D01*
X0318468Y0132389D02*
X0305598Y0132389D01*
X0305598Y0132518D02*
X0318468Y0132518D01*
X0318468Y0132647D02*
X0305598Y0132647D01*
X0305598Y0132776D02*
X0318468Y0132776D01*
X0318468Y0132905D02*
X0305598Y0132905D01*
X0305598Y0133034D02*
X0318468Y0133034D01*
X0318468Y0133163D02*
X0305598Y0133163D01*
X0305598Y0133292D02*
X0318468Y0133292D01*
X0318468Y0133421D02*
X0305598Y0133421D01*
X0305598Y0133550D02*
X0318468Y0133550D01*
X0318468Y0133679D02*
X0305598Y0133679D01*
X0305598Y0133808D02*
X0318468Y0133808D01*
X0318468Y0133937D02*
X0305598Y0133937D01*
X0305598Y0134066D02*
X0318468Y0134066D01*
X0318468Y0134195D02*
X0305598Y0134195D01*
X0305598Y0134324D02*
X0318468Y0134324D01*
X0318468Y0134453D02*
X0305598Y0134453D01*
X0305598Y0134582D02*
X0318468Y0134582D01*
X0318468Y0134711D02*
X0305598Y0134711D01*
X0305598Y0134840D02*
X0318468Y0134840D01*
X0318468Y0134969D02*
X0305598Y0134969D01*
X0305598Y0135098D02*
X0318468Y0135098D01*
X0318468Y0135227D02*
X0305598Y0135227D01*
X0305598Y0135356D02*
X0318468Y0135356D01*
X0318468Y0135485D02*
X0305598Y0135485D01*
X0305598Y0135614D02*
X0318468Y0135614D01*
X0318468Y0135743D02*
X0305598Y0135743D01*
X0305598Y0135872D02*
X0318468Y0135872D01*
X0318468Y0136001D02*
X0305598Y0136001D01*
X0305598Y0136130D02*
X0318468Y0136130D01*
X0318468Y0136259D02*
X0305598Y0136259D01*
X0305598Y0136388D02*
X0318468Y0136388D01*
X0318468Y0136517D02*
X0305598Y0136517D01*
X0305598Y0136646D02*
X0318468Y0136646D01*
X0318468Y0136775D02*
X0305598Y0136775D01*
X0305598Y0136904D02*
X0318468Y0136904D01*
X0318468Y0137033D02*
X0305598Y0137033D01*
X0305598Y0137162D02*
X0318468Y0137162D01*
X0318468Y0137291D02*
X0305598Y0137291D01*
X0305598Y0137420D02*
X0318468Y0137420D01*
X0318468Y0137549D02*
X0305598Y0137549D01*
X0305598Y0137678D02*
X0318468Y0137678D01*
X0318468Y0137807D02*
X0305598Y0137807D01*
X0305598Y0137936D02*
X0318468Y0137936D01*
X0318468Y0138065D02*
X0305598Y0138065D01*
X0305598Y0138194D02*
X0318468Y0138194D01*
X0318468Y0138323D02*
X0305598Y0138323D01*
X0305598Y0138452D02*
X0318468Y0138452D01*
X0318468Y0138581D02*
X0305598Y0138581D01*
X0305598Y0138710D02*
X0318468Y0138710D01*
X0318468Y0138839D02*
X0305598Y0138839D01*
X0305598Y0138968D02*
X0318468Y0138968D01*
X0318468Y0139097D02*
X0305598Y0139097D01*
X0305598Y0139226D02*
X0318468Y0139226D01*
X0318468Y0139355D02*
X0305598Y0139355D01*
X0305598Y0139484D02*
X0318468Y0139484D01*
X0318468Y0139613D02*
X0305598Y0139613D01*
X0305598Y0139742D02*
X0318468Y0139742D01*
X0318468Y0139871D02*
X0305598Y0139871D01*
X0305598Y0140000D02*
X0318468Y0140000D01*
X0318468Y0140129D02*
X0305598Y0140129D01*
X0305598Y0140258D02*
X0318468Y0140258D01*
X0318468Y0140387D02*
X0305598Y0140387D01*
X0305598Y0140516D02*
X0318468Y0140516D01*
X0318468Y0140645D02*
X0305598Y0140645D01*
X0305598Y0140774D02*
X0318468Y0140774D01*
X0318468Y0140903D02*
X0305598Y0140903D01*
X0305598Y0141032D02*
X0318468Y0141032D01*
X0318468Y0141161D02*
X0305598Y0141161D01*
X0305598Y0141290D02*
X0318468Y0141290D01*
X0318468Y0141419D02*
X0305598Y0141419D01*
X0305598Y0141548D02*
X0318468Y0141548D01*
X0318468Y0141677D02*
X0305598Y0141677D01*
X0305598Y0141806D02*
X0318468Y0141806D01*
X0318468Y0141935D02*
X0305598Y0141935D01*
X0305598Y0142064D02*
X0318468Y0142064D01*
X0318468Y0142193D02*
X0305598Y0142193D01*
X0305598Y0142322D02*
X0318468Y0142322D01*
X0345598Y0142335D02*
X0345598Y0125165D01*
X0345598Y0142335D02*
X0358468Y0142335D01*
X0358468Y0125165D01*
X0345598Y0125165D01*
X0345598Y0125294D02*
X0358468Y0125294D01*
X0358468Y0125423D02*
X0345598Y0125423D01*
X0345598Y0125552D02*
X0358468Y0125552D01*
X0358468Y0125681D02*
X0345598Y0125681D01*
X0345598Y0125810D02*
X0358468Y0125810D01*
X0358468Y0125939D02*
X0345598Y0125939D01*
X0345598Y0126068D02*
X0358468Y0126068D01*
X0358468Y0126197D02*
X0345598Y0126197D01*
X0345598Y0126326D02*
X0358468Y0126326D01*
X0358468Y0126455D02*
X0345598Y0126455D01*
X0345598Y0126584D02*
X0358468Y0126584D01*
X0358468Y0126713D02*
X0345598Y0126713D01*
X0345598Y0126842D02*
X0358468Y0126842D01*
X0358468Y0126971D02*
X0345598Y0126971D01*
X0345598Y0127100D02*
X0358468Y0127100D01*
X0358468Y0127229D02*
X0345598Y0127229D01*
X0345598Y0127358D02*
X0358468Y0127358D01*
X0358468Y0127487D02*
X0345598Y0127487D01*
X0345598Y0127616D02*
X0358468Y0127616D01*
X0358468Y0127745D02*
X0345598Y0127745D01*
X0345598Y0127874D02*
X0358468Y0127874D01*
X0358468Y0128003D02*
X0345598Y0128003D01*
X0345598Y0128132D02*
X0358468Y0128132D01*
X0358468Y0128261D02*
X0345598Y0128261D01*
X0345598Y0128390D02*
X0358468Y0128390D01*
X0358468Y0128519D02*
X0345598Y0128519D01*
X0345598Y0128648D02*
X0358468Y0128648D01*
X0358468Y0128777D02*
X0345598Y0128777D01*
X0345598Y0128906D02*
X0358468Y0128906D01*
X0358468Y0129035D02*
X0345598Y0129035D01*
X0345598Y0129164D02*
X0358468Y0129164D01*
X0358468Y0129293D02*
X0345598Y0129293D01*
X0345598Y0129422D02*
X0358468Y0129422D01*
X0358468Y0129551D02*
X0345598Y0129551D01*
X0345598Y0129680D02*
X0358468Y0129680D01*
X0358468Y0129809D02*
X0345598Y0129809D01*
X0345598Y0129938D02*
X0358468Y0129938D01*
X0358468Y0130067D02*
X0345598Y0130067D01*
X0345598Y0130196D02*
X0358468Y0130196D01*
X0358468Y0130325D02*
X0345598Y0130325D01*
X0345598Y0130454D02*
X0358468Y0130454D01*
X0358468Y0130583D02*
X0345598Y0130583D01*
X0345598Y0130712D02*
X0358468Y0130712D01*
X0358468Y0130841D02*
X0345598Y0130841D01*
X0345598Y0130970D02*
X0358468Y0130970D01*
X0358468Y0131099D02*
X0345598Y0131099D01*
X0345598Y0131228D02*
X0358468Y0131228D01*
X0358468Y0131357D02*
X0345598Y0131357D01*
X0345598Y0131486D02*
X0358468Y0131486D01*
X0358468Y0131615D02*
X0345598Y0131615D01*
X0345598Y0131744D02*
X0358468Y0131744D01*
X0358468Y0131873D02*
X0345598Y0131873D01*
X0345598Y0132002D02*
X0358468Y0132002D01*
X0358468Y0132131D02*
X0345598Y0132131D01*
X0345598Y0132260D02*
X0358468Y0132260D01*
X0358468Y0132389D02*
X0345598Y0132389D01*
X0345598Y0132518D02*
X0358468Y0132518D01*
X0358468Y0132647D02*
X0345598Y0132647D01*
X0345598Y0132776D02*
X0358468Y0132776D01*
X0358468Y0132905D02*
X0345598Y0132905D01*
X0345598Y0133034D02*
X0358468Y0133034D01*
X0358468Y0133163D02*
X0345598Y0133163D01*
X0345598Y0133292D02*
X0358468Y0133292D01*
X0358468Y0133421D02*
X0345598Y0133421D01*
X0345598Y0133550D02*
X0358468Y0133550D01*
X0358468Y0133679D02*
X0345598Y0133679D01*
X0345598Y0133808D02*
X0358468Y0133808D01*
X0358468Y0133937D02*
X0345598Y0133937D01*
X0345598Y0134066D02*
X0358468Y0134066D01*
X0358468Y0134195D02*
X0345598Y0134195D01*
X0345598Y0134324D02*
X0358468Y0134324D01*
X0358468Y0134453D02*
X0345598Y0134453D01*
X0345598Y0134582D02*
X0358468Y0134582D01*
X0358468Y0134711D02*
X0345598Y0134711D01*
X0345598Y0134840D02*
X0358468Y0134840D01*
X0358468Y0134969D02*
X0345598Y0134969D01*
X0345598Y0135098D02*
X0358468Y0135098D01*
X0358468Y0135227D02*
X0345598Y0135227D01*
X0345598Y0135356D02*
X0358468Y0135356D01*
X0358468Y0135485D02*
X0345598Y0135485D01*
X0345598Y0135614D02*
X0358468Y0135614D01*
X0358468Y0135743D02*
X0345598Y0135743D01*
X0345598Y0135872D02*
X0358468Y0135872D01*
X0358468Y0136001D02*
X0345598Y0136001D01*
X0345598Y0136130D02*
X0358468Y0136130D01*
X0358468Y0136259D02*
X0345598Y0136259D01*
X0345598Y0136388D02*
X0358468Y0136388D01*
X0358468Y0136517D02*
X0345598Y0136517D01*
X0345598Y0136646D02*
X0358468Y0136646D01*
X0358468Y0136775D02*
X0345598Y0136775D01*
X0345598Y0136904D02*
X0358468Y0136904D01*
X0358468Y0137033D02*
X0345598Y0137033D01*
X0345598Y0137162D02*
X0358468Y0137162D01*
X0358468Y0137291D02*
X0345598Y0137291D01*
X0345598Y0137420D02*
X0358468Y0137420D01*
X0358468Y0137549D02*
X0345598Y0137549D01*
X0345598Y0137678D02*
X0358468Y0137678D01*
X0358468Y0137807D02*
X0345598Y0137807D01*
X0345598Y0137936D02*
X0358468Y0137936D01*
X0358468Y0138065D02*
X0345598Y0138065D01*
X0345598Y0138194D02*
X0358468Y0138194D01*
X0358468Y0138323D02*
X0345598Y0138323D01*
X0345598Y0138452D02*
X0358468Y0138452D01*
X0358468Y0138581D02*
X0345598Y0138581D01*
X0345598Y0138710D02*
X0358468Y0138710D01*
X0358468Y0138839D02*
X0345598Y0138839D01*
X0345598Y0138968D02*
X0358468Y0138968D01*
X0358468Y0139097D02*
X0345598Y0139097D01*
X0345598Y0139226D02*
X0358468Y0139226D01*
X0358468Y0139355D02*
X0345598Y0139355D01*
X0345598Y0139484D02*
X0358468Y0139484D01*
X0358468Y0139613D02*
X0345598Y0139613D01*
X0345598Y0139742D02*
X0358468Y0139742D01*
X0358468Y0139871D02*
X0345598Y0139871D01*
X0345598Y0140000D02*
X0358468Y0140000D01*
X0358468Y0140129D02*
X0345598Y0140129D01*
X0345598Y0140258D02*
X0358468Y0140258D01*
X0358468Y0140387D02*
X0345598Y0140387D01*
X0345598Y0140516D02*
X0358468Y0140516D01*
X0358468Y0140645D02*
X0345598Y0140645D01*
X0345598Y0140774D02*
X0358468Y0140774D01*
X0358468Y0140903D02*
X0345598Y0140903D01*
X0345598Y0141032D02*
X0358468Y0141032D01*
X0358468Y0141161D02*
X0345598Y0141161D01*
X0345598Y0141290D02*
X0358468Y0141290D01*
X0358468Y0141419D02*
X0345598Y0141419D01*
X0345598Y0141548D02*
X0358468Y0141548D01*
X0358468Y0141677D02*
X0345598Y0141677D01*
X0345598Y0141806D02*
X0358468Y0141806D01*
X0358468Y0141935D02*
X0345598Y0141935D01*
X0345598Y0142064D02*
X0358468Y0142064D01*
X0358468Y0142193D02*
X0345598Y0142193D01*
X0345598Y0142322D02*
X0358468Y0142322D01*
X0345598Y0107335D02*
X0345598Y0090165D01*
X0345598Y0107335D02*
X0358468Y0107335D01*
X0358468Y0090165D01*
X0345598Y0090165D01*
X0345598Y0090294D02*
X0358468Y0090294D01*
X0358468Y0090423D02*
X0345598Y0090423D01*
X0345598Y0090552D02*
X0358468Y0090552D01*
X0358468Y0090681D02*
X0345598Y0090681D01*
X0345598Y0090810D02*
X0358468Y0090810D01*
X0358468Y0090939D02*
X0345598Y0090939D01*
X0345598Y0091068D02*
X0358468Y0091068D01*
X0358468Y0091197D02*
X0345598Y0091197D01*
X0345598Y0091326D02*
X0358468Y0091326D01*
X0358468Y0091455D02*
X0345598Y0091455D01*
X0345598Y0091584D02*
X0358468Y0091584D01*
X0358468Y0091713D02*
X0345598Y0091713D01*
X0345598Y0091842D02*
X0358468Y0091842D01*
X0358468Y0091971D02*
X0345598Y0091971D01*
X0345598Y0092100D02*
X0358468Y0092100D01*
X0358468Y0092229D02*
X0345598Y0092229D01*
X0345598Y0092358D02*
X0358468Y0092358D01*
X0358468Y0092487D02*
X0345598Y0092487D01*
X0345598Y0092616D02*
X0358468Y0092616D01*
X0358468Y0092745D02*
X0345598Y0092745D01*
X0345598Y0092874D02*
X0358468Y0092874D01*
X0358468Y0093003D02*
X0345598Y0093003D01*
X0345598Y0093132D02*
X0358468Y0093132D01*
X0358468Y0093261D02*
X0345598Y0093261D01*
X0345598Y0093390D02*
X0358468Y0093390D01*
X0358468Y0093519D02*
X0345598Y0093519D01*
X0345598Y0093648D02*
X0358468Y0093648D01*
X0358468Y0093777D02*
X0345598Y0093777D01*
X0345598Y0093906D02*
X0358468Y0093906D01*
X0358468Y0094035D02*
X0345598Y0094035D01*
X0345598Y0094164D02*
X0358468Y0094164D01*
X0358468Y0094293D02*
X0345598Y0094293D01*
X0345598Y0094422D02*
X0358468Y0094422D01*
X0358468Y0094551D02*
X0345598Y0094551D01*
X0345598Y0094680D02*
X0358468Y0094680D01*
X0358468Y0094809D02*
X0345598Y0094809D01*
X0345598Y0094938D02*
X0358468Y0094938D01*
X0358468Y0095067D02*
X0345598Y0095067D01*
X0345598Y0095196D02*
X0358468Y0095196D01*
X0358468Y0095325D02*
X0345598Y0095325D01*
X0345598Y0095454D02*
X0358468Y0095454D01*
X0358468Y0095583D02*
X0345598Y0095583D01*
X0345598Y0095712D02*
X0358468Y0095712D01*
X0358468Y0095841D02*
X0345598Y0095841D01*
X0345598Y0095970D02*
X0358468Y0095970D01*
X0358468Y0096099D02*
X0345598Y0096099D01*
X0345598Y0096228D02*
X0358468Y0096228D01*
X0358468Y0096357D02*
X0345598Y0096357D01*
X0345598Y0096486D02*
X0358468Y0096486D01*
X0358468Y0096615D02*
X0345598Y0096615D01*
X0345598Y0096744D02*
X0358468Y0096744D01*
X0358468Y0096873D02*
X0345598Y0096873D01*
X0345598Y0097002D02*
X0358468Y0097002D01*
X0358468Y0097131D02*
X0345598Y0097131D01*
X0345598Y0097260D02*
X0358468Y0097260D01*
X0358468Y0097389D02*
X0345598Y0097389D01*
X0345598Y0097518D02*
X0358468Y0097518D01*
X0358468Y0097647D02*
X0345598Y0097647D01*
X0345598Y0097776D02*
X0358468Y0097776D01*
X0358468Y0097905D02*
X0345598Y0097905D01*
X0345598Y0098034D02*
X0358468Y0098034D01*
X0358468Y0098163D02*
X0345598Y0098163D01*
X0345598Y0098292D02*
X0358468Y0098292D01*
X0358468Y0098421D02*
X0345598Y0098421D01*
X0345598Y0098550D02*
X0358468Y0098550D01*
X0358468Y0098679D02*
X0345598Y0098679D01*
X0345598Y0098808D02*
X0358468Y0098808D01*
X0358468Y0098937D02*
X0345598Y0098937D01*
X0345598Y0099066D02*
X0358468Y0099066D01*
X0358468Y0099195D02*
X0345598Y0099195D01*
X0345598Y0099324D02*
X0358468Y0099324D01*
X0358468Y0099453D02*
X0345598Y0099453D01*
X0345598Y0099582D02*
X0358468Y0099582D01*
X0358468Y0099711D02*
X0345598Y0099711D01*
X0345598Y0099840D02*
X0358468Y0099840D01*
X0358468Y0099969D02*
X0345598Y0099969D01*
X0345598Y0100098D02*
X0358468Y0100098D01*
X0358468Y0100227D02*
X0345598Y0100227D01*
X0345598Y0100356D02*
X0358468Y0100356D01*
X0358468Y0100485D02*
X0345598Y0100485D01*
X0345598Y0100614D02*
X0358468Y0100614D01*
X0358468Y0100743D02*
X0345598Y0100743D01*
X0345598Y0100872D02*
X0358468Y0100872D01*
X0358468Y0101001D02*
X0345598Y0101001D01*
X0345598Y0101130D02*
X0358468Y0101130D01*
X0358468Y0101259D02*
X0345598Y0101259D01*
X0345598Y0101388D02*
X0358468Y0101388D01*
X0358468Y0101517D02*
X0345598Y0101517D01*
X0345598Y0101646D02*
X0358468Y0101646D01*
X0358468Y0101775D02*
X0345598Y0101775D01*
X0345598Y0101904D02*
X0358468Y0101904D01*
X0358468Y0102033D02*
X0345598Y0102033D01*
X0345598Y0102162D02*
X0358468Y0102162D01*
X0358468Y0102291D02*
X0345598Y0102291D01*
X0345598Y0102420D02*
X0358468Y0102420D01*
X0358468Y0102549D02*
X0345598Y0102549D01*
X0345598Y0102678D02*
X0358468Y0102678D01*
X0358468Y0102807D02*
X0345598Y0102807D01*
X0345598Y0102936D02*
X0358468Y0102936D01*
X0358468Y0103065D02*
X0345598Y0103065D01*
X0345598Y0103194D02*
X0358468Y0103194D01*
X0358468Y0103323D02*
X0345598Y0103323D01*
X0345598Y0103452D02*
X0358468Y0103452D01*
X0358468Y0103581D02*
X0345598Y0103581D01*
X0345598Y0103710D02*
X0358468Y0103710D01*
X0358468Y0103839D02*
X0345598Y0103839D01*
X0345598Y0103968D02*
X0358468Y0103968D01*
X0358468Y0104097D02*
X0345598Y0104097D01*
X0345598Y0104226D02*
X0358468Y0104226D01*
X0358468Y0104355D02*
X0345598Y0104355D01*
X0345598Y0104484D02*
X0358468Y0104484D01*
X0358468Y0104613D02*
X0345598Y0104613D01*
X0345598Y0104742D02*
X0358468Y0104742D01*
X0358468Y0104871D02*
X0345598Y0104871D01*
X0345598Y0105000D02*
X0358468Y0105000D01*
X0358468Y0105129D02*
X0345598Y0105129D01*
X0345598Y0105258D02*
X0358468Y0105258D01*
X0358468Y0105387D02*
X0345598Y0105387D01*
X0345598Y0105516D02*
X0358468Y0105516D01*
X0358468Y0105645D02*
X0345598Y0105645D01*
X0345598Y0105774D02*
X0358468Y0105774D01*
X0358468Y0105903D02*
X0345598Y0105903D01*
X0345598Y0106032D02*
X0358468Y0106032D01*
X0358468Y0106161D02*
X0345598Y0106161D01*
X0345598Y0106290D02*
X0358468Y0106290D01*
X0358468Y0106419D02*
X0345598Y0106419D01*
X0345598Y0106548D02*
X0358468Y0106548D01*
X0358468Y0106677D02*
X0345598Y0106677D01*
X0345598Y0106806D02*
X0358468Y0106806D01*
X0358468Y0106935D02*
X0345598Y0106935D01*
X0345598Y0107064D02*
X0358468Y0107064D01*
X0358468Y0107193D02*
X0345598Y0107193D01*
X0345598Y0107322D02*
X0358468Y0107322D01*
X0345598Y0072335D02*
X0345598Y0055165D01*
X0345598Y0072335D02*
X0358468Y0072335D01*
X0358468Y0055165D01*
X0345598Y0055165D01*
X0345598Y0055294D02*
X0358468Y0055294D01*
X0358468Y0055423D02*
X0345598Y0055423D01*
X0345598Y0055552D02*
X0358468Y0055552D01*
X0358468Y0055681D02*
X0345598Y0055681D01*
X0345598Y0055810D02*
X0358468Y0055810D01*
X0358468Y0055939D02*
X0345598Y0055939D01*
X0345598Y0056068D02*
X0358468Y0056068D01*
X0358468Y0056197D02*
X0345598Y0056197D01*
X0345598Y0056326D02*
X0358468Y0056326D01*
X0358468Y0056455D02*
X0345598Y0056455D01*
X0345598Y0056584D02*
X0358468Y0056584D01*
X0358468Y0056713D02*
X0345598Y0056713D01*
X0345598Y0056842D02*
X0358468Y0056842D01*
X0358468Y0056971D02*
X0345598Y0056971D01*
X0345598Y0057100D02*
X0358468Y0057100D01*
X0358468Y0057229D02*
X0345598Y0057229D01*
X0345598Y0057358D02*
X0358468Y0057358D01*
X0358468Y0057487D02*
X0345598Y0057487D01*
X0345598Y0057616D02*
X0358468Y0057616D01*
X0358468Y0057745D02*
X0345598Y0057745D01*
X0345598Y0057874D02*
X0358468Y0057874D01*
X0358468Y0058003D02*
X0345598Y0058003D01*
X0345598Y0058132D02*
X0358468Y0058132D01*
X0358468Y0058261D02*
X0345598Y0058261D01*
X0345598Y0058390D02*
X0358468Y0058390D01*
X0358468Y0058519D02*
X0345598Y0058519D01*
X0345598Y0058648D02*
X0358468Y0058648D01*
X0358468Y0058777D02*
X0345598Y0058777D01*
X0345598Y0058906D02*
X0358468Y0058906D01*
X0358468Y0059035D02*
X0345598Y0059035D01*
X0345598Y0059164D02*
X0358468Y0059164D01*
X0358468Y0059293D02*
X0345598Y0059293D01*
X0345598Y0059422D02*
X0358468Y0059422D01*
X0358468Y0059551D02*
X0345598Y0059551D01*
X0345598Y0059680D02*
X0358468Y0059680D01*
X0358468Y0059809D02*
X0345598Y0059809D01*
X0345598Y0059938D02*
X0358468Y0059938D01*
X0358468Y0060067D02*
X0345598Y0060067D01*
X0345598Y0060196D02*
X0358468Y0060196D01*
X0358468Y0060325D02*
X0345598Y0060325D01*
X0345598Y0060454D02*
X0358468Y0060454D01*
X0358468Y0060583D02*
X0345598Y0060583D01*
X0345598Y0060712D02*
X0358468Y0060712D01*
X0358468Y0060841D02*
X0345598Y0060841D01*
X0345598Y0060970D02*
X0358468Y0060970D01*
X0358468Y0061099D02*
X0345598Y0061099D01*
X0345598Y0061228D02*
X0358468Y0061228D01*
X0358468Y0061357D02*
X0345598Y0061357D01*
X0345598Y0061486D02*
X0358468Y0061486D01*
X0358468Y0061615D02*
X0345598Y0061615D01*
X0345598Y0061744D02*
X0358468Y0061744D01*
X0358468Y0061873D02*
X0345598Y0061873D01*
X0345598Y0062002D02*
X0358468Y0062002D01*
X0358468Y0062131D02*
X0345598Y0062131D01*
X0345598Y0062260D02*
X0358468Y0062260D01*
X0358468Y0062389D02*
X0345598Y0062389D01*
X0345598Y0062518D02*
X0358468Y0062518D01*
X0358468Y0062647D02*
X0345598Y0062647D01*
X0345598Y0062776D02*
X0358468Y0062776D01*
X0358468Y0062905D02*
X0345598Y0062905D01*
X0345598Y0063034D02*
X0358468Y0063034D01*
X0358468Y0063163D02*
X0345598Y0063163D01*
X0345598Y0063292D02*
X0358468Y0063292D01*
X0358468Y0063421D02*
X0345598Y0063421D01*
X0345598Y0063550D02*
X0358468Y0063550D01*
X0358468Y0063679D02*
X0345598Y0063679D01*
X0345598Y0063808D02*
X0358468Y0063808D01*
X0358468Y0063937D02*
X0345598Y0063937D01*
X0345598Y0064066D02*
X0358468Y0064066D01*
X0358468Y0064195D02*
X0345598Y0064195D01*
X0345598Y0064324D02*
X0358468Y0064324D01*
X0358468Y0064453D02*
X0345598Y0064453D01*
X0345598Y0064582D02*
X0358468Y0064582D01*
X0358468Y0064711D02*
X0345598Y0064711D01*
X0345598Y0064840D02*
X0358468Y0064840D01*
X0358468Y0064969D02*
X0345598Y0064969D01*
X0345598Y0065098D02*
X0358468Y0065098D01*
X0358468Y0065227D02*
X0345598Y0065227D01*
X0345598Y0065356D02*
X0358468Y0065356D01*
X0358468Y0065485D02*
X0345598Y0065485D01*
X0345598Y0065614D02*
X0358468Y0065614D01*
X0358468Y0065743D02*
X0345598Y0065743D01*
X0345598Y0065872D02*
X0358468Y0065872D01*
X0358468Y0066001D02*
X0345598Y0066001D01*
X0345598Y0066130D02*
X0358468Y0066130D01*
X0358468Y0066259D02*
X0345598Y0066259D01*
X0345598Y0066388D02*
X0358468Y0066388D01*
X0358468Y0066517D02*
X0345598Y0066517D01*
X0345598Y0066646D02*
X0358468Y0066646D01*
X0358468Y0066775D02*
X0345598Y0066775D01*
X0345598Y0066904D02*
X0358468Y0066904D01*
X0358468Y0067033D02*
X0345598Y0067033D01*
X0345598Y0067162D02*
X0358468Y0067162D01*
X0358468Y0067291D02*
X0345598Y0067291D01*
X0345598Y0067420D02*
X0358468Y0067420D01*
X0358468Y0067549D02*
X0345598Y0067549D01*
X0345598Y0067678D02*
X0358468Y0067678D01*
X0358468Y0067807D02*
X0345598Y0067807D01*
X0345598Y0067936D02*
X0358468Y0067936D01*
X0358468Y0068065D02*
X0345598Y0068065D01*
X0345598Y0068194D02*
X0358468Y0068194D01*
X0358468Y0068323D02*
X0345598Y0068323D01*
X0345598Y0068452D02*
X0358468Y0068452D01*
X0358468Y0068581D02*
X0345598Y0068581D01*
X0345598Y0068710D02*
X0358468Y0068710D01*
X0358468Y0068839D02*
X0345598Y0068839D01*
X0345598Y0068968D02*
X0358468Y0068968D01*
X0358468Y0069097D02*
X0345598Y0069097D01*
X0345598Y0069226D02*
X0358468Y0069226D01*
X0358468Y0069355D02*
X0345598Y0069355D01*
X0345598Y0069484D02*
X0358468Y0069484D01*
X0358468Y0069613D02*
X0345598Y0069613D01*
X0345598Y0069742D02*
X0358468Y0069742D01*
X0358468Y0069871D02*
X0345598Y0069871D01*
X0345598Y0070000D02*
X0358468Y0070000D01*
X0358468Y0070129D02*
X0345598Y0070129D01*
X0345598Y0070258D02*
X0358468Y0070258D01*
X0358468Y0070387D02*
X0345598Y0070387D01*
X0345598Y0070516D02*
X0358468Y0070516D01*
X0358468Y0070645D02*
X0345598Y0070645D01*
X0345598Y0070774D02*
X0358468Y0070774D01*
X0358468Y0070903D02*
X0345598Y0070903D01*
X0345598Y0071032D02*
X0358468Y0071032D01*
X0358468Y0071161D02*
X0345598Y0071161D01*
X0345598Y0071290D02*
X0358468Y0071290D01*
X0358468Y0071419D02*
X0345598Y0071419D01*
X0345598Y0071548D02*
X0358468Y0071548D01*
X0358468Y0071677D02*
X0345598Y0071677D01*
X0345598Y0071806D02*
X0358468Y0071806D01*
X0358468Y0071935D02*
X0345598Y0071935D01*
X0345598Y0072064D02*
X0358468Y0072064D01*
X0358468Y0072193D02*
X0345598Y0072193D01*
X0345598Y0072322D02*
X0358468Y0072322D01*
D13*
X0373534Y0073750D03*
X0386133Y0073750D03*
X0386133Y0123750D03*
X0373534Y0123750D03*
D14*
X0403833Y0133750D03*
X0403833Y0098750D03*
X0403833Y0063750D03*
X0271333Y0266250D03*
X0246333Y0266250D03*
D15*
X0327568Y0151984D02*
X0327568Y0149454D01*
X0327568Y0151984D02*
X0330098Y0151984D01*
X0330098Y0149454D01*
X0327568Y0149454D01*
X0327568Y0150085D02*
X0330098Y0150085D01*
X0330098Y0150716D02*
X0327568Y0150716D01*
X0327568Y0151347D02*
X0330098Y0151347D01*
X0330098Y0151978D02*
X0327568Y0151978D01*
X0327568Y0148046D02*
X0327568Y0145516D01*
X0327568Y0148046D02*
X0330098Y0148046D01*
X0330098Y0145516D01*
X0327568Y0145516D01*
X0327568Y0146147D02*
X0330098Y0146147D01*
X0330098Y0146778D02*
X0327568Y0146778D01*
X0327568Y0147409D02*
X0330098Y0147409D01*
X0330098Y0148040D02*
X0327568Y0148040D01*
X0332568Y0148046D02*
X0332568Y0145516D01*
X0332568Y0148046D02*
X0335098Y0148046D01*
X0335098Y0145516D01*
X0332568Y0145516D01*
X0332568Y0146147D02*
X0335098Y0146147D01*
X0335098Y0146778D02*
X0332568Y0146778D01*
X0332568Y0147409D02*
X0335098Y0147409D01*
X0335098Y0148040D02*
X0332568Y0148040D01*
X0332568Y0149454D02*
X0332568Y0151984D01*
X0335098Y0151984D01*
X0335098Y0149454D01*
X0332568Y0149454D01*
X0332568Y0150085D02*
X0335098Y0150085D01*
X0335098Y0150716D02*
X0332568Y0150716D01*
X0332568Y0151347D02*
X0335098Y0151347D01*
X0335098Y0151978D02*
X0332568Y0151978D01*
X0337568Y0151984D02*
X0337568Y0149454D01*
X0337568Y0151984D02*
X0340098Y0151984D01*
X0340098Y0149454D01*
X0337568Y0149454D01*
X0337568Y0150085D02*
X0340098Y0150085D01*
X0340098Y0150716D02*
X0337568Y0150716D01*
X0337568Y0151347D02*
X0340098Y0151347D01*
X0340098Y0151978D02*
X0337568Y0151978D01*
X0337568Y0148046D02*
X0337568Y0145516D01*
X0337568Y0148046D02*
X0340098Y0148046D01*
X0340098Y0145516D01*
X0337568Y0145516D01*
X0337568Y0146147D02*
X0340098Y0146147D01*
X0340098Y0146778D02*
X0337568Y0146778D01*
X0337568Y0147409D02*
X0340098Y0147409D01*
X0340098Y0148040D02*
X0337568Y0148040D01*
X0337568Y0119484D02*
X0337568Y0116954D01*
X0337568Y0119484D02*
X0340098Y0119484D01*
X0340098Y0116954D01*
X0337568Y0116954D01*
X0337568Y0117585D02*
X0340098Y0117585D01*
X0340098Y0118216D02*
X0337568Y0118216D01*
X0337568Y0118847D02*
X0340098Y0118847D01*
X0340098Y0119478D02*
X0337568Y0119478D01*
X0332568Y0119484D02*
X0332568Y0116954D01*
X0332568Y0119484D02*
X0335098Y0119484D01*
X0335098Y0116954D01*
X0332568Y0116954D01*
X0332568Y0117585D02*
X0335098Y0117585D01*
X0335098Y0118216D02*
X0332568Y0118216D01*
X0332568Y0118847D02*
X0335098Y0118847D01*
X0335098Y0119478D02*
X0332568Y0119478D01*
X0327568Y0119484D02*
X0327568Y0116954D01*
X0327568Y0119484D02*
X0330098Y0119484D01*
X0330098Y0116954D01*
X0327568Y0116954D01*
X0327568Y0117585D02*
X0330098Y0117585D01*
X0330098Y0118216D02*
X0327568Y0118216D01*
X0327568Y0118847D02*
X0330098Y0118847D01*
X0330098Y0119478D02*
X0327568Y0119478D01*
X0327568Y0115546D02*
X0327568Y0113016D01*
X0327568Y0115546D02*
X0330098Y0115546D01*
X0330098Y0113016D01*
X0327568Y0113016D01*
X0327568Y0113647D02*
X0330098Y0113647D01*
X0330098Y0114278D02*
X0327568Y0114278D01*
X0327568Y0114909D02*
X0330098Y0114909D01*
X0330098Y0115540D02*
X0327568Y0115540D01*
X0332568Y0115546D02*
X0332568Y0113016D01*
X0332568Y0115546D02*
X0335098Y0115546D01*
X0335098Y0113016D01*
X0332568Y0113016D01*
X0332568Y0113647D02*
X0335098Y0113647D01*
X0335098Y0114278D02*
X0332568Y0114278D01*
X0332568Y0114909D02*
X0335098Y0114909D01*
X0335098Y0115540D02*
X0332568Y0115540D01*
X0337568Y0115546D02*
X0337568Y0113016D01*
X0337568Y0115546D02*
X0340098Y0115546D01*
X0340098Y0113016D01*
X0337568Y0113016D01*
X0337568Y0113647D02*
X0340098Y0113647D01*
X0340098Y0114278D02*
X0337568Y0114278D01*
X0337568Y0114909D02*
X0340098Y0114909D01*
X0340098Y0115540D02*
X0337568Y0115540D01*
X0337568Y0084484D02*
X0337568Y0081954D01*
X0337568Y0084484D02*
X0340098Y0084484D01*
X0340098Y0081954D01*
X0337568Y0081954D01*
X0337568Y0082585D02*
X0340098Y0082585D01*
X0340098Y0083216D02*
X0337568Y0083216D01*
X0337568Y0083847D02*
X0340098Y0083847D01*
X0340098Y0084478D02*
X0337568Y0084478D01*
X0332568Y0084484D02*
X0332568Y0081954D01*
X0332568Y0084484D02*
X0335098Y0084484D01*
X0335098Y0081954D01*
X0332568Y0081954D01*
X0332568Y0082585D02*
X0335098Y0082585D01*
X0335098Y0083216D02*
X0332568Y0083216D01*
X0332568Y0083847D02*
X0335098Y0083847D01*
X0335098Y0084478D02*
X0332568Y0084478D01*
X0327568Y0084484D02*
X0327568Y0081954D01*
X0327568Y0084484D02*
X0330098Y0084484D01*
X0330098Y0081954D01*
X0327568Y0081954D01*
X0327568Y0082585D02*
X0330098Y0082585D01*
X0330098Y0083216D02*
X0327568Y0083216D01*
X0327568Y0083847D02*
X0330098Y0083847D01*
X0330098Y0084478D02*
X0327568Y0084478D01*
X0327568Y0080546D02*
X0327568Y0078016D01*
X0327568Y0080546D02*
X0330098Y0080546D01*
X0330098Y0078016D01*
X0327568Y0078016D01*
X0327568Y0078647D02*
X0330098Y0078647D01*
X0330098Y0079278D02*
X0327568Y0079278D01*
X0327568Y0079909D02*
X0330098Y0079909D01*
X0330098Y0080540D02*
X0327568Y0080540D01*
X0332568Y0080546D02*
X0332568Y0078016D01*
X0332568Y0080546D02*
X0335098Y0080546D01*
X0335098Y0078016D01*
X0332568Y0078016D01*
X0332568Y0078647D02*
X0335098Y0078647D01*
X0335098Y0079278D02*
X0332568Y0079278D01*
X0332568Y0079909D02*
X0335098Y0079909D01*
X0335098Y0080540D02*
X0332568Y0080540D01*
X0337568Y0080546D02*
X0337568Y0078016D01*
X0337568Y0080546D02*
X0340098Y0080546D01*
X0340098Y0078016D01*
X0337568Y0078016D01*
X0337568Y0078647D02*
X0340098Y0078647D01*
X0340098Y0079278D02*
X0337568Y0079278D01*
X0337568Y0079909D02*
X0340098Y0079909D01*
X0340098Y0080540D02*
X0337568Y0080540D01*
X0337512Y0050409D02*
X0334982Y0050409D01*
X0337512Y0050409D02*
X0337512Y0047091D01*
X0334982Y0047091D01*
X0334982Y0050409D01*
X0334982Y0047722D02*
X0337512Y0047722D01*
X0337512Y0048353D02*
X0334982Y0048353D01*
X0334982Y0048984D02*
X0337512Y0048984D01*
X0337512Y0049615D02*
X0334982Y0049615D01*
X0334982Y0050246D02*
X0337512Y0050246D01*
X0331685Y0050409D02*
X0329155Y0050409D01*
X0331685Y0050409D02*
X0331685Y0047091D01*
X0329155Y0047091D01*
X0329155Y0050409D01*
X0329155Y0047722D02*
X0331685Y0047722D01*
X0331685Y0048353D02*
X0329155Y0048353D01*
X0329155Y0048984D02*
X0331685Y0048984D01*
X0331685Y0049615D02*
X0329155Y0049615D01*
X0329155Y0050246D02*
X0331685Y0050246D01*
X0332185Y0037409D02*
X0329655Y0037409D01*
X0332185Y0037409D02*
X0332185Y0034091D01*
X0329655Y0034091D01*
X0329655Y0037409D01*
X0329655Y0034722D02*
X0332185Y0034722D01*
X0332185Y0035353D02*
X0329655Y0035353D01*
X0329655Y0035984D02*
X0332185Y0035984D01*
X0332185Y0036615D02*
X0329655Y0036615D01*
X0329655Y0037246D02*
X0332185Y0037246D01*
X0335482Y0037409D02*
X0338012Y0037409D01*
X0338012Y0034091D01*
X0335482Y0034091D01*
X0335482Y0037409D01*
X0335482Y0034722D02*
X0338012Y0034722D01*
X0338012Y0035353D02*
X0335482Y0035353D01*
X0335482Y0035984D02*
X0338012Y0035984D01*
X0338012Y0036615D02*
X0335482Y0036615D01*
X0335482Y0037246D02*
X0338012Y0037246D01*
X0291598Y0036954D02*
X0291598Y0039484D01*
X0291598Y0036954D02*
X0289068Y0036954D01*
X0289068Y0039484D01*
X0291598Y0039484D01*
X0291598Y0037585D02*
X0289068Y0037585D01*
X0289068Y0038216D02*
X0291598Y0038216D01*
X0291598Y0038847D02*
X0289068Y0038847D01*
X0289068Y0039478D02*
X0291598Y0039478D01*
X0291598Y0035546D02*
X0291598Y0033016D01*
X0289068Y0033016D01*
X0289068Y0035546D01*
X0291598Y0035546D01*
X0291598Y0033647D02*
X0289068Y0033647D01*
X0289068Y0034278D02*
X0291598Y0034278D01*
X0291598Y0034909D02*
X0289068Y0034909D01*
X0289068Y0035540D02*
X0291598Y0035540D01*
X0282568Y0035546D02*
X0282568Y0033016D01*
X0282568Y0035546D02*
X0285098Y0035546D01*
X0285098Y0033016D01*
X0282568Y0033016D01*
X0282568Y0033647D02*
X0285098Y0033647D01*
X0285098Y0034278D02*
X0282568Y0034278D01*
X0282568Y0034909D02*
X0285098Y0034909D01*
X0285098Y0035540D02*
X0282568Y0035540D01*
X0282568Y0036954D02*
X0282568Y0039484D01*
X0285098Y0039484D01*
X0285098Y0036954D01*
X0282568Y0036954D01*
X0282568Y0037585D02*
X0285098Y0037585D01*
X0285098Y0038216D02*
X0282568Y0038216D01*
X0282568Y0038847D02*
X0285098Y0038847D01*
X0285098Y0039478D02*
X0282568Y0039478D01*
X0252674Y0051572D02*
X0252674Y0054102D01*
X0255992Y0054102D01*
X0255992Y0051572D01*
X0252674Y0051572D01*
X0252674Y0052203D02*
X0255992Y0052203D01*
X0255992Y0052834D02*
X0252674Y0052834D01*
X0252674Y0053465D02*
X0255992Y0053465D01*
X0255992Y0054096D02*
X0252674Y0054096D01*
X0252674Y0057398D02*
X0252674Y0059928D01*
X0255992Y0059928D01*
X0255992Y0057398D01*
X0252674Y0057398D01*
X0252674Y0058029D02*
X0255992Y0058029D01*
X0255992Y0058660D02*
X0252674Y0058660D01*
X0252674Y0059291D02*
X0255992Y0059291D01*
X0255992Y0059922D02*
X0252674Y0059922D01*
X0252598Y0039484D02*
X0252598Y0036954D01*
X0250068Y0036954D01*
X0250068Y0039484D01*
X0252598Y0039484D01*
X0252598Y0037585D02*
X0250068Y0037585D01*
X0250068Y0038216D02*
X0252598Y0038216D01*
X0252598Y0038847D02*
X0250068Y0038847D01*
X0250068Y0039478D02*
X0252598Y0039478D01*
X0252598Y0035546D02*
X0252598Y0033016D01*
X0250068Y0033016D01*
X0250068Y0035546D01*
X0252598Y0035546D01*
X0252598Y0033647D02*
X0250068Y0033647D01*
X0250068Y0034278D02*
X0252598Y0034278D01*
X0252598Y0034909D02*
X0250068Y0034909D01*
X0250068Y0035540D02*
X0252598Y0035540D01*
X0213012Y0082909D02*
X0210482Y0082909D01*
X0213012Y0082909D02*
X0213012Y0079591D01*
X0210482Y0079591D01*
X0210482Y0082909D01*
X0210482Y0080222D02*
X0213012Y0080222D01*
X0213012Y0080853D02*
X0210482Y0080853D01*
X0210482Y0081484D02*
X0213012Y0081484D01*
X0213012Y0082115D02*
X0210482Y0082115D01*
X0210482Y0082746D02*
X0213012Y0082746D01*
X0207185Y0082909D02*
X0204655Y0082909D01*
X0207185Y0082909D02*
X0207185Y0079591D01*
X0204655Y0079591D01*
X0204655Y0082909D01*
X0204655Y0080222D02*
X0207185Y0080222D01*
X0207185Y0080853D02*
X0204655Y0080853D01*
X0204655Y0081484D02*
X0207185Y0081484D01*
X0207185Y0082115D02*
X0204655Y0082115D01*
X0204655Y0082746D02*
X0207185Y0082746D01*
X0203012Y0089591D02*
X0200482Y0089591D01*
X0200482Y0092909D01*
X0203012Y0092909D01*
X0203012Y0089591D01*
X0203012Y0090222D02*
X0200482Y0090222D01*
X0200482Y0090853D02*
X0203012Y0090853D01*
X0203012Y0091484D02*
X0200482Y0091484D01*
X0200482Y0092115D02*
X0203012Y0092115D01*
X0203012Y0092746D02*
X0200482Y0092746D01*
X0197185Y0089591D02*
X0194655Y0089591D01*
X0194655Y0092909D01*
X0197185Y0092909D01*
X0197185Y0089591D01*
X0197185Y0090222D02*
X0194655Y0090222D01*
X0194655Y0090853D02*
X0197185Y0090853D01*
X0197185Y0091484D02*
X0194655Y0091484D01*
X0194655Y0092115D02*
X0197185Y0092115D01*
X0197185Y0092746D02*
X0194655Y0092746D01*
X0194655Y0100409D02*
X0197185Y0100409D01*
X0197185Y0097091D01*
X0194655Y0097091D01*
X0194655Y0100409D01*
X0194655Y0097722D02*
X0197185Y0097722D01*
X0197185Y0098353D02*
X0194655Y0098353D01*
X0194655Y0098984D02*
X0197185Y0098984D01*
X0197185Y0099615D02*
X0194655Y0099615D01*
X0194655Y0100246D02*
X0197185Y0100246D01*
X0200482Y0100409D02*
X0203012Y0100409D01*
X0203012Y0097091D01*
X0200482Y0097091D01*
X0200482Y0100409D01*
X0200482Y0097722D02*
X0203012Y0097722D01*
X0203012Y0098353D02*
X0200482Y0098353D01*
X0200482Y0098984D02*
X0203012Y0098984D01*
X0203012Y0099615D02*
X0200482Y0099615D01*
X0200482Y0100246D02*
X0203012Y0100246D01*
X0197067Y0053985D02*
X0194537Y0053985D01*
X0194537Y0056515D01*
X0197067Y0056515D01*
X0197067Y0053985D01*
X0197067Y0054616D02*
X0194537Y0054616D01*
X0194537Y0055247D02*
X0197067Y0055247D01*
X0197067Y0055878D02*
X0194537Y0055878D01*
X0194537Y0056509D02*
X0197067Y0056509D01*
X0193130Y0053985D02*
X0190600Y0053985D01*
X0190600Y0056515D01*
X0193130Y0056515D01*
X0193130Y0053985D01*
X0193130Y0054616D02*
X0190600Y0054616D01*
X0190600Y0055247D02*
X0193130Y0055247D01*
X0193130Y0055878D02*
X0190600Y0055878D01*
X0190600Y0056509D02*
X0193130Y0056509D01*
X0189067Y0053985D02*
X0186537Y0053985D01*
X0186537Y0056515D01*
X0189067Y0056515D01*
X0189067Y0053985D01*
X0189067Y0054616D02*
X0186537Y0054616D01*
X0186537Y0055247D02*
X0189067Y0055247D01*
X0189067Y0055878D02*
X0186537Y0055878D01*
X0186537Y0056509D02*
X0189067Y0056509D01*
X0185130Y0053985D02*
X0182600Y0053985D01*
X0182600Y0056515D01*
X0185130Y0056515D01*
X0185130Y0053985D01*
X0185130Y0054616D02*
X0182600Y0054616D01*
X0182600Y0055247D02*
X0185130Y0055247D01*
X0185130Y0055878D02*
X0182600Y0055878D01*
X0182600Y0056509D02*
X0185130Y0056509D01*
X0178567Y0053985D02*
X0176037Y0053985D01*
X0176037Y0056515D01*
X0178567Y0056515D01*
X0178567Y0053985D01*
X0178567Y0054616D02*
X0176037Y0054616D01*
X0176037Y0055247D02*
X0178567Y0055247D01*
X0178567Y0055878D02*
X0176037Y0055878D01*
X0176037Y0056509D02*
X0178567Y0056509D01*
X0174630Y0053985D02*
X0172100Y0053985D01*
X0172100Y0056515D01*
X0174630Y0056515D01*
X0174630Y0053985D01*
X0174630Y0054616D02*
X0172100Y0054616D01*
X0172100Y0055247D02*
X0174630Y0055247D01*
X0174630Y0055878D02*
X0172100Y0055878D01*
X0172100Y0056509D02*
X0174630Y0056509D01*
D16*
X0222633Y0066250D03*
X0222633Y0071250D03*
X0222633Y0076250D03*
X0222633Y0081250D03*
X0222633Y0086250D03*
X0222633Y0091250D03*
X0222633Y0096250D03*
X0222633Y0101250D03*
X0222633Y0106250D03*
X0222633Y0111250D03*
X0222633Y0116250D03*
X0222633Y0121250D03*
X0260034Y0121250D03*
X0260034Y0116250D03*
X0260034Y0111250D03*
X0260034Y0106250D03*
X0260034Y0101250D03*
X0260034Y0096250D03*
X0260034Y0091250D03*
X0260034Y0086250D03*
X0260034Y0081250D03*
X0260034Y0076250D03*
X0260034Y0071250D03*
X0260034Y0066250D03*
D17*
X0303833Y0173750D03*
X0303833Y0201250D03*
D18*
X0403833Y0201250D03*
X0403833Y0173750D03*
D19*
X0279054Y0099424D02*
X0273612Y0099424D01*
X0279054Y0099424D02*
X0279054Y0095162D01*
X0273612Y0095162D01*
X0273612Y0099424D01*
X0273612Y0096227D02*
X0279054Y0096227D01*
X0279054Y0097292D02*
X0273612Y0097292D01*
X0273612Y0098357D02*
X0279054Y0098357D01*
X0279054Y0099422D02*
X0273612Y0099422D01*
X0273612Y0092338D02*
X0279054Y0092338D01*
X0279054Y0088076D01*
X0273612Y0088076D01*
X0273612Y0092338D01*
X0273612Y0089141D02*
X0279054Y0089141D01*
X0279054Y0090206D02*
X0273612Y0090206D01*
X0273612Y0091271D02*
X0279054Y0091271D01*
X0279054Y0092336D02*
X0273612Y0092336D01*
X0273612Y0076924D02*
X0279054Y0076924D01*
X0279054Y0072662D01*
X0273612Y0072662D01*
X0273612Y0076924D01*
X0273612Y0073727D02*
X0279054Y0073727D01*
X0279054Y0074792D02*
X0273612Y0074792D01*
X0273612Y0075857D02*
X0279054Y0075857D01*
X0279054Y0076922D02*
X0273612Y0076922D01*
X0273612Y0069838D02*
X0279054Y0069838D01*
X0279054Y0065576D01*
X0273612Y0065576D01*
X0273612Y0069838D01*
X0273612Y0066641D02*
X0279054Y0066641D01*
X0279054Y0067706D02*
X0273612Y0067706D01*
X0273612Y0068771D02*
X0279054Y0068771D01*
X0279054Y0069836D02*
X0273612Y0069836D01*
X0244054Y0040162D02*
X0238612Y0040162D01*
X0238612Y0044424D01*
X0244054Y0044424D01*
X0244054Y0040162D01*
X0244054Y0041227D02*
X0238612Y0041227D01*
X0238612Y0042292D02*
X0244054Y0042292D01*
X0244054Y0043357D02*
X0238612Y0043357D01*
X0238612Y0044422D02*
X0244054Y0044422D01*
X0244054Y0033076D02*
X0238612Y0033076D01*
X0238612Y0037338D01*
X0244054Y0037338D01*
X0244054Y0033076D01*
X0244054Y0034141D02*
X0238612Y0034141D01*
X0238612Y0035206D02*
X0244054Y0035206D01*
X0244054Y0036271D02*
X0238612Y0036271D01*
X0238612Y0037336D02*
X0244054Y0037336D01*
X0244508Y0128529D02*
X0244508Y0133971D01*
X0244508Y0128529D02*
X0240246Y0128529D01*
X0240246Y0133971D01*
X0244508Y0133971D01*
X0244508Y0129594D02*
X0240246Y0129594D01*
X0240246Y0130659D02*
X0244508Y0130659D01*
X0244508Y0131724D02*
X0240246Y0131724D01*
X0240246Y0132789D02*
X0244508Y0132789D01*
X0244508Y0133854D02*
X0240246Y0133854D01*
X0237421Y0133971D02*
X0237421Y0128529D01*
X0233159Y0128529D01*
X0233159Y0133971D01*
X0237421Y0133971D01*
X0237421Y0129594D02*
X0233159Y0129594D01*
X0233159Y0130659D02*
X0237421Y0130659D01*
X0237421Y0131724D02*
X0233159Y0131724D01*
X0233159Y0132789D02*
X0237421Y0132789D01*
X0237421Y0133854D02*
X0233159Y0133854D01*
D20*
X0231333Y0140285D03*
X0243833Y0140285D03*
X0256333Y0140285D03*
X0256333Y0157215D03*
X0243833Y0157215D03*
X0231333Y0157215D03*
X0286333Y0124715D03*
X0286333Y0107785D03*
X0286333Y0077215D03*
X0286333Y0060285D03*
D21*
X0305369Y0046250D03*
X0322298Y0046250D03*
X0345369Y0046250D03*
X0362298Y0046250D03*
X0362298Y0081250D03*
X0345369Y0081250D03*
X0322298Y0081250D03*
X0305369Y0081250D03*
X0305369Y0116250D03*
X0322298Y0116250D03*
X0345369Y0116250D03*
X0362298Y0116250D03*
X0277298Y0131250D03*
X0260369Y0131250D03*
D22*
X0261333Y0056486D03*
X0266333Y0056486D03*
X0271333Y0056486D03*
X0276333Y0056486D03*
X0276333Y0036014D03*
X0271333Y0036014D03*
X0266333Y0036014D03*
X0261333Y0036014D03*
D23*
X0081333Y0086250D03*
X0071333Y0086250D03*
X0061333Y0086250D03*
X0151333Y0276250D03*
X0161333Y0276250D03*
X0171333Y0276250D03*
D24*
X0171333Y0266250D03*
X0161333Y0266250D03*
X0151333Y0266250D03*
X0151333Y0256250D03*
X0151333Y0246250D03*
X0151333Y0236250D03*
X0161333Y0236250D03*
X0161333Y0246250D03*
X0161333Y0256250D03*
X0171333Y0256250D03*
X0171333Y0246250D03*
X0171333Y0236250D03*
X0171333Y0226250D03*
X0161333Y0226250D03*
X0151333Y0226250D03*
X0151333Y0216250D03*
X0161333Y0216250D03*
X0171333Y0216250D03*
X0171333Y0206250D03*
X0161333Y0206250D03*
X0151333Y0206250D03*
X0151333Y0196250D03*
X0161333Y0196250D03*
X0171333Y0196250D03*
X0171333Y0186250D03*
X0161333Y0186250D03*
X0151333Y0186250D03*
X0151333Y0176250D03*
X0151333Y0166250D03*
X0161333Y0166250D03*
X0161333Y0176250D03*
X0171333Y0176250D03*
X0171333Y0166250D03*
X0171333Y0156250D03*
X0161333Y0156250D03*
X0151333Y0156250D03*
X0151333Y0146250D03*
X0161333Y0146250D03*
X0171333Y0146250D03*
X0171333Y0136250D03*
X0161333Y0136250D03*
X0151333Y0136250D03*
X0151333Y0126250D03*
X0151333Y0116250D03*
X0161333Y0116250D03*
X0161333Y0126250D03*
X0171333Y0126250D03*
X0171333Y0116250D03*
X0171333Y0106250D03*
X0161333Y0106250D03*
X0151333Y0106250D03*
X0151333Y0096250D03*
X0161333Y0096250D03*
X0171333Y0096250D03*
X0171333Y0086250D03*
X0161333Y0086250D03*
X0151333Y0086250D03*
X0081333Y0096250D03*
X0071333Y0096250D03*
X0061333Y0096250D03*
X0061333Y0106250D03*
X0071333Y0106250D03*
X0081333Y0106250D03*
X0081333Y0116250D03*
X0071333Y0116250D03*
X0061333Y0116250D03*
X0061333Y0126250D03*
X0061333Y0136250D03*
X0071333Y0136250D03*
X0071333Y0126250D03*
X0081333Y0126250D03*
X0081333Y0136250D03*
X0081333Y0146250D03*
X0071333Y0146250D03*
X0061333Y0146250D03*
X0061333Y0156250D03*
X0071333Y0156250D03*
X0081333Y0156250D03*
X0081333Y0166250D03*
X0071333Y0166250D03*
X0061333Y0166250D03*
X0061333Y0176250D03*
X0061333Y0186250D03*
X0071333Y0186250D03*
X0071333Y0176250D03*
X0081333Y0176250D03*
X0081333Y0186250D03*
X0081333Y0196250D03*
X0071333Y0196250D03*
X0061333Y0196250D03*
X0061333Y0206250D03*
X0071333Y0206250D03*
X0081333Y0206250D03*
X0081333Y0216250D03*
X0071333Y0216250D03*
X0061333Y0216250D03*
X0061333Y0226250D03*
X0071333Y0226250D03*
X0081333Y0226250D03*
X0081333Y0236250D03*
X0071333Y0236250D03*
X0061333Y0236250D03*
X0061333Y0246250D03*
X0061333Y0256250D03*
X0071333Y0256250D03*
X0071333Y0246250D03*
X0081333Y0246250D03*
X0081333Y0256250D03*
X0081333Y0266250D03*
X0071333Y0266250D03*
X0061333Y0266250D03*
X0061333Y0276250D03*
X0071333Y0276250D03*
X0081333Y0276250D03*
X0236333Y0248750D03*
X0236333Y0238750D03*
X0248833Y0166250D03*
D25*
X0258833Y0208500D03*
X0258833Y0214000D03*
D26*
X0282333Y0215350D03*
X0282333Y0227150D03*
D27*
X0236333Y0212300D03*
X0236333Y0205200D03*
D28*
X0250283Y0226250D03*
D29*
X0239533Y0226250D03*
D30*
X0248833Y0213250D03*
X0248833Y0204250D03*
D31*
X0269683Y0201250D03*
X0272983Y0201250D03*
X0277183Y0201250D03*
X0280483Y0201250D03*
D32*
X0272574Y0216650D03*
X0268833Y0216650D03*
X0265093Y0216650D03*
X0265093Y0225850D03*
X0268833Y0225850D03*
X0272574Y0225850D03*
D33*
X0266253Y0194330D02*
X0256413Y0194330D01*
X0256413Y0198170D01*
X0266253Y0198170D01*
X0266253Y0194330D01*
X0266253Y0195289D02*
X0256413Y0195289D01*
X0256413Y0196248D02*
X0266253Y0196248D01*
X0266253Y0197207D02*
X0256413Y0197207D01*
X0256413Y0198166D02*
X0266253Y0198166D01*
X0280753Y0163670D02*
X0280753Y0153830D01*
X0276913Y0153830D01*
X0276913Y0163670D01*
X0280753Y0163670D01*
X0280753Y0154789D02*
X0276913Y0154789D01*
X0276913Y0155748D02*
X0280753Y0155748D01*
X0280753Y0156707D02*
X0276913Y0156707D01*
X0276913Y0157666D02*
X0280753Y0157666D01*
X0280753Y0158625D02*
X0276913Y0158625D01*
X0276913Y0159584D02*
X0280753Y0159584D01*
X0280753Y0160543D02*
X0276913Y0160543D01*
X0276913Y0161502D02*
X0280753Y0161502D01*
X0280753Y0162461D02*
X0276913Y0162461D01*
X0276913Y0163420D02*
X0280753Y0163420D01*
X0325253Y0157670D02*
X0325253Y0147830D01*
X0321413Y0147830D01*
X0321413Y0157670D01*
X0325253Y0157670D01*
X0325253Y0148789D02*
X0321413Y0148789D01*
X0321413Y0149748D02*
X0325253Y0149748D01*
X0325253Y0150707D02*
X0321413Y0150707D01*
X0321413Y0151666D02*
X0325253Y0151666D01*
X0325253Y0152625D02*
X0321413Y0152625D01*
X0321413Y0153584D02*
X0325253Y0153584D01*
X0325253Y0154543D02*
X0321413Y0154543D01*
X0321413Y0155502D02*
X0325253Y0155502D01*
X0325253Y0156461D02*
X0321413Y0156461D01*
X0321413Y0157420D02*
X0325253Y0157420D01*
X0348253Y0158670D02*
X0348253Y0148830D01*
X0344413Y0148830D01*
X0344413Y0158670D01*
X0348253Y0158670D01*
X0348253Y0149789D02*
X0344413Y0149789D01*
X0344413Y0150748D02*
X0348253Y0150748D01*
X0348253Y0151707D02*
X0344413Y0151707D01*
X0344413Y0152666D02*
X0348253Y0152666D01*
X0348253Y0153625D02*
X0344413Y0153625D01*
X0344413Y0154584D02*
X0348253Y0154584D01*
X0348253Y0155543D02*
X0344413Y0155543D01*
X0344413Y0156502D02*
X0348253Y0156502D01*
X0348253Y0157461D02*
X0344413Y0157461D01*
X0344413Y0158420D02*
X0348253Y0158420D01*
X0391413Y0141830D02*
X0401253Y0141830D01*
X0391413Y0141830D02*
X0391413Y0145670D01*
X0401253Y0145670D01*
X0401253Y0141830D01*
X0401253Y0142789D02*
X0391413Y0142789D01*
X0391413Y0143748D02*
X0401253Y0143748D01*
X0401253Y0144707D02*
X0391413Y0144707D01*
X0391413Y0145666D02*
X0401253Y0145666D01*
X0401253Y0106830D02*
X0391413Y0106830D01*
X0391413Y0110670D01*
X0401253Y0110670D01*
X0401253Y0106830D01*
X0401253Y0107789D02*
X0391413Y0107789D01*
X0391413Y0108748D02*
X0401253Y0108748D01*
X0401253Y0109707D02*
X0391413Y0109707D01*
X0391413Y0110666D02*
X0401253Y0110666D01*
X0401253Y0071830D02*
X0391413Y0071830D01*
X0391413Y0075670D01*
X0401253Y0075670D01*
X0401253Y0071830D01*
X0401253Y0072789D02*
X0391413Y0072789D01*
X0391413Y0073748D02*
X0401253Y0073748D01*
X0401253Y0074707D02*
X0391413Y0074707D01*
X0391413Y0075666D02*
X0401253Y0075666D01*
X0390753Y0051170D02*
X0390753Y0041330D01*
X0386913Y0041330D01*
X0386913Y0051170D01*
X0390753Y0051170D01*
X0390753Y0042289D02*
X0386913Y0042289D01*
X0386913Y0043248D02*
X0390753Y0043248D01*
X0390753Y0044207D02*
X0386913Y0044207D01*
X0386913Y0045166D02*
X0390753Y0045166D01*
X0390753Y0046125D02*
X0386913Y0046125D01*
X0386913Y0047084D02*
X0390753Y0047084D01*
X0390753Y0048043D02*
X0386913Y0048043D01*
X0386913Y0049002D02*
X0390753Y0049002D01*
X0390753Y0049961D02*
X0386913Y0049961D01*
X0386913Y0050920D02*
X0390753Y0050920D01*
X0378253Y0043670D02*
X0378253Y0033830D01*
X0374413Y0033830D01*
X0374413Y0043670D01*
X0378253Y0043670D01*
X0378253Y0034789D02*
X0374413Y0034789D01*
X0374413Y0035748D02*
X0378253Y0035748D01*
X0378253Y0036707D02*
X0374413Y0036707D01*
X0374413Y0037666D02*
X0378253Y0037666D01*
X0378253Y0038625D02*
X0374413Y0038625D01*
X0374413Y0039584D02*
X0378253Y0039584D01*
X0378253Y0040543D02*
X0374413Y0040543D01*
X0374413Y0041502D02*
X0378253Y0041502D01*
X0378253Y0042461D02*
X0374413Y0042461D01*
X0374413Y0043420D02*
X0378253Y0043420D01*
X0225753Y0046170D02*
X0225753Y0036330D01*
X0221913Y0036330D01*
X0221913Y0046170D01*
X0225753Y0046170D01*
X0225753Y0037289D02*
X0221913Y0037289D01*
X0221913Y0038248D02*
X0225753Y0038248D01*
X0225753Y0039207D02*
X0221913Y0039207D01*
X0221913Y0040166D02*
X0225753Y0040166D01*
X0225753Y0041125D02*
X0221913Y0041125D01*
X0221913Y0042084D02*
X0225753Y0042084D01*
X0225753Y0043043D02*
X0221913Y0043043D01*
X0221913Y0044002D02*
X0225753Y0044002D01*
X0225753Y0044961D02*
X0221913Y0044961D01*
X0221913Y0045920D02*
X0225753Y0045920D01*
X0203253Y0106330D02*
X0203253Y0116170D01*
X0203253Y0106330D02*
X0199413Y0106330D01*
X0199413Y0116170D01*
X0203253Y0116170D01*
X0203253Y0107289D02*
X0199413Y0107289D01*
X0199413Y0108248D02*
X0203253Y0108248D01*
X0203253Y0109207D02*
X0199413Y0109207D01*
X0199413Y0110166D02*
X0203253Y0110166D01*
X0203253Y0111125D02*
X0199413Y0111125D01*
X0199413Y0112084D02*
X0203253Y0112084D01*
X0203253Y0113043D02*
X0199413Y0113043D01*
X0199413Y0114002D02*
X0203253Y0114002D01*
X0203253Y0114961D02*
X0199413Y0114961D01*
X0199413Y0115920D02*
X0203253Y0115920D01*
X0206413Y0121830D02*
X0216253Y0121830D01*
X0206413Y0121830D02*
X0206413Y0125670D01*
X0216253Y0125670D01*
X0216253Y0121830D01*
X0216253Y0122789D02*
X0206413Y0122789D01*
X0206413Y0123748D02*
X0216253Y0123748D01*
X0216253Y0124707D02*
X0206413Y0124707D01*
X0206413Y0125666D02*
X0216253Y0125666D01*
X0038253Y0221330D02*
X0038253Y0231170D01*
X0038253Y0221330D02*
X0034413Y0221330D01*
X0034413Y0231170D01*
X0038253Y0231170D01*
X0038253Y0222289D02*
X0034413Y0222289D01*
X0034413Y0223248D02*
X0038253Y0223248D01*
X0038253Y0224207D02*
X0034413Y0224207D01*
X0034413Y0225166D02*
X0038253Y0225166D01*
X0038253Y0226125D02*
X0034413Y0226125D01*
X0034413Y0227084D02*
X0038253Y0227084D01*
X0038253Y0228043D02*
X0034413Y0228043D01*
X0034413Y0229002D02*
X0038253Y0229002D01*
X0038253Y0229961D02*
X0034413Y0229961D01*
X0034413Y0230920D02*
X0038253Y0230920D01*
X0038253Y0251330D02*
X0038253Y0261170D01*
X0038253Y0251330D02*
X0034413Y0251330D01*
X0034413Y0261170D01*
X0038253Y0261170D01*
X0038253Y0252289D02*
X0034413Y0252289D01*
X0034413Y0253248D02*
X0038253Y0253248D01*
X0038253Y0254207D02*
X0034413Y0254207D01*
X0034413Y0255166D02*
X0038253Y0255166D01*
X0038253Y0256125D02*
X0034413Y0256125D01*
X0034413Y0257084D02*
X0038253Y0257084D01*
X0038253Y0258043D02*
X0034413Y0258043D01*
X0034413Y0259002D02*
X0038253Y0259002D01*
X0038253Y0259961D02*
X0034413Y0259961D01*
X0034413Y0260920D02*
X0038253Y0260920D01*
D34*
X0201333Y0271250D03*
X0201333Y0221250D03*
X0206333Y0043750D03*
X0086333Y0043750D03*
D35*
X0046333Y0043750D03*
X0056333Y0043750D03*
X0066333Y0043750D03*
X0076333Y0043750D03*
X0166333Y0043750D03*
X0176333Y0043750D03*
X0186333Y0043750D03*
X0196333Y0043750D03*
X0248833Y0108750D03*
X0268833Y0178750D03*
X0201333Y0191250D03*
X0201333Y0201250D03*
X0201333Y0211250D03*
X0201333Y0241250D03*
X0201333Y0251250D03*
X0201333Y0261250D03*
D36*
X0131255Y0064050D03*
X0131255Y0056250D03*
X0121412Y0056250D03*
X0121412Y0064050D03*
D37*
X0102633Y0045550D03*
X0150033Y0045550D03*
D38*
X0041333Y0066250D03*
X0041333Y0271250D03*
X0403833Y0273750D03*
X0403833Y0041250D03*
D39*
X0243833Y0054478D03*
X0243833Y0058022D03*
D40*
G36*
X0191358Y0103065D02*
X0188288Y0099995D01*
X0185078Y0103205D01*
X0188148Y0106275D01*
X0191358Y0103065D01*
G37*
G36*
X0182589Y0094295D02*
X0179519Y0091225D01*
X0176309Y0094435D01*
X0179379Y0097505D01*
X0182589Y0094295D01*
G37*
D41*
X0330540Y0041250D03*
X0337627Y0041250D03*
D42*
X0251333Y0176150D02*
X0251333Y0181350D01*
X0241333Y0181350D02*
X0241333Y0176150D01*
X0231333Y0176150D02*
X0231333Y0181350D01*
D43*
X0224503Y0270010D03*
X0224503Y0277490D03*
X0233164Y0273750D03*
D44*
X0121333Y0113750D03*
M02*
