%
M48
M72
T01C0.01200
T02C0.01600
T03C0.01969
T04C0.02362
T05C0.02400
T06C0.02756
T07C0.03150
T08C0.03600
T09C0.04000
T10C0.04400
T11C0.08000
T12C0.09000
T13C0.13000
%
T01
X291333Y101250
X306333Y101250
X306333Y98750
X306333Y96250
X306333Y93750
X306333Y91250
X308833Y91250
X308833Y93750
X308833Y96250
X308833Y98750
X308833Y101250
X308833Y103750
X306333Y103750
X306333Y106250
X308833Y106250
X311333Y106250
X311333Y103750
X311333Y101250
X311333Y98750
X311333Y96250
X311333Y93750
X311333Y91250
X313833Y91250
X313833Y93750
X313833Y96250
X313833Y98750
X313833Y101250
X313833Y103750
X313833Y106250
X316333Y106250
X316333Y103750
X316333Y101250
X316333Y98750
X316333Y96250
X316333Y93750
X316333Y91250
X333833Y91250
X333833Y93750
X333833Y96250
X333833Y98750
X333833Y101250
X333833Y103750
X333833Y106250
X336333Y106250
X336333Y103750
X336333Y101250
X336333Y98750
X336333Y96250
X336333Y93750
X336333Y91250
X338833Y91250
X338833Y93750
X338833Y96250
X338833Y98750
X338833Y101250
X338833Y103750
X338833Y106250
X346333Y106250
X346333Y103750
X346333Y101250
X346333Y98750
X346333Y96250
X346333Y93750
X346333Y91250
X348833Y91250
X348833Y93750
X348833Y96250
X348833Y98750
X348833Y101250
X348833Y103750
X348833Y106250
X351333Y106250
X351333Y103750
X351333Y101250
X351333Y98750
X351333Y96250
X351333Y93750
X351333Y91250
X353833Y91250
X353833Y93750
X353833Y96250
X353833Y98750
X353833Y101250
X353833Y103750
X353833Y106250
X356333Y106250
X356333Y103750
X356333Y101250
X356333Y98750
X356333Y96250
X356333Y93750
X356333Y91250
X356333Y71250
X353833Y71250
X351333Y71250
X348833Y71250
X346333Y71250
X346333Y68750
X346333Y66250
X346333Y63750
X346333Y61250
X346333Y58750
X346333Y56250
X348833Y56250
X348833Y58750
X348833Y61250
X348833Y63750
X348833Y66250
X348833Y68750
X351333Y68750
X351333Y66250
X351333Y63750
X351333Y61250
X351333Y58750
X351333Y56250
X353833Y56250
X353833Y58750
X353833Y61250
X353833Y63750
X353833Y66250
X353833Y68750
X356333Y68750
X356333Y66250
X356333Y63750
X356333Y61250
X356333Y58750
X356333Y56250
X338833Y56250
X336333Y56250
X333833Y56250
X333833Y58750
X333833Y61250
X333833Y63750
X333833Y66250
X333833Y68750
X333833Y71250
X336333Y71250
X336333Y68750
X336333Y66250
X336333Y63750
X336333Y61250
X336333Y58750
X338833Y58750
X338833Y61250
X338833Y63750
X338833Y66250
X338833Y68750
X338833Y71250
X316333Y71250
X313833Y71250
X311333Y71250
X308833Y71250
X306333Y71250
X306333Y68750
X306333Y66250
X306333Y63750
X306333Y61250
X306333Y58750
X306333Y56250
X308833Y56250
X308833Y58750
X308833Y61250
X308833Y63750
X308833Y66250
X308833Y68750
X311333Y68750
X311333Y66250
X311333Y63750
X311333Y61250
X311333Y58750
X311333Y56250
X313833Y56250
X313833Y58750
X313833Y61250
X313833Y63750
X313833Y66250
X313833Y68750
X316333Y68750
X316333Y66250
X316333Y63750
X316333Y61250
X316333Y58750
X316333Y56250
X316333Y126250
X313833Y126250
X311333Y126250
X308833Y126250
X306333Y126250
X306333Y128750
X306333Y131250
X306333Y133750
X306333Y136250
X306333Y138750
X306333Y141250
X308833Y141250
X308833Y138750
X308833Y136250
X308833Y133750
X308833Y131250
X308833Y128750
X311333Y128750
X311333Y131250
X311333Y133750
X311333Y136250
X311333Y138750
X311333Y141250
X313833Y141250
X313833Y138750
X313833Y136250
X313833Y133750
X313833Y131250
X313833Y128750
X316333Y128750
X316333Y131250
X316333Y133750
X316333Y136250
X316333Y138750
X316333Y141250
X333833Y141250
X333833Y138750
X333833Y136250
X333833Y133750
X333833Y131250
X333833Y128750
X333833Y126250
X336333Y126250
X336333Y128750
X336333Y131250
X336333Y133750
X336333Y136250
X336333Y138750
X336333Y141250
X338833Y141250
X338833Y138750
X338833Y136250
X338833Y133750
X338833Y131250
X338833Y128750
X338833Y126250
X346333Y126250
X346333Y128750
X346333Y131250
X346333Y133750
X346333Y136250
X346333Y138750
X346333Y141250
X348833Y141250
X348833Y138750
X348833Y136250
X348833Y133750
X348833Y131250
X348833Y128750
X348833Y126250
X351333Y126250
X351333Y128750
X351333Y131250
X351333Y133750
X351333Y136250
X351333Y138750
X351333Y141250
X353833Y141250
X353833Y138750
X353833Y136250
X353833Y133750
X353833Y131250
X353833Y128750
X353833Y126250
X356333Y126250
X356333Y128750
X356333Y131250
X356333Y133750
X356333Y136250
X356333Y138750
X356333Y141250
T02
X341333Y151250
X336333Y154250
X327833Y158250
X328833Y121250
X333833Y121250
X338333Y121250
X338833Y86250
X333833Y86250
X328833Y86250
X295833Y51250
X288833Y53750
X287333Y41750
X283833Y31250
X271333Y42250
X271333Y60750
X251333Y61750
X248333Y61750
X243833Y63750
X251333Y73750
X268833Y86250
X283833Y86250
X268833Y102250
X276333Y103750
X266333Y111250
X268833Y118750
X266333Y126250
X268333Y139250
X273333Y139250
X273333Y144250
X278333Y144250
X283333Y176750
X283333Y181750
X283333Y186750
X273833Y206250
X271333Y206250
X271333Y208750
X268833Y208750
X268833Y211250
X271333Y211250
X281333Y208750
X283833Y208750
X286333Y208750
X288833Y208750
X261333Y188750
X258833Y188750
X256333Y188750
X253833Y188750
X251333Y188750
X248833Y188750
X246333Y188750
X243833Y188750
X241333Y188750
X226333Y193750
X223833Y193750
X223833Y191250
X226333Y196250
X206833Y165750
X203333Y146250
X202333Y135750
X216333Y136250
X216333Y138750
X216333Y141250
X216333Y143750
X208333Y101750
X208333Y96750
X208333Y86750
X203333Y86750
X203833Y76250
X203833Y62750
X207333Y62750
X212333Y62750
X223833Y48750
X228833Y48750
X228833Y35250
X230833Y32250
X227833Y31750
X233333Y34250
X246333Y43750
X249333Y52750
X301333Y31250
X311333Y31250
X321333Y31250
X331333Y31250
X341333Y31250
X343833Y40750
X351333Y41250
X356333Y41250
X351333Y31250
X317333Y42750
X313833Y42750
X311333Y42750
X188333Y89250
X188333Y94250
X146333Y55750
X146333Y53250
X138833Y40750
X136333Y40750
X133833Y40750
X131333Y40750
X131333Y50750
X128833Y50750
X126333Y50750
X113833Y43250
X113833Y40750
X91333Y58250
X86333Y58250
X81333Y58250
X66333Y38750
X61333Y38750
X56333Y38750
X56333Y33750
X61333Y33750
X66333Y33750
X163833Y53250
X166333Y53250
X168833Y53250
X248333Y239250
X248333Y244250
X250833Y249250
T03
X250333Y56750
X214333Y55750
X339833Y45750
T04
X206333Y118750
X201333Y66250
X203833Y176250
X208833Y188750
X208833Y206250
X186333Y251250
X101333Y188750
T05
X206333Y108750
X196333Y76250
X243833Y71250
X241333Y121250
X241333Y138750
X253833Y148750
T06
X121333Y113750
T07
X46333Y43750
X56333Y43750
X66333Y43750
X76333Y43750
X86333Y43750
X166333Y43750
X176333Y43750
X186333Y43750
X196333Y43750
X206333Y43750
X248833Y108750
X268833Y178750
X201333Y191250
X201333Y201250
X201333Y211250
X201333Y221250
X201333Y241250
X201333Y251250
X201333Y261250
X201333Y271250
T08
X131255Y64050
X131255Y56250
X121412Y56250
X121412Y64050
T09
X151333Y86250
X161333Y86250
X171333Y86250
X171333Y96250
X161333Y96250
X151333Y96250
X151333Y106250
X161333Y106250
X171333Y106250
X171333Y116250
X161333Y116250
X151333Y116250
X151333Y126250
X151333Y136250
X161333Y136250
X161333Y126250
X171333Y126250
X171333Y136250
X171333Y146250
X161333Y146250
X151333Y146250
X151333Y156250
X161333Y156250
X171333Y156250
X171333Y166250
X161333Y166250
X151333Y166250
X151333Y176250
X151333Y186250
X161333Y186250
X161333Y176250
X171333Y176250
X171333Y186250
X171333Y196250
X161333Y196250
X151333Y196250
X151333Y206250
X161333Y206250
X171333Y206250
X171333Y216250
X161333Y216250
X151333Y216250
X151333Y226250
X161333Y226250
X171333Y226250
X171333Y236250
X161333Y236250
X151333Y236250
X151333Y246250
X151333Y256250
X161333Y256250
X161333Y246250
X171333Y246250
X171333Y256250
X171333Y266250
X161333Y266250
X151333Y266250
X151333Y276250
X161333Y276250
X171333Y276250
X236333Y248750
X236333Y238750
X231333Y178750
X241333Y178750
X251333Y178750
X248833Y166250
X81333Y166250
X71333Y166250
X61333Y166250
X61333Y176250
X61333Y186250
X71333Y186250
X71333Y176250
X81333Y176250
X81333Y186250
X81333Y196250
X71333Y196250
X61333Y196250
X61333Y206250
X71333Y206250
X81333Y206250
X81333Y216250
X71333Y216250
X61333Y216250
X61333Y226250
X71333Y226250
X81333Y226250
X81333Y236250
X71333Y236250
X61333Y236250
X61333Y246250
X61333Y256250
X71333Y256250
X71333Y246250
X81333Y246250
X81333Y256250
X81333Y266250
X71333Y266250
X61333Y266250
X61333Y276250
X71333Y276250
X81333Y276250
X81333Y156250
X71333Y156250
X61333Y156250
X61333Y146250
X71333Y146250
X81333Y146250
X81333Y136250
X71333Y136250
X61333Y136250
X61333Y126250
X61333Y116250
X71333Y116250
X71333Y126250
X81333Y126250
X81333Y116250
X81333Y106250
X71333Y106250
X61333Y106250
X61333Y96250
X71333Y96250
X81333Y96250
X81333Y86250
X71333Y86250
X61333Y86250
T10
X303833Y173750
X303833Y201250
X403833Y201250
X403833Y173750
T11
X403833Y133750
X403833Y98750
X403833Y63750
X271333Y266250
X246333Y266250
T12
X150033Y45550
X102633Y45550
T13
X41333Y66250
X41333Y271250
X403833Y273750
X403833Y41250
M30
