G75*
%MOIN*%
%OFA0B0*%
%FSLAX25Y25*%
%IPPOS*%
%LPD*%
%AMOC8*
5,1,8,0,0,1.08239X$1,22.5*
%
%ADD10R,0.05000X0.18500*%
%ADD11R,0.04500X0.02800*%
%ADD12C,0.00122*%
%ADD13R,0.03937X0.25984*%
%ADD14C,0.00472*%
%ADD15R,0.08858X0.02559*%
%ADD16C,0.00906*%
%ADD17R,0.05787X0.05000*%
%ADD18R,0.05000X0.05787*%
%ADD19R,0.02362X0.08661*%
%ADD20R,0.03800X0.02600*%
%ADD21R,0.10600X0.04400*%
%ADD22R,0.05700X0.04400*%
%ADD23R,0.09900X0.04900*%
%ADD24R,0.04200X0.04900*%
%ADD25R,0.12000X0.06000*%
%ADD26R,0.02200X0.02400*%
%ADD27R,0.02200X0.06200*%
%ADD28R,0.03543X0.03740*%
%ADD29R,0.03150X0.04724*%
%ADD30R,0.05512X0.03937*%
D10*
X0304533Y0063750D03*
X0304533Y0098750D03*
X0304533Y0133750D03*
X0344533Y0133750D03*
X0344533Y0098750D03*
X0344533Y0063750D03*
D11*
X0364583Y0061250D03*
X0364583Y0056250D03*
X0364583Y0066250D03*
X0364583Y0071250D03*
X0364583Y0091250D03*
X0364583Y0096250D03*
X0364583Y0101250D03*
X0364583Y0106250D03*
X0364583Y0126250D03*
X0364583Y0131250D03*
X0364583Y0136250D03*
X0364583Y0141250D03*
X0324583Y0141250D03*
X0324583Y0136250D03*
X0324583Y0131250D03*
X0324583Y0126250D03*
X0324583Y0106250D03*
X0324583Y0101250D03*
X0324583Y0096250D03*
X0324583Y0091250D03*
X0324583Y0071250D03*
X0324583Y0066250D03*
X0324583Y0061250D03*
X0324583Y0056250D03*
D12*
X0305994Y0055561D02*
X0305994Y0071939D01*
X0318072Y0071939D01*
X0318072Y0055561D01*
X0305994Y0055561D01*
X0305994Y0055682D02*
X0318072Y0055682D01*
X0318072Y0055803D02*
X0305994Y0055803D01*
X0305994Y0055924D02*
X0318072Y0055924D01*
X0318072Y0056045D02*
X0305994Y0056045D01*
X0305994Y0056166D02*
X0318072Y0056166D01*
X0318072Y0056287D02*
X0305994Y0056287D01*
X0305994Y0056408D02*
X0318072Y0056408D01*
X0318072Y0056529D02*
X0305994Y0056529D01*
X0305994Y0056650D02*
X0318072Y0056650D01*
X0318072Y0056771D02*
X0305994Y0056771D01*
X0305994Y0056892D02*
X0318072Y0056892D01*
X0318072Y0057013D02*
X0305994Y0057013D01*
X0305994Y0057134D02*
X0318072Y0057134D01*
X0318072Y0057255D02*
X0305994Y0057255D01*
X0305994Y0057376D02*
X0318072Y0057376D01*
X0318072Y0057497D02*
X0305994Y0057497D01*
X0305994Y0057618D02*
X0318072Y0057618D01*
X0318072Y0057739D02*
X0305994Y0057739D01*
X0305994Y0057860D02*
X0318072Y0057860D01*
X0318072Y0057981D02*
X0305994Y0057981D01*
X0305994Y0058102D02*
X0318072Y0058102D01*
X0318072Y0058223D02*
X0305994Y0058223D01*
X0305994Y0058344D02*
X0318072Y0058344D01*
X0318072Y0058465D02*
X0305994Y0058465D01*
X0305994Y0058586D02*
X0318072Y0058586D01*
X0318072Y0058707D02*
X0305994Y0058707D01*
X0305994Y0058828D02*
X0318072Y0058828D01*
X0318072Y0058949D02*
X0305994Y0058949D01*
X0305994Y0059070D02*
X0318072Y0059070D01*
X0318072Y0059191D02*
X0305994Y0059191D01*
X0305994Y0059312D02*
X0318072Y0059312D01*
X0318072Y0059433D02*
X0305994Y0059433D01*
X0305994Y0059554D02*
X0318072Y0059554D01*
X0318072Y0059675D02*
X0305994Y0059675D01*
X0305994Y0059796D02*
X0318072Y0059796D01*
X0318072Y0059917D02*
X0305994Y0059917D01*
X0305994Y0060038D02*
X0318072Y0060038D01*
X0318072Y0060159D02*
X0305994Y0060159D01*
X0305994Y0060280D02*
X0318072Y0060280D01*
X0318072Y0060401D02*
X0305994Y0060401D01*
X0305994Y0060522D02*
X0318072Y0060522D01*
X0318072Y0060643D02*
X0305994Y0060643D01*
X0305994Y0060764D02*
X0318072Y0060764D01*
X0318072Y0060885D02*
X0305994Y0060885D01*
X0305994Y0061006D02*
X0318072Y0061006D01*
X0318072Y0061127D02*
X0305994Y0061127D01*
X0305994Y0061248D02*
X0318072Y0061248D01*
X0318072Y0061369D02*
X0305994Y0061369D01*
X0305994Y0061490D02*
X0318072Y0061490D01*
X0318072Y0061611D02*
X0305994Y0061611D01*
X0305994Y0061732D02*
X0318072Y0061732D01*
X0318072Y0061853D02*
X0305994Y0061853D01*
X0305994Y0061974D02*
X0318072Y0061974D01*
X0318072Y0062095D02*
X0305994Y0062095D01*
X0305994Y0062216D02*
X0318072Y0062216D01*
X0318072Y0062337D02*
X0305994Y0062337D01*
X0305994Y0062458D02*
X0318072Y0062458D01*
X0318072Y0062579D02*
X0305994Y0062579D01*
X0305994Y0062700D02*
X0318072Y0062700D01*
X0318072Y0062821D02*
X0305994Y0062821D01*
X0305994Y0062942D02*
X0318072Y0062942D01*
X0318072Y0063063D02*
X0305994Y0063063D01*
X0305994Y0063184D02*
X0318072Y0063184D01*
X0318072Y0063305D02*
X0305994Y0063305D01*
X0305994Y0063426D02*
X0318072Y0063426D01*
X0318072Y0063547D02*
X0305994Y0063547D01*
X0305994Y0063668D02*
X0318072Y0063668D01*
X0318072Y0063789D02*
X0305994Y0063789D01*
X0305994Y0063910D02*
X0318072Y0063910D01*
X0318072Y0064031D02*
X0305994Y0064031D01*
X0305994Y0064152D02*
X0318072Y0064152D01*
X0318072Y0064273D02*
X0305994Y0064273D01*
X0305994Y0064394D02*
X0318072Y0064394D01*
X0318072Y0064515D02*
X0305994Y0064515D01*
X0305994Y0064636D02*
X0318072Y0064636D01*
X0318072Y0064757D02*
X0305994Y0064757D01*
X0305994Y0064878D02*
X0318072Y0064878D01*
X0318072Y0064999D02*
X0305994Y0064999D01*
X0305994Y0065120D02*
X0318072Y0065120D01*
X0318072Y0065241D02*
X0305994Y0065241D01*
X0305994Y0065362D02*
X0318072Y0065362D01*
X0318072Y0065483D02*
X0305994Y0065483D01*
X0305994Y0065604D02*
X0318072Y0065604D01*
X0318072Y0065725D02*
X0305994Y0065725D01*
X0305994Y0065846D02*
X0318072Y0065846D01*
X0318072Y0065967D02*
X0305994Y0065967D01*
X0305994Y0066088D02*
X0318072Y0066088D01*
X0318072Y0066209D02*
X0305994Y0066209D01*
X0305994Y0066330D02*
X0318072Y0066330D01*
X0318072Y0066451D02*
X0305994Y0066451D01*
X0305994Y0066572D02*
X0318072Y0066572D01*
X0318072Y0066693D02*
X0305994Y0066693D01*
X0305994Y0066814D02*
X0318072Y0066814D01*
X0318072Y0066935D02*
X0305994Y0066935D01*
X0305994Y0067056D02*
X0318072Y0067056D01*
X0318072Y0067177D02*
X0305994Y0067177D01*
X0305994Y0067298D02*
X0318072Y0067298D01*
X0318072Y0067419D02*
X0305994Y0067419D01*
X0305994Y0067540D02*
X0318072Y0067540D01*
X0318072Y0067661D02*
X0305994Y0067661D01*
X0305994Y0067782D02*
X0318072Y0067782D01*
X0318072Y0067903D02*
X0305994Y0067903D01*
X0305994Y0068024D02*
X0318072Y0068024D01*
X0318072Y0068145D02*
X0305994Y0068145D01*
X0305994Y0068266D02*
X0318072Y0068266D01*
X0318072Y0068387D02*
X0305994Y0068387D01*
X0305994Y0068508D02*
X0318072Y0068508D01*
X0318072Y0068629D02*
X0305994Y0068629D01*
X0305994Y0068750D02*
X0318072Y0068750D01*
X0318072Y0068871D02*
X0305994Y0068871D01*
X0305994Y0068992D02*
X0318072Y0068992D01*
X0318072Y0069113D02*
X0305994Y0069113D01*
X0305994Y0069234D02*
X0318072Y0069234D01*
X0318072Y0069355D02*
X0305994Y0069355D01*
X0305994Y0069476D02*
X0318072Y0069476D01*
X0318072Y0069597D02*
X0305994Y0069597D01*
X0305994Y0069718D02*
X0318072Y0069718D01*
X0318072Y0069839D02*
X0305994Y0069839D01*
X0305994Y0069960D02*
X0318072Y0069960D01*
X0318072Y0070081D02*
X0305994Y0070081D01*
X0305994Y0070202D02*
X0318072Y0070202D01*
X0318072Y0070323D02*
X0305994Y0070323D01*
X0305994Y0070444D02*
X0318072Y0070444D01*
X0318072Y0070565D02*
X0305994Y0070565D01*
X0305994Y0070686D02*
X0318072Y0070686D01*
X0318072Y0070807D02*
X0305994Y0070807D01*
X0305994Y0070928D02*
X0318072Y0070928D01*
X0318072Y0071049D02*
X0305994Y0071049D01*
X0305994Y0071170D02*
X0318072Y0071170D01*
X0318072Y0071291D02*
X0305994Y0071291D01*
X0305994Y0071412D02*
X0318072Y0071412D01*
X0318072Y0071533D02*
X0305994Y0071533D01*
X0305994Y0071654D02*
X0318072Y0071654D01*
X0318072Y0071775D02*
X0305994Y0071775D01*
X0305994Y0071896D02*
X0318072Y0071896D01*
X0305994Y0090561D02*
X0305994Y0106939D01*
X0318072Y0106939D01*
X0318072Y0090561D01*
X0305994Y0090561D01*
X0305994Y0090682D02*
X0318072Y0090682D01*
X0318072Y0090803D02*
X0305994Y0090803D01*
X0305994Y0090924D02*
X0318072Y0090924D01*
X0318072Y0091045D02*
X0305994Y0091045D01*
X0305994Y0091166D02*
X0318072Y0091166D01*
X0318072Y0091287D02*
X0305994Y0091287D01*
X0305994Y0091408D02*
X0318072Y0091408D01*
X0318072Y0091529D02*
X0305994Y0091529D01*
X0305994Y0091650D02*
X0318072Y0091650D01*
X0318072Y0091771D02*
X0305994Y0091771D01*
X0305994Y0091892D02*
X0318072Y0091892D01*
X0318072Y0092013D02*
X0305994Y0092013D01*
X0305994Y0092134D02*
X0318072Y0092134D01*
X0318072Y0092255D02*
X0305994Y0092255D01*
X0305994Y0092376D02*
X0318072Y0092376D01*
X0318072Y0092497D02*
X0305994Y0092497D01*
X0305994Y0092618D02*
X0318072Y0092618D01*
X0318072Y0092739D02*
X0305994Y0092739D01*
X0305994Y0092860D02*
X0318072Y0092860D01*
X0318072Y0092981D02*
X0305994Y0092981D01*
X0305994Y0093102D02*
X0318072Y0093102D01*
X0318072Y0093223D02*
X0305994Y0093223D01*
X0305994Y0093344D02*
X0318072Y0093344D01*
X0318072Y0093465D02*
X0305994Y0093465D01*
X0305994Y0093586D02*
X0318072Y0093586D01*
X0318072Y0093707D02*
X0305994Y0093707D01*
X0305994Y0093828D02*
X0318072Y0093828D01*
X0318072Y0093949D02*
X0305994Y0093949D01*
X0305994Y0094070D02*
X0318072Y0094070D01*
X0318072Y0094191D02*
X0305994Y0094191D01*
X0305994Y0094312D02*
X0318072Y0094312D01*
X0318072Y0094433D02*
X0305994Y0094433D01*
X0305994Y0094554D02*
X0318072Y0094554D01*
X0318072Y0094675D02*
X0305994Y0094675D01*
X0305994Y0094796D02*
X0318072Y0094796D01*
X0318072Y0094917D02*
X0305994Y0094917D01*
X0305994Y0095038D02*
X0318072Y0095038D01*
X0318072Y0095159D02*
X0305994Y0095159D01*
X0305994Y0095280D02*
X0318072Y0095280D01*
X0318072Y0095401D02*
X0305994Y0095401D01*
X0305994Y0095522D02*
X0318072Y0095522D01*
X0318072Y0095643D02*
X0305994Y0095643D01*
X0305994Y0095764D02*
X0318072Y0095764D01*
X0318072Y0095885D02*
X0305994Y0095885D01*
X0305994Y0096006D02*
X0318072Y0096006D01*
X0318072Y0096127D02*
X0305994Y0096127D01*
X0305994Y0096248D02*
X0318072Y0096248D01*
X0318072Y0096369D02*
X0305994Y0096369D01*
X0305994Y0096490D02*
X0318072Y0096490D01*
X0318072Y0096611D02*
X0305994Y0096611D01*
X0305994Y0096732D02*
X0318072Y0096732D01*
X0318072Y0096853D02*
X0305994Y0096853D01*
X0305994Y0096974D02*
X0318072Y0096974D01*
X0318072Y0097095D02*
X0305994Y0097095D01*
X0305994Y0097216D02*
X0318072Y0097216D01*
X0318072Y0097337D02*
X0305994Y0097337D01*
X0305994Y0097458D02*
X0318072Y0097458D01*
X0318072Y0097579D02*
X0305994Y0097579D01*
X0305994Y0097700D02*
X0318072Y0097700D01*
X0318072Y0097821D02*
X0305994Y0097821D01*
X0305994Y0097942D02*
X0318072Y0097942D01*
X0318072Y0098063D02*
X0305994Y0098063D01*
X0305994Y0098184D02*
X0318072Y0098184D01*
X0318072Y0098305D02*
X0305994Y0098305D01*
X0305994Y0098426D02*
X0318072Y0098426D01*
X0318072Y0098547D02*
X0305994Y0098547D01*
X0305994Y0098668D02*
X0318072Y0098668D01*
X0318072Y0098789D02*
X0305994Y0098789D01*
X0305994Y0098910D02*
X0318072Y0098910D01*
X0318072Y0099031D02*
X0305994Y0099031D01*
X0305994Y0099152D02*
X0318072Y0099152D01*
X0318072Y0099273D02*
X0305994Y0099273D01*
X0305994Y0099394D02*
X0318072Y0099394D01*
X0318072Y0099515D02*
X0305994Y0099515D01*
X0305994Y0099636D02*
X0318072Y0099636D01*
X0318072Y0099757D02*
X0305994Y0099757D01*
X0305994Y0099878D02*
X0318072Y0099878D01*
X0318072Y0099999D02*
X0305994Y0099999D01*
X0305994Y0100120D02*
X0318072Y0100120D01*
X0318072Y0100241D02*
X0305994Y0100241D01*
X0305994Y0100362D02*
X0318072Y0100362D01*
X0318072Y0100483D02*
X0305994Y0100483D01*
X0305994Y0100604D02*
X0318072Y0100604D01*
X0318072Y0100725D02*
X0305994Y0100725D01*
X0305994Y0100846D02*
X0318072Y0100846D01*
X0318072Y0100967D02*
X0305994Y0100967D01*
X0305994Y0101088D02*
X0318072Y0101088D01*
X0318072Y0101209D02*
X0305994Y0101209D01*
X0305994Y0101330D02*
X0318072Y0101330D01*
X0318072Y0101451D02*
X0305994Y0101451D01*
X0305994Y0101572D02*
X0318072Y0101572D01*
X0318072Y0101693D02*
X0305994Y0101693D01*
X0305994Y0101814D02*
X0318072Y0101814D01*
X0318072Y0101935D02*
X0305994Y0101935D01*
X0305994Y0102056D02*
X0318072Y0102056D01*
X0318072Y0102177D02*
X0305994Y0102177D01*
X0305994Y0102298D02*
X0318072Y0102298D01*
X0318072Y0102419D02*
X0305994Y0102419D01*
X0305994Y0102540D02*
X0318072Y0102540D01*
X0318072Y0102661D02*
X0305994Y0102661D01*
X0305994Y0102782D02*
X0318072Y0102782D01*
X0318072Y0102903D02*
X0305994Y0102903D01*
X0305994Y0103024D02*
X0318072Y0103024D01*
X0318072Y0103145D02*
X0305994Y0103145D01*
X0305994Y0103266D02*
X0318072Y0103266D01*
X0318072Y0103387D02*
X0305994Y0103387D01*
X0305994Y0103508D02*
X0318072Y0103508D01*
X0318072Y0103629D02*
X0305994Y0103629D01*
X0305994Y0103750D02*
X0318072Y0103750D01*
X0318072Y0103871D02*
X0305994Y0103871D01*
X0305994Y0103992D02*
X0318072Y0103992D01*
X0318072Y0104113D02*
X0305994Y0104113D01*
X0305994Y0104234D02*
X0318072Y0104234D01*
X0318072Y0104355D02*
X0305994Y0104355D01*
X0305994Y0104476D02*
X0318072Y0104476D01*
X0318072Y0104597D02*
X0305994Y0104597D01*
X0305994Y0104718D02*
X0318072Y0104718D01*
X0318072Y0104839D02*
X0305994Y0104839D01*
X0305994Y0104960D02*
X0318072Y0104960D01*
X0318072Y0105081D02*
X0305994Y0105081D01*
X0305994Y0105202D02*
X0318072Y0105202D01*
X0318072Y0105323D02*
X0305994Y0105323D01*
X0305994Y0105444D02*
X0318072Y0105444D01*
X0318072Y0105565D02*
X0305994Y0105565D01*
X0305994Y0105686D02*
X0318072Y0105686D01*
X0318072Y0105807D02*
X0305994Y0105807D01*
X0305994Y0105928D02*
X0318072Y0105928D01*
X0318072Y0106049D02*
X0305994Y0106049D01*
X0305994Y0106170D02*
X0318072Y0106170D01*
X0318072Y0106291D02*
X0305994Y0106291D01*
X0305994Y0106412D02*
X0318072Y0106412D01*
X0318072Y0106533D02*
X0305994Y0106533D01*
X0305994Y0106654D02*
X0318072Y0106654D01*
X0318072Y0106775D02*
X0305994Y0106775D01*
X0305994Y0106896D02*
X0318072Y0106896D01*
X0305994Y0125561D02*
X0305994Y0141939D01*
X0318072Y0141939D01*
X0318072Y0125561D01*
X0305994Y0125561D01*
X0305994Y0125682D02*
X0318072Y0125682D01*
X0318072Y0125803D02*
X0305994Y0125803D01*
X0305994Y0125924D02*
X0318072Y0125924D01*
X0318072Y0126045D02*
X0305994Y0126045D01*
X0305994Y0126166D02*
X0318072Y0126166D01*
X0318072Y0126287D02*
X0305994Y0126287D01*
X0305994Y0126408D02*
X0318072Y0126408D01*
X0318072Y0126529D02*
X0305994Y0126529D01*
X0305994Y0126650D02*
X0318072Y0126650D01*
X0318072Y0126771D02*
X0305994Y0126771D01*
X0305994Y0126892D02*
X0318072Y0126892D01*
X0318072Y0127013D02*
X0305994Y0127013D01*
X0305994Y0127134D02*
X0318072Y0127134D01*
X0318072Y0127255D02*
X0305994Y0127255D01*
X0305994Y0127376D02*
X0318072Y0127376D01*
X0318072Y0127497D02*
X0305994Y0127497D01*
X0305994Y0127618D02*
X0318072Y0127618D01*
X0318072Y0127739D02*
X0305994Y0127739D01*
X0305994Y0127860D02*
X0318072Y0127860D01*
X0318072Y0127981D02*
X0305994Y0127981D01*
X0305994Y0128102D02*
X0318072Y0128102D01*
X0318072Y0128223D02*
X0305994Y0128223D01*
X0305994Y0128344D02*
X0318072Y0128344D01*
X0318072Y0128465D02*
X0305994Y0128465D01*
X0305994Y0128586D02*
X0318072Y0128586D01*
X0318072Y0128707D02*
X0305994Y0128707D01*
X0305994Y0128828D02*
X0318072Y0128828D01*
X0318072Y0128949D02*
X0305994Y0128949D01*
X0305994Y0129070D02*
X0318072Y0129070D01*
X0318072Y0129191D02*
X0305994Y0129191D01*
X0305994Y0129312D02*
X0318072Y0129312D01*
X0318072Y0129433D02*
X0305994Y0129433D01*
X0305994Y0129554D02*
X0318072Y0129554D01*
X0318072Y0129675D02*
X0305994Y0129675D01*
X0305994Y0129796D02*
X0318072Y0129796D01*
X0318072Y0129917D02*
X0305994Y0129917D01*
X0305994Y0130038D02*
X0318072Y0130038D01*
X0318072Y0130159D02*
X0305994Y0130159D01*
X0305994Y0130280D02*
X0318072Y0130280D01*
X0318072Y0130401D02*
X0305994Y0130401D01*
X0305994Y0130522D02*
X0318072Y0130522D01*
X0318072Y0130643D02*
X0305994Y0130643D01*
X0305994Y0130764D02*
X0318072Y0130764D01*
X0318072Y0130885D02*
X0305994Y0130885D01*
X0305994Y0131006D02*
X0318072Y0131006D01*
X0318072Y0131127D02*
X0305994Y0131127D01*
X0305994Y0131248D02*
X0318072Y0131248D01*
X0318072Y0131369D02*
X0305994Y0131369D01*
X0305994Y0131490D02*
X0318072Y0131490D01*
X0318072Y0131611D02*
X0305994Y0131611D01*
X0305994Y0131732D02*
X0318072Y0131732D01*
X0318072Y0131853D02*
X0305994Y0131853D01*
X0305994Y0131974D02*
X0318072Y0131974D01*
X0318072Y0132095D02*
X0305994Y0132095D01*
X0305994Y0132216D02*
X0318072Y0132216D01*
X0318072Y0132337D02*
X0305994Y0132337D01*
X0305994Y0132458D02*
X0318072Y0132458D01*
X0318072Y0132579D02*
X0305994Y0132579D01*
X0305994Y0132700D02*
X0318072Y0132700D01*
X0318072Y0132821D02*
X0305994Y0132821D01*
X0305994Y0132942D02*
X0318072Y0132942D01*
X0318072Y0133063D02*
X0305994Y0133063D01*
X0305994Y0133184D02*
X0318072Y0133184D01*
X0318072Y0133305D02*
X0305994Y0133305D01*
X0305994Y0133426D02*
X0318072Y0133426D01*
X0318072Y0133547D02*
X0305994Y0133547D01*
X0305994Y0133668D02*
X0318072Y0133668D01*
X0318072Y0133789D02*
X0305994Y0133789D01*
X0305994Y0133910D02*
X0318072Y0133910D01*
X0318072Y0134031D02*
X0305994Y0134031D01*
X0305994Y0134152D02*
X0318072Y0134152D01*
X0318072Y0134273D02*
X0305994Y0134273D01*
X0305994Y0134394D02*
X0318072Y0134394D01*
X0318072Y0134515D02*
X0305994Y0134515D01*
X0305994Y0134636D02*
X0318072Y0134636D01*
X0318072Y0134757D02*
X0305994Y0134757D01*
X0305994Y0134878D02*
X0318072Y0134878D01*
X0318072Y0134999D02*
X0305994Y0134999D01*
X0305994Y0135120D02*
X0318072Y0135120D01*
X0318072Y0135241D02*
X0305994Y0135241D01*
X0305994Y0135362D02*
X0318072Y0135362D01*
X0318072Y0135483D02*
X0305994Y0135483D01*
X0305994Y0135604D02*
X0318072Y0135604D01*
X0318072Y0135725D02*
X0305994Y0135725D01*
X0305994Y0135846D02*
X0318072Y0135846D01*
X0318072Y0135967D02*
X0305994Y0135967D01*
X0305994Y0136088D02*
X0318072Y0136088D01*
X0318072Y0136209D02*
X0305994Y0136209D01*
X0305994Y0136330D02*
X0318072Y0136330D01*
X0318072Y0136451D02*
X0305994Y0136451D01*
X0305994Y0136572D02*
X0318072Y0136572D01*
X0318072Y0136693D02*
X0305994Y0136693D01*
X0305994Y0136814D02*
X0318072Y0136814D01*
X0318072Y0136935D02*
X0305994Y0136935D01*
X0305994Y0137056D02*
X0318072Y0137056D01*
X0318072Y0137177D02*
X0305994Y0137177D01*
X0305994Y0137298D02*
X0318072Y0137298D01*
X0318072Y0137419D02*
X0305994Y0137419D01*
X0305994Y0137540D02*
X0318072Y0137540D01*
X0318072Y0137661D02*
X0305994Y0137661D01*
X0305994Y0137782D02*
X0318072Y0137782D01*
X0318072Y0137903D02*
X0305994Y0137903D01*
X0305994Y0138024D02*
X0318072Y0138024D01*
X0318072Y0138145D02*
X0305994Y0138145D01*
X0305994Y0138266D02*
X0318072Y0138266D01*
X0318072Y0138387D02*
X0305994Y0138387D01*
X0305994Y0138508D02*
X0318072Y0138508D01*
X0318072Y0138629D02*
X0305994Y0138629D01*
X0305994Y0138750D02*
X0318072Y0138750D01*
X0318072Y0138871D02*
X0305994Y0138871D01*
X0305994Y0138992D02*
X0318072Y0138992D01*
X0318072Y0139113D02*
X0305994Y0139113D01*
X0305994Y0139234D02*
X0318072Y0139234D01*
X0318072Y0139355D02*
X0305994Y0139355D01*
X0305994Y0139476D02*
X0318072Y0139476D01*
X0318072Y0139597D02*
X0305994Y0139597D01*
X0305994Y0139718D02*
X0318072Y0139718D01*
X0318072Y0139839D02*
X0305994Y0139839D01*
X0305994Y0139960D02*
X0318072Y0139960D01*
X0318072Y0140081D02*
X0305994Y0140081D01*
X0305994Y0140202D02*
X0318072Y0140202D01*
X0318072Y0140323D02*
X0305994Y0140323D01*
X0305994Y0140444D02*
X0318072Y0140444D01*
X0318072Y0140565D02*
X0305994Y0140565D01*
X0305994Y0140686D02*
X0318072Y0140686D01*
X0318072Y0140807D02*
X0305994Y0140807D01*
X0305994Y0140928D02*
X0318072Y0140928D01*
X0318072Y0141049D02*
X0305994Y0141049D01*
X0305994Y0141170D02*
X0318072Y0141170D01*
X0318072Y0141291D02*
X0305994Y0141291D01*
X0305994Y0141412D02*
X0318072Y0141412D01*
X0318072Y0141533D02*
X0305994Y0141533D01*
X0305994Y0141654D02*
X0318072Y0141654D01*
X0318072Y0141775D02*
X0305994Y0141775D01*
X0305994Y0141896D02*
X0318072Y0141896D01*
X0345994Y0141939D02*
X0345994Y0125561D01*
X0345994Y0141939D02*
X0358072Y0141939D01*
X0358072Y0125561D01*
X0345994Y0125561D01*
X0345994Y0125682D02*
X0358072Y0125682D01*
X0358072Y0125803D02*
X0345994Y0125803D01*
X0345994Y0125924D02*
X0358072Y0125924D01*
X0358072Y0126045D02*
X0345994Y0126045D01*
X0345994Y0126166D02*
X0358072Y0126166D01*
X0358072Y0126287D02*
X0345994Y0126287D01*
X0345994Y0126408D02*
X0358072Y0126408D01*
X0358072Y0126529D02*
X0345994Y0126529D01*
X0345994Y0126650D02*
X0358072Y0126650D01*
X0358072Y0126771D02*
X0345994Y0126771D01*
X0345994Y0126892D02*
X0358072Y0126892D01*
X0358072Y0127013D02*
X0345994Y0127013D01*
X0345994Y0127134D02*
X0358072Y0127134D01*
X0358072Y0127255D02*
X0345994Y0127255D01*
X0345994Y0127376D02*
X0358072Y0127376D01*
X0358072Y0127497D02*
X0345994Y0127497D01*
X0345994Y0127618D02*
X0358072Y0127618D01*
X0358072Y0127739D02*
X0345994Y0127739D01*
X0345994Y0127860D02*
X0358072Y0127860D01*
X0358072Y0127981D02*
X0345994Y0127981D01*
X0345994Y0128102D02*
X0358072Y0128102D01*
X0358072Y0128223D02*
X0345994Y0128223D01*
X0345994Y0128344D02*
X0358072Y0128344D01*
X0358072Y0128465D02*
X0345994Y0128465D01*
X0345994Y0128586D02*
X0358072Y0128586D01*
X0358072Y0128707D02*
X0345994Y0128707D01*
X0345994Y0128828D02*
X0358072Y0128828D01*
X0358072Y0128949D02*
X0345994Y0128949D01*
X0345994Y0129070D02*
X0358072Y0129070D01*
X0358072Y0129191D02*
X0345994Y0129191D01*
X0345994Y0129312D02*
X0358072Y0129312D01*
X0358072Y0129433D02*
X0345994Y0129433D01*
X0345994Y0129554D02*
X0358072Y0129554D01*
X0358072Y0129675D02*
X0345994Y0129675D01*
X0345994Y0129796D02*
X0358072Y0129796D01*
X0358072Y0129917D02*
X0345994Y0129917D01*
X0345994Y0130038D02*
X0358072Y0130038D01*
X0358072Y0130159D02*
X0345994Y0130159D01*
X0345994Y0130280D02*
X0358072Y0130280D01*
X0358072Y0130401D02*
X0345994Y0130401D01*
X0345994Y0130522D02*
X0358072Y0130522D01*
X0358072Y0130643D02*
X0345994Y0130643D01*
X0345994Y0130764D02*
X0358072Y0130764D01*
X0358072Y0130885D02*
X0345994Y0130885D01*
X0345994Y0131006D02*
X0358072Y0131006D01*
X0358072Y0131127D02*
X0345994Y0131127D01*
X0345994Y0131248D02*
X0358072Y0131248D01*
X0358072Y0131369D02*
X0345994Y0131369D01*
X0345994Y0131490D02*
X0358072Y0131490D01*
X0358072Y0131611D02*
X0345994Y0131611D01*
X0345994Y0131732D02*
X0358072Y0131732D01*
X0358072Y0131853D02*
X0345994Y0131853D01*
X0345994Y0131974D02*
X0358072Y0131974D01*
X0358072Y0132095D02*
X0345994Y0132095D01*
X0345994Y0132216D02*
X0358072Y0132216D01*
X0358072Y0132337D02*
X0345994Y0132337D01*
X0345994Y0132458D02*
X0358072Y0132458D01*
X0358072Y0132579D02*
X0345994Y0132579D01*
X0345994Y0132700D02*
X0358072Y0132700D01*
X0358072Y0132821D02*
X0345994Y0132821D01*
X0345994Y0132942D02*
X0358072Y0132942D01*
X0358072Y0133063D02*
X0345994Y0133063D01*
X0345994Y0133184D02*
X0358072Y0133184D01*
X0358072Y0133305D02*
X0345994Y0133305D01*
X0345994Y0133426D02*
X0358072Y0133426D01*
X0358072Y0133547D02*
X0345994Y0133547D01*
X0345994Y0133668D02*
X0358072Y0133668D01*
X0358072Y0133789D02*
X0345994Y0133789D01*
X0345994Y0133910D02*
X0358072Y0133910D01*
X0358072Y0134031D02*
X0345994Y0134031D01*
X0345994Y0134152D02*
X0358072Y0134152D01*
X0358072Y0134273D02*
X0345994Y0134273D01*
X0345994Y0134394D02*
X0358072Y0134394D01*
X0358072Y0134515D02*
X0345994Y0134515D01*
X0345994Y0134636D02*
X0358072Y0134636D01*
X0358072Y0134757D02*
X0345994Y0134757D01*
X0345994Y0134878D02*
X0358072Y0134878D01*
X0358072Y0134999D02*
X0345994Y0134999D01*
X0345994Y0135120D02*
X0358072Y0135120D01*
X0358072Y0135241D02*
X0345994Y0135241D01*
X0345994Y0135362D02*
X0358072Y0135362D01*
X0358072Y0135483D02*
X0345994Y0135483D01*
X0345994Y0135604D02*
X0358072Y0135604D01*
X0358072Y0135725D02*
X0345994Y0135725D01*
X0345994Y0135846D02*
X0358072Y0135846D01*
X0358072Y0135967D02*
X0345994Y0135967D01*
X0345994Y0136088D02*
X0358072Y0136088D01*
X0358072Y0136209D02*
X0345994Y0136209D01*
X0345994Y0136330D02*
X0358072Y0136330D01*
X0358072Y0136451D02*
X0345994Y0136451D01*
X0345994Y0136572D02*
X0358072Y0136572D01*
X0358072Y0136693D02*
X0345994Y0136693D01*
X0345994Y0136814D02*
X0358072Y0136814D01*
X0358072Y0136935D02*
X0345994Y0136935D01*
X0345994Y0137056D02*
X0358072Y0137056D01*
X0358072Y0137177D02*
X0345994Y0137177D01*
X0345994Y0137298D02*
X0358072Y0137298D01*
X0358072Y0137419D02*
X0345994Y0137419D01*
X0345994Y0137540D02*
X0358072Y0137540D01*
X0358072Y0137661D02*
X0345994Y0137661D01*
X0345994Y0137782D02*
X0358072Y0137782D01*
X0358072Y0137903D02*
X0345994Y0137903D01*
X0345994Y0138024D02*
X0358072Y0138024D01*
X0358072Y0138145D02*
X0345994Y0138145D01*
X0345994Y0138266D02*
X0358072Y0138266D01*
X0358072Y0138387D02*
X0345994Y0138387D01*
X0345994Y0138508D02*
X0358072Y0138508D01*
X0358072Y0138629D02*
X0345994Y0138629D01*
X0345994Y0138750D02*
X0358072Y0138750D01*
X0358072Y0138871D02*
X0345994Y0138871D01*
X0345994Y0138992D02*
X0358072Y0138992D01*
X0358072Y0139113D02*
X0345994Y0139113D01*
X0345994Y0139234D02*
X0358072Y0139234D01*
X0358072Y0139355D02*
X0345994Y0139355D01*
X0345994Y0139476D02*
X0358072Y0139476D01*
X0358072Y0139597D02*
X0345994Y0139597D01*
X0345994Y0139718D02*
X0358072Y0139718D01*
X0358072Y0139839D02*
X0345994Y0139839D01*
X0345994Y0139960D02*
X0358072Y0139960D01*
X0358072Y0140081D02*
X0345994Y0140081D01*
X0345994Y0140202D02*
X0358072Y0140202D01*
X0358072Y0140323D02*
X0345994Y0140323D01*
X0345994Y0140444D02*
X0358072Y0140444D01*
X0358072Y0140565D02*
X0345994Y0140565D01*
X0345994Y0140686D02*
X0358072Y0140686D01*
X0358072Y0140807D02*
X0345994Y0140807D01*
X0345994Y0140928D02*
X0358072Y0140928D01*
X0358072Y0141049D02*
X0345994Y0141049D01*
X0345994Y0141170D02*
X0358072Y0141170D01*
X0358072Y0141291D02*
X0345994Y0141291D01*
X0345994Y0141412D02*
X0358072Y0141412D01*
X0358072Y0141533D02*
X0345994Y0141533D01*
X0345994Y0141654D02*
X0358072Y0141654D01*
X0358072Y0141775D02*
X0345994Y0141775D01*
X0345994Y0141896D02*
X0358072Y0141896D01*
X0345994Y0106939D02*
X0345994Y0090561D01*
X0345994Y0106939D02*
X0358072Y0106939D01*
X0358072Y0090561D01*
X0345994Y0090561D01*
X0345994Y0090682D02*
X0358072Y0090682D01*
X0358072Y0090803D02*
X0345994Y0090803D01*
X0345994Y0090924D02*
X0358072Y0090924D01*
X0358072Y0091045D02*
X0345994Y0091045D01*
X0345994Y0091166D02*
X0358072Y0091166D01*
X0358072Y0091287D02*
X0345994Y0091287D01*
X0345994Y0091408D02*
X0358072Y0091408D01*
X0358072Y0091529D02*
X0345994Y0091529D01*
X0345994Y0091650D02*
X0358072Y0091650D01*
X0358072Y0091771D02*
X0345994Y0091771D01*
X0345994Y0091892D02*
X0358072Y0091892D01*
X0358072Y0092013D02*
X0345994Y0092013D01*
X0345994Y0092134D02*
X0358072Y0092134D01*
X0358072Y0092255D02*
X0345994Y0092255D01*
X0345994Y0092376D02*
X0358072Y0092376D01*
X0358072Y0092497D02*
X0345994Y0092497D01*
X0345994Y0092618D02*
X0358072Y0092618D01*
X0358072Y0092739D02*
X0345994Y0092739D01*
X0345994Y0092860D02*
X0358072Y0092860D01*
X0358072Y0092981D02*
X0345994Y0092981D01*
X0345994Y0093102D02*
X0358072Y0093102D01*
X0358072Y0093223D02*
X0345994Y0093223D01*
X0345994Y0093344D02*
X0358072Y0093344D01*
X0358072Y0093465D02*
X0345994Y0093465D01*
X0345994Y0093586D02*
X0358072Y0093586D01*
X0358072Y0093707D02*
X0345994Y0093707D01*
X0345994Y0093828D02*
X0358072Y0093828D01*
X0358072Y0093949D02*
X0345994Y0093949D01*
X0345994Y0094070D02*
X0358072Y0094070D01*
X0358072Y0094191D02*
X0345994Y0094191D01*
X0345994Y0094312D02*
X0358072Y0094312D01*
X0358072Y0094433D02*
X0345994Y0094433D01*
X0345994Y0094554D02*
X0358072Y0094554D01*
X0358072Y0094675D02*
X0345994Y0094675D01*
X0345994Y0094796D02*
X0358072Y0094796D01*
X0358072Y0094917D02*
X0345994Y0094917D01*
X0345994Y0095038D02*
X0358072Y0095038D01*
X0358072Y0095159D02*
X0345994Y0095159D01*
X0345994Y0095280D02*
X0358072Y0095280D01*
X0358072Y0095401D02*
X0345994Y0095401D01*
X0345994Y0095522D02*
X0358072Y0095522D01*
X0358072Y0095643D02*
X0345994Y0095643D01*
X0345994Y0095764D02*
X0358072Y0095764D01*
X0358072Y0095885D02*
X0345994Y0095885D01*
X0345994Y0096006D02*
X0358072Y0096006D01*
X0358072Y0096127D02*
X0345994Y0096127D01*
X0345994Y0096248D02*
X0358072Y0096248D01*
X0358072Y0096369D02*
X0345994Y0096369D01*
X0345994Y0096490D02*
X0358072Y0096490D01*
X0358072Y0096611D02*
X0345994Y0096611D01*
X0345994Y0096732D02*
X0358072Y0096732D01*
X0358072Y0096853D02*
X0345994Y0096853D01*
X0345994Y0096974D02*
X0358072Y0096974D01*
X0358072Y0097095D02*
X0345994Y0097095D01*
X0345994Y0097216D02*
X0358072Y0097216D01*
X0358072Y0097337D02*
X0345994Y0097337D01*
X0345994Y0097458D02*
X0358072Y0097458D01*
X0358072Y0097579D02*
X0345994Y0097579D01*
X0345994Y0097700D02*
X0358072Y0097700D01*
X0358072Y0097821D02*
X0345994Y0097821D01*
X0345994Y0097942D02*
X0358072Y0097942D01*
X0358072Y0098063D02*
X0345994Y0098063D01*
X0345994Y0098184D02*
X0358072Y0098184D01*
X0358072Y0098305D02*
X0345994Y0098305D01*
X0345994Y0098426D02*
X0358072Y0098426D01*
X0358072Y0098547D02*
X0345994Y0098547D01*
X0345994Y0098668D02*
X0358072Y0098668D01*
X0358072Y0098789D02*
X0345994Y0098789D01*
X0345994Y0098910D02*
X0358072Y0098910D01*
X0358072Y0099031D02*
X0345994Y0099031D01*
X0345994Y0099152D02*
X0358072Y0099152D01*
X0358072Y0099273D02*
X0345994Y0099273D01*
X0345994Y0099394D02*
X0358072Y0099394D01*
X0358072Y0099515D02*
X0345994Y0099515D01*
X0345994Y0099636D02*
X0358072Y0099636D01*
X0358072Y0099757D02*
X0345994Y0099757D01*
X0345994Y0099878D02*
X0358072Y0099878D01*
X0358072Y0099999D02*
X0345994Y0099999D01*
X0345994Y0100120D02*
X0358072Y0100120D01*
X0358072Y0100241D02*
X0345994Y0100241D01*
X0345994Y0100362D02*
X0358072Y0100362D01*
X0358072Y0100483D02*
X0345994Y0100483D01*
X0345994Y0100604D02*
X0358072Y0100604D01*
X0358072Y0100725D02*
X0345994Y0100725D01*
X0345994Y0100846D02*
X0358072Y0100846D01*
X0358072Y0100967D02*
X0345994Y0100967D01*
X0345994Y0101088D02*
X0358072Y0101088D01*
X0358072Y0101209D02*
X0345994Y0101209D01*
X0345994Y0101330D02*
X0358072Y0101330D01*
X0358072Y0101451D02*
X0345994Y0101451D01*
X0345994Y0101572D02*
X0358072Y0101572D01*
X0358072Y0101693D02*
X0345994Y0101693D01*
X0345994Y0101814D02*
X0358072Y0101814D01*
X0358072Y0101935D02*
X0345994Y0101935D01*
X0345994Y0102056D02*
X0358072Y0102056D01*
X0358072Y0102177D02*
X0345994Y0102177D01*
X0345994Y0102298D02*
X0358072Y0102298D01*
X0358072Y0102419D02*
X0345994Y0102419D01*
X0345994Y0102540D02*
X0358072Y0102540D01*
X0358072Y0102661D02*
X0345994Y0102661D01*
X0345994Y0102782D02*
X0358072Y0102782D01*
X0358072Y0102903D02*
X0345994Y0102903D01*
X0345994Y0103024D02*
X0358072Y0103024D01*
X0358072Y0103145D02*
X0345994Y0103145D01*
X0345994Y0103266D02*
X0358072Y0103266D01*
X0358072Y0103387D02*
X0345994Y0103387D01*
X0345994Y0103508D02*
X0358072Y0103508D01*
X0358072Y0103629D02*
X0345994Y0103629D01*
X0345994Y0103750D02*
X0358072Y0103750D01*
X0358072Y0103871D02*
X0345994Y0103871D01*
X0345994Y0103992D02*
X0358072Y0103992D01*
X0358072Y0104113D02*
X0345994Y0104113D01*
X0345994Y0104234D02*
X0358072Y0104234D01*
X0358072Y0104355D02*
X0345994Y0104355D01*
X0345994Y0104476D02*
X0358072Y0104476D01*
X0358072Y0104597D02*
X0345994Y0104597D01*
X0345994Y0104718D02*
X0358072Y0104718D01*
X0358072Y0104839D02*
X0345994Y0104839D01*
X0345994Y0104960D02*
X0358072Y0104960D01*
X0358072Y0105081D02*
X0345994Y0105081D01*
X0345994Y0105202D02*
X0358072Y0105202D01*
X0358072Y0105323D02*
X0345994Y0105323D01*
X0345994Y0105444D02*
X0358072Y0105444D01*
X0358072Y0105565D02*
X0345994Y0105565D01*
X0345994Y0105686D02*
X0358072Y0105686D01*
X0358072Y0105807D02*
X0345994Y0105807D01*
X0345994Y0105928D02*
X0358072Y0105928D01*
X0358072Y0106049D02*
X0345994Y0106049D01*
X0345994Y0106170D02*
X0358072Y0106170D01*
X0358072Y0106291D02*
X0345994Y0106291D01*
X0345994Y0106412D02*
X0358072Y0106412D01*
X0358072Y0106533D02*
X0345994Y0106533D01*
X0345994Y0106654D02*
X0358072Y0106654D01*
X0358072Y0106775D02*
X0345994Y0106775D01*
X0345994Y0106896D02*
X0358072Y0106896D01*
X0345994Y0071939D02*
X0345994Y0055561D01*
X0345994Y0071939D02*
X0358072Y0071939D01*
X0358072Y0055561D01*
X0345994Y0055561D01*
X0345994Y0055682D02*
X0358072Y0055682D01*
X0358072Y0055803D02*
X0345994Y0055803D01*
X0345994Y0055924D02*
X0358072Y0055924D01*
X0358072Y0056045D02*
X0345994Y0056045D01*
X0345994Y0056166D02*
X0358072Y0056166D01*
X0358072Y0056287D02*
X0345994Y0056287D01*
X0345994Y0056408D02*
X0358072Y0056408D01*
X0358072Y0056529D02*
X0345994Y0056529D01*
X0345994Y0056650D02*
X0358072Y0056650D01*
X0358072Y0056771D02*
X0345994Y0056771D01*
X0345994Y0056892D02*
X0358072Y0056892D01*
X0358072Y0057013D02*
X0345994Y0057013D01*
X0345994Y0057134D02*
X0358072Y0057134D01*
X0358072Y0057255D02*
X0345994Y0057255D01*
X0345994Y0057376D02*
X0358072Y0057376D01*
X0358072Y0057497D02*
X0345994Y0057497D01*
X0345994Y0057618D02*
X0358072Y0057618D01*
X0358072Y0057739D02*
X0345994Y0057739D01*
X0345994Y0057860D02*
X0358072Y0057860D01*
X0358072Y0057981D02*
X0345994Y0057981D01*
X0345994Y0058102D02*
X0358072Y0058102D01*
X0358072Y0058223D02*
X0345994Y0058223D01*
X0345994Y0058344D02*
X0358072Y0058344D01*
X0358072Y0058465D02*
X0345994Y0058465D01*
X0345994Y0058586D02*
X0358072Y0058586D01*
X0358072Y0058707D02*
X0345994Y0058707D01*
X0345994Y0058828D02*
X0358072Y0058828D01*
X0358072Y0058949D02*
X0345994Y0058949D01*
X0345994Y0059070D02*
X0358072Y0059070D01*
X0358072Y0059191D02*
X0345994Y0059191D01*
X0345994Y0059312D02*
X0358072Y0059312D01*
X0358072Y0059433D02*
X0345994Y0059433D01*
X0345994Y0059554D02*
X0358072Y0059554D01*
X0358072Y0059675D02*
X0345994Y0059675D01*
X0345994Y0059796D02*
X0358072Y0059796D01*
X0358072Y0059917D02*
X0345994Y0059917D01*
X0345994Y0060038D02*
X0358072Y0060038D01*
X0358072Y0060159D02*
X0345994Y0060159D01*
X0345994Y0060280D02*
X0358072Y0060280D01*
X0358072Y0060401D02*
X0345994Y0060401D01*
X0345994Y0060522D02*
X0358072Y0060522D01*
X0358072Y0060643D02*
X0345994Y0060643D01*
X0345994Y0060764D02*
X0358072Y0060764D01*
X0358072Y0060885D02*
X0345994Y0060885D01*
X0345994Y0061006D02*
X0358072Y0061006D01*
X0358072Y0061127D02*
X0345994Y0061127D01*
X0345994Y0061248D02*
X0358072Y0061248D01*
X0358072Y0061369D02*
X0345994Y0061369D01*
X0345994Y0061490D02*
X0358072Y0061490D01*
X0358072Y0061611D02*
X0345994Y0061611D01*
X0345994Y0061732D02*
X0358072Y0061732D01*
X0358072Y0061853D02*
X0345994Y0061853D01*
X0345994Y0061974D02*
X0358072Y0061974D01*
X0358072Y0062095D02*
X0345994Y0062095D01*
X0345994Y0062216D02*
X0358072Y0062216D01*
X0358072Y0062337D02*
X0345994Y0062337D01*
X0345994Y0062458D02*
X0358072Y0062458D01*
X0358072Y0062579D02*
X0345994Y0062579D01*
X0345994Y0062700D02*
X0358072Y0062700D01*
X0358072Y0062821D02*
X0345994Y0062821D01*
X0345994Y0062942D02*
X0358072Y0062942D01*
X0358072Y0063063D02*
X0345994Y0063063D01*
X0345994Y0063184D02*
X0358072Y0063184D01*
X0358072Y0063305D02*
X0345994Y0063305D01*
X0345994Y0063426D02*
X0358072Y0063426D01*
X0358072Y0063547D02*
X0345994Y0063547D01*
X0345994Y0063668D02*
X0358072Y0063668D01*
X0358072Y0063789D02*
X0345994Y0063789D01*
X0345994Y0063910D02*
X0358072Y0063910D01*
X0358072Y0064031D02*
X0345994Y0064031D01*
X0345994Y0064152D02*
X0358072Y0064152D01*
X0358072Y0064273D02*
X0345994Y0064273D01*
X0345994Y0064394D02*
X0358072Y0064394D01*
X0358072Y0064515D02*
X0345994Y0064515D01*
X0345994Y0064636D02*
X0358072Y0064636D01*
X0358072Y0064757D02*
X0345994Y0064757D01*
X0345994Y0064878D02*
X0358072Y0064878D01*
X0358072Y0064999D02*
X0345994Y0064999D01*
X0345994Y0065120D02*
X0358072Y0065120D01*
X0358072Y0065241D02*
X0345994Y0065241D01*
X0345994Y0065362D02*
X0358072Y0065362D01*
X0358072Y0065483D02*
X0345994Y0065483D01*
X0345994Y0065604D02*
X0358072Y0065604D01*
X0358072Y0065725D02*
X0345994Y0065725D01*
X0345994Y0065846D02*
X0358072Y0065846D01*
X0358072Y0065967D02*
X0345994Y0065967D01*
X0345994Y0066088D02*
X0358072Y0066088D01*
X0358072Y0066209D02*
X0345994Y0066209D01*
X0345994Y0066330D02*
X0358072Y0066330D01*
X0358072Y0066451D02*
X0345994Y0066451D01*
X0345994Y0066572D02*
X0358072Y0066572D01*
X0358072Y0066693D02*
X0345994Y0066693D01*
X0345994Y0066814D02*
X0358072Y0066814D01*
X0358072Y0066935D02*
X0345994Y0066935D01*
X0345994Y0067056D02*
X0358072Y0067056D01*
X0358072Y0067177D02*
X0345994Y0067177D01*
X0345994Y0067298D02*
X0358072Y0067298D01*
X0358072Y0067419D02*
X0345994Y0067419D01*
X0345994Y0067540D02*
X0358072Y0067540D01*
X0358072Y0067661D02*
X0345994Y0067661D01*
X0345994Y0067782D02*
X0358072Y0067782D01*
X0358072Y0067903D02*
X0345994Y0067903D01*
X0345994Y0068024D02*
X0358072Y0068024D01*
X0358072Y0068145D02*
X0345994Y0068145D01*
X0345994Y0068266D02*
X0358072Y0068266D01*
X0358072Y0068387D02*
X0345994Y0068387D01*
X0345994Y0068508D02*
X0358072Y0068508D01*
X0358072Y0068629D02*
X0345994Y0068629D01*
X0345994Y0068750D02*
X0358072Y0068750D01*
X0358072Y0068871D02*
X0345994Y0068871D01*
X0345994Y0068992D02*
X0358072Y0068992D01*
X0358072Y0069113D02*
X0345994Y0069113D01*
X0345994Y0069234D02*
X0358072Y0069234D01*
X0358072Y0069355D02*
X0345994Y0069355D01*
X0345994Y0069476D02*
X0358072Y0069476D01*
X0358072Y0069597D02*
X0345994Y0069597D01*
X0345994Y0069718D02*
X0358072Y0069718D01*
X0358072Y0069839D02*
X0345994Y0069839D01*
X0345994Y0069960D02*
X0358072Y0069960D01*
X0358072Y0070081D02*
X0345994Y0070081D01*
X0345994Y0070202D02*
X0358072Y0070202D01*
X0358072Y0070323D02*
X0345994Y0070323D01*
X0345994Y0070444D02*
X0358072Y0070444D01*
X0358072Y0070565D02*
X0345994Y0070565D01*
X0345994Y0070686D02*
X0358072Y0070686D01*
X0358072Y0070807D02*
X0345994Y0070807D01*
X0345994Y0070928D02*
X0358072Y0070928D01*
X0358072Y0071049D02*
X0345994Y0071049D01*
X0345994Y0071170D02*
X0358072Y0071170D01*
X0358072Y0071291D02*
X0345994Y0071291D01*
X0345994Y0071412D02*
X0358072Y0071412D01*
X0358072Y0071533D02*
X0345994Y0071533D01*
X0345994Y0071654D02*
X0358072Y0071654D01*
X0358072Y0071775D02*
X0345994Y0071775D01*
X0345994Y0071896D02*
X0358072Y0071896D01*
D13*
X0373534Y0073750D03*
X0386133Y0073750D03*
X0386133Y0123750D03*
X0373534Y0123750D03*
D14*
X0174310Y0054305D02*
X0172420Y0054305D01*
X0172420Y0056195D01*
X0174310Y0056195D01*
X0174310Y0054305D01*
X0174310Y0054776D02*
X0172420Y0054776D01*
X0172420Y0055247D02*
X0174310Y0055247D01*
X0174310Y0055718D02*
X0172420Y0055718D01*
X0172420Y0056189D02*
X0174310Y0056189D01*
X0176357Y0054305D02*
X0178247Y0054305D01*
X0176357Y0054305D02*
X0176357Y0056195D01*
X0178247Y0056195D01*
X0178247Y0054305D01*
X0178247Y0054776D02*
X0176357Y0054776D01*
X0176357Y0055247D02*
X0178247Y0055247D01*
X0178247Y0055718D02*
X0176357Y0055718D01*
X0176357Y0056189D02*
X0178247Y0056189D01*
X0182920Y0054305D02*
X0184810Y0054305D01*
X0182920Y0054305D02*
X0182920Y0056195D01*
X0184810Y0056195D01*
X0184810Y0054305D01*
X0184810Y0054776D02*
X0182920Y0054776D01*
X0182920Y0055247D02*
X0184810Y0055247D01*
X0184810Y0055718D02*
X0182920Y0055718D01*
X0182920Y0056189D02*
X0184810Y0056189D01*
X0186857Y0054305D02*
X0188747Y0054305D01*
X0186857Y0054305D02*
X0186857Y0056195D01*
X0188747Y0056195D01*
X0188747Y0054305D01*
X0188747Y0054776D02*
X0186857Y0054776D01*
X0186857Y0055247D02*
X0188747Y0055247D01*
X0188747Y0055718D02*
X0186857Y0055718D01*
X0186857Y0056189D02*
X0188747Y0056189D01*
X0190920Y0054305D02*
X0192810Y0054305D01*
X0190920Y0054305D02*
X0190920Y0056195D01*
X0192810Y0056195D01*
X0192810Y0054305D01*
X0192810Y0054776D02*
X0190920Y0054776D01*
X0190920Y0055247D02*
X0192810Y0055247D01*
X0192810Y0055718D02*
X0190920Y0055718D01*
X0190920Y0056189D02*
X0192810Y0056189D01*
X0194857Y0054305D02*
X0196747Y0054305D01*
X0194857Y0054305D02*
X0194857Y0056195D01*
X0196747Y0056195D01*
X0196747Y0054305D01*
X0196747Y0054776D02*
X0194857Y0054776D01*
X0194857Y0055247D02*
X0196747Y0055247D01*
X0196747Y0055718D02*
X0194857Y0055718D01*
X0194857Y0056189D02*
X0196747Y0056189D01*
X0204975Y0082589D02*
X0206865Y0082589D01*
X0206865Y0079911D01*
X0204975Y0079911D01*
X0204975Y0082589D01*
X0204975Y0080382D02*
X0206865Y0080382D01*
X0206865Y0080853D02*
X0204975Y0080853D01*
X0204975Y0081324D02*
X0206865Y0081324D01*
X0206865Y0081795D02*
X0204975Y0081795D01*
X0204975Y0082266D02*
X0206865Y0082266D01*
X0210802Y0082589D02*
X0212692Y0082589D01*
X0212692Y0079911D01*
X0210802Y0079911D01*
X0210802Y0082589D01*
X0210802Y0080382D02*
X0212692Y0080382D01*
X0212692Y0080853D02*
X0210802Y0080853D01*
X0210802Y0081324D02*
X0212692Y0081324D01*
X0212692Y0081795D02*
X0210802Y0081795D01*
X0210802Y0082266D02*
X0212692Y0082266D01*
X0202692Y0089911D02*
X0200802Y0089911D01*
X0200802Y0092589D01*
X0202692Y0092589D01*
X0202692Y0089911D01*
X0202692Y0090382D02*
X0200802Y0090382D01*
X0200802Y0090853D02*
X0202692Y0090853D01*
X0202692Y0091324D02*
X0200802Y0091324D01*
X0200802Y0091795D02*
X0202692Y0091795D01*
X0202692Y0092266D02*
X0200802Y0092266D01*
X0196865Y0089911D02*
X0194975Y0089911D01*
X0194975Y0092589D01*
X0196865Y0092589D01*
X0196865Y0089911D01*
X0196865Y0090382D02*
X0194975Y0090382D01*
X0194975Y0090853D02*
X0196865Y0090853D01*
X0196865Y0091324D02*
X0194975Y0091324D01*
X0194975Y0091795D02*
X0196865Y0091795D01*
X0196865Y0092266D02*
X0194975Y0092266D01*
X0194975Y0100089D02*
X0196865Y0100089D01*
X0196865Y0097411D01*
X0194975Y0097411D01*
X0194975Y0100089D01*
X0194975Y0097882D02*
X0196865Y0097882D01*
X0196865Y0098353D02*
X0194975Y0098353D01*
X0194975Y0098824D02*
X0196865Y0098824D01*
X0196865Y0099295D02*
X0194975Y0099295D01*
X0194975Y0099766D02*
X0196865Y0099766D01*
X0200802Y0100089D02*
X0202692Y0100089D01*
X0202692Y0097411D01*
X0200802Y0097411D01*
X0200802Y0100089D01*
X0200802Y0097882D02*
X0202692Y0097882D01*
X0202692Y0098353D02*
X0200802Y0098353D01*
X0200802Y0098824D02*
X0202692Y0098824D01*
X0202692Y0099295D02*
X0200802Y0099295D01*
X0200802Y0099766D02*
X0202692Y0099766D01*
X0252994Y0059608D02*
X0252994Y0057718D01*
X0252994Y0059608D02*
X0255672Y0059608D01*
X0255672Y0057718D01*
X0252994Y0057718D01*
X0252994Y0058189D02*
X0255672Y0058189D01*
X0255672Y0058660D02*
X0252994Y0058660D01*
X0252994Y0059131D02*
X0255672Y0059131D01*
X0255672Y0059602D02*
X0252994Y0059602D01*
X0252994Y0053782D02*
X0252994Y0051892D01*
X0252994Y0053782D02*
X0255672Y0053782D01*
X0255672Y0051892D01*
X0252994Y0051892D01*
X0252994Y0052363D02*
X0255672Y0052363D01*
X0255672Y0052834D02*
X0252994Y0052834D01*
X0252994Y0053305D02*
X0255672Y0053305D01*
X0255672Y0053776D02*
X0252994Y0053776D01*
X0252278Y0039164D02*
X0252278Y0037274D01*
X0250388Y0037274D01*
X0250388Y0039164D01*
X0252278Y0039164D01*
X0252278Y0037745D02*
X0250388Y0037745D01*
X0250388Y0038216D02*
X0252278Y0038216D01*
X0252278Y0038687D02*
X0250388Y0038687D01*
X0250388Y0039158D02*
X0252278Y0039158D01*
X0252278Y0035226D02*
X0252278Y0033336D01*
X0250388Y0033336D01*
X0250388Y0035226D01*
X0252278Y0035226D01*
X0252278Y0033807D02*
X0250388Y0033807D01*
X0250388Y0034278D02*
X0252278Y0034278D01*
X0252278Y0034749D02*
X0250388Y0034749D01*
X0250388Y0035220D02*
X0252278Y0035220D01*
X0282888Y0035226D02*
X0282888Y0033336D01*
X0282888Y0035226D02*
X0284778Y0035226D01*
X0284778Y0033336D01*
X0282888Y0033336D01*
X0282888Y0033807D02*
X0284778Y0033807D01*
X0284778Y0034278D02*
X0282888Y0034278D01*
X0282888Y0034749D02*
X0284778Y0034749D01*
X0284778Y0035220D02*
X0282888Y0035220D01*
X0282888Y0037274D02*
X0282888Y0039164D01*
X0284778Y0039164D01*
X0284778Y0037274D01*
X0282888Y0037274D01*
X0282888Y0037745D02*
X0284778Y0037745D01*
X0284778Y0038216D02*
X0282888Y0038216D01*
X0282888Y0038687D02*
X0284778Y0038687D01*
X0284778Y0039158D02*
X0282888Y0039158D01*
X0291278Y0039164D02*
X0291278Y0037274D01*
X0289388Y0037274D01*
X0289388Y0039164D01*
X0291278Y0039164D01*
X0291278Y0037745D02*
X0289388Y0037745D01*
X0289388Y0038216D02*
X0291278Y0038216D01*
X0291278Y0038687D02*
X0289388Y0038687D01*
X0289388Y0039158D02*
X0291278Y0039158D01*
X0291278Y0035226D02*
X0291278Y0033336D01*
X0289388Y0033336D01*
X0289388Y0035226D01*
X0291278Y0035226D01*
X0291278Y0033807D02*
X0289388Y0033807D01*
X0289388Y0034278D02*
X0291278Y0034278D01*
X0291278Y0034749D02*
X0289388Y0034749D01*
X0289388Y0035220D02*
X0291278Y0035220D01*
X0329975Y0037089D02*
X0331865Y0037089D01*
X0331865Y0034411D01*
X0329975Y0034411D01*
X0329975Y0037089D01*
X0329975Y0034882D02*
X0331865Y0034882D01*
X0331865Y0035353D02*
X0329975Y0035353D01*
X0329975Y0035824D02*
X0331865Y0035824D01*
X0331865Y0036295D02*
X0329975Y0036295D01*
X0329975Y0036766D02*
X0331865Y0036766D01*
X0335802Y0037089D02*
X0337692Y0037089D01*
X0337692Y0034411D01*
X0335802Y0034411D01*
X0335802Y0037089D01*
X0335802Y0034882D02*
X0337692Y0034882D01*
X0337692Y0035353D02*
X0335802Y0035353D01*
X0335802Y0035824D02*
X0337692Y0035824D01*
X0337692Y0036295D02*
X0335802Y0036295D01*
X0335802Y0036766D02*
X0337692Y0036766D01*
X0337192Y0050089D02*
X0335302Y0050089D01*
X0337192Y0050089D02*
X0337192Y0047411D01*
X0335302Y0047411D01*
X0335302Y0050089D01*
X0335302Y0047882D02*
X0337192Y0047882D01*
X0337192Y0048353D02*
X0335302Y0048353D01*
X0335302Y0048824D02*
X0337192Y0048824D01*
X0337192Y0049295D02*
X0335302Y0049295D01*
X0335302Y0049766D02*
X0337192Y0049766D01*
X0331365Y0050089D02*
X0329475Y0050089D01*
X0331365Y0050089D02*
X0331365Y0047411D01*
X0329475Y0047411D01*
X0329475Y0050089D01*
X0329475Y0047882D02*
X0331365Y0047882D01*
X0331365Y0048353D02*
X0329475Y0048353D01*
X0329475Y0048824D02*
X0331365Y0048824D01*
X0331365Y0049295D02*
X0329475Y0049295D01*
X0329475Y0049766D02*
X0331365Y0049766D01*
X0332888Y0078336D02*
X0332888Y0080226D01*
X0334778Y0080226D01*
X0334778Y0078336D01*
X0332888Y0078336D01*
X0332888Y0078807D02*
X0334778Y0078807D01*
X0334778Y0079278D02*
X0332888Y0079278D01*
X0332888Y0079749D02*
X0334778Y0079749D01*
X0334778Y0080220D02*
X0332888Y0080220D01*
X0332888Y0082274D02*
X0332888Y0084164D01*
X0334778Y0084164D01*
X0334778Y0082274D01*
X0332888Y0082274D01*
X0332888Y0082745D02*
X0334778Y0082745D01*
X0334778Y0083216D02*
X0332888Y0083216D01*
X0332888Y0083687D02*
X0334778Y0083687D01*
X0334778Y0084158D02*
X0332888Y0084158D01*
X0327888Y0084164D02*
X0327888Y0082274D01*
X0327888Y0084164D02*
X0329778Y0084164D01*
X0329778Y0082274D01*
X0327888Y0082274D01*
X0327888Y0082745D02*
X0329778Y0082745D01*
X0329778Y0083216D02*
X0327888Y0083216D01*
X0327888Y0083687D02*
X0329778Y0083687D01*
X0329778Y0084158D02*
X0327888Y0084158D01*
X0327888Y0080226D02*
X0327888Y0078336D01*
X0327888Y0080226D02*
X0329778Y0080226D01*
X0329778Y0078336D01*
X0327888Y0078336D01*
X0327888Y0078807D02*
X0329778Y0078807D01*
X0329778Y0079278D02*
X0327888Y0079278D01*
X0327888Y0079749D02*
X0329778Y0079749D01*
X0329778Y0080220D02*
X0327888Y0080220D01*
X0337888Y0080226D02*
X0337888Y0078336D01*
X0337888Y0080226D02*
X0339778Y0080226D01*
X0339778Y0078336D01*
X0337888Y0078336D01*
X0337888Y0078807D02*
X0339778Y0078807D01*
X0339778Y0079278D02*
X0337888Y0079278D01*
X0337888Y0079749D02*
X0339778Y0079749D01*
X0339778Y0080220D02*
X0337888Y0080220D01*
X0337888Y0082274D02*
X0337888Y0084164D01*
X0339778Y0084164D01*
X0339778Y0082274D01*
X0337888Y0082274D01*
X0337888Y0082745D02*
X0339778Y0082745D01*
X0339778Y0083216D02*
X0337888Y0083216D01*
X0337888Y0083687D02*
X0339778Y0083687D01*
X0339778Y0084158D02*
X0337888Y0084158D01*
X0337888Y0113336D02*
X0337888Y0115226D01*
X0339778Y0115226D01*
X0339778Y0113336D01*
X0337888Y0113336D01*
X0337888Y0113807D02*
X0339778Y0113807D01*
X0339778Y0114278D02*
X0337888Y0114278D01*
X0337888Y0114749D02*
X0339778Y0114749D01*
X0339778Y0115220D02*
X0337888Y0115220D01*
X0337888Y0117274D02*
X0337888Y0119164D01*
X0339778Y0119164D01*
X0339778Y0117274D01*
X0337888Y0117274D01*
X0337888Y0117745D02*
X0339778Y0117745D01*
X0339778Y0118216D02*
X0337888Y0118216D01*
X0337888Y0118687D02*
X0339778Y0118687D01*
X0339778Y0119158D02*
X0337888Y0119158D01*
X0332888Y0119164D02*
X0332888Y0117274D01*
X0332888Y0119164D02*
X0334778Y0119164D01*
X0334778Y0117274D01*
X0332888Y0117274D01*
X0332888Y0117745D02*
X0334778Y0117745D01*
X0334778Y0118216D02*
X0332888Y0118216D01*
X0332888Y0118687D02*
X0334778Y0118687D01*
X0334778Y0119158D02*
X0332888Y0119158D01*
X0327888Y0119164D02*
X0327888Y0117274D01*
X0327888Y0119164D02*
X0329778Y0119164D01*
X0329778Y0117274D01*
X0327888Y0117274D01*
X0327888Y0117745D02*
X0329778Y0117745D01*
X0329778Y0118216D02*
X0327888Y0118216D01*
X0327888Y0118687D02*
X0329778Y0118687D01*
X0329778Y0119158D02*
X0327888Y0119158D01*
X0327888Y0115226D02*
X0327888Y0113336D01*
X0327888Y0115226D02*
X0329778Y0115226D01*
X0329778Y0113336D01*
X0327888Y0113336D01*
X0327888Y0113807D02*
X0329778Y0113807D01*
X0329778Y0114278D02*
X0327888Y0114278D01*
X0327888Y0114749D02*
X0329778Y0114749D01*
X0329778Y0115220D02*
X0327888Y0115220D01*
X0332888Y0115226D02*
X0332888Y0113336D01*
X0332888Y0115226D02*
X0334778Y0115226D01*
X0334778Y0113336D01*
X0332888Y0113336D01*
X0332888Y0113807D02*
X0334778Y0113807D01*
X0334778Y0114278D02*
X0332888Y0114278D01*
X0332888Y0114749D02*
X0334778Y0114749D01*
X0334778Y0115220D02*
X0332888Y0115220D01*
X0332888Y0145836D02*
X0332888Y0147726D01*
X0334778Y0147726D01*
X0334778Y0145836D01*
X0332888Y0145836D01*
X0332888Y0146307D02*
X0334778Y0146307D01*
X0334778Y0146778D02*
X0332888Y0146778D01*
X0332888Y0147249D02*
X0334778Y0147249D01*
X0334778Y0147720D02*
X0332888Y0147720D01*
X0332888Y0149774D02*
X0332888Y0151664D01*
X0334778Y0151664D01*
X0334778Y0149774D01*
X0332888Y0149774D01*
X0332888Y0150245D02*
X0334778Y0150245D01*
X0334778Y0150716D02*
X0332888Y0150716D01*
X0332888Y0151187D02*
X0334778Y0151187D01*
X0334778Y0151658D02*
X0332888Y0151658D01*
X0327888Y0151664D02*
X0327888Y0149774D01*
X0327888Y0151664D02*
X0329778Y0151664D01*
X0329778Y0149774D01*
X0327888Y0149774D01*
X0327888Y0150245D02*
X0329778Y0150245D01*
X0329778Y0150716D02*
X0327888Y0150716D01*
X0327888Y0151187D02*
X0329778Y0151187D01*
X0329778Y0151658D02*
X0327888Y0151658D01*
X0327888Y0147726D02*
X0327888Y0145836D01*
X0327888Y0147726D02*
X0329778Y0147726D01*
X0329778Y0145836D01*
X0327888Y0145836D01*
X0327888Y0146307D02*
X0329778Y0146307D01*
X0329778Y0146778D02*
X0327888Y0146778D01*
X0327888Y0147249D02*
X0329778Y0147249D01*
X0329778Y0147720D02*
X0327888Y0147720D01*
X0337888Y0147726D02*
X0337888Y0145836D01*
X0337888Y0147726D02*
X0339778Y0147726D01*
X0339778Y0145836D01*
X0337888Y0145836D01*
X0337888Y0146307D02*
X0339778Y0146307D01*
X0339778Y0146778D02*
X0337888Y0146778D01*
X0337888Y0147249D02*
X0339778Y0147249D01*
X0339778Y0147720D02*
X0337888Y0147720D01*
X0337888Y0149774D02*
X0337888Y0151664D01*
X0339778Y0151664D01*
X0339778Y0149774D01*
X0337888Y0149774D01*
X0337888Y0150245D02*
X0339778Y0150245D01*
X0339778Y0150716D02*
X0337888Y0150716D01*
X0337888Y0151187D02*
X0339778Y0151187D01*
X0339778Y0151658D02*
X0337888Y0151658D01*
D15*
X0260034Y0121250D03*
X0260034Y0116250D03*
X0260034Y0111250D03*
X0260034Y0106250D03*
X0260034Y0101250D03*
X0260034Y0096250D03*
X0260034Y0091250D03*
X0260034Y0086250D03*
X0260034Y0081250D03*
X0260034Y0076250D03*
X0260034Y0071250D03*
X0260034Y0066250D03*
X0222633Y0066250D03*
X0222633Y0071250D03*
X0222633Y0076250D03*
X0222633Y0081250D03*
X0222633Y0086250D03*
X0222633Y0091250D03*
X0222633Y0096250D03*
X0222633Y0101250D03*
X0222633Y0106250D03*
X0222633Y0111250D03*
X0222633Y0116250D03*
X0222633Y0121250D03*
D16*
X0237101Y0128849D02*
X0237101Y0133651D01*
X0237101Y0128849D02*
X0233479Y0128849D01*
X0233479Y0133651D01*
X0237101Y0133651D01*
X0237101Y0129754D02*
X0233479Y0129754D01*
X0233479Y0130659D02*
X0237101Y0130659D01*
X0237101Y0131564D02*
X0233479Y0131564D01*
X0233479Y0132469D02*
X0237101Y0132469D01*
X0237101Y0133374D02*
X0233479Y0133374D01*
X0244188Y0133651D02*
X0244188Y0128849D01*
X0240566Y0128849D01*
X0240566Y0133651D01*
X0244188Y0133651D01*
X0244188Y0129754D02*
X0240566Y0129754D01*
X0240566Y0130659D02*
X0244188Y0130659D01*
X0244188Y0131564D02*
X0240566Y0131564D01*
X0240566Y0132469D02*
X0244188Y0132469D01*
X0244188Y0133374D02*
X0240566Y0133374D01*
X0273932Y0099104D02*
X0278734Y0099104D01*
X0278734Y0095482D01*
X0273932Y0095482D01*
X0273932Y0099104D01*
X0273932Y0096387D02*
X0278734Y0096387D01*
X0278734Y0097292D02*
X0273932Y0097292D01*
X0273932Y0098197D02*
X0278734Y0098197D01*
X0278734Y0099102D02*
X0273932Y0099102D01*
X0273932Y0092018D02*
X0278734Y0092018D01*
X0278734Y0088396D01*
X0273932Y0088396D01*
X0273932Y0092018D01*
X0273932Y0089301D02*
X0278734Y0089301D01*
X0278734Y0090206D02*
X0273932Y0090206D01*
X0273932Y0091111D02*
X0278734Y0091111D01*
X0278734Y0092016D02*
X0273932Y0092016D01*
X0273932Y0076604D02*
X0278734Y0076604D01*
X0278734Y0072982D01*
X0273932Y0072982D01*
X0273932Y0076604D01*
X0273932Y0073887D02*
X0278734Y0073887D01*
X0278734Y0074792D02*
X0273932Y0074792D01*
X0273932Y0075697D02*
X0278734Y0075697D01*
X0278734Y0076602D02*
X0273932Y0076602D01*
X0273932Y0069518D02*
X0278734Y0069518D01*
X0278734Y0065896D01*
X0273932Y0065896D01*
X0273932Y0069518D01*
X0273932Y0066801D02*
X0278734Y0066801D01*
X0278734Y0067706D02*
X0273932Y0067706D01*
X0273932Y0068611D02*
X0278734Y0068611D01*
X0278734Y0069516D02*
X0273932Y0069516D01*
X0243734Y0040482D02*
X0238932Y0040482D01*
X0238932Y0044104D01*
X0243734Y0044104D01*
X0243734Y0040482D01*
X0243734Y0041387D02*
X0238932Y0041387D01*
X0238932Y0042292D02*
X0243734Y0042292D01*
X0243734Y0043197D02*
X0238932Y0043197D01*
X0238932Y0044102D02*
X0243734Y0044102D01*
X0243734Y0033396D02*
X0238932Y0033396D01*
X0238932Y0037018D01*
X0243734Y0037018D01*
X0243734Y0033396D01*
X0243734Y0034301D02*
X0238932Y0034301D01*
X0238932Y0035206D02*
X0243734Y0035206D01*
X0243734Y0036111D02*
X0238932Y0036111D01*
X0238932Y0037016D02*
X0243734Y0037016D01*
D17*
X0286333Y0060285D03*
X0286333Y0077215D03*
X0286333Y0107785D03*
X0286333Y0124715D03*
X0256333Y0140285D03*
X0243833Y0140285D03*
X0231333Y0140285D03*
X0231333Y0157215D03*
X0243833Y0157215D03*
X0256333Y0157215D03*
D18*
X0260369Y0131250D03*
X0277298Y0131250D03*
X0305369Y0116250D03*
X0322298Y0116250D03*
X0345369Y0116250D03*
X0362298Y0116250D03*
X0362298Y0081250D03*
X0345369Y0081250D03*
X0322298Y0081250D03*
X0305369Y0081250D03*
X0305369Y0046250D03*
X0322298Y0046250D03*
X0345369Y0046250D03*
X0362298Y0046250D03*
D19*
X0276333Y0036014D03*
X0271333Y0036014D03*
X0266333Y0036014D03*
X0261333Y0036014D03*
X0261333Y0056486D03*
X0266333Y0056486D03*
X0271333Y0056486D03*
X0276333Y0056486D03*
D20*
X0258833Y0208500D03*
X0258833Y0214000D03*
D21*
X0282333Y0215350D03*
X0282333Y0227150D03*
D22*
X0236333Y0212300D03*
X0236333Y0205200D03*
D23*
X0250283Y0226250D03*
D24*
X0239533Y0226250D03*
D25*
X0248833Y0213250D03*
X0248833Y0204250D03*
D26*
X0269683Y0201250D03*
X0272983Y0201250D03*
X0277183Y0201250D03*
X0280483Y0201250D03*
D27*
X0272574Y0216650D03*
X0268833Y0216650D03*
X0265093Y0216650D03*
X0265093Y0225850D03*
X0268833Y0225850D03*
X0272574Y0225850D03*
D28*
G36*
X0190792Y0103065D02*
X0188288Y0100561D01*
X0185644Y0103205D01*
X0188148Y0105709D01*
X0190792Y0103065D01*
G37*
G36*
X0182023Y0094295D02*
X0179519Y0091791D01*
X0176875Y0094435D01*
X0179379Y0096939D01*
X0182023Y0094295D01*
G37*
D29*
X0330540Y0041250D03*
X0337627Y0041250D03*
D30*
X0224503Y0270010D03*
X0224503Y0277490D03*
X0233164Y0273750D03*
M02*
