G75*
%MOIN*%
%OFA0B0*%
%FSLAX25Y25*%
%IPPOS*%
%LPD*%
%AMOC8*
5,1,8,0,0,1.08239X$1,22.5*
%
%ADD10R,0.65000X0.20000*%
%ADD11R,0.11200X0.11200*%
%ADD12C,0.13200*%
%ADD13OC8,0.13200*%
%ADD14R,0.08200X0.08200*%
%ADD15C,0.08200*%
%ADD16R,0.05150X0.05150*%
%ADD17C,0.05150*%
%ADD18C,0.07400*%
%ADD19C,0.12500*%
%ADD20C,0.13800*%
%ADD21C,0.06000*%
%ADD22C,0.04756*%
D10*
X0353833Y0063750D03*
X0353833Y0098750D03*
X0353833Y0133750D03*
D11*
X0403833Y0133750D03*
X0403833Y0098750D03*
X0403833Y0063750D03*
X0271333Y0266250D03*
X0246333Y0266250D03*
D12*
X0303833Y0201250D03*
X0303833Y0173750D03*
D13*
X0403833Y0173750D03*
X0403833Y0201250D03*
D14*
X0171333Y0276250D03*
X0161333Y0276250D03*
X0151333Y0276250D03*
X0081333Y0086250D03*
X0071333Y0086250D03*
X0061333Y0086250D03*
D15*
X0061333Y0096250D03*
X0061333Y0106250D03*
X0071333Y0106250D03*
X0071333Y0096250D03*
X0081333Y0096250D03*
X0081333Y0106250D03*
X0081333Y0116250D03*
X0071333Y0116250D03*
X0061333Y0116250D03*
X0061333Y0126250D03*
X0061333Y0136250D03*
X0071333Y0136250D03*
X0071333Y0126250D03*
X0081333Y0126250D03*
X0081333Y0136250D03*
X0081333Y0146250D03*
X0071333Y0146250D03*
X0061333Y0146250D03*
X0061333Y0156250D03*
X0071333Y0156250D03*
X0081333Y0156250D03*
X0081333Y0166250D03*
X0071333Y0166250D03*
X0061333Y0166250D03*
X0061333Y0176250D03*
X0061333Y0186250D03*
X0071333Y0186250D03*
X0071333Y0176250D03*
X0081333Y0176250D03*
X0081333Y0186250D03*
X0081333Y0196250D03*
X0071333Y0196250D03*
X0061333Y0196250D03*
X0061333Y0206250D03*
X0071333Y0206250D03*
X0081333Y0206250D03*
X0081333Y0216250D03*
X0071333Y0216250D03*
X0061333Y0216250D03*
X0061333Y0226250D03*
X0071333Y0226250D03*
X0081333Y0226250D03*
X0081333Y0236250D03*
X0071333Y0236250D03*
X0061333Y0236250D03*
X0061333Y0246250D03*
X0061333Y0256250D03*
X0071333Y0256250D03*
X0071333Y0246250D03*
X0081333Y0246250D03*
X0081333Y0256250D03*
X0081333Y0266250D03*
X0071333Y0266250D03*
X0061333Y0266250D03*
X0061333Y0276250D03*
X0071333Y0276250D03*
X0081333Y0276250D03*
X0151333Y0266250D03*
X0161333Y0266250D03*
X0171333Y0266250D03*
X0171333Y0256250D03*
X0161333Y0256250D03*
X0151333Y0256250D03*
X0151333Y0246250D03*
X0151333Y0236250D03*
X0161333Y0236250D03*
X0161333Y0246250D03*
X0171333Y0246250D03*
X0171333Y0236250D03*
X0171333Y0226250D03*
X0161333Y0226250D03*
X0151333Y0226250D03*
X0151333Y0216250D03*
X0161333Y0216250D03*
X0171333Y0216250D03*
X0171333Y0206250D03*
X0161333Y0206250D03*
X0151333Y0206250D03*
X0151333Y0196250D03*
X0161333Y0196250D03*
X0171333Y0196250D03*
X0171333Y0186250D03*
X0161333Y0186250D03*
X0151333Y0186250D03*
X0151333Y0176250D03*
X0151333Y0166250D03*
X0161333Y0166250D03*
X0161333Y0176250D03*
X0171333Y0176250D03*
X0171333Y0166250D03*
X0171333Y0156250D03*
X0161333Y0156250D03*
X0151333Y0156250D03*
X0151333Y0146250D03*
X0161333Y0146250D03*
X0171333Y0146250D03*
X0171333Y0136250D03*
X0161333Y0136250D03*
X0151333Y0136250D03*
X0151333Y0126250D03*
X0151333Y0116250D03*
X0161333Y0116250D03*
X0161333Y0126250D03*
X0171333Y0126250D03*
X0171333Y0116250D03*
X0171333Y0106250D03*
X0161333Y0106250D03*
X0151333Y0106250D03*
X0151333Y0096250D03*
X0161333Y0096250D03*
X0171333Y0096250D03*
X0171333Y0086250D03*
X0161333Y0086250D03*
X0151333Y0086250D03*
X0248833Y0166250D03*
X0236333Y0238750D03*
X0236333Y0248750D03*
D16*
X0201333Y0271250D03*
X0201333Y0221250D03*
X0206333Y0043750D03*
X0086333Y0043750D03*
D17*
X0046333Y0043750D03*
X0056333Y0043750D03*
X0066333Y0043750D03*
X0076333Y0043750D03*
X0166333Y0043750D03*
X0176333Y0043750D03*
X0186333Y0043750D03*
X0196333Y0043750D03*
X0248833Y0108750D03*
X0268833Y0178750D03*
X0201333Y0191250D03*
X0201333Y0201250D03*
X0201333Y0211250D03*
X0201333Y0241250D03*
X0201333Y0251250D03*
X0201333Y0261250D03*
D18*
X0131255Y0064050D03*
X0131255Y0056250D03*
X0121412Y0056250D03*
X0121412Y0064050D03*
D19*
X0102633Y0045550D03*
X0150033Y0045550D03*
D20*
X0041333Y0066250D03*
X0041333Y0271250D03*
X0403833Y0273750D03*
X0403833Y0041250D03*
D21*
X0251333Y0176150D02*
X0251333Y0181350D01*
X0241333Y0181350D02*
X0241333Y0176150D01*
X0231333Y0176150D02*
X0231333Y0181350D01*
D22*
X0121333Y0113750D03*
M02*
