G75*
%MOIN*%
%OFA0B0*%
%FSLAX25Y25*%
%IPPOS*%
%LPD*%
%AMOC8*
5,1,8,0,0,1.08239X$1,22.5*
%
%ADD10C,0.00000*%
D10*
X0031333Y0038750D02*
X0031333Y0273750D01*
X0031336Y0273992D01*
X0031345Y0274233D01*
X0031359Y0274474D01*
X0031380Y0274715D01*
X0031406Y0274955D01*
X0031438Y0275195D01*
X0031476Y0275434D01*
X0031519Y0275671D01*
X0031569Y0275908D01*
X0031624Y0276143D01*
X0031684Y0276377D01*
X0031751Y0276609D01*
X0031822Y0276840D01*
X0031900Y0277069D01*
X0031983Y0277296D01*
X0032071Y0277521D01*
X0032165Y0277744D01*
X0032264Y0277964D01*
X0032369Y0278182D01*
X0032478Y0278397D01*
X0032593Y0278610D01*
X0032713Y0278820D01*
X0032838Y0279026D01*
X0032968Y0279230D01*
X0033103Y0279431D01*
X0033243Y0279628D01*
X0033387Y0279822D01*
X0033536Y0280012D01*
X0033690Y0280198D01*
X0033848Y0280381D01*
X0034010Y0280560D01*
X0034177Y0280735D01*
X0034348Y0280906D01*
X0034523Y0281073D01*
X0034702Y0281235D01*
X0034885Y0281393D01*
X0035071Y0281547D01*
X0035261Y0281696D01*
X0035455Y0281840D01*
X0035652Y0281980D01*
X0035853Y0282115D01*
X0036057Y0282245D01*
X0036263Y0282370D01*
X0036473Y0282490D01*
X0036686Y0282605D01*
X0036901Y0282714D01*
X0037119Y0282819D01*
X0037339Y0282918D01*
X0037562Y0283012D01*
X0037787Y0283100D01*
X0038014Y0283183D01*
X0038243Y0283261D01*
X0038474Y0283332D01*
X0038706Y0283399D01*
X0038940Y0283459D01*
X0039175Y0283514D01*
X0039412Y0283564D01*
X0039649Y0283607D01*
X0039888Y0283645D01*
X0040128Y0283677D01*
X0040368Y0283703D01*
X0040609Y0283724D01*
X0040850Y0283738D01*
X0041091Y0283747D01*
X0041333Y0283750D01*
X0405333Y0283750D01*
X0405575Y0283747D01*
X0405816Y0283738D01*
X0406057Y0283724D01*
X0406298Y0283703D01*
X0406538Y0283677D01*
X0406778Y0283645D01*
X0407017Y0283607D01*
X0407254Y0283564D01*
X0407491Y0283514D01*
X0407726Y0283459D01*
X0407960Y0283399D01*
X0408192Y0283332D01*
X0408423Y0283261D01*
X0408652Y0283183D01*
X0408879Y0283100D01*
X0409104Y0283012D01*
X0409327Y0282918D01*
X0409547Y0282819D01*
X0409765Y0282714D01*
X0409980Y0282605D01*
X0410193Y0282490D01*
X0410403Y0282370D01*
X0410609Y0282245D01*
X0410813Y0282115D01*
X0411014Y0281980D01*
X0411211Y0281840D01*
X0411405Y0281696D01*
X0411595Y0281547D01*
X0411781Y0281393D01*
X0411964Y0281235D01*
X0412143Y0281073D01*
X0412318Y0280906D01*
X0412489Y0280735D01*
X0412656Y0280560D01*
X0412818Y0280381D01*
X0412976Y0280198D01*
X0413130Y0280012D01*
X0413279Y0279822D01*
X0413423Y0279628D01*
X0413563Y0279431D01*
X0413698Y0279230D01*
X0413828Y0279026D01*
X0413953Y0278820D01*
X0414073Y0278610D01*
X0414188Y0278397D01*
X0414297Y0278182D01*
X0414402Y0277964D01*
X0414501Y0277744D01*
X0414595Y0277521D01*
X0414683Y0277296D01*
X0414766Y0277069D01*
X0414844Y0276840D01*
X0414915Y0276609D01*
X0414982Y0276377D01*
X0415042Y0276143D01*
X0415097Y0275908D01*
X0415147Y0275671D01*
X0415190Y0275434D01*
X0415228Y0275195D01*
X0415260Y0274955D01*
X0415286Y0274715D01*
X0415307Y0274474D01*
X0415321Y0274233D01*
X0415330Y0273992D01*
X0415333Y0273750D01*
X0415333Y0038750D01*
X0415330Y0038508D01*
X0415321Y0038267D01*
X0415307Y0038026D01*
X0415286Y0037785D01*
X0415260Y0037545D01*
X0415228Y0037305D01*
X0415190Y0037066D01*
X0415147Y0036829D01*
X0415097Y0036592D01*
X0415042Y0036357D01*
X0414982Y0036123D01*
X0414915Y0035891D01*
X0414844Y0035660D01*
X0414766Y0035431D01*
X0414683Y0035204D01*
X0414595Y0034979D01*
X0414501Y0034756D01*
X0414402Y0034536D01*
X0414297Y0034318D01*
X0414188Y0034103D01*
X0414073Y0033890D01*
X0413953Y0033680D01*
X0413828Y0033474D01*
X0413698Y0033270D01*
X0413563Y0033069D01*
X0413423Y0032872D01*
X0413279Y0032678D01*
X0413130Y0032488D01*
X0412976Y0032302D01*
X0412818Y0032119D01*
X0412656Y0031940D01*
X0412489Y0031765D01*
X0412318Y0031594D01*
X0412143Y0031427D01*
X0411964Y0031265D01*
X0411781Y0031107D01*
X0411595Y0030953D01*
X0411405Y0030804D01*
X0411211Y0030660D01*
X0411014Y0030520D01*
X0410813Y0030385D01*
X0410609Y0030255D01*
X0410403Y0030130D01*
X0410193Y0030010D01*
X0409980Y0029895D01*
X0409765Y0029786D01*
X0409547Y0029681D01*
X0409327Y0029582D01*
X0409104Y0029488D01*
X0408879Y0029400D01*
X0408652Y0029317D01*
X0408423Y0029239D01*
X0408192Y0029168D01*
X0407960Y0029101D01*
X0407726Y0029041D01*
X0407491Y0028986D01*
X0407254Y0028936D01*
X0407017Y0028893D01*
X0406778Y0028855D01*
X0406538Y0028823D01*
X0406298Y0028797D01*
X0406057Y0028776D01*
X0405816Y0028762D01*
X0405575Y0028753D01*
X0405333Y0028750D01*
X0041333Y0028750D01*
X0041091Y0028753D01*
X0040850Y0028762D01*
X0040609Y0028776D01*
X0040368Y0028797D01*
X0040128Y0028823D01*
X0039888Y0028855D01*
X0039649Y0028893D01*
X0039412Y0028936D01*
X0039175Y0028986D01*
X0038940Y0029041D01*
X0038706Y0029101D01*
X0038474Y0029168D01*
X0038243Y0029239D01*
X0038014Y0029317D01*
X0037787Y0029400D01*
X0037562Y0029488D01*
X0037339Y0029582D01*
X0037119Y0029681D01*
X0036901Y0029786D01*
X0036686Y0029895D01*
X0036473Y0030010D01*
X0036263Y0030130D01*
X0036057Y0030255D01*
X0035853Y0030385D01*
X0035652Y0030520D01*
X0035455Y0030660D01*
X0035261Y0030804D01*
X0035071Y0030953D01*
X0034885Y0031107D01*
X0034702Y0031265D01*
X0034523Y0031427D01*
X0034348Y0031594D01*
X0034177Y0031765D01*
X0034010Y0031940D01*
X0033848Y0032119D01*
X0033690Y0032302D01*
X0033536Y0032488D01*
X0033387Y0032678D01*
X0033243Y0032872D01*
X0033103Y0033069D01*
X0032968Y0033270D01*
X0032838Y0033474D01*
X0032713Y0033680D01*
X0032593Y0033890D01*
X0032478Y0034103D01*
X0032369Y0034318D01*
X0032264Y0034536D01*
X0032165Y0034756D01*
X0032071Y0034979D01*
X0031983Y0035204D01*
X0031900Y0035431D01*
X0031822Y0035660D01*
X0031751Y0035891D01*
X0031684Y0036123D01*
X0031624Y0036357D01*
X0031569Y0036592D01*
X0031519Y0036829D01*
X0031476Y0037066D01*
X0031438Y0037305D01*
X0031406Y0037545D01*
X0031380Y0037785D01*
X0031359Y0038026D01*
X0031345Y0038267D01*
X0031336Y0038508D01*
X0031333Y0038750D01*
X0034833Y0066250D02*
X0034835Y0066411D01*
X0034841Y0066571D01*
X0034851Y0066732D01*
X0034865Y0066892D01*
X0034883Y0067052D01*
X0034904Y0067211D01*
X0034930Y0067370D01*
X0034960Y0067528D01*
X0034993Y0067685D01*
X0035031Y0067842D01*
X0035072Y0067997D01*
X0035117Y0068151D01*
X0035166Y0068304D01*
X0035219Y0068456D01*
X0035275Y0068607D01*
X0035336Y0068756D01*
X0035399Y0068904D01*
X0035467Y0069050D01*
X0035538Y0069194D01*
X0035612Y0069336D01*
X0035690Y0069477D01*
X0035772Y0069615D01*
X0035857Y0069752D01*
X0035945Y0069886D01*
X0036037Y0070018D01*
X0036132Y0070148D01*
X0036230Y0070276D01*
X0036331Y0070401D01*
X0036435Y0070523D01*
X0036542Y0070643D01*
X0036652Y0070760D01*
X0036765Y0070875D01*
X0036881Y0070986D01*
X0037000Y0071095D01*
X0037121Y0071200D01*
X0037245Y0071303D01*
X0037371Y0071403D01*
X0037499Y0071499D01*
X0037630Y0071592D01*
X0037764Y0071682D01*
X0037899Y0071769D01*
X0038037Y0071852D01*
X0038176Y0071932D01*
X0038318Y0072008D01*
X0038461Y0072081D01*
X0038606Y0072150D01*
X0038753Y0072216D01*
X0038901Y0072278D01*
X0039051Y0072336D01*
X0039202Y0072391D01*
X0039355Y0072442D01*
X0039509Y0072489D01*
X0039664Y0072532D01*
X0039820Y0072571D01*
X0039976Y0072607D01*
X0040134Y0072638D01*
X0040292Y0072666D01*
X0040451Y0072690D01*
X0040611Y0072710D01*
X0040771Y0072726D01*
X0040931Y0072738D01*
X0041092Y0072746D01*
X0041253Y0072750D01*
X0041413Y0072750D01*
X0041574Y0072746D01*
X0041735Y0072738D01*
X0041895Y0072726D01*
X0042055Y0072710D01*
X0042215Y0072690D01*
X0042374Y0072666D01*
X0042532Y0072638D01*
X0042690Y0072607D01*
X0042846Y0072571D01*
X0043002Y0072532D01*
X0043157Y0072489D01*
X0043311Y0072442D01*
X0043464Y0072391D01*
X0043615Y0072336D01*
X0043765Y0072278D01*
X0043913Y0072216D01*
X0044060Y0072150D01*
X0044205Y0072081D01*
X0044348Y0072008D01*
X0044490Y0071932D01*
X0044629Y0071852D01*
X0044767Y0071769D01*
X0044902Y0071682D01*
X0045036Y0071592D01*
X0045167Y0071499D01*
X0045295Y0071403D01*
X0045421Y0071303D01*
X0045545Y0071200D01*
X0045666Y0071095D01*
X0045785Y0070986D01*
X0045901Y0070875D01*
X0046014Y0070760D01*
X0046124Y0070643D01*
X0046231Y0070523D01*
X0046335Y0070401D01*
X0046436Y0070276D01*
X0046534Y0070148D01*
X0046629Y0070018D01*
X0046721Y0069886D01*
X0046809Y0069752D01*
X0046894Y0069615D01*
X0046976Y0069477D01*
X0047054Y0069336D01*
X0047128Y0069194D01*
X0047199Y0069050D01*
X0047267Y0068904D01*
X0047330Y0068756D01*
X0047391Y0068607D01*
X0047447Y0068456D01*
X0047500Y0068304D01*
X0047549Y0068151D01*
X0047594Y0067997D01*
X0047635Y0067842D01*
X0047673Y0067685D01*
X0047706Y0067528D01*
X0047736Y0067370D01*
X0047762Y0067211D01*
X0047783Y0067052D01*
X0047801Y0066892D01*
X0047815Y0066732D01*
X0047825Y0066571D01*
X0047831Y0066411D01*
X0047833Y0066250D01*
X0047831Y0066089D01*
X0047825Y0065929D01*
X0047815Y0065768D01*
X0047801Y0065608D01*
X0047783Y0065448D01*
X0047762Y0065289D01*
X0047736Y0065130D01*
X0047706Y0064972D01*
X0047673Y0064815D01*
X0047635Y0064658D01*
X0047594Y0064503D01*
X0047549Y0064349D01*
X0047500Y0064196D01*
X0047447Y0064044D01*
X0047391Y0063893D01*
X0047330Y0063744D01*
X0047267Y0063596D01*
X0047199Y0063450D01*
X0047128Y0063306D01*
X0047054Y0063164D01*
X0046976Y0063023D01*
X0046894Y0062885D01*
X0046809Y0062748D01*
X0046721Y0062614D01*
X0046629Y0062482D01*
X0046534Y0062352D01*
X0046436Y0062224D01*
X0046335Y0062099D01*
X0046231Y0061977D01*
X0046124Y0061857D01*
X0046014Y0061740D01*
X0045901Y0061625D01*
X0045785Y0061514D01*
X0045666Y0061405D01*
X0045545Y0061300D01*
X0045421Y0061197D01*
X0045295Y0061097D01*
X0045167Y0061001D01*
X0045036Y0060908D01*
X0044902Y0060818D01*
X0044767Y0060731D01*
X0044629Y0060648D01*
X0044490Y0060568D01*
X0044348Y0060492D01*
X0044205Y0060419D01*
X0044060Y0060350D01*
X0043913Y0060284D01*
X0043765Y0060222D01*
X0043615Y0060164D01*
X0043464Y0060109D01*
X0043311Y0060058D01*
X0043157Y0060011D01*
X0043002Y0059968D01*
X0042846Y0059929D01*
X0042690Y0059893D01*
X0042532Y0059862D01*
X0042374Y0059834D01*
X0042215Y0059810D01*
X0042055Y0059790D01*
X0041895Y0059774D01*
X0041735Y0059762D01*
X0041574Y0059754D01*
X0041413Y0059750D01*
X0041253Y0059750D01*
X0041092Y0059754D01*
X0040931Y0059762D01*
X0040771Y0059774D01*
X0040611Y0059790D01*
X0040451Y0059810D01*
X0040292Y0059834D01*
X0040134Y0059862D01*
X0039976Y0059893D01*
X0039820Y0059929D01*
X0039664Y0059968D01*
X0039509Y0060011D01*
X0039355Y0060058D01*
X0039202Y0060109D01*
X0039051Y0060164D01*
X0038901Y0060222D01*
X0038753Y0060284D01*
X0038606Y0060350D01*
X0038461Y0060419D01*
X0038318Y0060492D01*
X0038176Y0060568D01*
X0038037Y0060648D01*
X0037899Y0060731D01*
X0037764Y0060818D01*
X0037630Y0060908D01*
X0037499Y0061001D01*
X0037371Y0061097D01*
X0037245Y0061197D01*
X0037121Y0061300D01*
X0037000Y0061405D01*
X0036881Y0061514D01*
X0036765Y0061625D01*
X0036652Y0061740D01*
X0036542Y0061857D01*
X0036435Y0061977D01*
X0036331Y0062099D01*
X0036230Y0062224D01*
X0036132Y0062352D01*
X0036037Y0062482D01*
X0035945Y0062614D01*
X0035857Y0062748D01*
X0035772Y0062885D01*
X0035690Y0063023D01*
X0035612Y0063164D01*
X0035538Y0063306D01*
X0035467Y0063450D01*
X0035399Y0063596D01*
X0035336Y0063744D01*
X0035275Y0063893D01*
X0035219Y0064044D01*
X0035166Y0064196D01*
X0035117Y0064349D01*
X0035072Y0064503D01*
X0035031Y0064658D01*
X0034993Y0064815D01*
X0034960Y0064972D01*
X0034930Y0065130D01*
X0034904Y0065289D01*
X0034883Y0065448D01*
X0034865Y0065608D01*
X0034851Y0065768D01*
X0034841Y0065929D01*
X0034835Y0066089D01*
X0034833Y0066250D01*
X0034833Y0271250D02*
X0034835Y0271411D01*
X0034841Y0271571D01*
X0034851Y0271732D01*
X0034865Y0271892D01*
X0034883Y0272052D01*
X0034904Y0272211D01*
X0034930Y0272370D01*
X0034960Y0272528D01*
X0034993Y0272685D01*
X0035031Y0272842D01*
X0035072Y0272997D01*
X0035117Y0273151D01*
X0035166Y0273304D01*
X0035219Y0273456D01*
X0035275Y0273607D01*
X0035336Y0273756D01*
X0035399Y0273904D01*
X0035467Y0274050D01*
X0035538Y0274194D01*
X0035612Y0274336D01*
X0035690Y0274477D01*
X0035772Y0274615D01*
X0035857Y0274752D01*
X0035945Y0274886D01*
X0036037Y0275018D01*
X0036132Y0275148D01*
X0036230Y0275276D01*
X0036331Y0275401D01*
X0036435Y0275523D01*
X0036542Y0275643D01*
X0036652Y0275760D01*
X0036765Y0275875D01*
X0036881Y0275986D01*
X0037000Y0276095D01*
X0037121Y0276200D01*
X0037245Y0276303D01*
X0037371Y0276403D01*
X0037499Y0276499D01*
X0037630Y0276592D01*
X0037764Y0276682D01*
X0037899Y0276769D01*
X0038037Y0276852D01*
X0038176Y0276932D01*
X0038318Y0277008D01*
X0038461Y0277081D01*
X0038606Y0277150D01*
X0038753Y0277216D01*
X0038901Y0277278D01*
X0039051Y0277336D01*
X0039202Y0277391D01*
X0039355Y0277442D01*
X0039509Y0277489D01*
X0039664Y0277532D01*
X0039820Y0277571D01*
X0039976Y0277607D01*
X0040134Y0277638D01*
X0040292Y0277666D01*
X0040451Y0277690D01*
X0040611Y0277710D01*
X0040771Y0277726D01*
X0040931Y0277738D01*
X0041092Y0277746D01*
X0041253Y0277750D01*
X0041413Y0277750D01*
X0041574Y0277746D01*
X0041735Y0277738D01*
X0041895Y0277726D01*
X0042055Y0277710D01*
X0042215Y0277690D01*
X0042374Y0277666D01*
X0042532Y0277638D01*
X0042690Y0277607D01*
X0042846Y0277571D01*
X0043002Y0277532D01*
X0043157Y0277489D01*
X0043311Y0277442D01*
X0043464Y0277391D01*
X0043615Y0277336D01*
X0043765Y0277278D01*
X0043913Y0277216D01*
X0044060Y0277150D01*
X0044205Y0277081D01*
X0044348Y0277008D01*
X0044490Y0276932D01*
X0044629Y0276852D01*
X0044767Y0276769D01*
X0044902Y0276682D01*
X0045036Y0276592D01*
X0045167Y0276499D01*
X0045295Y0276403D01*
X0045421Y0276303D01*
X0045545Y0276200D01*
X0045666Y0276095D01*
X0045785Y0275986D01*
X0045901Y0275875D01*
X0046014Y0275760D01*
X0046124Y0275643D01*
X0046231Y0275523D01*
X0046335Y0275401D01*
X0046436Y0275276D01*
X0046534Y0275148D01*
X0046629Y0275018D01*
X0046721Y0274886D01*
X0046809Y0274752D01*
X0046894Y0274615D01*
X0046976Y0274477D01*
X0047054Y0274336D01*
X0047128Y0274194D01*
X0047199Y0274050D01*
X0047267Y0273904D01*
X0047330Y0273756D01*
X0047391Y0273607D01*
X0047447Y0273456D01*
X0047500Y0273304D01*
X0047549Y0273151D01*
X0047594Y0272997D01*
X0047635Y0272842D01*
X0047673Y0272685D01*
X0047706Y0272528D01*
X0047736Y0272370D01*
X0047762Y0272211D01*
X0047783Y0272052D01*
X0047801Y0271892D01*
X0047815Y0271732D01*
X0047825Y0271571D01*
X0047831Y0271411D01*
X0047833Y0271250D01*
X0047831Y0271089D01*
X0047825Y0270929D01*
X0047815Y0270768D01*
X0047801Y0270608D01*
X0047783Y0270448D01*
X0047762Y0270289D01*
X0047736Y0270130D01*
X0047706Y0269972D01*
X0047673Y0269815D01*
X0047635Y0269658D01*
X0047594Y0269503D01*
X0047549Y0269349D01*
X0047500Y0269196D01*
X0047447Y0269044D01*
X0047391Y0268893D01*
X0047330Y0268744D01*
X0047267Y0268596D01*
X0047199Y0268450D01*
X0047128Y0268306D01*
X0047054Y0268164D01*
X0046976Y0268023D01*
X0046894Y0267885D01*
X0046809Y0267748D01*
X0046721Y0267614D01*
X0046629Y0267482D01*
X0046534Y0267352D01*
X0046436Y0267224D01*
X0046335Y0267099D01*
X0046231Y0266977D01*
X0046124Y0266857D01*
X0046014Y0266740D01*
X0045901Y0266625D01*
X0045785Y0266514D01*
X0045666Y0266405D01*
X0045545Y0266300D01*
X0045421Y0266197D01*
X0045295Y0266097D01*
X0045167Y0266001D01*
X0045036Y0265908D01*
X0044902Y0265818D01*
X0044767Y0265731D01*
X0044629Y0265648D01*
X0044490Y0265568D01*
X0044348Y0265492D01*
X0044205Y0265419D01*
X0044060Y0265350D01*
X0043913Y0265284D01*
X0043765Y0265222D01*
X0043615Y0265164D01*
X0043464Y0265109D01*
X0043311Y0265058D01*
X0043157Y0265011D01*
X0043002Y0264968D01*
X0042846Y0264929D01*
X0042690Y0264893D01*
X0042532Y0264862D01*
X0042374Y0264834D01*
X0042215Y0264810D01*
X0042055Y0264790D01*
X0041895Y0264774D01*
X0041735Y0264762D01*
X0041574Y0264754D01*
X0041413Y0264750D01*
X0041253Y0264750D01*
X0041092Y0264754D01*
X0040931Y0264762D01*
X0040771Y0264774D01*
X0040611Y0264790D01*
X0040451Y0264810D01*
X0040292Y0264834D01*
X0040134Y0264862D01*
X0039976Y0264893D01*
X0039820Y0264929D01*
X0039664Y0264968D01*
X0039509Y0265011D01*
X0039355Y0265058D01*
X0039202Y0265109D01*
X0039051Y0265164D01*
X0038901Y0265222D01*
X0038753Y0265284D01*
X0038606Y0265350D01*
X0038461Y0265419D01*
X0038318Y0265492D01*
X0038176Y0265568D01*
X0038037Y0265648D01*
X0037899Y0265731D01*
X0037764Y0265818D01*
X0037630Y0265908D01*
X0037499Y0266001D01*
X0037371Y0266097D01*
X0037245Y0266197D01*
X0037121Y0266300D01*
X0037000Y0266405D01*
X0036881Y0266514D01*
X0036765Y0266625D01*
X0036652Y0266740D01*
X0036542Y0266857D01*
X0036435Y0266977D01*
X0036331Y0267099D01*
X0036230Y0267224D01*
X0036132Y0267352D01*
X0036037Y0267482D01*
X0035945Y0267614D01*
X0035857Y0267748D01*
X0035772Y0267885D01*
X0035690Y0268023D01*
X0035612Y0268164D01*
X0035538Y0268306D01*
X0035467Y0268450D01*
X0035399Y0268596D01*
X0035336Y0268744D01*
X0035275Y0268893D01*
X0035219Y0269044D01*
X0035166Y0269196D01*
X0035117Y0269349D01*
X0035072Y0269503D01*
X0035031Y0269658D01*
X0034993Y0269815D01*
X0034960Y0269972D01*
X0034930Y0270130D01*
X0034904Y0270289D01*
X0034883Y0270448D01*
X0034865Y0270608D01*
X0034851Y0270768D01*
X0034841Y0270929D01*
X0034835Y0271089D01*
X0034833Y0271250D01*
X0397333Y0273750D02*
X0397335Y0273911D01*
X0397341Y0274071D01*
X0397351Y0274232D01*
X0397365Y0274392D01*
X0397383Y0274552D01*
X0397404Y0274711D01*
X0397430Y0274870D01*
X0397460Y0275028D01*
X0397493Y0275185D01*
X0397531Y0275342D01*
X0397572Y0275497D01*
X0397617Y0275651D01*
X0397666Y0275804D01*
X0397719Y0275956D01*
X0397775Y0276107D01*
X0397836Y0276256D01*
X0397899Y0276404D01*
X0397967Y0276550D01*
X0398038Y0276694D01*
X0398112Y0276836D01*
X0398190Y0276977D01*
X0398272Y0277115D01*
X0398357Y0277252D01*
X0398445Y0277386D01*
X0398537Y0277518D01*
X0398632Y0277648D01*
X0398730Y0277776D01*
X0398831Y0277901D01*
X0398935Y0278023D01*
X0399042Y0278143D01*
X0399152Y0278260D01*
X0399265Y0278375D01*
X0399381Y0278486D01*
X0399500Y0278595D01*
X0399621Y0278700D01*
X0399745Y0278803D01*
X0399871Y0278903D01*
X0399999Y0278999D01*
X0400130Y0279092D01*
X0400264Y0279182D01*
X0400399Y0279269D01*
X0400537Y0279352D01*
X0400676Y0279432D01*
X0400818Y0279508D01*
X0400961Y0279581D01*
X0401106Y0279650D01*
X0401253Y0279716D01*
X0401401Y0279778D01*
X0401551Y0279836D01*
X0401702Y0279891D01*
X0401855Y0279942D01*
X0402009Y0279989D01*
X0402164Y0280032D01*
X0402320Y0280071D01*
X0402476Y0280107D01*
X0402634Y0280138D01*
X0402792Y0280166D01*
X0402951Y0280190D01*
X0403111Y0280210D01*
X0403271Y0280226D01*
X0403431Y0280238D01*
X0403592Y0280246D01*
X0403753Y0280250D01*
X0403913Y0280250D01*
X0404074Y0280246D01*
X0404235Y0280238D01*
X0404395Y0280226D01*
X0404555Y0280210D01*
X0404715Y0280190D01*
X0404874Y0280166D01*
X0405032Y0280138D01*
X0405190Y0280107D01*
X0405346Y0280071D01*
X0405502Y0280032D01*
X0405657Y0279989D01*
X0405811Y0279942D01*
X0405964Y0279891D01*
X0406115Y0279836D01*
X0406265Y0279778D01*
X0406413Y0279716D01*
X0406560Y0279650D01*
X0406705Y0279581D01*
X0406848Y0279508D01*
X0406990Y0279432D01*
X0407129Y0279352D01*
X0407267Y0279269D01*
X0407402Y0279182D01*
X0407536Y0279092D01*
X0407667Y0278999D01*
X0407795Y0278903D01*
X0407921Y0278803D01*
X0408045Y0278700D01*
X0408166Y0278595D01*
X0408285Y0278486D01*
X0408401Y0278375D01*
X0408514Y0278260D01*
X0408624Y0278143D01*
X0408731Y0278023D01*
X0408835Y0277901D01*
X0408936Y0277776D01*
X0409034Y0277648D01*
X0409129Y0277518D01*
X0409221Y0277386D01*
X0409309Y0277252D01*
X0409394Y0277115D01*
X0409476Y0276977D01*
X0409554Y0276836D01*
X0409628Y0276694D01*
X0409699Y0276550D01*
X0409767Y0276404D01*
X0409830Y0276256D01*
X0409891Y0276107D01*
X0409947Y0275956D01*
X0410000Y0275804D01*
X0410049Y0275651D01*
X0410094Y0275497D01*
X0410135Y0275342D01*
X0410173Y0275185D01*
X0410206Y0275028D01*
X0410236Y0274870D01*
X0410262Y0274711D01*
X0410283Y0274552D01*
X0410301Y0274392D01*
X0410315Y0274232D01*
X0410325Y0274071D01*
X0410331Y0273911D01*
X0410333Y0273750D01*
X0410331Y0273589D01*
X0410325Y0273429D01*
X0410315Y0273268D01*
X0410301Y0273108D01*
X0410283Y0272948D01*
X0410262Y0272789D01*
X0410236Y0272630D01*
X0410206Y0272472D01*
X0410173Y0272315D01*
X0410135Y0272158D01*
X0410094Y0272003D01*
X0410049Y0271849D01*
X0410000Y0271696D01*
X0409947Y0271544D01*
X0409891Y0271393D01*
X0409830Y0271244D01*
X0409767Y0271096D01*
X0409699Y0270950D01*
X0409628Y0270806D01*
X0409554Y0270664D01*
X0409476Y0270523D01*
X0409394Y0270385D01*
X0409309Y0270248D01*
X0409221Y0270114D01*
X0409129Y0269982D01*
X0409034Y0269852D01*
X0408936Y0269724D01*
X0408835Y0269599D01*
X0408731Y0269477D01*
X0408624Y0269357D01*
X0408514Y0269240D01*
X0408401Y0269125D01*
X0408285Y0269014D01*
X0408166Y0268905D01*
X0408045Y0268800D01*
X0407921Y0268697D01*
X0407795Y0268597D01*
X0407667Y0268501D01*
X0407536Y0268408D01*
X0407402Y0268318D01*
X0407267Y0268231D01*
X0407129Y0268148D01*
X0406990Y0268068D01*
X0406848Y0267992D01*
X0406705Y0267919D01*
X0406560Y0267850D01*
X0406413Y0267784D01*
X0406265Y0267722D01*
X0406115Y0267664D01*
X0405964Y0267609D01*
X0405811Y0267558D01*
X0405657Y0267511D01*
X0405502Y0267468D01*
X0405346Y0267429D01*
X0405190Y0267393D01*
X0405032Y0267362D01*
X0404874Y0267334D01*
X0404715Y0267310D01*
X0404555Y0267290D01*
X0404395Y0267274D01*
X0404235Y0267262D01*
X0404074Y0267254D01*
X0403913Y0267250D01*
X0403753Y0267250D01*
X0403592Y0267254D01*
X0403431Y0267262D01*
X0403271Y0267274D01*
X0403111Y0267290D01*
X0402951Y0267310D01*
X0402792Y0267334D01*
X0402634Y0267362D01*
X0402476Y0267393D01*
X0402320Y0267429D01*
X0402164Y0267468D01*
X0402009Y0267511D01*
X0401855Y0267558D01*
X0401702Y0267609D01*
X0401551Y0267664D01*
X0401401Y0267722D01*
X0401253Y0267784D01*
X0401106Y0267850D01*
X0400961Y0267919D01*
X0400818Y0267992D01*
X0400676Y0268068D01*
X0400537Y0268148D01*
X0400399Y0268231D01*
X0400264Y0268318D01*
X0400130Y0268408D01*
X0399999Y0268501D01*
X0399871Y0268597D01*
X0399745Y0268697D01*
X0399621Y0268800D01*
X0399500Y0268905D01*
X0399381Y0269014D01*
X0399265Y0269125D01*
X0399152Y0269240D01*
X0399042Y0269357D01*
X0398935Y0269477D01*
X0398831Y0269599D01*
X0398730Y0269724D01*
X0398632Y0269852D01*
X0398537Y0269982D01*
X0398445Y0270114D01*
X0398357Y0270248D01*
X0398272Y0270385D01*
X0398190Y0270523D01*
X0398112Y0270664D01*
X0398038Y0270806D01*
X0397967Y0270950D01*
X0397899Y0271096D01*
X0397836Y0271244D01*
X0397775Y0271393D01*
X0397719Y0271544D01*
X0397666Y0271696D01*
X0397617Y0271849D01*
X0397572Y0272003D01*
X0397531Y0272158D01*
X0397493Y0272315D01*
X0397460Y0272472D01*
X0397430Y0272630D01*
X0397404Y0272789D01*
X0397383Y0272948D01*
X0397365Y0273108D01*
X0397351Y0273268D01*
X0397341Y0273429D01*
X0397335Y0273589D01*
X0397333Y0273750D01*
X0397333Y0041250D02*
X0397335Y0041411D01*
X0397341Y0041571D01*
X0397351Y0041732D01*
X0397365Y0041892D01*
X0397383Y0042052D01*
X0397404Y0042211D01*
X0397430Y0042370D01*
X0397460Y0042528D01*
X0397493Y0042685D01*
X0397531Y0042842D01*
X0397572Y0042997D01*
X0397617Y0043151D01*
X0397666Y0043304D01*
X0397719Y0043456D01*
X0397775Y0043607D01*
X0397836Y0043756D01*
X0397899Y0043904D01*
X0397967Y0044050D01*
X0398038Y0044194D01*
X0398112Y0044336D01*
X0398190Y0044477D01*
X0398272Y0044615D01*
X0398357Y0044752D01*
X0398445Y0044886D01*
X0398537Y0045018D01*
X0398632Y0045148D01*
X0398730Y0045276D01*
X0398831Y0045401D01*
X0398935Y0045523D01*
X0399042Y0045643D01*
X0399152Y0045760D01*
X0399265Y0045875D01*
X0399381Y0045986D01*
X0399500Y0046095D01*
X0399621Y0046200D01*
X0399745Y0046303D01*
X0399871Y0046403D01*
X0399999Y0046499D01*
X0400130Y0046592D01*
X0400264Y0046682D01*
X0400399Y0046769D01*
X0400537Y0046852D01*
X0400676Y0046932D01*
X0400818Y0047008D01*
X0400961Y0047081D01*
X0401106Y0047150D01*
X0401253Y0047216D01*
X0401401Y0047278D01*
X0401551Y0047336D01*
X0401702Y0047391D01*
X0401855Y0047442D01*
X0402009Y0047489D01*
X0402164Y0047532D01*
X0402320Y0047571D01*
X0402476Y0047607D01*
X0402634Y0047638D01*
X0402792Y0047666D01*
X0402951Y0047690D01*
X0403111Y0047710D01*
X0403271Y0047726D01*
X0403431Y0047738D01*
X0403592Y0047746D01*
X0403753Y0047750D01*
X0403913Y0047750D01*
X0404074Y0047746D01*
X0404235Y0047738D01*
X0404395Y0047726D01*
X0404555Y0047710D01*
X0404715Y0047690D01*
X0404874Y0047666D01*
X0405032Y0047638D01*
X0405190Y0047607D01*
X0405346Y0047571D01*
X0405502Y0047532D01*
X0405657Y0047489D01*
X0405811Y0047442D01*
X0405964Y0047391D01*
X0406115Y0047336D01*
X0406265Y0047278D01*
X0406413Y0047216D01*
X0406560Y0047150D01*
X0406705Y0047081D01*
X0406848Y0047008D01*
X0406990Y0046932D01*
X0407129Y0046852D01*
X0407267Y0046769D01*
X0407402Y0046682D01*
X0407536Y0046592D01*
X0407667Y0046499D01*
X0407795Y0046403D01*
X0407921Y0046303D01*
X0408045Y0046200D01*
X0408166Y0046095D01*
X0408285Y0045986D01*
X0408401Y0045875D01*
X0408514Y0045760D01*
X0408624Y0045643D01*
X0408731Y0045523D01*
X0408835Y0045401D01*
X0408936Y0045276D01*
X0409034Y0045148D01*
X0409129Y0045018D01*
X0409221Y0044886D01*
X0409309Y0044752D01*
X0409394Y0044615D01*
X0409476Y0044477D01*
X0409554Y0044336D01*
X0409628Y0044194D01*
X0409699Y0044050D01*
X0409767Y0043904D01*
X0409830Y0043756D01*
X0409891Y0043607D01*
X0409947Y0043456D01*
X0410000Y0043304D01*
X0410049Y0043151D01*
X0410094Y0042997D01*
X0410135Y0042842D01*
X0410173Y0042685D01*
X0410206Y0042528D01*
X0410236Y0042370D01*
X0410262Y0042211D01*
X0410283Y0042052D01*
X0410301Y0041892D01*
X0410315Y0041732D01*
X0410325Y0041571D01*
X0410331Y0041411D01*
X0410333Y0041250D01*
X0410331Y0041089D01*
X0410325Y0040929D01*
X0410315Y0040768D01*
X0410301Y0040608D01*
X0410283Y0040448D01*
X0410262Y0040289D01*
X0410236Y0040130D01*
X0410206Y0039972D01*
X0410173Y0039815D01*
X0410135Y0039658D01*
X0410094Y0039503D01*
X0410049Y0039349D01*
X0410000Y0039196D01*
X0409947Y0039044D01*
X0409891Y0038893D01*
X0409830Y0038744D01*
X0409767Y0038596D01*
X0409699Y0038450D01*
X0409628Y0038306D01*
X0409554Y0038164D01*
X0409476Y0038023D01*
X0409394Y0037885D01*
X0409309Y0037748D01*
X0409221Y0037614D01*
X0409129Y0037482D01*
X0409034Y0037352D01*
X0408936Y0037224D01*
X0408835Y0037099D01*
X0408731Y0036977D01*
X0408624Y0036857D01*
X0408514Y0036740D01*
X0408401Y0036625D01*
X0408285Y0036514D01*
X0408166Y0036405D01*
X0408045Y0036300D01*
X0407921Y0036197D01*
X0407795Y0036097D01*
X0407667Y0036001D01*
X0407536Y0035908D01*
X0407402Y0035818D01*
X0407267Y0035731D01*
X0407129Y0035648D01*
X0406990Y0035568D01*
X0406848Y0035492D01*
X0406705Y0035419D01*
X0406560Y0035350D01*
X0406413Y0035284D01*
X0406265Y0035222D01*
X0406115Y0035164D01*
X0405964Y0035109D01*
X0405811Y0035058D01*
X0405657Y0035011D01*
X0405502Y0034968D01*
X0405346Y0034929D01*
X0405190Y0034893D01*
X0405032Y0034862D01*
X0404874Y0034834D01*
X0404715Y0034810D01*
X0404555Y0034790D01*
X0404395Y0034774D01*
X0404235Y0034762D01*
X0404074Y0034754D01*
X0403913Y0034750D01*
X0403753Y0034750D01*
X0403592Y0034754D01*
X0403431Y0034762D01*
X0403271Y0034774D01*
X0403111Y0034790D01*
X0402951Y0034810D01*
X0402792Y0034834D01*
X0402634Y0034862D01*
X0402476Y0034893D01*
X0402320Y0034929D01*
X0402164Y0034968D01*
X0402009Y0035011D01*
X0401855Y0035058D01*
X0401702Y0035109D01*
X0401551Y0035164D01*
X0401401Y0035222D01*
X0401253Y0035284D01*
X0401106Y0035350D01*
X0400961Y0035419D01*
X0400818Y0035492D01*
X0400676Y0035568D01*
X0400537Y0035648D01*
X0400399Y0035731D01*
X0400264Y0035818D01*
X0400130Y0035908D01*
X0399999Y0036001D01*
X0399871Y0036097D01*
X0399745Y0036197D01*
X0399621Y0036300D01*
X0399500Y0036405D01*
X0399381Y0036514D01*
X0399265Y0036625D01*
X0399152Y0036740D01*
X0399042Y0036857D01*
X0398935Y0036977D01*
X0398831Y0037099D01*
X0398730Y0037224D01*
X0398632Y0037352D01*
X0398537Y0037482D01*
X0398445Y0037614D01*
X0398357Y0037748D01*
X0398272Y0037885D01*
X0398190Y0038023D01*
X0398112Y0038164D01*
X0398038Y0038306D01*
X0397967Y0038450D01*
X0397899Y0038596D01*
X0397836Y0038744D01*
X0397775Y0038893D01*
X0397719Y0039044D01*
X0397666Y0039196D01*
X0397617Y0039349D01*
X0397572Y0039503D01*
X0397531Y0039658D01*
X0397493Y0039815D01*
X0397460Y0039972D01*
X0397430Y0040130D01*
X0397404Y0040289D01*
X0397383Y0040448D01*
X0397365Y0040608D01*
X0397351Y0040768D01*
X0397341Y0040929D01*
X0397335Y0041089D01*
X0397333Y0041250D01*
M02*
