G75*
%MOIN*%
%OFA0B0*%
%FSLAX25Y25*%
%IPPOS*%
%LPD*%
%AMOC8*
5,1,8,0,0,1.08239X$1,22.5*
%
%ADD10R,0.00100X0.00100*%
%ADD11C,0.00000*%
%ADD12C,0.01100*%
%ADD13R,0.00120X0.00125*%
%ADD14R,0.00250X0.00125*%
%ADD15R,0.00130X0.00125*%
%ADD16R,0.02000X0.00126*%
%ADD17R,0.02620X0.00125*%
%ADD18R,0.03250X0.00124*%
%ADD19R,0.03620X0.00125*%
%ADD20R,0.04120X0.00126*%
%ADD21R,0.04250X0.00125*%
%ADD22R,0.04620X0.00125*%
%ADD23R,0.04620X0.00124*%
%ADD24R,0.01870X0.00126*%
%ADD25R,0.00120X0.00126*%
%ADD26R,0.00130X0.00126*%
%ADD27R,0.01880X0.00126*%
%ADD28R,0.01500X0.00125*%
%ADD29R,0.01620X0.00125*%
%ADD30R,0.01130X0.00125*%
%ADD31R,0.00750X0.00124*%
%ADD32R,0.01380X0.00124*%
%ADD33R,0.00380X0.00126*%
%ADD34R,0.01380X0.00126*%
%ADD35R,0.01370X0.00125*%
%ADD36R,0.01250X0.00125*%
%ADD37R,0.01250X0.00124*%
%ADD38R,0.01250X0.00126*%
%ADD39R,0.01380X0.00125*%
%ADD40R,0.01120X0.00125*%
%ADD41R,0.01120X0.00126*%
%ADD42R,0.01130X0.00126*%
%ADD43R,0.01000X0.00125*%
%ADD44R,0.01870X0.00125*%
%ADD45R,0.00750X0.00125*%
%ADD46R,0.00880X0.00125*%
%ADD47R,0.02000X0.00125*%
%ADD48R,0.01120X0.00124*%
%ADD49R,0.02500X0.00124*%
%ADD50R,0.01130X0.00124*%
%ADD51R,0.01000X0.00124*%
%ADD52R,0.02750X0.00124*%
%ADD53R,0.02750X0.00126*%
%ADD54R,0.03380X0.00126*%
%ADD55R,0.03250X0.00125*%
%ADD56R,0.03880X0.00125*%
%ADD57R,0.03500X0.00125*%
%ADD58R,0.03750X0.00124*%
%ADD59R,0.04000X0.00125*%
%ADD60R,0.04880X0.00125*%
%ADD61R,0.04250X0.00126*%
%ADD62R,0.02370X0.00126*%
%ADD63R,0.02120X0.00126*%
%ADD64R,0.01750X0.00125*%
%ADD65R,0.01630X0.00124*%
%ADD66R,0.01370X0.00124*%
%ADD67R,0.01750X0.00124*%
%ADD68R,0.01000X0.00126*%
%ADD69R,0.01630X0.00126*%
%ADD70R,0.00870X0.00126*%
%ADD71R,0.00630X0.00125*%
%ADD72R,0.00870X0.00125*%
%ADD73R,0.02000X0.00124*%
%ADD74R,0.01370X0.00126*%
%ADD75R,0.01620X0.00126*%
%ADD76R,0.01500X0.00124*%
%ADD77R,0.01500X0.00126*%
%ADD78R,0.02130X0.00125*%
%ADD79R,0.02870X0.00125*%
%ADD80R,0.03500X0.00124*%
%ADD81R,0.03870X0.00125*%
%ADD82R,0.04500X0.00125*%
%ADD83R,0.04750X0.00124*%
%ADD84R,0.05000X0.00125*%
%ADD85R,0.02500X0.00126*%
%ADD86R,0.02130X0.00124*%
%ADD87R,0.01750X0.00126*%
%ADD88R,0.01630X0.00125*%
%ADD89R,0.01880X0.00125*%
%ADD90R,0.01620X0.00124*%
%ADD91R,0.02250X0.00125*%
%ADD92R,0.02370X0.00125*%
%ADD93R,0.04630X0.00125*%
%ADD94R,0.04130X0.00125*%
%ADD95R,0.04750X0.00125*%
%ADD96R,0.04380X0.00125*%
%ADD97R,0.05000X0.00124*%
%ADD98R,0.04380X0.00124*%
%ADD99R,0.04500X0.00124*%
%ADD100R,0.01880X0.00124*%
%ADD101R,0.02370X0.00124*%
%ADD102R,0.02380X0.00125*%
%ADD103R,0.05000X0.00126*%
%ADD104R,0.04500X0.00126*%
%ADD105R,0.04000X0.00126*%
%ADD106R,0.03630X0.00125*%
%ADD107R,0.03370X0.00125*%
%ADD108R,0.04250X0.00124*%
%ADD109R,0.04120X0.00124*%
%ADD110R,0.01870X0.00124*%
%ADD111R,0.02250X0.00126*%
%ADD112R,0.00880X0.00124*%
%ADD113R,0.00380X0.00125*%
%ADD114R,0.03630X0.00124*%
%ADD115R,0.02630X0.00125*%
%ADD116R,0.00400X0.00100*%
%ADD117R,0.00800X0.00100*%
%ADD118R,0.01000X0.00100*%
%ADD119R,0.01200X0.00100*%
%ADD120R,0.01400X0.00100*%
%ADD121R,0.01600X0.00100*%
%ADD122R,0.01800X0.00100*%
%ADD123R,0.02000X0.00100*%
%ADD124R,0.02200X0.00100*%
%ADD125R,0.02400X0.00100*%
%ADD126R,0.02600X0.00100*%
%ADD127R,0.02800X0.00100*%
%ADD128R,0.03000X0.00100*%
%ADD129R,0.03200X0.00100*%
%ADD130R,0.03400X0.00100*%
%ADD131R,0.03700X0.00100*%
%ADD132R,0.04000X0.00100*%
%ADD133R,0.04200X0.00100*%
%ADD134R,0.04400X0.00100*%
%ADD135R,0.04600X0.00100*%
%ADD136R,0.04800X0.00100*%
%ADD137R,0.05000X0.00100*%
%ADD138R,0.05200X0.00100*%
%ADD139R,0.05400X0.00100*%
%ADD140R,0.05600X0.00100*%
%ADD141R,0.05800X0.00100*%
%ADD142R,0.06000X0.00100*%
%ADD143R,0.06200X0.00100*%
%ADD144R,0.06400X0.00100*%
%ADD145R,0.06600X0.00100*%
%ADD146R,0.06800X0.00100*%
%ADD147R,0.07000X0.00100*%
%ADD148R,0.07200X0.00100*%
%ADD149R,0.07400X0.00100*%
%ADD150R,0.07600X0.00100*%
%ADD151R,0.07800X0.00100*%
%ADD152R,0.08000X0.00100*%
%ADD153R,0.08200X0.00100*%
%ADD154R,0.08400X0.00100*%
%ADD155R,0.08600X0.00100*%
%ADD156R,0.08800X0.00100*%
%ADD157R,0.09200X0.00100*%
%ADD158R,0.09400X0.00100*%
%ADD159R,0.09600X0.00100*%
%ADD160R,0.09800X0.00100*%
%ADD161R,0.10000X0.00100*%
%ADD162R,0.10200X0.00100*%
%ADD163R,0.10400X0.00100*%
%ADD164R,0.10600X0.00100*%
%ADD165R,0.10800X0.00100*%
%ADD166R,0.11000X0.00100*%
%ADD167R,0.11200X0.00100*%
%ADD168R,0.11400X0.00100*%
%ADD169R,0.11600X0.00100*%
%ADD170R,0.11800X0.00100*%
%ADD171R,0.12000X0.00100*%
%ADD172R,0.12200X0.00100*%
%ADD173R,0.12400X0.00100*%
%ADD174R,0.12600X0.00100*%
%ADD175R,0.12800X0.00100*%
%ADD176R,0.13000X0.00100*%
%ADD177R,0.13200X0.00100*%
%ADD178R,0.13400X0.00100*%
%ADD179R,0.13600X0.00100*%
%ADD180R,0.13800X0.00100*%
%ADD181R,0.14000X0.00100*%
%ADD182R,0.14400X0.00100*%
%ADD183R,0.14500X0.00100*%
%ADD184R,0.14800X0.00100*%
%ADD185R,0.14900X0.00100*%
%ADD186R,0.15100X0.00100*%
%ADD187R,0.15200X0.00100*%
%ADD188R,0.15400X0.00100*%
%ADD189R,0.15600X0.00100*%
%ADD190R,0.15800X0.00100*%
%ADD191R,0.16000X0.00100*%
%ADD192R,0.16200X0.00100*%
%ADD193R,0.16400X0.00100*%
%ADD194R,0.16600X0.00100*%
%ADD195R,0.16800X0.00100*%
%ADD196R,0.17000X0.00100*%
%ADD197R,0.17200X0.00100*%
%ADD198R,0.17400X0.00100*%
%ADD199R,0.17600X0.00100*%
%ADD200R,0.17800X0.00100*%
%ADD201R,0.18000X0.00100*%
%ADD202R,0.18200X0.00100*%
%ADD203R,0.18400X0.00100*%
%ADD204R,0.18500X0.00100*%
%ADD205R,0.18600X0.00100*%
%ADD206R,0.18800X0.00100*%
%ADD207R,0.19000X0.00100*%
%ADD208R,0.19100X0.00100*%
%ADD209R,0.19200X0.00100*%
%ADD210R,0.19300X0.00100*%
%ADD211R,0.19400X0.00100*%
%ADD212R,0.08900X0.00100*%
%ADD213R,0.08300X0.00100*%
%ADD214R,0.08100X0.00100*%
%ADD215R,0.07900X0.00100*%
%ADD216R,0.07300X0.00100*%
%ADD217R,0.06700X0.00100*%
%ADD218R,0.06500X0.00100*%
%ADD219R,0.05300X0.00100*%
%ADD220R,0.04900X0.00100*%
%ADD221R,0.04500X0.00100*%
%ADD222R,0.03500X0.00100*%
%ADD223R,0.02900X0.00100*%
%ADD224R,0.00500X0.00100*%
%ADD225R,0.01300X0.00100*%
%ADD226R,0.01900X0.00100*%
%ADD227R,0.03100X0.00100*%
%ADD228R,0.01100X0.00100*%
%ADD229R,0.00700X0.00100*%
%ADD230R,0.00900X0.00100*%
%ADD231R,0.00200X0.00100*%
%ADD232R,0.00300X0.00100*%
%ADD233R,0.04100X0.00100*%
%ADD234R,0.01700X0.00100*%
%ADD235R,0.04300X0.00100*%
%ADD236R,0.02300X0.00100*%
%ADD237R,0.02500X0.00100*%
%ADD238R,0.01500X0.00100*%
%ADD239R,0.03300X0.00100*%
%ADD240R,0.02100X0.00100*%
%ADD241R,0.00600X0.00100*%
%ADD242R,0.02700X0.00100*%
%ADD243R,0.03600X0.00100*%
%ADD244R,0.03800X0.00100*%
%ADD245R,0.03900X0.00100*%
%ADD246C,0.00500*%
%ADD247C,0.00800*%
%ADD248R,0.01800X0.03000*%
%ADD249R,0.03000X0.01800*%
D10*
X0031283Y0074037D03*
X0031283Y0074137D03*
X0031283Y0074237D03*
X0031283Y0074337D03*
X0031283Y0074437D03*
X0031283Y0074537D03*
X0031283Y0074637D03*
X0031283Y0074737D03*
X0031283Y0074837D03*
X0031283Y0074937D03*
X0031283Y0075037D03*
X0031283Y0075137D03*
X0031283Y0075237D03*
X0031283Y0075337D03*
X0031283Y0075437D03*
X0031283Y0075537D03*
X0101433Y0092950D03*
D11*
X0031333Y0110159D02*
X0031333Y0040561D01*
X0031336Y0040276D01*
X0031347Y0039990D01*
X0031364Y0039705D01*
X0031388Y0039421D01*
X0031419Y0039137D01*
X0031457Y0038854D01*
X0031502Y0038573D01*
X0031553Y0038292D01*
X0031611Y0038012D01*
X0031676Y0037734D01*
X0031748Y0037458D01*
X0031826Y0037184D01*
X0031911Y0036911D01*
X0032003Y0036641D01*
X0032101Y0036373D01*
X0032205Y0036107D01*
X0032316Y0035844D01*
X0032433Y0035584D01*
X0032556Y0035326D01*
X0032686Y0035072D01*
X0032822Y0034821D01*
X0032963Y0034573D01*
X0033111Y0034329D01*
X0033264Y0034088D01*
X0033424Y0033852D01*
X0033589Y0033619D01*
X0033759Y0033390D01*
X0033935Y0033165D01*
X0034117Y0032945D01*
X0034303Y0032729D01*
X0034495Y0032518D01*
X0034692Y0032311D01*
X0034894Y0032109D01*
X0035101Y0031912D01*
X0035312Y0031720D01*
X0035528Y0031534D01*
X0035748Y0031352D01*
X0035973Y0031176D01*
X0036202Y0031006D01*
X0036435Y0030841D01*
X0036671Y0030681D01*
X0036912Y0030528D01*
X0037156Y0030380D01*
X0037404Y0030239D01*
X0037655Y0030103D01*
X0037909Y0029973D01*
X0038167Y0029850D01*
X0038427Y0029733D01*
X0038690Y0029622D01*
X0038956Y0029518D01*
X0039224Y0029420D01*
X0039494Y0029328D01*
X0039767Y0029243D01*
X0040041Y0029165D01*
X0040317Y0029093D01*
X0040595Y0029028D01*
X0040875Y0028970D01*
X0041156Y0028919D01*
X0041437Y0028874D01*
X0041720Y0028836D01*
X0042004Y0028805D01*
X0042288Y0028781D01*
X0042573Y0028764D01*
X0042859Y0028753D01*
X0043144Y0028750D01*
X0107633Y0028750D01*
X0124554Y0040561D02*
X0124554Y0110159D01*
X0124551Y0110444D01*
X0124540Y0110730D01*
X0124523Y0111015D01*
X0124499Y0111299D01*
X0124468Y0111583D01*
X0124430Y0111866D01*
X0124385Y0112147D01*
X0124334Y0112428D01*
X0124276Y0112708D01*
X0124211Y0112986D01*
X0124139Y0113262D01*
X0124061Y0113536D01*
X0123976Y0113809D01*
X0123884Y0114079D01*
X0123786Y0114347D01*
X0123682Y0114613D01*
X0123571Y0114876D01*
X0123454Y0115136D01*
X0123331Y0115394D01*
X0123201Y0115648D01*
X0123065Y0115899D01*
X0122924Y0116147D01*
X0122776Y0116391D01*
X0122623Y0116632D01*
X0122463Y0116868D01*
X0122298Y0117101D01*
X0122128Y0117330D01*
X0121952Y0117555D01*
X0121770Y0117775D01*
X0121584Y0117991D01*
X0121392Y0118202D01*
X0121195Y0118409D01*
X0120993Y0118611D01*
X0120786Y0118808D01*
X0120575Y0119000D01*
X0120359Y0119186D01*
X0120139Y0119368D01*
X0119914Y0119544D01*
X0119685Y0119714D01*
X0119452Y0119879D01*
X0119216Y0120039D01*
X0118975Y0120192D01*
X0118731Y0120340D01*
X0118483Y0120481D01*
X0118232Y0120617D01*
X0117978Y0120747D01*
X0117720Y0120870D01*
X0117460Y0120987D01*
X0117197Y0121098D01*
X0116931Y0121202D01*
X0116663Y0121300D01*
X0116393Y0121392D01*
X0116120Y0121477D01*
X0115846Y0121555D01*
X0115570Y0121627D01*
X0115292Y0121692D01*
X0115012Y0121750D01*
X0114731Y0121801D01*
X0114450Y0121846D01*
X0114167Y0121884D01*
X0113883Y0121915D01*
X0113599Y0121939D01*
X0113314Y0121956D01*
X0113028Y0121967D01*
X0112743Y0121970D01*
X0043144Y0121970D01*
X0042859Y0121967D01*
X0042573Y0121956D01*
X0042288Y0121939D01*
X0042004Y0121915D01*
X0041720Y0121884D01*
X0041437Y0121846D01*
X0041156Y0121801D01*
X0040875Y0121750D01*
X0040595Y0121692D01*
X0040317Y0121627D01*
X0040041Y0121555D01*
X0039767Y0121477D01*
X0039494Y0121392D01*
X0039224Y0121300D01*
X0038956Y0121202D01*
X0038690Y0121098D01*
X0038427Y0120987D01*
X0038167Y0120870D01*
X0037909Y0120747D01*
X0037655Y0120617D01*
X0037404Y0120481D01*
X0037156Y0120340D01*
X0036912Y0120192D01*
X0036671Y0120039D01*
X0036435Y0119879D01*
X0036202Y0119714D01*
X0035973Y0119544D01*
X0035748Y0119368D01*
X0035528Y0119186D01*
X0035312Y0119000D01*
X0035101Y0118808D01*
X0034894Y0118611D01*
X0034692Y0118409D01*
X0034495Y0118202D01*
X0034303Y0117991D01*
X0034117Y0117775D01*
X0033935Y0117555D01*
X0033759Y0117330D01*
X0033589Y0117101D01*
X0033424Y0116868D01*
X0033264Y0116632D01*
X0033111Y0116391D01*
X0032963Y0116147D01*
X0032822Y0115899D01*
X0032686Y0115648D01*
X0032556Y0115394D01*
X0032433Y0115136D01*
X0032316Y0114876D01*
X0032205Y0114613D01*
X0032101Y0114347D01*
X0032003Y0114079D01*
X0031911Y0113809D01*
X0031826Y0113536D01*
X0031748Y0113262D01*
X0031676Y0112986D01*
X0031611Y0112708D01*
X0031553Y0112428D01*
X0031502Y0112147D01*
X0031457Y0111866D01*
X0031419Y0111583D01*
X0031388Y0111299D01*
X0031364Y0111015D01*
X0031347Y0110730D01*
X0031336Y0110444D01*
X0031333Y0110159D01*
X0068100Y0075360D02*
X0068103Y0075602D01*
X0068112Y0075843D01*
X0068127Y0076084D01*
X0068147Y0076325D01*
X0068174Y0076565D01*
X0068207Y0076804D01*
X0068245Y0077043D01*
X0068289Y0077280D01*
X0068339Y0077517D01*
X0068395Y0077752D01*
X0068457Y0077985D01*
X0068524Y0078217D01*
X0068597Y0078448D01*
X0068675Y0078676D01*
X0068760Y0078902D01*
X0068849Y0079127D01*
X0068944Y0079349D01*
X0069045Y0079568D01*
X0069151Y0079786D01*
X0069262Y0080000D01*
X0069379Y0080212D01*
X0069500Y0080420D01*
X0069627Y0080626D01*
X0069759Y0080828D01*
X0069896Y0081028D01*
X0070037Y0081223D01*
X0070183Y0081416D01*
X0070334Y0081604D01*
X0070490Y0081789D01*
X0070650Y0081970D01*
X0070814Y0082147D01*
X0070983Y0082320D01*
X0071156Y0082489D01*
X0071333Y0082653D01*
X0071514Y0082813D01*
X0071699Y0082969D01*
X0071887Y0083120D01*
X0072080Y0083266D01*
X0072275Y0083407D01*
X0072475Y0083544D01*
X0072677Y0083676D01*
X0072883Y0083803D01*
X0073091Y0083924D01*
X0073303Y0084041D01*
X0073517Y0084152D01*
X0073735Y0084258D01*
X0073954Y0084359D01*
X0074176Y0084454D01*
X0074401Y0084543D01*
X0074627Y0084628D01*
X0074855Y0084706D01*
X0075086Y0084779D01*
X0075318Y0084846D01*
X0075551Y0084908D01*
X0075786Y0084964D01*
X0076023Y0085014D01*
X0076260Y0085058D01*
X0076499Y0085096D01*
X0076738Y0085129D01*
X0076978Y0085156D01*
X0077219Y0085176D01*
X0077460Y0085191D01*
X0077701Y0085200D01*
X0077943Y0085203D01*
X0078185Y0085200D01*
X0078426Y0085191D01*
X0078667Y0085176D01*
X0078908Y0085156D01*
X0079148Y0085129D01*
X0079387Y0085096D01*
X0079626Y0085058D01*
X0079863Y0085014D01*
X0080100Y0084964D01*
X0080335Y0084908D01*
X0080568Y0084846D01*
X0080800Y0084779D01*
X0081031Y0084706D01*
X0081259Y0084628D01*
X0081485Y0084543D01*
X0081710Y0084454D01*
X0081932Y0084359D01*
X0082151Y0084258D01*
X0082369Y0084152D01*
X0082583Y0084041D01*
X0082795Y0083924D01*
X0083003Y0083803D01*
X0083209Y0083676D01*
X0083411Y0083544D01*
X0083611Y0083407D01*
X0083806Y0083266D01*
X0083999Y0083120D01*
X0084187Y0082969D01*
X0084372Y0082813D01*
X0084553Y0082653D01*
X0084730Y0082489D01*
X0084903Y0082320D01*
X0085072Y0082147D01*
X0085236Y0081970D01*
X0085396Y0081789D01*
X0085552Y0081604D01*
X0085703Y0081416D01*
X0085849Y0081223D01*
X0085990Y0081028D01*
X0086127Y0080828D01*
X0086259Y0080626D01*
X0086386Y0080420D01*
X0086507Y0080212D01*
X0086624Y0080000D01*
X0086735Y0079786D01*
X0086841Y0079568D01*
X0086942Y0079349D01*
X0087037Y0079127D01*
X0087126Y0078902D01*
X0087211Y0078676D01*
X0087289Y0078448D01*
X0087362Y0078217D01*
X0087429Y0077985D01*
X0087491Y0077752D01*
X0087547Y0077517D01*
X0087597Y0077280D01*
X0087641Y0077043D01*
X0087679Y0076804D01*
X0087712Y0076565D01*
X0087739Y0076325D01*
X0087759Y0076084D01*
X0087774Y0075843D01*
X0087783Y0075602D01*
X0087786Y0075360D01*
X0087783Y0075118D01*
X0087774Y0074877D01*
X0087759Y0074636D01*
X0087739Y0074395D01*
X0087712Y0074155D01*
X0087679Y0073916D01*
X0087641Y0073677D01*
X0087597Y0073440D01*
X0087547Y0073203D01*
X0087491Y0072968D01*
X0087429Y0072735D01*
X0087362Y0072503D01*
X0087289Y0072272D01*
X0087211Y0072044D01*
X0087126Y0071818D01*
X0087037Y0071593D01*
X0086942Y0071371D01*
X0086841Y0071152D01*
X0086735Y0070934D01*
X0086624Y0070720D01*
X0086507Y0070508D01*
X0086386Y0070300D01*
X0086259Y0070094D01*
X0086127Y0069892D01*
X0085990Y0069692D01*
X0085849Y0069497D01*
X0085703Y0069304D01*
X0085552Y0069116D01*
X0085396Y0068931D01*
X0085236Y0068750D01*
X0085072Y0068573D01*
X0084903Y0068400D01*
X0084730Y0068231D01*
X0084553Y0068067D01*
X0084372Y0067907D01*
X0084187Y0067751D01*
X0083999Y0067600D01*
X0083806Y0067454D01*
X0083611Y0067313D01*
X0083411Y0067176D01*
X0083209Y0067044D01*
X0083003Y0066917D01*
X0082795Y0066796D01*
X0082583Y0066679D01*
X0082369Y0066568D01*
X0082151Y0066462D01*
X0081932Y0066361D01*
X0081710Y0066266D01*
X0081485Y0066177D01*
X0081259Y0066092D01*
X0081031Y0066014D01*
X0080800Y0065941D01*
X0080568Y0065874D01*
X0080335Y0065812D01*
X0080100Y0065756D01*
X0079863Y0065706D01*
X0079626Y0065662D01*
X0079387Y0065624D01*
X0079148Y0065591D01*
X0078908Y0065564D01*
X0078667Y0065544D01*
X0078426Y0065529D01*
X0078185Y0065520D01*
X0077943Y0065517D01*
X0077701Y0065520D01*
X0077460Y0065529D01*
X0077219Y0065544D01*
X0076978Y0065564D01*
X0076738Y0065591D01*
X0076499Y0065624D01*
X0076260Y0065662D01*
X0076023Y0065706D01*
X0075786Y0065756D01*
X0075551Y0065812D01*
X0075318Y0065874D01*
X0075086Y0065941D01*
X0074855Y0066014D01*
X0074627Y0066092D01*
X0074401Y0066177D01*
X0074176Y0066266D01*
X0073954Y0066361D01*
X0073735Y0066462D01*
X0073517Y0066568D01*
X0073303Y0066679D01*
X0073091Y0066796D01*
X0072883Y0066917D01*
X0072677Y0067044D01*
X0072475Y0067176D01*
X0072275Y0067313D01*
X0072080Y0067454D01*
X0071887Y0067600D01*
X0071699Y0067751D01*
X0071514Y0067907D01*
X0071333Y0068067D01*
X0071156Y0068231D01*
X0070983Y0068400D01*
X0070814Y0068573D01*
X0070650Y0068750D01*
X0070490Y0068931D01*
X0070334Y0069116D01*
X0070183Y0069304D01*
X0070037Y0069497D01*
X0069896Y0069692D01*
X0069759Y0069892D01*
X0069627Y0070094D01*
X0069500Y0070300D01*
X0069379Y0070508D01*
X0069262Y0070720D01*
X0069151Y0070934D01*
X0069045Y0071152D01*
X0068944Y0071371D01*
X0068849Y0071593D01*
X0068760Y0071818D01*
X0068675Y0072044D01*
X0068597Y0072272D01*
X0068524Y0072503D01*
X0068457Y0072735D01*
X0068395Y0072968D01*
X0068339Y0073203D01*
X0068289Y0073440D01*
X0068245Y0073677D01*
X0068207Y0073916D01*
X0068174Y0074155D01*
X0068147Y0074395D01*
X0068127Y0074636D01*
X0068112Y0074877D01*
X0068103Y0075118D01*
X0068100Y0075360D01*
X0107633Y0028749D02*
X0107981Y0028692D01*
X0108330Y0028643D01*
X0108680Y0028602D01*
X0109031Y0028570D01*
X0109383Y0028546D01*
X0109735Y0028531D01*
X0110088Y0028524D01*
X0110441Y0028526D01*
X0110793Y0028537D01*
X0111145Y0028555D01*
X0111497Y0028583D01*
X0111848Y0028619D01*
X0112197Y0028663D01*
X0112546Y0028716D01*
X0112893Y0028777D01*
X0113239Y0028847D01*
X0113583Y0028924D01*
X0113925Y0029011D01*
X0114265Y0029105D01*
X0114602Y0029208D01*
X0114937Y0029318D01*
X0115269Y0029437D01*
X0115598Y0029564D01*
X0115924Y0029699D01*
X0116246Y0029841D01*
X0116565Y0029991D01*
X0116881Y0030149D01*
X0117192Y0030315D01*
X0117499Y0030488D01*
X0117802Y0030668D01*
X0118101Y0030856D01*
X0118395Y0031050D01*
X0118684Y0031252D01*
X0118968Y0031461D01*
X0119247Y0031677D01*
X0119521Y0031899D01*
X0119789Y0032128D01*
X0120052Y0032363D01*
X0120309Y0032604D01*
X0120560Y0032852D01*
X0120805Y0033106D01*
X0121044Y0033365D01*
X0121276Y0033630D01*
X0121502Y0033901D01*
X0121721Y0034177D01*
X0121934Y0034458D01*
X0122140Y0034745D01*
X0122339Y0035036D01*
X0122530Y0035332D01*
X0122715Y0035632D01*
X0122892Y0035937D01*
X0123062Y0036246D01*
X0123224Y0036559D01*
X0123379Y0036876D01*
X0123526Y0037197D01*
X0123665Y0037521D01*
X0123796Y0037848D01*
X0123919Y0038179D01*
X0124035Y0038512D01*
X0124142Y0038848D01*
X0124241Y0039186D01*
X0124332Y0039527D01*
X0124414Y0039870D01*
X0124489Y0040214D01*
X0124555Y0040561D01*
D12*
X0121495Y0051342D02*
X0119527Y0053310D01*
X0117559Y0051342D01*
X0117559Y0057247D01*
X0115050Y0057247D02*
X0115050Y0051342D01*
X0115050Y0054294D02*
X0111113Y0054294D01*
X0108604Y0053310D02*
X0107620Y0054294D01*
X0105652Y0054294D01*
X0104668Y0055278D01*
X0104668Y0056262D01*
X0105652Y0057247D01*
X0107620Y0057247D01*
X0108604Y0056262D01*
X0111113Y0057247D02*
X0111113Y0051342D01*
X0108604Y0052326D02*
X0107620Y0051342D01*
X0105652Y0051342D01*
X0104668Y0052326D01*
X0102159Y0052326D02*
X0102159Y0056262D01*
X0101175Y0057247D01*
X0099206Y0057247D01*
X0098222Y0056262D01*
X0098222Y0052326D01*
X0099206Y0051342D01*
X0101175Y0051342D01*
X0102159Y0052326D01*
X0108604Y0052326D02*
X0108604Y0053310D01*
X0121495Y0051342D02*
X0121495Y0057247D01*
D13*
X0087490Y0104651D03*
X0087240Y0104651D03*
X0086990Y0104651D03*
X0086990Y0108401D03*
X0088990Y0113026D03*
X0081740Y0115900D03*
X0074990Y0104651D03*
X0067740Y0104651D03*
X0053240Y0099275D03*
X0051740Y0101026D03*
D14*
X0053555Y0099275D03*
X0067425Y0104651D03*
X0076175Y0115900D03*
X0081425Y0115900D03*
X0089425Y0106401D03*
X0064055Y0119275D03*
D15*
X0064365Y0119275D03*
X0075865Y0115900D03*
X0080365Y0104651D03*
X0086115Y0108276D03*
X0086365Y0108276D03*
X0091865Y0104651D03*
X0092115Y0104651D03*
X0092365Y0104651D03*
X0095865Y0113151D03*
X0070865Y0104651D03*
X0068115Y0105776D03*
X0067115Y0104651D03*
X0066865Y0104651D03*
X0062615Y0104651D03*
X0062365Y0104651D03*
X0062115Y0104651D03*
X0053865Y0099275D03*
D16*
X0053550Y0099401D03*
X0070300Y0106651D03*
X0093430Y0111276D03*
D17*
X0053490Y0099526D03*
D18*
X0053555Y0099651D03*
D19*
X0053490Y0099775D03*
D20*
X0053490Y0099901D03*
D21*
X0053425Y0100026D03*
X0075805Y0112651D03*
X0081175Y0112026D03*
X0088055Y0112275D03*
X0087175Y0105276D03*
D22*
X0053490Y0100151D03*
D23*
X0053490Y0100276D03*
X0057490Y0112776D03*
X0087240Y0105401D03*
D24*
X0052115Y0100401D03*
D25*
X0053240Y0100401D03*
X0057990Y0111776D03*
X0058740Y0112901D03*
X0059490Y0112901D03*
X0056490Y0112901D03*
X0055740Y0112901D03*
X0074240Y0112901D03*
X0076740Y0112901D03*
X0077490Y0112901D03*
X0079740Y0112901D03*
X0081740Y0112901D03*
X0082490Y0112901D03*
X0082240Y0111776D03*
X0081740Y0111776D03*
X0087240Y0105651D03*
X0087490Y0105651D03*
D26*
X0086365Y0109276D03*
X0082615Y0111776D03*
X0082865Y0112901D03*
X0082115Y0112901D03*
X0080115Y0112901D03*
X0079615Y0111776D03*
X0077115Y0111776D03*
X0076615Y0111776D03*
X0076115Y0111776D03*
X0076365Y0112901D03*
X0077115Y0112901D03*
X0074615Y0112901D03*
X0074615Y0111776D03*
X0074115Y0111776D03*
X0059365Y0111776D03*
X0058865Y0111776D03*
X0058365Y0111776D03*
X0058365Y0112901D03*
X0059115Y0112901D03*
X0056115Y0112901D03*
X0056115Y0111776D03*
X0055615Y0111776D03*
X0053865Y0100401D03*
D27*
X0054990Y0100401D03*
X0093240Y0110776D03*
D28*
X0094680Y0111901D03*
X0096180Y0113026D03*
X0085300Y0110901D03*
X0084930Y0106401D03*
X0085050Y0106276D03*
X0070680Y0107901D03*
X0070550Y0107776D03*
X0058680Y0118150D03*
X0058550Y0118025D03*
X0055300Y0100651D03*
X0051930Y0100526D03*
D29*
X0055240Y0100526D03*
X0070490Y0107276D03*
X0070490Y0107401D03*
X0085240Y0106025D03*
X0088990Y0105776D03*
X0088990Y0109901D03*
X0089490Y0112026D03*
X0085740Y0111401D03*
X0092990Y0110026D03*
D30*
X0092615Y0108276D03*
X0092615Y0107901D03*
X0092365Y0106276D03*
X0092365Y0106025D03*
X0093115Y0112275D03*
X0093115Y0112526D03*
X0081115Y0114026D03*
X0081115Y0114151D03*
X0081115Y0114401D03*
X0081365Y0115651D03*
X0075865Y0115651D03*
X0075865Y0115526D03*
X0075615Y0114026D03*
X0075615Y0113651D03*
X0075365Y0111401D03*
X0075115Y0109650D03*
X0075115Y0109401D03*
X0074865Y0107276D03*
X0074865Y0106776D03*
X0074865Y0106401D03*
X0070865Y0105776D03*
X0071115Y0110901D03*
X0071115Y0111026D03*
X0066365Y0112651D03*
X0063365Y0112526D03*
X0063365Y0112275D03*
X0063115Y0110526D03*
X0063115Y0109901D03*
X0062865Y0108276D03*
X0062865Y0107901D03*
X0062615Y0106276D03*
X0062615Y0106025D03*
X0065865Y0108401D03*
X0063615Y0114151D03*
X0063615Y0114276D03*
X0063615Y0114401D03*
X0063615Y0114526D03*
X0063865Y0116150D03*
X0063865Y0116401D03*
X0063865Y0116526D03*
X0063865Y0116776D03*
X0064115Y0118526D03*
X0064115Y0118651D03*
X0064115Y0118776D03*
X0057865Y0116150D03*
X0057615Y0115025D03*
X0057615Y0114651D03*
X0057615Y0114401D03*
X0057365Y0113026D03*
X0057115Y0111026D03*
X0057115Y0110526D03*
X0057115Y0110401D03*
X0056865Y0108650D03*
X0056865Y0108401D03*
X0056865Y0108276D03*
X0056865Y0107901D03*
X0056615Y0106776D03*
X0056615Y0106401D03*
X0056615Y0106276D03*
X0056615Y0106025D03*
X0056365Y0104276D03*
X0056365Y0104151D03*
X0056115Y0102651D03*
X0051865Y0100651D03*
X0080365Y0106401D03*
X0080365Y0106901D03*
X0080365Y0107401D03*
X0080365Y0107776D03*
X0080365Y0107901D03*
X0080365Y0108276D03*
X0080615Y0109650D03*
X0080615Y0109901D03*
X0080615Y0110026D03*
D31*
X0051805Y0100776D03*
D32*
X0055490Y0100776D03*
X0070740Y0108526D03*
X0084490Y0108026D03*
X0089240Y0110151D03*
X0092740Y0109026D03*
D33*
X0051740Y0100901D03*
D34*
X0055490Y0100901D03*
X0065990Y0106151D03*
X0070740Y0108151D03*
X0084740Y0109776D03*
X0085240Y0110776D03*
D35*
X0085115Y0110526D03*
X0084865Y0110026D03*
X0085365Y0111026D03*
X0084615Y0107401D03*
X0084615Y0107276D03*
X0089615Y0111901D03*
X0092865Y0109650D03*
X0092865Y0109401D03*
X0070865Y0109150D03*
X0065865Y0106401D03*
X0055615Y0101026D03*
X0058365Y0117776D03*
D36*
X0058305Y0117651D03*
X0058175Y0117401D03*
X0058055Y0117150D03*
X0058055Y0117025D03*
X0057925Y0116651D03*
X0057925Y0116526D03*
X0057925Y0116401D03*
X0057805Y0116025D03*
X0057805Y0115900D03*
X0057675Y0115150D03*
X0057675Y0114900D03*
X0057555Y0114526D03*
X0057555Y0114276D03*
X0057555Y0114151D03*
X0057425Y0113151D03*
X0057175Y0110901D03*
X0057055Y0109901D03*
X0056925Y0108901D03*
X0056555Y0105776D03*
X0056425Y0104776D03*
X0056425Y0104651D03*
X0056305Y0103776D03*
X0056305Y0103651D03*
X0056305Y0103400D03*
X0056175Y0102900D03*
X0056055Y0102400D03*
X0056055Y0102151D03*
X0055925Y0101651D03*
X0055805Y0101526D03*
X0055675Y0101151D03*
X0062555Y0105151D03*
X0062555Y0105525D03*
X0062555Y0105776D03*
X0062675Y0106401D03*
X0062675Y0106776D03*
X0062805Y0107401D03*
X0062805Y0107776D03*
X0062925Y0108401D03*
X0062925Y0108650D03*
X0063055Y0109401D03*
X0063055Y0109650D03*
X0063055Y0110026D03*
X0063175Y0110401D03*
X0063175Y0110901D03*
X0063175Y0111026D03*
X0063305Y0111401D03*
X0063305Y0111901D03*
X0063305Y0112026D03*
X0063425Y0112651D03*
X0063425Y0113026D03*
X0063555Y0113651D03*
X0063555Y0114026D03*
X0063675Y0114651D03*
X0063675Y0114900D03*
X0063675Y0115025D03*
X0063805Y0115651D03*
X0063805Y0115900D03*
X0063805Y0116025D03*
X0063925Y0116651D03*
X0063925Y0117025D03*
X0063925Y0117150D03*
X0064055Y0117651D03*
X0064055Y0118025D03*
X0064055Y0118150D03*
X0064055Y0118275D03*
X0064175Y0118901D03*
X0066305Y0112526D03*
X0066305Y0112275D03*
X0066305Y0112026D03*
X0066305Y0111901D03*
X0066175Y0111526D03*
X0066175Y0111401D03*
X0066175Y0111026D03*
X0066175Y0110901D03*
X0066055Y0110526D03*
X0066055Y0110401D03*
X0066055Y0110026D03*
X0066055Y0109901D03*
X0065925Y0109150D03*
X0065925Y0108901D03*
X0065925Y0108650D03*
X0065805Y0108276D03*
X0065805Y0107901D03*
X0065805Y0107776D03*
X0065805Y0107401D03*
X0065805Y0106901D03*
X0065805Y0106776D03*
X0065925Y0106276D03*
X0069305Y0106025D03*
X0070805Y0106025D03*
X0070805Y0106401D03*
X0070925Y0105525D03*
X0070925Y0105276D03*
X0070805Y0108650D03*
X0070805Y0108901D03*
X0070925Y0109401D03*
X0070925Y0109650D03*
X0071055Y0110401D03*
X0071055Y0110526D03*
X0071175Y0111401D03*
X0071175Y0111526D03*
X0071305Y0112275D03*
X0071305Y0112526D03*
X0071305Y0112651D03*
X0075305Y0111526D03*
X0075305Y0110901D03*
X0075175Y0110526D03*
X0075175Y0110026D03*
X0075175Y0109901D03*
X0075055Y0109150D03*
X0075055Y0108901D03*
X0074925Y0108276D03*
X0074925Y0107776D03*
X0074925Y0107401D03*
X0074925Y0106901D03*
X0074925Y0106276D03*
X0074925Y0106025D03*
X0074925Y0105776D03*
X0075055Y0105276D03*
X0075055Y0105151D03*
X0080305Y0106025D03*
X0080305Y0106276D03*
X0080305Y0106776D03*
X0080305Y0107276D03*
X0080425Y0108401D03*
X0080555Y0109150D03*
X0080555Y0109401D03*
X0080675Y0110401D03*
X0080675Y0110526D03*
X0080805Y0111401D03*
X0080805Y0111526D03*
X0081055Y0113526D03*
X0081055Y0113651D03*
X0081175Y0114276D03*
X0081175Y0114526D03*
X0081175Y0114651D03*
X0081305Y0115401D03*
X0075805Y0115401D03*
X0075805Y0115150D03*
X0075675Y0114526D03*
X0075675Y0114276D03*
X0075675Y0114151D03*
X0075555Y0113526D03*
X0075555Y0113151D03*
X0080425Y0105776D03*
X0080425Y0105525D03*
X0080555Y0105151D03*
X0084555Y0107776D03*
X0084555Y0107901D03*
X0084675Y0109401D03*
X0084675Y0109650D03*
X0084805Y0109901D03*
X0088175Y0113026D03*
X0089675Y0111026D03*
X0089675Y0110901D03*
X0089555Y0110526D03*
X0089425Y0110401D03*
X0092805Y0109150D03*
X0092805Y0108901D03*
X0092675Y0108650D03*
X0092675Y0108401D03*
X0092555Y0107776D03*
X0092555Y0107401D03*
X0092425Y0106776D03*
X0092425Y0106401D03*
X0092305Y0105776D03*
X0092305Y0105525D03*
X0093055Y0111901D03*
X0093055Y0112026D03*
X0093175Y0112651D03*
D37*
X0093175Y0112776D03*
X0093055Y0111651D03*
X0092675Y0108526D03*
X0092555Y0107526D03*
X0092425Y0106526D03*
X0092305Y0105401D03*
X0089555Y0110651D03*
X0089675Y0111651D03*
X0084675Y0109526D03*
X0080555Y0109526D03*
X0080425Y0108526D03*
X0080305Y0107026D03*
X0080305Y0106526D03*
X0080425Y0105901D03*
X0080555Y0105401D03*
X0080675Y0110651D03*
X0080805Y0111651D03*
X0081055Y0113776D03*
X0081175Y0114776D03*
X0075555Y0113276D03*
X0075305Y0111151D03*
X0075175Y0110151D03*
X0075055Y0109026D03*
X0074925Y0108026D03*
X0074925Y0105901D03*
X0075055Y0105401D03*
X0070925Y0105401D03*
X0070805Y0109026D03*
X0070925Y0109526D03*
X0071055Y0110151D03*
X0071055Y0110651D03*
X0071175Y0111151D03*
X0071175Y0111651D03*
X0071305Y0112151D03*
X0066305Y0112151D03*
X0066175Y0111151D03*
X0066055Y0110151D03*
X0065925Y0109526D03*
X0065925Y0109026D03*
X0065805Y0108526D03*
X0065805Y0108026D03*
X0065805Y0107526D03*
X0065675Y0107026D03*
X0065805Y0106526D03*
X0062675Y0106526D03*
X0062805Y0107526D03*
X0062925Y0108526D03*
X0062925Y0109026D03*
X0063055Y0109526D03*
X0063175Y0110651D03*
X0063305Y0111651D03*
X0063425Y0112776D03*
X0063555Y0113776D03*
X0063675Y0114776D03*
X0063805Y0115776D03*
X0063925Y0116901D03*
X0064055Y0117901D03*
X0064175Y0119026D03*
X0058055Y0116901D03*
X0057425Y0113276D03*
X0056925Y0109026D03*
X0056805Y0108026D03*
X0056425Y0104901D03*
X0056425Y0104401D03*
X0056305Y0103901D03*
X0056175Y0103276D03*
X0056175Y0102776D03*
X0056055Y0102276D03*
X0055925Y0101776D03*
X0055675Y0101276D03*
X0062555Y0105401D03*
D38*
X0062555Y0105651D03*
X0062675Y0106651D03*
X0062805Y0107651D03*
X0062925Y0108776D03*
X0063055Y0109776D03*
X0063175Y0110776D03*
X0063305Y0111776D03*
X0063425Y0112901D03*
X0063555Y0113901D03*
X0063675Y0115276D03*
X0063805Y0116276D03*
X0063925Y0117276D03*
X0066305Y0112401D03*
X0066175Y0111276D03*
X0066055Y0110276D03*
X0065925Y0109276D03*
X0065805Y0108151D03*
X0065805Y0107651D03*
X0065805Y0107151D03*
X0065805Y0106651D03*
X0070805Y0108776D03*
X0070925Y0109276D03*
X0070925Y0109776D03*
X0071055Y0110276D03*
X0071055Y0110776D03*
X0071175Y0111276D03*
X0071175Y0111776D03*
X0071305Y0112401D03*
X0075305Y0111276D03*
X0075175Y0110276D03*
X0075055Y0109276D03*
X0074925Y0108151D03*
X0074925Y0107651D03*
X0074925Y0106151D03*
X0075055Y0105651D03*
X0080305Y0106651D03*
X0080425Y0106151D03*
X0080425Y0105651D03*
X0080555Y0105026D03*
X0080425Y0108151D03*
X0080425Y0108776D03*
X0080555Y0109776D03*
X0080675Y0110776D03*
X0080805Y0111776D03*
X0080925Y0112901D03*
X0081055Y0113401D03*
X0084925Y0110276D03*
X0084555Y0108151D03*
X0084555Y0107651D03*
X0084675Y0107151D03*
X0089675Y0111776D03*
X0093055Y0111776D03*
X0092805Y0109276D03*
X0092675Y0108776D03*
X0092675Y0108151D03*
X0092555Y0107651D03*
X0092425Y0106651D03*
X0092305Y0105651D03*
X0075555Y0112901D03*
X0075805Y0115276D03*
X0058175Y0117276D03*
X0057675Y0115276D03*
X0057555Y0113901D03*
X0057425Y0112901D03*
X0057175Y0111776D03*
X0057175Y0111276D03*
X0056805Y0107651D03*
X0056675Y0106651D03*
X0056555Y0105651D03*
X0056425Y0105026D03*
X0056305Y0104026D03*
X0056175Y0103026D03*
X0056055Y0102526D03*
X0055925Y0101901D03*
X0055805Y0101401D03*
D39*
X0055990Y0102026D03*
X0065990Y0106025D03*
X0068990Y0105776D03*
X0070740Y0108276D03*
X0070740Y0108401D03*
X0074990Y0105525D03*
X0080490Y0105276D03*
X0084740Y0106776D03*
X0084740Y0106901D03*
X0084990Y0110401D03*
X0092990Y0109901D03*
X0058240Y0117526D03*
D40*
X0057990Y0116776D03*
X0057740Y0115651D03*
X0057740Y0115526D03*
X0057740Y0115401D03*
X0057490Y0114026D03*
X0057490Y0113651D03*
X0057490Y0113526D03*
X0057240Y0111526D03*
X0057240Y0111401D03*
X0056990Y0110026D03*
X0056990Y0109650D03*
X0056990Y0109401D03*
X0056990Y0109150D03*
X0056740Y0107776D03*
X0056740Y0107401D03*
X0056740Y0107276D03*
X0056740Y0106901D03*
X0056490Y0105525D03*
X0056490Y0105276D03*
X0056490Y0105151D03*
X0056240Y0103151D03*
X0062490Y0105276D03*
X0062740Y0106901D03*
X0062740Y0107276D03*
X0062990Y0108901D03*
X0062990Y0109150D03*
X0063240Y0111526D03*
X0063490Y0113151D03*
X0063490Y0113526D03*
X0063740Y0115150D03*
X0063740Y0115401D03*
X0063740Y0115526D03*
X0063990Y0117401D03*
X0063990Y0117526D03*
X0063990Y0117776D03*
X0065990Y0109650D03*
X0065990Y0109401D03*
X0065740Y0107276D03*
X0069490Y0106276D03*
X0070740Y0106276D03*
X0070990Y0105151D03*
X0070990Y0109901D03*
X0070990Y0110026D03*
X0071240Y0111901D03*
X0071240Y0112026D03*
X0075240Y0111026D03*
X0075240Y0110401D03*
X0074990Y0108650D03*
X0074990Y0108401D03*
X0074990Y0107901D03*
X0075490Y0113026D03*
X0075740Y0114401D03*
X0075740Y0114651D03*
X0075740Y0114900D03*
X0075740Y0115025D03*
X0081240Y0115025D03*
X0081240Y0114900D03*
X0081240Y0115150D03*
X0081240Y0115526D03*
X0080990Y0113151D03*
X0080990Y0113026D03*
X0080740Y0111026D03*
X0080740Y0110901D03*
X0080490Y0108901D03*
X0080490Y0108650D03*
X0089240Y0106025D03*
X0092240Y0105276D03*
X0092240Y0105151D03*
X0092490Y0106901D03*
X0092490Y0107276D03*
X0089740Y0111401D03*
X0089740Y0111526D03*
D41*
X0089740Y0111276D03*
X0093240Y0112901D03*
X0094490Y0111776D03*
X0092490Y0107151D03*
X0092240Y0105026D03*
X0080490Y0109276D03*
X0080740Y0111276D03*
X0081240Y0115276D03*
X0075240Y0110776D03*
X0074990Y0108776D03*
X0070990Y0105026D03*
X0065990Y0109776D03*
X0066240Y0111776D03*
X0063240Y0111276D03*
X0062990Y0109276D03*
X0062740Y0107151D03*
X0062490Y0105026D03*
X0056740Y0107151D03*
X0056990Y0109276D03*
X0056990Y0109776D03*
X0057490Y0113401D03*
X0063490Y0113401D03*
X0056240Y0103526D03*
D42*
X0056365Y0104526D03*
X0056615Y0106151D03*
X0056865Y0108151D03*
X0056865Y0108776D03*
X0057115Y0110276D03*
X0057115Y0110776D03*
X0063115Y0110276D03*
X0063365Y0112401D03*
X0066365Y0112901D03*
X0066115Y0110776D03*
X0065865Y0108776D03*
X0062865Y0108151D03*
X0062615Y0106151D03*
X0070865Y0106151D03*
X0070865Y0105651D03*
X0074865Y0106651D03*
X0074865Y0107151D03*
X0075115Y0105026D03*
X0075115Y0109776D03*
X0075365Y0111776D03*
X0075615Y0113401D03*
X0075615Y0113901D03*
X0071365Y0112901D03*
X0064115Y0118401D03*
X0057865Y0116276D03*
X0081115Y0113901D03*
X0080615Y0110276D03*
X0080365Y0107651D03*
X0080365Y0107151D03*
X0089615Y0110776D03*
X0093115Y0112401D03*
X0092365Y0106151D03*
D43*
X0092180Y0104776D03*
X0062430Y0104776D03*
X0061550Y0118275D03*
X0064180Y0119150D03*
D44*
X0070365Y0106776D03*
X0067365Y0104776D03*
X0086365Y0111901D03*
X0088615Y0109650D03*
D45*
X0093175Y0113026D03*
X0075055Y0104776D03*
X0070925Y0104776D03*
D46*
X0080490Y0104776D03*
D47*
X0085550Y0105776D03*
X0087180Y0104776D03*
X0093300Y0111026D03*
X0086550Y0112026D03*
D48*
X0089740Y0111151D03*
X0092490Y0107026D03*
X0092240Y0104901D03*
X0080490Y0109026D03*
X0080740Y0111151D03*
X0080990Y0113276D03*
X0075740Y0114776D03*
X0075240Y0110651D03*
X0074990Y0108526D03*
X0070990Y0104901D03*
X0066240Y0111651D03*
X0063240Y0111151D03*
X0063490Y0113276D03*
X0057490Y0113776D03*
X0057740Y0115776D03*
X0057240Y0111651D03*
X0057240Y0111151D03*
X0056990Y0109526D03*
X0056740Y0107526D03*
X0056740Y0107026D03*
X0056490Y0105401D03*
X0062490Y0104901D03*
X0062740Y0107026D03*
D49*
X0067430Y0104901D03*
X0086930Y0112151D03*
D50*
X0093115Y0112151D03*
X0094365Y0111651D03*
X0092615Y0108026D03*
X0092365Y0105901D03*
X0080365Y0107526D03*
X0080365Y0108026D03*
X0080615Y0110151D03*
X0075365Y0111651D03*
X0075615Y0113776D03*
X0075115Y0109526D03*
X0074865Y0107526D03*
X0074865Y0107026D03*
X0075115Y0104901D03*
X0070865Y0105901D03*
X0066115Y0110651D03*
X0066365Y0112776D03*
X0063365Y0112151D03*
X0063115Y0110151D03*
X0062865Y0108026D03*
X0062615Y0105901D03*
X0056615Y0105901D03*
X0056615Y0106526D03*
X0056865Y0108526D03*
X0057115Y0110151D03*
X0057115Y0110651D03*
X0057615Y0114776D03*
X0071365Y0112776D03*
D51*
X0081430Y0115776D03*
X0080550Y0104901D03*
D52*
X0087175Y0104901D03*
X0088175Y0112776D03*
D53*
X0067425Y0105026D03*
D54*
X0087240Y0105026D03*
D55*
X0067425Y0105151D03*
X0060425Y0119150D03*
D56*
X0060240Y0118776D03*
X0087240Y0105151D03*
D57*
X0067430Y0105276D03*
D58*
X0067555Y0105401D03*
D59*
X0067550Y0105525D03*
X0060180Y0118651D03*
D60*
X0057490Y0112651D03*
X0057490Y0112526D03*
X0087240Y0105525D03*
D61*
X0086055Y0108776D03*
X0067555Y0105651D03*
D62*
X0085865Y0105651D03*
X0095615Y0112401D03*
D63*
X0088740Y0105651D03*
D64*
X0070425Y0106901D03*
X0066305Y0105776D03*
X0058805Y0118275D03*
D65*
X0066115Y0105901D03*
D66*
X0069115Y0105901D03*
X0070615Y0108026D03*
X0074865Y0106526D03*
X0084615Y0107026D03*
X0084615Y0107526D03*
X0084865Y0106526D03*
X0084865Y0110151D03*
X0085115Y0110651D03*
X0089115Y0105901D03*
X0092865Y0109526D03*
D67*
X0093175Y0110651D03*
X0085425Y0105901D03*
X0070425Y0107026D03*
D68*
X0069430Y0106151D03*
D69*
X0085115Y0106151D03*
D70*
X0089365Y0106151D03*
D71*
X0089365Y0106276D03*
X0096365Y0113151D03*
D72*
X0071365Y0113026D03*
X0066365Y0113026D03*
X0069615Y0106401D03*
D73*
X0070300Y0106526D03*
X0093430Y0111151D03*
D74*
X0089365Y0110276D03*
X0084615Y0109276D03*
X0084865Y0106651D03*
D75*
X0070490Y0107151D03*
D76*
X0070550Y0107526D03*
X0058430Y0117901D03*
X0093050Y0110151D03*
D77*
X0093050Y0110276D03*
X0092930Y0109776D03*
X0085550Y0111276D03*
X0070550Y0107651D03*
D78*
X0084865Y0108276D03*
X0088115Y0109401D03*
D79*
X0085365Y0108401D03*
D80*
X0085680Y0108526D03*
D81*
X0085865Y0108650D03*
X0060365Y0118901D03*
D82*
X0075680Y0112275D03*
X0081180Y0112275D03*
X0086180Y0108901D03*
D83*
X0086305Y0109026D03*
D84*
X0086430Y0109150D03*
X0057430Y0112275D03*
D85*
X0087800Y0109276D03*
D86*
X0088365Y0109526D03*
D87*
X0088805Y0109776D03*
X0086175Y0111776D03*
X0096055Y0112901D03*
X0060305Y0119401D03*
D88*
X0085865Y0111526D03*
X0089115Y0110026D03*
X0093115Y0110401D03*
X0093115Y0110526D03*
D89*
X0093240Y0110901D03*
X0094990Y0112026D03*
D90*
X0085990Y0111651D03*
X0085490Y0111151D03*
D91*
X0093555Y0111401D03*
X0095675Y0112526D03*
X0095805Y0112651D03*
D92*
X0093615Y0111526D03*
D93*
X0057365Y0111901D03*
D94*
X0060115Y0118526D03*
X0075615Y0111901D03*
X0081115Y0111901D03*
D95*
X0057425Y0112026D03*
D96*
X0075740Y0112026D03*
X0075740Y0112526D03*
X0081240Y0112526D03*
X0081240Y0112651D03*
D97*
X0057430Y0112151D03*
D98*
X0075740Y0112151D03*
D99*
X0081180Y0112151D03*
D100*
X0089240Y0112151D03*
D101*
X0095365Y0112151D03*
D102*
X0095490Y0112275D03*
D103*
X0057430Y0112401D03*
D104*
X0075800Y0112401D03*
X0081180Y0112401D03*
D105*
X0088050Y0112401D03*
X0060050Y0118401D03*
D106*
X0088115Y0112526D03*
D107*
X0088115Y0112651D03*
D108*
X0075805Y0112776D03*
D109*
X0081240Y0112776D03*
D110*
X0095865Y0112776D03*
D111*
X0088305Y0112901D03*
D112*
X0075990Y0115776D03*
D113*
X0061740Y0118150D03*
D114*
X0060365Y0119026D03*
D115*
X0060365Y0119275D03*
D116*
X0096383Y0094750D03*
X0108483Y0094750D03*
X0118783Y0094750D03*
X0111483Y0073750D03*
D117*
X0111483Y0073850D03*
X0112183Y0094950D03*
X0112183Y0095050D03*
X0112283Y0096050D03*
X0115083Y0094950D03*
X0120183Y0098550D03*
X0120183Y0098650D03*
X0121583Y0095750D03*
X0121483Y0094850D03*
X0105783Y0099550D03*
X0105383Y0098050D03*
X0105283Y0097750D03*
X0102783Y0098050D03*
X0102583Y0099550D03*
X0102983Y0096550D03*
X0103083Y0095950D03*
X0103283Y0094950D03*
X0104383Y0094450D03*
X0104383Y0094350D03*
X0104483Y0094650D03*
X0104583Y0095150D03*
X0099183Y0094950D03*
X0093483Y0098850D03*
X0093483Y0098950D03*
X0093483Y0099050D03*
X0093483Y0099150D03*
X0093483Y0099250D03*
X0093483Y0099350D03*
X0093483Y0099450D03*
X0093483Y0099550D03*
X0090583Y0099150D03*
X0090883Y0097050D03*
X0091183Y0094850D03*
X0080983Y0095750D03*
X0076683Y0097650D03*
X0076983Y0099450D03*
X0076983Y0099550D03*
X0074083Y0098950D03*
X0073983Y0099450D03*
X0073983Y0099550D03*
X0074183Y0098050D03*
X0074283Y0097450D03*
X0074483Y0095950D03*
X0074683Y0094850D03*
D118*
X0074683Y0094950D03*
X0075783Y0095950D03*
X0075783Y0096050D03*
X0075883Y0096150D03*
X0075983Y0096250D03*
X0076183Y0096550D03*
X0076483Y0097150D03*
X0078383Y0097550D03*
X0078383Y0097650D03*
X0078383Y0097750D03*
X0078483Y0097850D03*
X0078483Y0097950D03*
X0078583Y0098050D03*
X0078583Y0098150D03*
X0078383Y0096350D03*
X0078383Y0096250D03*
X0078383Y0096150D03*
X0080883Y0095650D03*
X0081083Y0098150D03*
X0081183Y0098350D03*
X0081183Y0098850D03*
X0085483Y0098450D03*
X0085483Y0098350D03*
X0085483Y0098250D03*
X0085383Y0097750D03*
X0085383Y0097650D03*
X0085383Y0097550D03*
X0085283Y0096750D03*
X0085283Y0096650D03*
X0085283Y0096550D03*
X0085183Y0096050D03*
X0085183Y0095950D03*
X0085583Y0099550D03*
X0085683Y0099850D03*
X0085683Y0099950D03*
X0085683Y0100050D03*
X0085683Y0100150D03*
X0085783Y0100650D03*
X0085783Y0100750D03*
X0085783Y0100850D03*
X0085883Y0101850D03*
X0085883Y0101950D03*
X0093283Y0097950D03*
X0094983Y0097950D03*
X0094983Y0097850D03*
X0095083Y0098050D03*
X0095183Y0098250D03*
X0094883Y0096750D03*
X0094883Y0096650D03*
X0094883Y0096550D03*
X0094883Y0096450D03*
X0094883Y0096350D03*
X0094983Y0096150D03*
X0094983Y0096050D03*
X0092583Y0096350D03*
X0092483Y0096150D03*
X0092383Y0096050D03*
X0092283Y0095950D03*
X0092183Y0095850D03*
X0091283Y0094950D03*
X0097583Y0098050D03*
X0097583Y0098150D03*
X0099483Y0097550D03*
X0099483Y0097450D03*
X0099483Y0097350D03*
X0099583Y0097650D03*
X0099583Y0097750D03*
X0099583Y0097850D03*
X0099383Y0096850D03*
X0099383Y0096750D03*
X0099383Y0096650D03*
X0102883Y0097250D03*
X0102883Y0097350D03*
X0104883Y0096550D03*
X0104983Y0096650D03*
X0104983Y0096750D03*
X0104983Y0096850D03*
X0105083Y0097050D03*
X0107083Y0097050D03*
X0107083Y0097150D03*
X0107083Y0097250D03*
X0107083Y0097350D03*
X0107083Y0097450D03*
X0107183Y0097750D03*
X0107183Y0097850D03*
X0107283Y0098050D03*
X0107383Y0098250D03*
X0107483Y0098450D03*
X0107583Y0098550D03*
X0107083Y0096950D03*
X0107083Y0096850D03*
X0107083Y0096750D03*
X0107083Y0096650D03*
X0107083Y0096550D03*
X0107083Y0096450D03*
X0107183Y0096250D03*
X0107183Y0096150D03*
X0107283Y0095950D03*
X0110083Y0096050D03*
X0110183Y0096150D03*
X0110283Y0096250D03*
X0110283Y0096350D03*
X0110383Y0096550D03*
X0110483Y0096850D03*
X0110583Y0097350D03*
X0110583Y0097450D03*
X0110583Y0097550D03*
X0110583Y0097650D03*
X0110583Y0097750D03*
X0110483Y0098150D03*
X0110483Y0098250D03*
X0110383Y0098350D03*
X0110383Y0098450D03*
X0110283Y0098650D03*
X0112483Y0097650D03*
X0112483Y0097550D03*
X0112483Y0097450D03*
X0112583Y0097850D03*
X0112683Y0099250D03*
X0112683Y0099350D03*
X0115483Y0098750D03*
X0115483Y0098650D03*
X0115483Y0098050D03*
X0115483Y0097950D03*
X0115483Y0097850D03*
X0115483Y0097750D03*
X0115483Y0097650D03*
X0115383Y0097050D03*
X0117283Y0096750D03*
X0117283Y0096650D03*
X0117283Y0096550D03*
X0117283Y0096450D03*
X0117383Y0096150D03*
X0117383Y0096050D03*
X0117383Y0097750D03*
X0117383Y0097850D03*
X0117483Y0097950D03*
X0117483Y0098050D03*
X0117583Y0098150D03*
X0117583Y0098250D03*
X0119983Y0098050D03*
X0120083Y0098150D03*
X0121583Y0095650D03*
X0121583Y0095550D03*
X0121483Y0095050D03*
X0105683Y0099150D03*
X0105683Y0099250D03*
X0101383Y0099650D03*
X0104283Y0094050D03*
X0104083Y0093550D03*
X0103983Y0093250D03*
X0101483Y0092650D03*
X0111483Y0073950D03*
X0074383Y0096650D03*
X0074383Y0096750D03*
X0072483Y0096950D03*
X0072383Y0096650D03*
X0072283Y0096450D03*
X0072283Y0096350D03*
X0072183Y0096250D03*
X0072083Y0096050D03*
X0072483Y0097950D03*
X0072483Y0098050D03*
X0072483Y0098150D03*
X0072383Y0098250D03*
X0072383Y0098350D03*
X0072383Y0098450D03*
X0072283Y0098550D03*
X0072283Y0098650D03*
X0069383Y0098350D03*
X0069283Y0098150D03*
X0069183Y0097950D03*
X0069183Y0097850D03*
X0069083Y0097650D03*
X0069083Y0097550D03*
X0069083Y0097450D03*
X0069083Y0096450D03*
X0069083Y0096350D03*
X0069083Y0096250D03*
X0069183Y0096150D03*
X0069183Y0096050D03*
X0064583Y0097850D03*
X0064583Y0097950D03*
X0064583Y0098050D03*
X0064583Y0098150D03*
X0064583Y0098250D03*
X0064683Y0098850D03*
X0064683Y0098950D03*
X0064783Y0099550D03*
X0064783Y0099650D03*
X0064883Y0100550D03*
X0064883Y0100650D03*
X0064983Y0101250D03*
X0064983Y0101350D03*
X0065083Y0102250D03*
X0065083Y0102350D03*
X0064483Y0097250D03*
X0064483Y0097150D03*
X0064383Y0096550D03*
X0064383Y0096450D03*
D119*
X0069383Y0095750D03*
X0069583Y0098650D03*
X0072083Y0098850D03*
X0074783Y0095050D03*
X0078683Y0095750D03*
X0078883Y0098550D03*
X0078983Y0098650D03*
X0080383Y0099650D03*
X0081083Y0098950D03*
X0080883Y0097950D03*
X0080783Y0097850D03*
X0091283Y0095050D03*
X0095183Y0095750D03*
X0095483Y0098650D03*
X0099683Y0098250D03*
X0099683Y0098150D03*
X0099783Y0098350D03*
X0103383Y0095150D03*
X0104683Y0096150D03*
X0107783Y0098750D03*
X0109083Y0099650D03*
X0110083Y0098850D03*
X0112683Y0098250D03*
X0112683Y0098150D03*
X0114483Y0099650D03*
X0115383Y0098850D03*
X0117883Y0098650D03*
X0117583Y0095750D03*
X0109883Y0095750D03*
X0111483Y0074050D03*
D120*
X0111483Y0074150D03*
X0118783Y0094850D03*
X0118183Y0098850D03*
X0112883Y0098650D03*
X0112883Y0098550D03*
X0104583Y0095950D03*
X0104483Y0095850D03*
X0101183Y0099450D03*
X0099883Y0098550D03*
X0091383Y0095150D03*
X0080683Y0095550D03*
X0078783Y0095650D03*
X0079183Y0098850D03*
X0074883Y0095150D03*
X0070483Y0094850D03*
D121*
X0074983Y0095350D03*
X0091483Y0095350D03*
X0095983Y0098950D03*
X0096983Y0097650D03*
X0099983Y0098750D03*
X0101083Y0099250D03*
X0101083Y0099350D03*
X0107783Y0095550D03*
X0109483Y0095550D03*
X0112983Y0098750D03*
X0118383Y0098950D03*
X0119383Y0097650D03*
X0111483Y0074250D03*
D122*
X0111483Y0074350D03*
X0118783Y0094950D03*
X0117683Y0096850D03*
X0114483Y0099550D03*
X0113083Y0098850D03*
X0100083Y0098850D03*
X0095283Y0096850D03*
X0096383Y0094950D03*
X0079783Y0094950D03*
X0078783Y0096850D03*
X0074983Y0095450D03*
X0070483Y0094950D03*
D123*
X0075083Y0095750D03*
X0080183Y0097550D03*
X0091583Y0095650D03*
X0096683Y0097550D03*
X0096883Y0099450D03*
X0106783Y0090250D03*
X0116183Y0090250D03*
X0119183Y0097550D03*
X0119283Y0099450D03*
X0114483Y0099450D03*
X0111483Y0074450D03*
D124*
X0111483Y0074550D03*
X0102383Y0092050D03*
X0095483Y0096950D03*
X0108583Y0095050D03*
X0117883Y0096950D03*
X0070983Y0099450D03*
D125*
X0079083Y0097050D03*
X0080283Y0099350D03*
X0095583Y0097050D03*
X0100383Y0098950D03*
X0103883Y0095450D03*
X0103883Y0095350D03*
X0103883Y0095250D03*
X0102383Y0092150D03*
X0114483Y0099250D03*
X0117983Y0097050D03*
X0111483Y0074650D03*
D126*
X0111483Y0074750D03*
X0108583Y0095150D03*
X0100483Y0099150D03*
X0096783Y0099250D03*
X0096383Y0095150D03*
X0080283Y0099250D03*
X0070983Y0099350D03*
X0118783Y0095150D03*
D127*
X0118783Y0095250D03*
X0119183Y0099150D03*
X0108983Y0099250D03*
X0108583Y0095250D03*
X0102383Y0092250D03*
X0096383Y0095250D03*
X0096783Y0099150D03*
X0080183Y0099150D03*
X0079283Y0097250D03*
X0070983Y0099250D03*
X0070583Y0095250D03*
X0111483Y0074850D03*
D128*
X0111483Y0074950D03*
X0102483Y0092450D03*
X0096383Y0095350D03*
X0108583Y0095350D03*
X0108983Y0099150D03*
X0118783Y0095350D03*
X0079883Y0095350D03*
X0079383Y0097350D03*
X0070983Y0099150D03*
X0070583Y0095350D03*
D129*
X0070583Y0095450D03*
X0079783Y0095450D03*
X0095983Y0097450D03*
X0096383Y0095450D03*
X0108983Y0099050D03*
X0118783Y0095450D03*
X0111483Y0075050D03*
D130*
X0111483Y0075150D03*
D131*
X0111533Y0075250D03*
X0114033Y0098950D03*
X0114033Y0099050D03*
D132*
X0116283Y0089950D03*
X0106683Y0089950D03*
X0111483Y0075350D03*
D133*
X0111483Y0075450D03*
X0087583Y0102250D03*
X0087683Y0102650D03*
X0087683Y0102750D03*
X0087683Y0102850D03*
X0065983Y0095650D03*
D134*
X0065983Y0095550D03*
X0065983Y0095450D03*
X0065983Y0095150D03*
X0086883Y0095150D03*
X0086883Y0095050D03*
X0086883Y0095250D03*
X0086883Y0095350D03*
X0086883Y0095450D03*
X0086883Y0095550D03*
X0111483Y0075550D03*
D135*
X0111483Y0075650D03*
D136*
X0111483Y0075750D03*
D137*
X0111483Y0075850D03*
D138*
X0111483Y0075950D03*
X0106683Y0089650D03*
D139*
X0111483Y0076050D03*
D140*
X0111483Y0076150D03*
X0106683Y0089550D03*
X0116283Y0089550D03*
D141*
X0111483Y0076250D03*
D142*
X0111483Y0076350D03*
X0106683Y0089450D03*
X0116283Y0089450D03*
D143*
X0116283Y0089350D03*
X0106683Y0089350D03*
X0111483Y0076450D03*
D144*
X0111483Y0076550D03*
D145*
X0111483Y0076650D03*
D146*
X0111483Y0076750D03*
D147*
X0111483Y0076850D03*
X0116183Y0089050D03*
X0106683Y0089050D03*
D148*
X0111483Y0076950D03*
D149*
X0111483Y0077050D03*
X0106783Y0088850D03*
X0116183Y0088850D03*
D150*
X0116183Y0088750D03*
X0106783Y0088750D03*
X0111483Y0077150D03*
D151*
X0111483Y0077250D03*
D152*
X0111483Y0077350D03*
D153*
X0111483Y0077450D03*
D154*
X0111483Y0077550D03*
X0106883Y0088350D03*
X0116083Y0088350D03*
D155*
X0116083Y0088250D03*
X0106883Y0088250D03*
X0111483Y0077650D03*
D156*
X0111483Y0077750D03*
X0106883Y0088150D03*
X0116083Y0088150D03*
D157*
X0111483Y0077850D03*
D158*
X0111483Y0077950D03*
D159*
X0111483Y0078050D03*
D160*
X0111483Y0078150D03*
D161*
X0111483Y0078250D03*
D162*
X0111483Y0078350D03*
D163*
X0111483Y0078450D03*
D164*
X0111483Y0078550D03*
D165*
X0111483Y0078650D03*
D166*
X0111483Y0078750D03*
D167*
X0111483Y0078850D03*
D168*
X0111483Y0078950D03*
D169*
X0111483Y0079050D03*
D170*
X0111483Y0079150D03*
D171*
X0111483Y0079250D03*
D172*
X0111483Y0079350D03*
D173*
X0111483Y0079450D03*
D174*
X0111483Y0079550D03*
D175*
X0111483Y0079650D03*
D176*
X0111483Y0079750D03*
D177*
X0111483Y0079850D03*
D178*
X0111483Y0079950D03*
D179*
X0111483Y0080050D03*
D180*
X0111483Y0080150D03*
D181*
X0111483Y0080250D03*
D182*
X0111483Y0080350D03*
D183*
X0111533Y0080450D03*
D184*
X0111483Y0080550D03*
D185*
X0111433Y0080650D03*
D186*
X0111433Y0080750D03*
D187*
X0111483Y0080850D03*
D188*
X0111483Y0080950D03*
D189*
X0111483Y0081050D03*
D190*
X0111483Y0081150D03*
D191*
X0111483Y0081250D03*
D192*
X0111483Y0081350D03*
X0111483Y0081450D03*
D193*
X0111483Y0081550D03*
D194*
X0111483Y0081650D03*
D195*
X0111483Y0081750D03*
X0111483Y0081850D03*
D196*
X0111483Y0081950D03*
D197*
X0111483Y0082050D03*
D198*
X0111483Y0082150D03*
X0111483Y0082250D03*
D199*
X0111483Y0082350D03*
X0111483Y0082450D03*
D200*
X0111483Y0082550D03*
X0111483Y0082650D03*
D201*
X0111483Y0082750D03*
D202*
X0111483Y0082850D03*
X0111483Y0082950D03*
X0111483Y0087850D03*
X0111483Y0087950D03*
D203*
X0111483Y0087750D03*
X0111483Y0087650D03*
X0111483Y0083150D03*
X0111483Y0083050D03*
D204*
X0111533Y0083250D03*
D205*
X0111483Y0083350D03*
X0111483Y0083450D03*
X0111483Y0087450D03*
X0111483Y0087550D03*
D206*
X0111483Y0087350D03*
X0111483Y0087250D03*
X0111483Y0087150D03*
X0111483Y0083750D03*
X0111483Y0083650D03*
X0111483Y0083550D03*
D207*
X0111483Y0083850D03*
X0111483Y0083950D03*
X0111483Y0084050D03*
X0111483Y0086750D03*
X0111483Y0086850D03*
X0111483Y0086950D03*
X0111483Y0087050D03*
D208*
X0111433Y0086650D03*
X0111433Y0084150D03*
D209*
X0111483Y0084250D03*
X0111483Y0084350D03*
X0111483Y0084450D03*
X0111483Y0084550D03*
X0111483Y0086150D03*
X0111483Y0086250D03*
X0111483Y0086350D03*
X0111483Y0086450D03*
X0111483Y0086550D03*
D210*
X0111433Y0086050D03*
X0111433Y0085950D03*
X0111433Y0084750D03*
X0111433Y0084650D03*
D211*
X0111483Y0084850D03*
X0111483Y0084950D03*
X0111483Y0085050D03*
X0111483Y0085150D03*
X0111483Y0085250D03*
X0111483Y0085350D03*
X0111483Y0085450D03*
X0111483Y0085550D03*
X0111483Y0085650D03*
X0111483Y0085750D03*
X0111483Y0085850D03*
D212*
X0106933Y0088050D03*
X0116033Y0088050D03*
D213*
X0116133Y0088450D03*
X0106833Y0088450D03*
D214*
X0106833Y0088550D03*
X0116133Y0088550D03*
D215*
X0116133Y0088650D03*
X0106833Y0088650D03*
D216*
X0106733Y0088950D03*
X0116233Y0088950D03*
D217*
X0116233Y0089150D03*
X0106733Y0089150D03*
D218*
X0106733Y0089250D03*
X0116233Y0089250D03*
D219*
X0116233Y0089650D03*
D220*
X0116233Y0089750D03*
X0106733Y0089750D03*
D221*
X0106733Y0089850D03*
X0116233Y0089850D03*
X0066033Y0095250D03*
X0066033Y0095350D03*
D222*
X0106733Y0090050D03*
X0116233Y0090050D03*
D223*
X0116233Y0090150D03*
X0118233Y0097250D03*
X0119133Y0099050D03*
X0106733Y0090150D03*
X0102433Y0092350D03*
X0095833Y0097250D03*
X0096733Y0099050D03*
X0080133Y0099050D03*
X0079833Y0095250D03*
D224*
X0079833Y0094750D03*
X0070433Y0094750D03*
X0065133Y0103050D03*
X0101433Y0092850D03*
X0102433Y0091750D03*
D225*
X0102433Y0091850D03*
X0104633Y0096050D03*
X0107533Y0095650D03*
X0108533Y0094850D03*
X0109733Y0095650D03*
X0107833Y0098850D03*
X0112733Y0098450D03*
X0112733Y0098350D03*
X0118033Y0098750D03*
X0119733Y0097850D03*
X0117733Y0095650D03*
X0101233Y0099550D03*
X0099833Y0098450D03*
X0097333Y0097850D03*
X0095733Y0098850D03*
X0095633Y0098750D03*
X0095333Y0095650D03*
X0096333Y0094850D03*
X0079833Y0094850D03*
X0079133Y0098750D03*
X0071633Y0095650D03*
X0069533Y0095650D03*
X0069733Y0098750D03*
X0069833Y0098850D03*
X0071033Y0099650D03*
D226*
X0071033Y0099550D03*
X0075033Y0095650D03*
X0075033Y0095550D03*
X0091533Y0095550D03*
X0102433Y0091950D03*
X0109033Y0099550D03*
D227*
X0108633Y0095450D03*
X0102533Y0092550D03*
X0095933Y0097350D03*
X0079433Y0097450D03*
X0070933Y0099050D03*
X0118333Y0097350D03*
X0118433Y0097450D03*
D228*
X0117633Y0098350D03*
X0117733Y0098450D03*
X0117833Y0098550D03*
X0119333Y0099650D03*
X0120033Y0098950D03*
X0119833Y0097950D03*
X0119833Y0095650D03*
X0121533Y0095450D03*
X0121533Y0095350D03*
X0121533Y0095250D03*
X0121533Y0095150D03*
X0117533Y0095850D03*
X0117433Y0095950D03*
X0112633Y0097950D03*
X0112633Y0098050D03*
X0112533Y0097750D03*
X0110233Y0098750D03*
X0107633Y0098650D03*
X0107433Y0098350D03*
X0107233Y0096050D03*
X0107333Y0095850D03*
X0107433Y0095750D03*
X0109933Y0095850D03*
X0110033Y0095950D03*
X0104833Y0096350D03*
X0104833Y0096450D03*
X0104733Y0096250D03*
X0103333Y0095050D03*
X0103733Y0092850D03*
X0103633Y0092750D03*
X0103533Y0092650D03*
X0099633Y0097950D03*
X0099633Y0098050D03*
X0097633Y0098950D03*
X0096933Y0099650D03*
X0097433Y0097950D03*
X0095433Y0098550D03*
X0095333Y0098450D03*
X0095233Y0098350D03*
X0095133Y0098150D03*
X0095033Y0095950D03*
X0095133Y0095850D03*
X0097433Y0095650D03*
X0081033Y0098050D03*
X0078733Y0098350D03*
X0078733Y0098450D03*
X0078633Y0098250D03*
X0078433Y0096050D03*
X0078533Y0095950D03*
X0078533Y0095850D03*
X0075633Y0095850D03*
X0072133Y0096150D03*
X0072033Y0095950D03*
X0071933Y0095850D03*
X0071833Y0095750D03*
X0069333Y0095850D03*
X0069333Y0098250D03*
X0069433Y0098450D03*
X0069533Y0098550D03*
X0072133Y0098750D03*
D229*
X0065133Y0102950D03*
X0090533Y0099650D03*
X0097533Y0095750D03*
X0099133Y0094850D03*
X0101433Y0092750D03*
X0103233Y0094850D03*
X0101433Y0099750D03*
X0099733Y0099650D03*
X0105833Y0099650D03*
X0112733Y0099650D03*
X0119933Y0095750D03*
X0115133Y0094850D03*
X0112133Y0094850D03*
D230*
X0112233Y0095150D03*
X0112233Y0095250D03*
X0112233Y0095350D03*
X0112233Y0095450D03*
X0112233Y0095550D03*
X0112233Y0095650D03*
X0112233Y0095750D03*
X0112233Y0095850D03*
X0112233Y0095950D03*
X0112333Y0096150D03*
X0112333Y0096250D03*
X0112333Y0096350D03*
X0112333Y0096450D03*
X0112333Y0096550D03*
X0112333Y0096650D03*
X0112433Y0096750D03*
X0112433Y0096850D03*
X0112433Y0096950D03*
X0112433Y0097050D03*
X0112433Y0097150D03*
X0112433Y0097250D03*
X0112433Y0097350D03*
X0110533Y0097250D03*
X0110533Y0097150D03*
X0110533Y0097050D03*
X0110533Y0096950D03*
X0110433Y0096750D03*
X0110433Y0096650D03*
X0110333Y0096450D03*
X0110533Y0097850D03*
X0110533Y0097950D03*
X0110533Y0098050D03*
X0110333Y0098550D03*
X0112733Y0099450D03*
X0112733Y0099550D03*
X0115533Y0098550D03*
X0115533Y0098450D03*
X0115533Y0098350D03*
X0115533Y0098250D03*
X0115533Y0098150D03*
X0115433Y0097550D03*
X0115433Y0097450D03*
X0115433Y0097350D03*
X0115433Y0097250D03*
X0115433Y0097150D03*
X0115333Y0096950D03*
X0115333Y0096850D03*
X0115333Y0096750D03*
X0115333Y0096650D03*
X0115333Y0096550D03*
X0115333Y0096450D03*
X0115233Y0096350D03*
X0115233Y0096250D03*
X0115233Y0096150D03*
X0115233Y0096050D03*
X0115233Y0095950D03*
X0115233Y0095850D03*
X0115233Y0095750D03*
X0115233Y0095650D03*
X0115233Y0095550D03*
X0115233Y0095450D03*
X0115133Y0095350D03*
X0115133Y0095250D03*
X0115133Y0095150D03*
X0115133Y0095050D03*
X0117333Y0096250D03*
X0117333Y0096350D03*
X0117333Y0097550D03*
X0117333Y0097650D03*
X0120133Y0098250D03*
X0120133Y0098350D03*
X0120133Y0098450D03*
X0120133Y0098750D03*
X0120133Y0098850D03*
X0121533Y0094950D03*
X0107133Y0096350D03*
X0107133Y0097550D03*
X0107133Y0097650D03*
X0107233Y0097950D03*
X0107333Y0098150D03*
X0105633Y0098850D03*
X0105633Y0098950D03*
X0105633Y0099050D03*
X0105533Y0098750D03*
X0105533Y0098650D03*
X0105533Y0098550D03*
X0105433Y0098450D03*
X0105433Y0098350D03*
X0105433Y0098250D03*
X0105433Y0098150D03*
X0105333Y0097950D03*
X0105333Y0097850D03*
X0105233Y0097650D03*
X0105233Y0097550D03*
X0105233Y0097450D03*
X0105233Y0097350D03*
X0105133Y0097250D03*
X0105133Y0097150D03*
X0105033Y0096950D03*
X0104533Y0095050D03*
X0104533Y0094950D03*
X0104533Y0094850D03*
X0104533Y0094750D03*
X0104433Y0094550D03*
X0104333Y0094250D03*
X0104333Y0094150D03*
X0104233Y0093950D03*
X0104233Y0093850D03*
X0104133Y0093750D03*
X0104133Y0093650D03*
X0104033Y0093450D03*
X0104033Y0093350D03*
X0103933Y0093150D03*
X0103833Y0093050D03*
X0103833Y0092950D03*
X0103133Y0095750D03*
X0103133Y0095850D03*
X0103033Y0096050D03*
X0103033Y0096150D03*
X0103033Y0096250D03*
X0103033Y0096350D03*
X0103033Y0096450D03*
X0102933Y0096650D03*
X0102933Y0096750D03*
X0102933Y0096850D03*
X0102933Y0096950D03*
X0102933Y0097050D03*
X0102933Y0097150D03*
X0102833Y0097450D03*
X0102833Y0097550D03*
X0102833Y0097650D03*
X0102833Y0097750D03*
X0102833Y0097850D03*
X0102833Y0097950D03*
X0102733Y0098150D03*
X0102733Y0098250D03*
X0102733Y0098350D03*
X0102733Y0098450D03*
X0102733Y0098550D03*
X0102733Y0098650D03*
X0102633Y0098750D03*
X0102633Y0098850D03*
X0102633Y0098950D03*
X0102633Y0099050D03*
X0102633Y0099150D03*
X0102633Y0099250D03*
X0102633Y0099350D03*
X0102633Y0099450D03*
X0099733Y0099450D03*
X0099733Y0099550D03*
X0099733Y0099350D03*
X0099633Y0099250D03*
X0097733Y0098850D03*
X0097733Y0098750D03*
X0097733Y0098650D03*
X0097733Y0098550D03*
X0097733Y0098450D03*
X0097733Y0098350D03*
X0097733Y0098250D03*
X0099433Y0097250D03*
X0099433Y0097150D03*
X0099433Y0097050D03*
X0099433Y0096950D03*
X0099333Y0096550D03*
X0099333Y0096450D03*
X0099333Y0096350D03*
X0099333Y0096250D03*
X0099333Y0096150D03*
X0099333Y0096050D03*
X0099333Y0095950D03*
X0099233Y0095850D03*
X0099233Y0095750D03*
X0099233Y0095650D03*
X0099233Y0095550D03*
X0099233Y0095450D03*
X0099233Y0095350D03*
X0099233Y0095250D03*
X0099133Y0095150D03*
X0099133Y0095050D03*
X0094933Y0096250D03*
X0094933Y0097550D03*
X0094933Y0097650D03*
X0094933Y0097750D03*
X0093333Y0098050D03*
X0093333Y0098150D03*
X0093333Y0098250D03*
X0093333Y0098350D03*
X0093433Y0098450D03*
X0093433Y0098550D03*
X0093433Y0098650D03*
X0093433Y0098750D03*
X0093233Y0097850D03*
X0093233Y0097750D03*
X0093233Y0097650D03*
X0093133Y0097550D03*
X0093133Y0097450D03*
X0093133Y0097350D03*
X0093033Y0097250D03*
X0093033Y0097150D03*
X0092933Y0097050D03*
X0092933Y0096950D03*
X0092833Y0096850D03*
X0092833Y0096750D03*
X0092833Y0096650D03*
X0092733Y0096550D03*
X0092633Y0096450D03*
X0092533Y0096250D03*
X0091033Y0096050D03*
X0091033Y0095950D03*
X0091033Y0095850D03*
X0090933Y0096150D03*
X0090933Y0096250D03*
X0090933Y0096350D03*
X0090933Y0096450D03*
X0090933Y0096550D03*
X0090933Y0096650D03*
X0090933Y0096750D03*
X0090933Y0096850D03*
X0090933Y0096950D03*
X0090833Y0097150D03*
X0090833Y0097250D03*
X0090833Y0097350D03*
X0090833Y0097450D03*
X0090833Y0097550D03*
X0090733Y0097650D03*
X0090733Y0097750D03*
X0090733Y0097850D03*
X0090733Y0097950D03*
X0090733Y0098050D03*
X0090733Y0098150D03*
X0090733Y0098250D03*
X0090733Y0098350D03*
X0090733Y0098450D03*
X0090633Y0098550D03*
X0090633Y0098650D03*
X0090633Y0098750D03*
X0090633Y0098850D03*
X0090633Y0098950D03*
X0090633Y0099050D03*
X0090533Y0099250D03*
X0090533Y0099350D03*
X0090533Y0099450D03*
X0090533Y0099550D03*
X0085733Y0100250D03*
X0085733Y0100350D03*
X0085733Y0100450D03*
X0085733Y0100550D03*
X0085833Y0100950D03*
X0085833Y0101050D03*
X0085833Y0101150D03*
X0085833Y0101250D03*
X0085833Y0101350D03*
X0085833Y0101450D03*
X0085833Y0101550D03*
X0085833Y0101650D03*
X0085833Y0101750D03*
X0085933Y0102050D03*
X0085933Y0102150D03*
X0085633Y0099750D03*
X0085633Y0099650D03*
X0085533Y0098650D03*
X0085533Y0098550D03*
X0085433Y0098150D03*
X0085433Y0098050D03*
X0085433Y0097950D03*
X0085433Y0097850D03*
X0085333Y0097450D03*
X0085333Y0097350D03*
X0085333Y0097250D03*
X0085333Y0097150D03*
X0085333Y0097050D03*
X0085333Y0096950D03*
X0085333Y0096850D03*
X0085233Y0096450D03*
X0085233Y0096350D03*
X0085233Y0096250D03*
X0085233Y0096150D03*
X0085133Y0095850D03*
X0085133Y0095750D03*
X0081133Y0098250D03*
X0081233Y0098450D03*
X0081233Y0098550D03*
X0081233Y0098650D03*
X0081233Y0098750D03*
X0078333Y0096750D03*
X0078333Y0096650D03*
X0078333Y0096550D03*
X0078333Y0096450D03*
X0076433Y0096950D03*
X0076433Y0097050D03*
X0076333Y0096850D03*
X0076233Y0096750D03*
X0076233Y0096650D03*
X0076133Y0096450D03*
X0076033Y0096350D03*
X0076533Y0097250D03*
X0076533Y0097350D03*
X0076633Y0097450D03*
X0076633Y0097550D03*
X0076733Y0097750D03*
X0076733Y0097850D03*
X0076733Y0097950D03*
X0076733Y0098050D03*
X0076833Y0098150D03*
X0076833Y0098250D03*
X0076833Y0098350D03*
X0076833Y0098450D03*
X0076933Y0098550D03*
X0076933Y0098650D03*
X0076933Y0098750D03*
X0076933Y0098850D03*
X0076933Y0098950D03*
X0076933Y0099050D03*
X0076933Y0099150D03*
X0076933Y0099250D03*
X0076933Y0099350D03*
X0074133Y0098850D03*
X0074133Y0098750D03*
X0074133Y0098650D03*
X0074133Y0098550D03*
X0074133Y0098450D03*
X0074133Y0098350D03*
X0074133Y0098250D03*
X0074133Y0098150D03*
X0074233Y0097950D03*
X0074233Y0097850D03*
X0074233Y0097750D03*
X0074233Y0097650D03*
X0074233Y0097550D03*
X0074333Y0097350D03*
X0074333Y0097250D03*
X0074333Y0097150D03*
X0074333Y0097050D03*
X0074333Y0096950D03*
X0074333Y0096850D03*
X0074433Y0096550D03*
X0074433Y0096450D03*
X0074433Y0096350D03*
X0074433Y0096250D03*
X0074433Y0096150D03*
X0074433Y0096050D03*
X0074533Y0095850D03*
X0072433Y0096750D03*
X0072433Y0096850D03*
X0072533Y0097050D03*
X0072533Y0097150D03*
X0072533Y0097250D03*
X0072533Y0097350D03*
X0072533Y0097450D03*
X0072533Y0097550D03*
X0072533Y0097650D03*
X0072533Y0097750D03*
X0072533Y0097850D03*
X0072333Y0096550D03*
X0074033Y0099050D03*
X0074033Y0099150D03*
X0074033Y0099250D03*
X0074033Y0099350D03*
X0069233Y0098050D03*
X0069133Y0097750D03*
X0069033Y0097350D03*
X0069033Y0097250D03*
X0069033Y0097150D03*
X0069033Y0097050D03*
X0069033Y0096950D03*
X0069033Y0096850D03*
X0069033Y0096750D03*
X0069033Y0096650D03*
X0069033Y0096550D03*
X0069233Y0095950D03*
X0064533Y0097350D03*
X0064533Y0097450D03*
X0064533Y0097550D03*
X0064533Y0097650D03*
X0064533Y0097750D03*
X0064633Y0098350D03*
X0064633Y0098450D03*
X0064633Y0098550D03*
X0064633Y0098650D03*
X0064633Y0098750D03*
X0064733Y0099050D03*
X0064733Y0099150D03*
X0064733Y0099250D03*
X0064733Y0099350D03*
X0064733Y0099450D03*
X0064833Y0099750D03*
X0064833Y0099850D03*
X0064833Y0099950D03*
X0064833Y0100050D03*
X0064833Y0100150D03*
X0064833Y0100250D03*
X0064833Y0100350D03*
X0064833Y0100450D03*
X0064933Y0100750D03*
X0064933Y0100850D03*
X0064933Y0100950D03*
X0064933Y0101050D03*
X0064933Y0101150D03*
X0065033Y0101450D03*
X0065033Y0101550D03*
X0065033Y0101650D03*
X0065033Y0101750D03*
X0065033Y0101850D03*
X0065033Y0101950D03*
X0065033Y0102050D03*
X0065033Y0102150D03*
X0065133Y0102450D03*
X0065133Y0102550D03*
X0065133Y0102650D03*
X0065133Y0102750D03*
X0065133Y0102850D03*
X0064433Y0097050D03*
X0064433Y0096950D03*
X0064433Y0096850D03*
X0064433Y0096750D03*
X0064433Y0096650D03*
X0064333Y0096350D03*
X0064333Y0096250D03*
X0064333Y0096150D03*
X0064333Y0096050D03*
X0064333Y0095950D03*
X0064333Y0095850D03*
X0064333Y0095750D03*
X0105733Y0099350D03*
X0105733Y0099450D03*
D231*
X0103183Y0094750D03*
X0112083Y0094750D03*
X0121483Y0094750D03*
X0074583Y0094750D03*
D232*
X0081033Y0095950D03*
X0091133Y0094750D03*
X0097633Y0095950D03*
X0099133Y0094750D03*
X0115033Y0094750D03*
X0120033Y0095950D03*
D233*
X0086833Y0094950D03*
X0066033Y0094950D03*
D234*
X0079033Y0095550D03*
X0080433Y0097650D03*
X0079433Y0098950D03*
X0080333Y0099550D03*
X0091533Y0095450D03*
X0096933Y0099550D03*
X0108533Y0094950D03*
X0119333Y0099550D03*
D235*
X0087633Y0102350D03*
X0087633Y0102450D03*
X0087633Y0102550D03*
X0086833Y0095650D03*
X0066033Y0095050D03*
D236*
X0070533Y0095050D03*
X0079833Y0095050D03*
X0096333Y0095050D03*
X0096833Y0099350D03*
X0114533Y0099350D03*
X0119233Y0099350D03*
X0118733Y0095050D03*
D237*
X0119233Y0099250D03*
X0109033Y0099350D03*
X0103933Y0095650D03*
X0103933Y0095550D03*
X0100433Y0099050D03*
X0079833Y0095150D03*
X0070533Y0095150D03*
D238*
X0074933Y0095250D03*
X0080633Y0097750D03*
X0091433Y0095250D03*
X0097133Y0097750D03*
X0099933Y0098650D03*
X0104433Y0095750D03*
X0119533Y0097750D03*
D239*
X0118733Y0095550D03*
X0108933Y0098950D03*
X0096333Y0095550D03*
X0070933Y0098950D03*
X0070633Y0095550D03*
D240*
X0078933Y0096950D03*
X0080333Y0099450D03*
X0091633Y0095750D03*
X0109033Y0099450D03*
D241*
X0102583Y0099650D03*
X0097583Y0095850D03*
X0093483Y0099650D03*
X0081083Y0095850D03*
X0076983Y0099650D03*
X0073983Y0099650D03*
X0119983Y0095850D03*
X0121583Y0095850D03*
D242*
X0118133Y0097150D03*
X0095733Y0097150D03*
X0079233Y0097150D03*
D243*
X0086883Y0098750D03*
X0113983Y0099150D03*
D244*
X0087683Y0102950D03*
X0086983Y0099450D03*
X0086983Y0099350D03*
X0086983Y0099050D03*
X0086983Y0098950D03*
X0086983Y0098850D03*
D245*
X0087033Y0099150D03*
X0087033Y0099250D03*
D246*
X0102633Y0071550D02*
X0102635Y0071578D01*
X0102641Y0071605D01*
X0102650Y0071631D01*
X0102663Y0071656D01*
X0102680Y0071679D01*
X0102699Y0071699D01*
X0102721Y0071716D01*
X0102745Y0071730D01*
X0102771Y0071740D01*
X0102798Y0071747D01*
X0102826Y0071750D01*
X0102854Y0071749D01*
X0102881Y0071744D01*
X0102908Y0071735D01*
X0102933Y0071723D01*
X0102956Y0071708D01*
X0102977Y0071689D01*
X0102995Y0071668D01*
X0103010Y0071644D01*
X0103021Y0071618D01*
X0103029Y0071592D01*
X0103033Y0071564D01*
X0103033Y0071536D01*
X0103029Y0071508D01*
X0103021Y0071482D01*
X0103010Y0071456D01*
X0102995Y0071432D01*
X0102977Y0071411D01*
X0102956Y0071392D01*
X0102933Y0071377D01*
X0102908Y0071365D01*
X0102881Y0071356D01*
X0102854Y0071351D01*
X0102826Y0071350D01*
X0102798Y0071353D01*
X0102771Y0071360D01*
X0102745Y0071370D01*
X0102721Y0071384D01*
X0102699Y0071401D01*
X0102680Y0071421D01*
X0102663Y0071444D01*
X0102650Y0071469D01*
X0102641Y0071495D01*
X0102635Y0071522D01*
X0102633Y0071550D01*
X0102233Y0071550D02*
X0102235Y0071599D01*
X0102241Y0071647D01*
X0102251Y0071695D01*
X0102265Y0071742D01*
X0102282Y0071788D01*
X0102303Y0071832D01*
X0102328Y0071874D01*
X0102356Y0071914D01*
X0102388Y0071952D01*
X0102422Y0071987D01*
X0102459Y0072019D01*
X0102498Y0072048D01*
X0102540Y0072074D01*
X0102584Y0072096D01*
X0102629Y0072114D01*
X0102676Y0072129D01*
X0102723Y0072140D01*
X0102772Y0072147D01*
X0102821Y0072150D01*
X0102870Y0072149D01*
X0102918Y0072144D01*
X0102967Y0072135D01*
X0103014Y0072122D01*
X0103060Y0072105D01*
X0103104Y0072085D01*
X0103147Y0072061D01*
X0103188Y0072034D01*
X0103226Y0072003D01*
X0103262Y0071970D01*
X0103294Y0071934D01*
X0103324Y0071895D01*
X0103351Y0071854D01*
X0103374Y0071810D01*
X0103393Y0071765D01*
X0103409Y0071719D01*
X0103421Y0071672D01*
X0103429Y0071623D01*
X0103433Y0071574D01*
X0103433Y0071526D01*
X0103429Y0071477D01*
X0103421Y0071428D01*
X0103409Y0071381D01*
X0103393Y0071335D01*
X0103374Y0071290D01*
X0103351Y0071246D01*
X0103324Y0071205D01*
X0103294Y0071166D01*
X0103262Y0071130D01*
X0103226Y0071097D01*
X0103188Y0071066D01*
X0103147Y0071039D01*
X0103104Y0071015D01*
X0103060Y0070995D01*
X0103014Y0070978D01*
X0102967Y0070965D01*
X0102918Y0070956D01*
X0102870Y0070951D01*
X0102821Y0070950D01*
X0102772Y0070953D01*
X0102723Y0070960D01*
X0102676Y0070971D01*
X0102629Y0070986D01*
X0102584Y0071004D01*
X0102540Y0071026D01*
X0102498Y0071052D01*
X0102459Y0071081D01*
X0102422Y0071113D01*
X0102388Y0071148D01*
X0102356Y0071186D01*
X0102328Y0071226D01*
X0102303Y0071268D01*
X0102282Y0071312D01*
X0102265Y0071358D01*
X0102251Y0071405D01*
X0102241Y0071453D01*
X0102235Y0071501D01*
X0102233Y0071550D01*
X0101833Y0071550D02*
X0101835Y0071613D01*
X0101841Y0071675D01*
X0101851Y0071737D01*
X0101864Y0071799D01*
X0101882Y0071859D01*
X0101903Y0071918D01*
X0101928Y0071976D01*
X0101957Y0072032D01*
X0101989Y0072086D01*
X0102024Y0072138D01*
X0102062Y0072187D01*
X0102104Y0072235D01*
X0102148Y0072279D01*
X0102196Y0072321D01*
X0102245Y0072359D01*
X0102297Y0072394D01*
X0102351Y0072426D01*
X0102407Y0072455D01*
X0102465Y0072480D01*
X0102524Y0072501D01*
X0102584Y0072519D01*
X0102646Y0072532D01*
X0102708Y0072542D01*
X0102770Y0072548D01*
X0102833Y0072550D01*
X0102896Y0072548D01*
X0102958Y0072542D01*
X0103020Y0072532D01*
X0103082Y0072519D01*
X0103142Y0072501D01*
X0103201Y0072480D01*
X0103259Y0072455D01*
X0103315Y0072426D01*
X0103369Y0072394D01*
X0103421Y0072359D01*
X0103470Y0072321D01*
X0103518Y0072279D01*
X0103562Y0072235D01*
X0103604Y0072187D01*
X0103642Y0072138D01*
X0103677Y0072086D01*
X0103709Y0072032D01*
X0103738Y0071976D01*
X0103763Y0071918D01*
X0103784Y0071859D01*
X0103802Y0071799D01*
X0103815Y0071737D01*
X0103825Y0071675D01*
X0103831Y0071613D01*
X0103833Y0071550D01*
X0103831Y0071487D01*
X0103825Y0071425D01*
X0103815Y0071363D01*
X0103802Y0071301D01*
X0103784Y0071241D01*
X0103763Y0071182D01*
X0103738Y0071124D01*
X0103709Y0071068D01*
X0103677Y0071014D01*
X0103642Y0070962D01*
X0103604Y0070913D01*
X0103562Y0070865D01*
X0103518Y0070821D01*
X0103470Y0070779D01*
X0103421Y0070741D01*
X0103369Y0070706D01*
X0103315Y0070674D01*
X0103259Y0070645D01*
X0103201Y0070620D01*
X0103142Y0070599D01*
X0103082Y0070581D01*
X0103020Y0070568D01*
X0102958Y0070558D01*
X0102896Y0070552D01*
X0102833Y0070550D01*
X0102770Y0070552D01*
X0102708Y0070558D01*
X0102646Y0070568D01*
X0102584Y0070581D01*
X0102524Y0070599D01*
X0102465Y0070620D01*
X0102407Y0070645D01*
X0102351Y0070674D01*
X0102297Y0070706D01*
X0102245Y0070741D01*
X0102196Y0070779D01*
X0102148Y0070821D01*
X0102104Y0070865D01*
X0102062Y0070913D01*
X0102024Y0070962D01*
X0101989Y0071014D01*
X0101957Y0071068D01*
X0101928Y0071124D01*
X0101903Y0071182D01*
X0101882Y0071241D01*
X0101864Y0071301D01*
X0101851Y0071363D01*
X0101841Y0071425D01*
X0101835Y0071487D01*
X0101833Y0071550D01*
X0092133Y0060750D02*
X0092135Y0060778D01*
X0092141Y0060805D01*
X0092150Y0060831D01*
X0092163Y0060856D01*
X0092180Y0060879D01*
X0092199Y0060899D01*
X0092221Y0060916D01*
X0092245Y0060930D01*
X0092271Y0060940D01*
X0092298Y0060947D01*
X0092326Y0060950D01*
X0092354Y0060949D01*
X0092381Y0060944D01*
X0092408Y0060935D01*
X0092433Y0060923D01*
X0092456Y0060908D01*
X0092477Y0060889D01*
X0092495Y0060868D01*
X0092510Y0060844D01*
X0092521Y0060818D01*
X0092529Y0060792D01*
X0092533Y0060764D01*
X0092533Y0060736D01*
X0092529Y0060708D01*
X0092521Y0060682D01*
X0092510Y0060656D01*
X0092495Y0060632D01*
X0092477Y0060611D01*
X0092456Y0060592D01*
X0092433Y0060577D01*
X0092408Y0060565D01*
X0092381Y0060556D01*
X0092354Y0060551D01*
X0092326Y0060550D01*
X0092298Y0060553D01*
X0092271Y0060560D01*
X0092245Y0060570D01*
X0092221Y0060584D01*
X0092199Y0060601D01*
X0092180Y0060621D01*
X0092163Y0060644D01*
X0092150Y0060669D01*
X0092141Y0060695D01*
X0092135Y0060722D01*
X0092133Y0060750D01*
X0091733Y0060750D02*
X0091735Y0060799D01*
X0091741Y0060847D01*
X0091751Y0060895D01*
X0091765Y0060942D01*
X0091782Y0060988D01*
X0091803Y0061032D01*
X0091828Y0061074D01*
X0091856Y0061114D01*
X0091888Y0061152D01*
X0091922Y0061187D01*
X0091959Y0061219D01*
X0091998Y0061248D01*
X0092040Y0061274D01*
X0092084Y0061296D01*
X0092129Y0061314D01*
X0092176Y0061329D01*
X0092223Y0061340D01*
X0092272Y0061347D01*
X0092321Y0061350D01*
X0092370Y0061349D01*
X0092418Y0061344D01*
X0092467Y0061335D01*
X0092514Y0061322D01*
X0092560Y0061305D01*
X0092604Y0061285D01*
X0092647Y0061261D01*
X0092688Y0061234D01*
X0092726Y0061203D01*
X0092762Y0061170D01*
X0092794Y0061134D01*
X0092824Y0061095D01*
X0092851Y0061054D01*
X0092874Y0061010D01*
X0092893Y0060965D01*
X0092909Y0060919D01*
X0092921Y0060872D01*
X0092929Y0060823D01*
X0092933Y0060774D01*
X0092933Y0060726D01*
X0092929Y0060677D01*
X0092921Y0060628D01*
X0092909Y0060581D01*
X0092893Y0060535D01*
X0092874Y0060490D01*
X0092851Y0060446D01*
X0092824Y0060405D01*
X0092794Y0060366D01*
X0092762Y0060330D01*
X0092726Y0060297D01*
X0092688Y0060266D01*
X0092647Y0060239D01*
X0092604Y0060215D01*
X0092560Y0060195D01*
X0092514Y0060178D01*
X0092467Y0060165D01*
X0092418Y0060156D01*
X0092370Y0060151D01*
X0092321Y0060150D01*
X0092272Y0060153D01*
X0092223Y0060160D01*
X0092176Y0060171D01*
X0092129Y0060186D01*
X0092084Y0060204D01*
X0092040Y0060226D01*
X0091998Y0060252D01*
X0091959Y0060281D01*
X0091922Y0060313D01*
X0091888Y0060348D01*
X0091856Y0060386D01*
X0091828Y0060426D01*
X0091803Y0060468D01*
X0091782Y0060512D01*
X0091765Y0060558D01*
X0091751Y0060605D01*
X0091741Y0060653D01*
X0091735Y0060701D01*
X0091733Y0060750D01*
X0091333Y0060750D02*
X0091335Y0060813D01*
X0091341Y0060875D01*
X0091351Y0060937D01*
X0091364Y0060999D01*
X0091382Y0061059D01*
X0091403Y0061118D01*
X0091428Y0061176D01*
X0091457Y0061232D01*
X0091489Y0061286D01*
X0091524Y0061338D01*
X0091562Y0061387D01*
X0091604Y0061435D01*
X0091648Y0061479D01*
X0091696Y0061521D01*
X0091745Y0061559D01*
X0091797Y0061594D01*
X0091851Y0061626D01*
X0091907Y0061655D01*
X0091965Y0061680D01*
X0092024Y0061701D01*
X0092084Y0061719D01*
X0092146Y0061732D01*
X0092208Y0061742D01*
X0092270Y0061748D01*
X0092333Y0061750D01*
X0092396Y0061748D01*
X0092458Y0061742D01*
X0092520Y0061732D01*
X0092582Y0061719D01*
X0092642Y0061701D01*
X0092701Y0061680D01*
X0092759Y0061655D01*
X0092815Y0061626D01*
X0092869Y0061594D01*
X0092921Y0061559D01*
X0092970Y0061521D01*
X0093018Y0061479D01*
X0093062Y0061435D01*
X0093104Y0061387D01*
X0093142Y0061338D01*
X0093177Y0061286D01*
X0093209Y0061232D01*
X0093238Y0061176D01*
X0093263Y0061118D01*
X0093284Y0061059D01*
X0093302Y0060999D01*
X0093315Y0060937D01*
X0093325Y0060875D01*
X0093331Y0060813D01*
X0093333Y0060750D01*
X0093331Y0060687D01*
X0093325Y0060625D01*
X0093315Y0060563D01*
X0093302Y0060501D01*
X0093284Y0060441D01*
X0093263Y0060382D01*
X0093238Y0060324D01*
X0093209Y0060268D01*
X0093177Y0060214D01*
X0093142Y0060162D01*
X0093104Y0060113D01*
X0093062Y0060065D01*
X0093018Y0060021D01*
X0092970Y0059979D01*
X0092921Y0059941D01*
X0092869Y0059906D01*
X0092815Y0059874D01*
X0092759Y0059845D01*
X0092701Y0059820D01*
X0092642Y0059799D01*
X0092582Y0059781D01*
X0092520Y0059768D01*
X0092458Y0059758D01*
X0092396Y0059752D01*
X0092333Y0059750D01*
X0092270Y0059752D01*
X0092208Y0059758D01*
X0092146Y0059768D01*
X0092084Y0059781D01*
X0092024Y0059799D01*
X0091965Y0059820D01*
X0091907Y0059845D01*
X0091851Y0059874D01*
X0091797Y0059906D01*
X0091745Y0059941D01*
X0091696Y0059979D01*
X0091648Y0060021D01*
X0091604Y0060065D01*
X0091562Y0060113D01*
X0091524Y0060162D01*
X0091489Y0060214D01*
X0091457Y0060268D01*
X0091428Y0060324D01*
X0091403Y0060382D01*
X0091382Y0060441D01*
X0091364Y0060501D01*
X0091351Y0060563D01*
X0091341Y0060625D01*
X0091335Y0060687D01*
X0091333Y0060750D01*
X0090501Y0045993D02*
X0074494Y0029985D01*
X0032569Y0071911D01*
X0048576Y0087918D01*
X0090501Y0045993D01*
X0086604Y0045993D02*
X0082623Y0042012D01*
X0044595Y0080040D01*
X0048576Y0084021D01*
X0086604Y0045993D01*
X0082623Y0042012D02*
X0074494Y0033883D01*
X0036466Y0071911D01*
X0044595Y0080040D01*
X0053808Y0085732D02*
X0057706Y0089629D01*
D247*
X0068369Y0076392D02*
X0077208Y0067553D01*
X0090996Y0081342D01*
X0092057Y0080281D01*
X0078268Y0066493D01*
X0077915Y0066846D01*
X0092057Y0080988D01*
X0092764Y0080281D01*
X0078622Y0066139D01*
X0078268Y0066493D01*
X0077915Y0066846D02*
X0077561Y0067200D01*
X0091350Y0080988D01*
X0090996Y0081342D01*
X0091350Y0081695D01*
X0092057Y0080988D01*
X0092764Y0080281D02*
X0093118Y0079928D01*
X0078975Y0065785D01*
X0078622Y0066139D01*
X0077561Y0067200D02*
X0077208Y0067553D01*
X0068369Y0076392D02*
X0082511Y0090534D01*
X0091350Y0081695D01*
D248*
X0113833Y0068250D03*
D249*
X0093933Y0043450D03*
M02*
