G75*
%MOIN*%
%OFA0B0*%
%FSLAX25Y25*%
%IPPOS*%
%LPD*%
%AMOC8*
5,1,8,0,0,1.08239X$1,22.5*
%
%ADD10C,0.20485*%
%ADD11R,0.05150X0.05150*%
%ADD12C,0.05150*%
%ADD13C,0.01066*%
%ADD14C,0.16922*%
D10*
X0077943Y0075360D03*
D11*
G36*
X0045931Y0067991D02*
X0042290Y0071632D01*
X0045931Y0075273D01*
X0049572Y0071632D01*
X0045931Y0067991D01*
G37*
D12*
X0053002Y0064561D03*
X0060073Y0057490D03*
X0067145Y0050419D03*
X0074216Y0043348D03*
D13*
X0061785Y0089705D02*
X0057938Y0093552D01*
X0061785Y0089705D02*
X0058772Y0086692D01*
X0054925Y0090539D01*
X0057938Y0093552D01*
X0057707Y0087757D02*
X0059837Y0087757D01*
X0060902Y0088822D02*
X0056642Y0088822D01*
X0055577Y0089887D02*
X0061603Y0089887D01*
X0060538Y0090952D02*
X0055338Y0090952D01*
X0056403Y0092017D02*
X0059473Y0092017D01*
X0058408Y0093082D02*
X0057468Y0093082D01*
X0062949Y0098563D02*
X0066796Y0094716D01*
X0063783Y0091703D01*
X0059936Y0095550D01*
X0062949Y0098563D01*
X0062718Y0092768D02*
X0064848Y0092768D01*
X0065913Y0093833D02*
X0061653Y0093833D01*
X0060588Y0094898D02*
X0066614Y0094898D01*
X0065549Y0095963D02*
X0060349Y0095963D01*
X0061414Y0097028D02*
X0064484Y0097028D01*
X0063419Y0098093D02*
X0062479Y0098093D01*
D14*
X0043144Y0040561D03*
X0112743Y0040561D03*
X0112743Y0110159D03*
X0043144Y0110159D03*
M02*
