G75*
%MOIN*%
%OFA0B0*%
%FSLAX25Y25*%
%IPPOS*%
%LPD*%
%AMOC8*
5,1,8,0,0,1.08239X$1,22.5*
%
%ADD10R,0.04350X0.04350*%
%ADD11C,0.04350*%
%ADD12R,0.04500X0.03000*%
%ADD13C,0.00906*%
%ADD14C,0.00472*%
%ADD15C,0.01200*%
%ADD16C,0.03562*%
%ADD17C,0.02400*%
%ADD18C,0.03200*%
%ADD19C,0.03169*%
%ADD20C,0.16122*%
D10*
G36*
X0045931Y0068557D02*
X0042856Y0071632D01*
X0045931Y0074707D01*
X0049006Y0071632D01*
X0045931Y0068557D01*
G37*
D11*
X0053002Y0064561D03*
X0060073Y0057490D03*
X0067145Y0050419D03*
X0074216Y0043348D03*
D12*
G36*
X0082158Y0068260D02*
X0085339Y0065079D01*
X0083218Y0062958D01*
X0080037Y0066139D01*
X0082158Y0068260D01*
G37*
G36*
X0085693Y0071795D02*
X0088874Y0068614D01*
X0086753Y0066493D01*
X0083572Y0069674D01*
X0085693Y0071795D01*
G37*
G36*
X0089229Y0075331D02*
X0092410Y0072150D01*
X0090289Y0070029D01*
X0087108Y0073210D01*
X0089229Y0075331D01*
G37*
G36*
X0092764Y0078866D02*
X0095945Y0075685D01*
X0093824Y0073564D01*
X0090643Y0076745D01*
X0092764Y0078866D01*
G37*
G36*
X0078269Y0093362D02*
X0081450Y0090181D01*
X0079329Y0088060D01*
X0076148Y0091241D01*
X0078269Y0093362D01*
G37*
G36*
X0074733Y0089826D02*
X0077914Y0086645D01*
X0075793Y0084524D01*
X0072612Y0087705D01*
X0074733Y0089826D01*
G37*
G36*
X0071198Y0086291D02*
X0074379Y0083110D01*
X0072258Y0080989D01*
X0069077Y0084170D01*
X0071198Y0086291D01*
G37*
G36*
X0067662Y0082755D02*
X0070843Y0079574D01*
X0068722Y0077453D01*
X0065541Y0080634D01*
X0067662Y0082755D01*
G37*
D13*
X0061240Y0085592D02*
X0057845Y0082197D01*
X0055284Y0084758D01*
X0058679Y0088153D01*
X0061240Y0085592D01*
X0058750Y0083102D02*
X0056940Y0083102D01*
X0056035Y0084007D02*
X0059655Y0084007D01*
X0060560Y0084912D02*
X0055438Y0084912D01*
X0056343Y0085817D02*
X0061015Y0085817D01*
X0060110Y0086722D02*
X0057248Y0086722D01*
X0058153Y0087627D02*
X0059205Y0087627D01*
X0056229Y0090603D02*
X0052834Y0087208D01*
X0050273Y0089769D01*
X0053668Y0093164D01*
X0056229Y0090603D01*
X0053739Y0088113D02*
X0051929Y0088113D01*
X0051024Y0089018D02*
X0054644Y0089018D01*
X0055549Y0089923D02*
X0050427Y0089923D01*
X0051332Y0090828D02*
X0056004Y0090828D01*
X0055099Y0091733D02*
X0052237Y0091733D01*
X0053142Y0092638D02*
X0054194Y0092638D01*
D14*
X0090994Y0064608D02*
X0090994Y0062718D01*
X0090994Y0064608D02*
X0093672Y0064608D01*
X0093672Y0062718D01*
X0090994Y0062718D01*
X0090994Y0063189D02*
X0093672Y0063189D01*
X0093672Y0063660D02*
X0090994Y0063660D01*
X0090994Y0064131D02*
X0093672Y0064131D01*
X0093672Y0064602D02*
X0090994Y0064602D01*
X0090994Y0058782D02*
X0090994Y0056892D01*
X0090994Y0058782D02*
X0093672Y0058782D01*
X0093672Y0056892D01*
X0090994Y0056892D01*
X0090994Y0057363D02*
X0093672Y0057363D01*
X0093672Y0057834D02*
X0090994Y0057834D01*
X0090994Y0058305D02*
X0093672Y0058305D01*
X0093672Y0058776D02*
X0090994Y0058776D01*
X0101494Y0067692D02*
X0101494Y0069582D01*
X0104172Y0069582D01*
X0104172Y0067692D01*
X0101494Y0067692D01*
X0101494Y0068163D02*
X0104172Y0068163D01*
X0104172Y0068634D02*
X0101494Y0068634D01*
X0101494Y0069105D02*
X0104172Y0069105D01*
X0104172Y0069576D02*
X0101494Y0069576D01*
X0101494Y0073518D02*
X0101494Y0075408D01*
X0104172Y0075408D01*
X0104172Y0073518D01*
X0101494Y0073518D01*
X0101494Y0073989D02*
X0104172Y0073989D01*
X0104172Y0074460D02*
X0101494Y0074460D01*
X0101494Y0074931D02*
X0104172Y0074931D01*
X0104172Y0075402D02*
X0101494Y0075402D01*
X0109975Y0066911D02*
X0111865Y0066911D01*
X0109975Y0066911D02*
X0109975Y0069589D01*
X0111865Y0069589D01*
X0111865Y0066911D01*
X0111865Y0067382D02*
X0109975Y0067382D01*
X0109975Y0067853D02*
X0111865Y0067853D01*
X0111865Y0068324D02*
X0109975Y0068324D01*
X0109975Y0068795D02*
X0111865Y0068795D01*
X0111865Y0069266D02*
X0109975Y0069266D01*
X0115802Y0066911D02*
X0117692Y0066911D01*
X0115802Y0066911D02*
X0115802Y0069589D01*
X0117692Y0069589D01*
X0117692Y0066911D01*
X0117692Y0067382D02*
X0115802Y0067382D01*
X0115802Y0067853D02*
X0117692Y0067853D01*
X0117692Y0068324D02*
X0115802Y0068324D01*
X0115802Y0068795D02*
X0117692Y0068795D01*
X0117692Y0069266D02*
X0115802Y0069266D01*
X0092594Y0047308D02*
X0092594Y0045418D01*
X0092594Y0047308D02*
X0095272Y0047308D01*
X0095272Y0045418D01*
X0092594Y0045418D01*
X0092594Y0045889D02*
X0095272Y0045889D01*
X0095272Y0046360D02*
X0092594Y0046360D01*
X0092594Y0046831D02*
X0095272Y0046831D01*
X0095272Y0047302D02*
X0092594Y0047302D01*
X0092594Y0041482D02*
X0092594Y0039592D01*
X0092594Y0041482D02*
X0095272Y0041482D01*
X0095272Y0039592D01*
X0092594Y0039592D01*
X0092594Y0040063D02*
X0095272Y0040063D01*
X0095272Y0040534D02*
X0092594Y0040534D01*
X0092594Y0041005D02*
X0095272Y0041005D01*
X0095272Y0041476D02*
X0092594Y0041476D01*
D15*
X0091229Y0041934D02*
X0077283Y0041934D01*
X0077206Y0041749D02*
X0077461Y0042364D01*
X0077590Y0043016D01*
X0077590Y0043680D01*
X0077461Y0044332D01*
X0077206Y0044947D01*
X0076837Y0045499D01*
X0076734Y0045602D01*
X0074481Y0043348D01*
X0074216Y0043613D01*
X0076469Y0045867D01*
X0076367Y0045969D01*
X0075814Y0046339D01*
X0075200Y0046593D01*
X0074548Y0046723D01*
X0073883Y0046723D01*
X0073231Y0046593D01*
X0072617Y0046339D01*
X0072064Y0045969D01*
X0071962Y0045867D01*
X0074216Y0043613D01*
X0073951Y0043348D01*
X0074216Y0043083D01*
X0074481Y0043348D01*
X0076734Y0041094D01*
X0076837Y0041197D01*
X0077206Y0041749D01*
X0076469Y0040829D02*
X0074216Y0043083D01*
X0071962Y0040829D01*
X0072064Y0040727D01*
X0072617Y0040357D01*
X0073231Y0040103D01*
X0073883Y0039973D01*
X0074548Y0039973D01*
X0075200Y0040103D01*
X0075814Y0040357D01*
X0076367Y0040727D01*
X0076469Y0040829D01*
X0076375Y0040735D02*
X0091159Y0040735D01*
X0091159Y0040537D02*
X0093933Y0040537D01*
X0093933Y0040537D01*
X0091159Y0040537D01*
X0091159Y0041671D01*
X0091256Y0042036D01*
X0091445Y0042363D01*
X0091466Y0042383D01*
X0090762Y0042675D01*
X0089851Y0043585D01*
X0089359Y0044775D01*
X0089359Y0047952D01*
X0089443Y0048155D01*
X0088846Y0052431D01*
X0071312Y0047268D01*
X0070076Y0046032D01*
X0068174Y0045244D01*
X0066115Y0045244D01*
X0064213Y0046032D01*
X0062758Y0047488D01*
X0061970Y0049390D01*
X0061970Y0051448D01*
X0062583Y0052928D01*
X0061103Y0052315D01*
X0059044Y0052315D01*
X0057142Y0053103D01*
X0055687Y0054559D01*
X0054899Y0056461D01*
X0054899Y0058519D01*
X0055450Y0059850D01*
X0055179Y0059861D01*
X0054032Y0059386D01*
X0051973Y0059386D01*
X0050071Y0060174D01*
X0048615Y0061630D01*
X0047828Y0063532D01*
X0047828Y0065591D01*
X0048266Y0066649D01*
X0047631Y0066013D01*
X0046528Y0065557D01*
X0045335Y0065557D01*
X0044232Y0066013D01*
X0040312Y0069933D01*
X0039856Y0071036D01*
X0039856Y0072229D01*
X0040312Y0073332D01*
X0044232Y0077251D01*
X0045335Y0077708D01*
X0046528Y0077708D01*
X0047631Y0077251D01*
X0051550Y0073332D01*
X0052007Y0072229D01*
X0052007Y0071036D01*
X0051550Y0069933D01*
X0050915Y0069298D01*
X0051973Y0069736D01*
X0054032Y0069736D01*
X0055693Y0069048D01*
X0067045Y0068550D01*
X0065976Y0070403D01*
X0065101Y0073669D01*
X0065101Y0076832D01*
X0062997Y0078935D01*
X0062540Y0080038D01*
X0062540Y0081231D01*
X0062919Y0082146D01*
X0062501Y0081970D01*
X0059801Y0079269D01*
X0058532Y0078744D01*
X0057158Y0078744D01*
X0055889Y0079269D01*
X0052357Y0082802D01*
X0051831Y0084071D01*
X0051831Y0085444D01*
X0051976Y0085794D01*
X0051819Y0085885D01*
X0050761Y0086943D01*
X0053251Y0089434D01*
X0052499Y0090186D01*
X0050008Y0087695D01*
X0048950Y0088754D01*
X0048733Y0089131D01*
X0048620Y0089551D01*
X0048620Y0089986D01*
X0048733Y0090407D01*
X0048950Y0090783D01*
X0050426Y0092259D01*
X0052499Y0090186D01*
X0053251Y0090938D01*
X0051178Y0093012D01*
X0052654Y0094487D01*
X0053031Y0094705D01*
X0053451Y0094818D01*
X0053887Y0094818D01*
X0054307Y0094705D01*
X0054684Y0094487D01*
X0055742Y0093429D01*
X0053251Y0090938D01*
X0054004Y0090186D01*
X0056494Y0092677D01*
X0057553Y0091619D01*
X0057643Y0091462D01*
X0057993Y0091607D01*
X0059367Y0091607D01*
X0060533Y0091124D01*
X0062160Y0091810D01*
X0062198Y0091847D01*
X0063001Y0092164D01*
X0063796Y0092499D01*
X0063850Y0092500D01*
X0064790Y0092871D01*
X0065555Y0093205D01*
X0065638Y0093206D01*
X0065716Y0093237D01*
X0066550Y0093223D01*
X0067384Y0093239D01*
X0067462Y0093208D01*
X0067546Y0093207D01*
X0068311Y0092875D01*
X0069088Y0092570D01*
X0069148Y0092512D01*
X0069225Y0092479D01*
X0069805Y0091879D01*
X0072496Y0089287D01*
X0072718Y0089509D01*
X0074495Y0087731D01*
X0074830Y0087821D01*
X0072930Y0089721D01*
X0073354Y0090145D01*
X0073147Y0090645D01*
X0073147Y0091838D01*
X0073604Y0092941D01*
X0076569Y0095906D01*
X0077672Y0096363D01*
X0078865Y0096363D01*
X0079968Y0095906D01*
X0083994Y0091880D01*
X0084450Y0090777D01*
X0084450Y0089584D01*
X0083994Y0088481D01*
X0082852Y0087340D01*
X0082900Y0087327D01*
X0085829Y0085636D01*
X0088220Y0083245D01*
X0089910Y0080317D01*
X0089923Y0080269D01*
X0091065Y0081410D01*
X0092167Y0081867D01*
X0093361Y0081867D01*
X0094463Y0081410D01*
X0095859Y0080014D01*
X0103319Y0078644D01*
X0104816Y0078644D01*
X0106005Y0078152D01*
X0106915Y0077241D01*
X0107408Y0076052D01*
X0107408Y0072875D01*
X0107306Y0072628D01*
X0108695Y0072561D01*
X0109331Y0072825D01*
X0112509Y0072825D01*
X0113698Y0072332D01*
X0114608Y0071422D01*
X0114900Y0070718D01*
X0114920Y0070738D01*
X0115247Y0070927D01*
X0115613Y0071025D01*
X0116747Y0071025D01*
X0116747Y0068250D01*
X0119128Y0068250D01*
X0119128Y0069778D01*
X0119030Y0070143D01*
X0118841Y0070470D01*
X0118573Y0070738D01*
X0118246Y0070927D01*
X0117881Y0071025D01*
X0116747Y0071025D01*
X0116747Y0068250D01*
X0116747Y0068250D01*
X0119128Y0068250D01*
X0119128Y0066722D01*
X0119030Y0066357D01*
X0118841Y0066030D01*
X0118573Y0065762D01*
X0118246Y0065573D01*
X0117881Y0065475D01*
X0116747Y0065475D01*
X0116747Y0068250D01*
X0116747Y0068250D01*
X0116747Y0068250D01*
X0116747Y0065475D01*
X0115613Y0065475D01*
X0115247Y0065573D01*
X0114920Y0065762D01*
X0114900Y0065782D01*
X0114608Y0065078D01*
X0113698Y0064168D01*
X0112509Y0063675D01*
X0111114Y0063675D01*
X0111114Y0062799D01*
X0110387Y0061042D01*
X0109042Y0059697D01*
X0107284Y0058969D01*
X0105382Y0058969D01*
X0103625Y0059697D01*
X0102280Y0061042D01*
X0101552Y0062799D01*
X0101552Y0063212D01*
X0100582Y0064567D01*
X0099662Y0064948D01*
X0098751Y0065859D01*
X0098259Y0067048D01*
X0098259Y0070225D01*
X0098570Y0070976D01*
X0095959Y0071456D01*
X0095524Y0071020D01*
X0094421Y0070564D01*
X0093228Y0070564D01*
X0092729Y0070770D01*
X0092304Y0070346D01*
X0090404Y0072246D01*
X0090315Y0071912D01*
X0092092Y0070134D01*
X0091769Y0069811D01*
X0093962Y0067844D01*
X0094316Y0067844D01*
X0095505Y0067352D01*
X0096415Y0066441D01*
X0096908Y0065252D01*
X0096908Y0062075D01*
X0096415Y0060885D01*
X0096280Y0060750D01*
X0096415Y0060615D01*
X0096908Y0059425D01*
X0096908Y0056248D01*
X0096824Y0056045D01*
X0097749Y0049407D01*
X0098015Y0049141D01*
X0098508Y0047952D01*
X0098508Y0044775D01*
X0098015Y0043585D01*
X0097105Y0042675D01*
X0096401Y0042383D01*
X0096421Y0042363D01*
X0096610Y0042036D01*
X0096708Y0041671D01*
X0096708Y0040537D01*
X0093933Y0040537D01*
X0093933Y0040537D01*
X0093933Y0040536D02*
X0093933Y0040536D01*
X0093933Y0038155D01*
X0092406Y0038156D01*
X0092040Y0038253D01*
X0091713Y0038442D01*
X0091445Y0038710D01*
X0091256Y0039037D01*
X0091159Y0039403D01*
X0091159Y0040537D01*
X0091159Y0039537D02*
X0054205Y0039537D01*
X0054205Y0039105D02*
X0054205Y0042017D01*
X0053452Y0044830D01*
X0051995Y0047353D01*
X0049936Y0049412D01*
X0047414Y0050868D01*
X0044601Y0051622D01*
X0041688Y0051622D01*
X0038875Y0050868D01*
X0036353Y0049412D01*
X0034333Y0047393D01*
X0034333Y0103328D01*
X0036353Y0101308D01*
X0038875Y0099852D01*
X0041688Y0099098D01*
X0044601Y0099098D01*
X0047414Y0099852D01*
X0049936Y0101308D01*
X0051995Y0103368D01*
X0053452Y0105890D01*
X0054205Y0108703D01*
X0054205Y0111616D01*
X0053452Y0114429D01*
X0051995Y0116951D01*
X0049976Y0118970D01*
X0105911Y0118970D01*
X0103892Y0116951D01*
X0102436Y0114429D01*
X0101682Y0111616D01*
X0101682Y0108703D01*
X0102436Y0105890D01*
X0103892Y0103368D01*
X0105951Y0101308D01*
X0108473Y0099852D01*
X0111287Y0099098D01*
X0114199Y0099098D01*
X0117012Y0099852D01*
X0119534Y0101308D01*
X0121554Y0103328D01*
X0121554Y0047393D01*
X0119534Y0049412D01*
X0117012Y0050868D01*
X0114199Y0051622D01*
X0111287Y0051622D01*
X0108473Y0050868D01*
X0105951Y0049412D01*
X0103892Y0047353D01*
X0102436Y0044830D01*
X0101682Y0042017D01*
X0101682Y0039105D01*
X0102436Y0036292D01*
X0103892Y0033769D01*
X0105911Y0031750D01*
X0049976Y0031750D01*
X0051995Y0033769D01*
X0053452Y0036292D01*
X0054205Y0039105D01*
X0054000Y0038338D02*
X0091894Y0038338D01*
X0093933Y0038338D02*
X0093933Y0038338D01*
X0093933Y0038156D02*
X0095461Y0038156D01*
X0095826Y0038253D01*
X0096154Y0038442D01*
X0096421Y0038710D01*
X0096610Y0039037D01*
X0096708Y0039403D01*
X0096708Y0040537D01*
X0093933Y0040537D01*
X0093933Y0040536D02*
X0093933Y0038156D01*
X0093933Y0039537D02*
X0093933Y0039537D01*
X0095973Y0038338D02*
X0101887Y0038338D01*
X0101682Y0039537D02*
X0096708Y0039537D01*
X0096708Y0040735D02*
X0101682Y0040735D01*
X0101682Y0041934D02*
X0096638Y0041934D01*
X0097562Y0043132D02*
X0101980Y0043132D01*
X0102302Y0044331D02*
X0098324Y0044331D01*
X0098508Y0045529D02*
X0102839Y0045529D01*
X0103531Y0046728D02*
X0098508Y0046728D01*
X0098508Y0047926D02*
X0104465Y0047926D01*
X0105664Y0049125D02*
X0098022Y0049125D01*
X0097622Y0050323D02*
X0107529Y0050323D01*
X0110912Y0051522D02*
X0097455Y0051522D01*
X0097287Y0052720D02*
X0121554Y0052720D01*
X0121554Y0051522D02*
X0114573Y0051522D01*
X0117956Y0050323D02*
X0121554Y0050323D01*
X0121554Y0049125D02*
X0119822Y0049125D01*
X0121020Y0047926D02*
X0121554Y0047926D01*
X0121554Y0053919D02*
X0097120Y0053919D01*
X0096953Y0055117D02*
X0121554Y0055117D01*
X0121554Y0056316D02*
X0096908Y0056316D01*
X0096908Y0057514D02*
X0121554Y0057514D01*
X0121554Y0058713D02*
X0096908Y0058713D01*
X0096707Y0059911D02*
X0103411Y0059911D01*
X0102252Y0061110D02*
X0096508Y0061110D01*
X0096908Y0062308D02*
X0101755Y0062308D01*
X0101341Y0063507D02*
X0096908Y0063507D01*
X0096908Y0064705D02*
X0100248Y0064705D01*
X0098732Y0065904D02*
X0096638Y0065904D01*
X0095755Y0067102D02*
X0098259Y0067102D01*
X0098259Y0068301D02*
X0093453Y0068301D01*
X0092117Y0069499D02*
X0098259Y0069499D01*
X0098454Y0070698D02*
X0094745Y0070698D01*
X0092904Y0070698D02*
X0092656Y0070698D01*
X0091953Y0070698D02*
X0091528Y0070698D01*
X0090754Y0071896D02*
X0090330Y0071896D01*
X0089940Y0080286D02*
X0089919Y0080286D01*
X0089236Y0081484D02*
X0091244Y0081484D01*
X0088544Y0082683D02*
X0121554Y0082683D01*
X0121554Y0081484D02*
X0094284Y0081484D01*
X0095588Y0080286D02*
X0121554Y0080286D01*
X0121554Y0079087D02*
X0100907Y0079087D01*
X0106268Y0077889D02*
X0121554Y0077889D01*
X0121554Y0076690D02*
X0107144Y0076690D01*
X0107408Y0075492D02*
X0121554Y0075492D01*
X0121554Y0074293D02*
X0107408Y0074293D01*
X0107408Y0073095D02*
X0121554Y0073095D01*
X0121554Y0071896D02*
X0114134Y0071896D01*
X0116747Y0070698D02*
X0116747Y0070698D01*
X0116747Y0069499D02*
X0116747Y0069499D01*
X0116747Y0068301D02*
X0116747Y0068301D01*
X0116747Y0067102D02*
X0116747Y0067102D01*
X0116747Y0065904D02*
X0116747Y0065904D01*
X0118715Y0065904D02*
X0121554Y0065904D01*
X0121554Y0067102D02*
X0119128Y0067102D01*
X0119128Y0068301D02*
X0121554Y0068301D01*
X0121554Y0069499D02*
X0119128Y0069499D01*
X0118613Y0070698D02*
X0121554Y0070698D01*
X0121554Y0064705D02*
X0114235Y0064705D01*
X0111114Y0063507D02*
X0121554Y0063507D01*
X0121554Y0062308D02*
X0110911Y0062308D01*
X0110415Y0061110D02*
X0121554Y0061110D01*
X0121554Y0059911D02*
X0109256Y0059911D01*
X0090304Y0043132D02*
X0077590Y0043132D01*
X0077461Y0044331D02*
X0089542Y0044331D01*
X0089359Y0045529D02*
X0076807Y0045529D01*
X0076662Y0045529D02*
X0076132Y0045529D01*
X0075463Y0044331D02*
X0074933Y0044331D01*
X0074697Y0043132D02*
X0074265Y0043132D01*
X0074166Y0043132D02*
X0073735Y0043132D01*
X0073951Y0043348D02*
X0071697Y0041094D01*
X0071594Y0041197D01*
X0071225Y0041749D01*
X0070970Y0042364D01*
X0070841Y0043016D01*
X0070841Y0043680D01*
X0070970Y0044332D01*
X0071225Y0044947D01*
X0071594Y0045499D01*
X0071697Y0045602D01*
X0073951Y0043348D01*
X0073498Y0044331D02*
X0072968Y0044331D01*
X0072300Y0045529D02*
X0071769Y0045529D01*
X0071624Y0045529D02*
X0068862Y0045529D01*
X0070771Y0046728D02*
X0089359Y0046728D01*
X0089359Y0047926D02*
X0073547Y0047926D01*
X0077617Y0049125D02*
X0089308Y0049125D01*
X0089140Y0050323D02*
X0081687Y0050323D01*
X0085757Y0051522D02*
X0088973Y0051522D01*
X0075895Y0041934D02*
X0075365Y0041934D01*
X0073066Y0041934D02*
X0072536Y0041934D01*
X0072056Y0040735D02*
X0054205Y0040735D01*
X0054205Y0041934D02*
X0071149Y0041934D01*
X0070841Y0043132D02*
X0053907Y0043132D01*
X0053585Y0044331D02*
X0070970Y0044331D01*
X0065427Y0045529D02*
X0053048Y0045529D01*
X0052356Y0046728D02*
X0063518Y0046728D01*
X0062576Y0047926D02*
X0051422Y0047926D01*
X0050223Y0049125D02*
X0062080Y0049125D01*
X0061970Y0050323D02*
X0048358Y0050323D01*
X0044975Y0051522D02*
X0062000Y0051522D01*
X0062080Y0052720D02*
X0062497Y0052720D01*
X0058067Y0052720D02*
X0034333Y0052720D01*
X0034333Y0051522D02*
X0041314Y0051522D01*
X0037931Y0050323D02*
X0034333Y0050323D01*
X0034333Y0049125D02*
X0036065Y0049125D01*
X0034867Y0047926D02*
X0034333Y0047926D01*
X0034333Y0053919D02*
X0056327Y0053919D01*
X0055455Y0055117D02*
X0034333Y0055117D01*
X0034333Y0056316D02*
X0054959Y0056316D01*
X0054899Y0057514D02*
X0034333Y0057514D01*
X0034333Y0058713D02*
X0054979Y0058713D01*
X0050706Y0059911D02*
X0034333Y0059911D01*
X0034333Y0061110D02*
X0049136Y0061110D01*
X0048334Y0062308D02*
X0034333Y0062308D01*
X0034333Y0063507D02*
X0047838Y0063507D01*
X0047828Y0064705D02*
X0034333Y0064705D01*
X0034333Y0065904D02*
X0044496Y0065904D01*
X0043143Y0067102D02*
X0034333Y0067102D01*
X0034333Y0068301D02*
X0041944Y0068301D01*
X0040746Y0069499D02*
X0034333Y0069499D01*
X0034333Y0070698D02*
X0039996Y0070698D01*
X0039856Y0071896D02*
X0034333Y0071896D01*
X0034333Y0073095D02*
X0040214Y0073095D01*
X0041274Y0074293D02*
X0034333Y0074293D01*
X0034333Y0075492D02*
X0042473Y0075492D01*
X0043671Y0076690D02*
X0034333Y0076690D01*
X0034333Y0077889D02*
X0064043Y0077889D01*
X0065101Y0076690D02*
X0048191Y0076690D01*
X0049390Y0075492D02*
X0065101Y0075492D01*
X0065101Y0074293D02*
X0050588Y0074293D01*
X0051648Y0073095D02*
X0065254Y0073095D01*
X0065576Y0071896D02*
X0052007Y0071896D01*
X0051867Y0070698D02*
X0065897Y0070698D01*
X0066497Y0069499D02*
X0054603Y0069499D01*
X0051402Y0069499D02*
X0051117Y0069499D01*
X0047957Y0065904D02*
X0047366Y0065904D01*
X0056328Y0079087D02*
X0034333Y0079087D01*
X0034333Y0080286D02*
X0054872Y0080286D01*
X0053674Y0081484D02*
X0034333Y0081484D01*
X0034333Y0082683D02*
X0052475Y0082683D01*
X0051909Y0083882D02*
X0034333Y0083882D01*
X0034333Y0085080D02*
X0051831Y0085080D01*
X0051425Y0086279D02*
X0034333Y0086279D01*
X0034333Y0087477D02*
X0051295Y0087477D01*
X0050989Y0088676D02*
X0052493Y0088676D01*
X0052187Y0089874D02*
X0052811Y0089874D01*
X0053117Y0091073D02*
X0051613Y0091073D01*
X0051919Y0092271D02*
X0034333Y0092271D01*
X0034333Y0091073D02*
X0049239Y0091073D01*
X0048620Y0089874D02*
X0034333Y0089874D01*
X0034333Y0088676D02*
X0049028Y0088676D01*
X0053386Y0091073D02*
X0054890Y0091073D01*
X0054584Y0092271D02*
X0056089Y0092271D01*
X0056900Y0092271D02*
X0063255Y0092271D01*
X0069426Y0092271D02*
X0073326Y0092271D01*
X0073147Y0091073D02*
X0070642Y0091073D01*
X0071886Y0089874D02*
X0073083Y0089874D01*
X0073551Y0088676D02*
X0073975Y0088676D01*
X0074133Y0093470D02*
X0055702Y0093470D01*
X0054371Y0094668D02*
X0075331Y0094668D01*
X0076530Y0095867D02*
X0034333Y0095867D01*
X0034333Y0097065D02*
X0121554Y0097065D01*
X0121554Y0095867D02*
X0080007Y0095867D01*
X0081205Y0094668D02*
X0121554Y0094668D01*
X0121554Y0093470D02*
X0082404Y0093470D01*
X0083602Y0092271D02*
X0121554Y0092271D01*
X0121554Y0091073D02*
X0084328Y0091073D01*
X0084450Y0089874D02*
X0121554Y0089874D01*
X0121554Y0088676D02*
X0084074Y0088676D01*
X0082989Y0087477D02*
X0121554Y0087477D01*
X0121554Y0086279D02*
X0084716Y0086279D01*
X0086385Y0085080D02*
X0121554Y0085080D01*
X0121554Y0083882D02*
X0087584Y0083882D01*
X0105400Y0101859D02*
X0050487Y0101859D01*
X0051685Y0103058D02*
X0104202Y0103058D01*
X0103379Y0104256D02*
X0052508Y0104256D01*
X0053200Y0105455D02*
X0102687Y0105455D01*
X0102231Y0106653D02*
X0053656Y0106653D01*
X0053977Y0107852D02*
X0101910Y0107852D01*
X0101682Y0109050D02*
X0054205Y0109050D01*
X0054205Y0110249D02*
X0101682Y0110249D01*
X0101682Y0111447D02*
X0054205Y0111447D01*
X0053929Y0112646D02*
X0101958Y0112646D01*
X0102279Y0113844D02*
X0053608Y0113844D01*
X0053097Y0115043D02*
X0102790Y0115043D01*
X0103482Y0116241D02*
X0052405Y0116241D01*
X0051507Y0117440D02*
X0104381Y0117440D01*
X0105579Y0118638D02*
X0050308Y0118638D01*
X0048814Y0100661D02*
X0107073Y0100661D01*
X0109929Y0099462D02*
X0045958Y0099462D01*
X0040331Y0099462D02*
X0034333Y0099462D01*
X0034333Y0098264D02*
X0121554Y0098264D01*
X0121554Y0099462D02*
X0115556Y0099462D01*
X0118412Y0100661D02*
X0121554Y0100661D01*
X0121554Y0101859D02*
X0120085Y0101859D01*
X0121284Y0103058D02*
X0121554Y0103058D01*
X0062645Y0081484D02*
X0062016Y0081484D01*
X0062540Y0080286D02*
X0060817Y0080286D01*
X0059362Y0079087D02*
X0062934Y0079087D01*
X0051636Y0093470D02*
X0034333Y0093470D01*
X0034333Y0094668D02*
X0052967Y0094668D01*
X0037475Y0100661D02*
X0034333Y0100661D01*
X0034333Y0101859D02*
X0035802Y0101859D01*
X0034603Y0103058D02*
X0034333Y0103058D01*
X0053679Y0037140D02*
X0102208Y0037140D01*
X0102638Y0035941D02*
X0053249Y0035941D01*
X0052557Y0034743D02*
X0103330Y0034743D01*
X0104117Y0033544D02*
X0051770Y0033544D01*
X0050571Y0032346D02*
X0105316Y0032346D01*
D16*
X0106333Y0063750D03*
X0061333Y0098750D03*
D17*
X0056333Y0098750D01*
X0086223Y0069144D02*
X0092333Y0063663D01*
X0092333Y0057837D02*
X0067145Y0050419D01*
X0092333Y0057837D02*
X0093933Y0046363D01*
X0106333Y0063750D02*
X0102833Y0068637D01*
X0110920Y0068250D01*
X0102833Y0074463D02*
X0093294Y0076215D01*
D18*
X0082688Y0065609D02*
X0081833Y0062450D01*
X0069233Y0063850D01*
X0053002Y0064561D01*
X0058262Y0085175D02*
X0064740Y0087905D01*
X0066555Y0088622D01*
X0071728Y0083640D01*
D19*
X0064740Y0087905D03*
D20*
X0043144Y0040561D03*
X0112743Y0040561D03*
X0112743Y0110159D03*
X0043144Y0110159D03*
M02*
