G75*
%MOIN*%
%OFA0B0*%
%FSLAX25Y25*%
%IPPOS*%
%LPD*%
%AMOC8*
5,1,8,0,0,1.08239X$1,22.5*
%
%ADD10R,0.04500X0.03000*%
%ADD11C,0.00906*%
%ADD12C,0.00472*%
D10*
G36*
X0067662Y0082755D02*
X0070843Y0079574D01*
X0068722Y0077453D01*
X0065541Y0080634D01*
X0067662Y0082755D01*
G37*
G36*
X0071198Y0086291D02*
X0074379Y0083110D01*
X0072258Y0080989D01*
X0069077Y0084170D01*
X0071198Y0086291D01*
G37*
G36*
X0074733Y0089826D02*
X0077914Y0086645D01*
X0075793Y0084524D01*
X0072612Y0087705D01*
X0074733Y0089826D01*
G37*
G36*
X0078269Y0093362D02*
X0081450Y0090181D01*
X0079329Y0088060D01*
X0076148Y0091241D01*
X0078269Y0093362D01*
G37*
G36*
X0092764Y0078866D02*
X0095945Y0075685D01*
X0093824Y0073564D01*
X0090643Y0076745D01*
X0092764Y0078866D01*
G37*
G36*
X0089229Y0075331D02*
X0092410Y0072150D01*
X0090289Y0070029D01*
X0087108Y0073210D01*
X0089229Y0075331D01*
G37*
G36*
X0085693Y0071795D02*
X0088874Y0068614D01*
X0086753Y0066493D01*
X0083572Y0069674D01*
X0085693Y0071795D01*
G37*
G36*
X0082158Y0068260D02*
X0085339Y0065079D01*
X0083218Y0062958D01*
X0080037Y0066139D01*
X0082158Y0068260D01*
G37*
D11*
X0061240Y0085592D02*
X0057845Y0082197D01*
X0055284Y0084758D01*
X0058679Y0088153D01*
X0061240Y0085592D01*
X0058750Y0083102D02*
X0056940Y0083102D01*
X0056035Y0084007D02*
X0059655Y0084007D01*
X0060560Y0084912D02*
X0055438Y0084912D01*
X0056343Y0085817D02*
X0061015Y0085817D01*
X0060110Y0086722D02*
X0057248Y0086722D01*
X0058153Y0087627D02*
X0059205Y0087627D01*
X0056229Y0090603D02*
X0052834Y0087208D01*
X0050273Y0089769D01*
X0053668Y0093164D01*
X0056229Y0090603D01*
X0053739Y0088113D02*
X0051929Y0088113D01*
X0051024Y0089018D02*
X0054644Y0089018D01*
X0055549Y0089923D02*
X0050427Y0089923D01*
X0051332Y0090828D02*
X0056004Y0090828D01*
X0055099Y0091733D02*
X0052237Y0091733D01*
X0053142Y0092638D02*
X0054194Y0092638D01*
D12*
X0090994Y0064608D02*
X0090994Y0062718D01*
X0090994Y0064608D02*
X0093672Y0064608D01*
X0093672Y0062718D01*
X0090994Y0062718D01*
X0090994Y0063189D02*
X0093672Y0063189D01*
X0093672Y0063660D02*
X0090994Y0063660D01*
X0090994Y0064131D02*
X0093672Y0064131D01*
X0093672Y0064602D02*
X0090994Y0064602D01*
X0090994Y0058782D02*
X0090994Y0056892D01*
X0090994Y0058782D02*
X0093672Y0058782D01*
X0093672Y0056892D01*
X0090994Y0056892D01*
X0090994Y0057363D02*
X0093672Y0057363D01*
X0093672Y0057834D02*
X0090994Y0057834D01*
X0090994Y0058305D02*
X0093672Y0058305D01*
X0093672Y0058776D02*
X0090994Y0058776D01*
X0101494Y0067692D02*
X0101494Y0069582D01*
X0104172Y0069582D01*
X0104172Y0067692D01*
X0101494Y0067692D01*
X0101494Y0068163D02*
X0104172Y0068163D01*
X0104172Y0068634D02*
X0101494Y0068634D01*
X0101494Y0069105D02*
X0104172Y0069105D01*
X0104172Y0069576D02*
X0101494Y0069576D01*
X0101494Y0073518D02*
X0101494Y0075408D01*
X0104172Y0075408D01*
X0104172Y0073518D01*
X0101494Y0073518D01*
X0101494Y0073989D02*
X0104172Y0073989D01*
X0104172Y0074460D02*
X0101494Y0074460D01*
X0101494Y0074931D02*
X0104172Y0074931D01*
X0104172Y0075402D02*
X0101494Y0075402D01*
X0109975Y0066911D02*
X0111865Y0066911D01*
X0109975Y0066911D02*
X0109975Y0069589D01*
X0111865Y0069589D01*
X0111865Y0066911D01*
X0111865Y0067382D02*
X0109975Y0067382D01*
X0109975Y0067853D02*
X0111865Y0067853D01*
X0111865Y0068324D02*
X0109975Y0068324D01*
X0109975Y0068795D02*
X0111865Y0068795D01*
X0111865Y0069266D02*
X0109975Y0069266D01*
X0115802Y0066911D02*
X0117692Y0066911D01*
X0115802Y0066911D02*
X0115802Y0069589D01*
X0117692Y0069589D01*
X0117692Y0066911D01*
X0117692Y0067382D02*
X0115802Y0067382D01*
X0115802Y0067853D02*
X0117692Y0067853D01*
X0117692Y0068324D02*
X0115802Y0068324D01*
X0115802Y0068795D02*
X0117692Y0068795D01*
X0117692Y0069266D02*
X0115802Y0069266D01*
X0092594Y0047308D02*
X0092594Y0045418D01*
X0092594Y0047308D02*
X0095272Y0047308D01*
X0095272Y0045418D01*
X0092594Y0045418D01*
X0092594Y0045889D02*
X0095272Y0045889D01*
X0095272Y0046360D02*
X0092594Y0046360D01*
X0092594Y0046831D02*
X0095272Y0046831D01*
X0095272Y0047302D02*
X0092594Y0047302D01*
X0092594Y0041482D02*
X0092594Y0039592D01*
X0092594Y0041482D02*
X0095272Y0041482D01*
X0095272Y0039592D01*
X0092594Y0039592D01*
X0092594Y0040063D02*
X0095272Y0040063D01*
X0095272Y0040534D02*
X0092594Y0040534D01*
X0092594Y0041005D02*
X0095272Y0041005D01*
X0095272Y0041476D02*
X0092594Y0041476D01*
M02*
