%
M48
M72
T01C0.01200
T02C0.01600
T03C0.02362
T04C0.02400
T05C0.03150
T06C0.03600
T07C0.04000
T08C0.04400
T09C0.08000
T10C0.09000
T11C0.13000
%
T01
X291333Y102650
X306333Y102650
X306333Y100150
X306333Y97650
X306333Y95150
X306333Y92650
X308833Y92650
X308833Y95150
X308833Y97650
X308833Y100150
X308833Y102650
X308833Y105150
X306333Y105150
X306333Y107650
X308833Y107650
X311333Y107650
X311333Y105150
X311333Y102650
X311333Y100150
X311333Y97650
X311333Y95150
X311333Y92650
X313833Y92650
X313833Y95150
X313833Y97650
X313833Y100150
X313833Y102650
X313833Y105150
X313833Y107650
X316333Y107650
X316333Y105150
X316333Y102650
X316333Y100150
X316333Y97650
X316333Y95150
X316333Y92650
X316333Y72650
X313833Y72650
X311333Y72650
X308833Y72650
X306333Y72650
X306333Y70150
X306333Y67650
X306333Y65150
X306333Y62650
X306333Y60150
X306333Y57650
X308833Y57650
X308833Y60150
X308833Y62650
X308833Y65150
X308833Y67650
X308833Y70150
X311333Y70150
X311333Y67650
X311333Y65150
X311333Y62650
X311333Y60150
X311333Y57650
X313833Y57650
X313833Y60150
X313833Y62650
X313833Y65150
X313833Y67650
X313833Y70150
X316333Y70150
X316333Y67650
X316333Y65150
X316333Y62650
X316333Y60150
X316333Y57650
X336333Y57650
X336333Y60150
X336333Y62650
X336333Y65150
X336333Y67650
X336333Y70150
X336333Y72650
X338833Y72650
X338833Y70150
X338833Y67650
X338833Y65150
X338833Y62650
X338833Y60150
X338833Y57650
X346333Y57650
X346333Y60150
X346333Y62650
X346333Y65150
X346333Y67650
X346333Y70150
X346333Y72650
X348833Y72650
X348833Y70150
X348833Y67650
X348833Y65150
X348833Y62650
X348833Y60150
X348833Y57650
X351333Y57650
X351333Y60150
X351333Y62650
X351333Y65150
X351333Y67650
X351333Y70150
X351333Y72650
X353833Y72650
X353833Y70150
X353833Y67650
X353833Y65150
X353833Y62650
X353833Y60150
X353833Y57650
X356333Y57650
X356333Y60150
X356333Y62650
X356333Y65150
X356333Y67650
X356333Y70150
X356333Y72650
X356333Y92650
X353833Y92650
X351333Y92650
X348833Y92650
X346333Y92650
X346333Y95150
X346333Y97650
X346333Y100150
X346333Y102650
X346333Y105150
X346333Y107650
X348833Y107650
X348833Y105150
X348833Y102650
X348833Y100150
X348833Y97650
X348833Y95150
X351333Y95150
X351333Y97650
X351333Y100150
X351333Y102650
X351333Y105150
X351333Y107650
X353833Y107650
X353833Y105150
X353833Y102650
X353833Y100150
X353833Y97650
X353833Y95150
X356333Y95150
X356333Y97650
X356333Y100150
X356333Y102650
X356333Y105150
X356333Y107650
X338833Y107650
X336333Y107650
X336333Y105150
X336333Y102650
X336333Y100150
X336333Y97650
X336333Y95150
X336333Y92650
X338833Y92650
X338833Y95150
X338833Y97650
X338833Y100150
X338833Y102650
X338833Y105150
X338833Y127650
X336333Y127650
X336333Y130150
X336333Y132650
X336333Y135150
X336333Y137650
X336333Y140150
X336333Y142650
X338833Y142650
X338833Y140150
X338833Y137650
X338833Y135150
X338833Y132650
X338833Y130150
X346333Y130150
X346333Y132650
X346333Y135150
X346333Y137650
X346333Y140150
X346333Y142650
X348833Y142650
X348833Y140150
X348833Y137650
X348833Y135150
X348833Y132650
X348833Y130150
X348833Y127650
X346333Y127650
X351333Y127650
X351333Y130150
X351333Y132650
X351333Y135150
X351333Y137650
X351333Y140150
X351333Y142650
X353833Y142650
X353833Y140150
X353833Y137650
X353833Y135150
X353833Y132650
X353833Y130150
X353833Y127650
X356333Y127650
X356333Y130150
X356333Y132650
X356333Y135150
X356333Y137650
X356333Y140150
X356333Y142650
X316333Y142650
X313833Y142650
X311333Y142650
X308833Y142650
X306333Y142650
X306333Y140150
X306333Y137650
X306333Y135150
X306333Y132650
X306333Y130150
X306333Y127650
X308833Y127650
X308833Y130150
X308833Y132650
X308833Y135150
X308833Y137650
X308833Y140150
X311333Y140150
X311333Y137650
X311333Y135150
X311333Y132650
X311333Y130150
X311333Y127650
X313833Y127650
X313833Y130150
X313833Y132650
X313833Y135150
X313833Y137650
X313833Y140150
X316333Y140150
X316333Y137650
X316333Y135150
X316333Y132650
X316333Y130150
X316333Y127650
T02
X328833Y122650
X333833Y122650
X338333Y122650
X341333Y152650
X336333Y155650
X327833Y159650
X283333Y178150
X283333Y183150
X283333Y188150
X273833Y207650
X271333Y207650
X271333Y210150
X268833Y210150
X268833Y212650
X271333Y212650
X273833Y210150
X281333Y210150
X283833Y210150
X286333Y210150
X288833Y210150
X251333Y190150
X248833Y190150
X248833Y187650
X248833Y185150
X251333Y185150
X251333Y187650
X241333Y187650
X241333Y190150
X241333Y185150
X226333Y192650
X223833Y192650
X223833Y195150
X226333Y195150
X206833Y167150
X203333Y147650
X202333Y137150
X213833Y137650
X213833Y140150
X216333Y140150
X216333Y137650
X208333Y103150
X208333Y98150
X208333Y88150
X203333Y88150
X203833Y77650
X203833Y64150
X207333Y64150
X212333Y64150
X223833Y50150
X228833Y50150
X243833Y65150
X248833Y60150
X251333Y57650
X251333Y55150
X256333Y55150
X256333Y57650
X256333Y60150
X271333Y62650
X283833Y55150
X286333Y45150
X283833Y32650
X271333Y43650
X246333Y45150
X233833Y37150
X233833Y34650
X231333Y34650
X228833Y34650
X251333Y75150
X268833Y87650
X268833Y103650
X276333Y105150
X266333Y112650
X268833Y120150
X266333Y127650
X268333Y140650
X273333Y140650
X273333Y145650
X278333Y145650
X283833Y87650
X298833Y49650
X313833Y49650
X313833Y44650
X311333Y32650
X301333Y32650
X321333Y32650
X331333Y32650
X341333Y32650
X351333Y32650
X333833Y42150
X328833Y42150
X328833Y87650
X333833Y87650
X338833Y87650
X188333Y90650
X188333Y95650
X131333Y52150
X128833Y52150
X126333Y52150
X131333Y42150
X133833Y42150
X136333Y42150
X138833Y42150
X113833Y42150
X113833Y44650
X88833Y44650
X88833Y47150
X88833Y49650
X66333Y45150
X61333Y45150
X56333Y45150
X56333Y40150
X61333Y40150
X66333Y40150
X230833Y235650
X230833Y240650
X230833Y245650
T03
X208833Y207650
X208833Y190150
X203833Y177650
X181333Y177650
X206333Y120150
X201333Y67650
X101333Y190150
X93833Y190150
X186333Y252650
X396333Y267650
X401333Y252650
T04
X263833Y155150
X241333Y147650
X241333Y122650
X206333Y110150
X196333Y77650
X243833Y72650
T05
X248833Y110150
X206333Y45150
X196333Y45150
X186333Y45150
X176333Y45150
X166333Y45150
X121333Y115150
X86333Y62650
X76333Y62650
X66333Y62650
X56333Y62650
X46333Y62650
X201333Y192650
X201333Y202650
X201333Y212650
X201333Y222650
X201333Y242650
X201333Y252650
X201333Y262650
X201333Y272650
X268833Y180150
X351333Y235150
X351333Y245150
X351333Y255150
X351333Y265150
X351333Y275150
T06
X131255Y65450
X131255Y57650
X121412Y57650
X121412Y65450
T07
X151333Y87650
X151333Y97650
X151333Y107650
X161333Y107650
X161333Y97650
X161333Y87650
X171333Y87650
X171333Y97650
X171333Y107650
X171333Y117650
X161333Y117650
X151333Y117650
X151333Y127650
X161333Y127650
X171333Y127650
X171333Y137650
X161333Y137650
X151333Y137650
X151333Y147650
X151333Y157650
X161333Y157650
X161333Y147650
X171333Y147650
X171333Y157650
X171333Y167650
X161333Y167650
X151333Y167650
X151333Y177650
X161333Y177650
X171333Y177650
X171333Y187650
X161333Y187650
X151333Y187650
X151333Y197650
X151333Y207650
X161333Y207650
X161333Y197650
X171333Y197650
X171333Y207650
X171333Y217650
X161333Y217650
X151333Y217650
X151333Y227650
X161333Y227650
X171333Y227650
X171333Y237650
X161333Y237650
X151333Y237650
X151333Y247650
X161333Y247650
X171333Y247650
X171333Y257650
X161333Y257650
X151333Y257650
X151333Y267650
X151333Y277650
X161333Y277650
X161333Y267650
X171333Y267650
X171333Y277650
X81333Y277650
X71333Y277650
X61333Y277650
X61333Y267650
X61333Y257650
X71333Y257650
X71333Y267650
X81333Y267650
X81333Y257650
X81333Y247650
X71333Y247650
X61333Y247650
X61333Y237650
X71333Y237650
X81333Y237650
X81333Y227650
X71333Y227650
X61333Y227650
X61333Y217650
X71333Y217650
X81333Y217650
X81333Y207650
X71333Y207650
X61333Y207650
X61333Y197650
X61333Y187650
X71333Y187650
X71333Y197650
X81333Y197650
X81333Y187650
X81333Y177650
X71333Y177650
X61333Y177650
X61333Y167650
X71333Y167650
X81333Y167650
X81333Y157650
X71333Y157650
X61333Y157650
X61333Y147650
X61333Y137650
X71333Y137650
X71333Y147650
X81333Y147650
X81333Y137650
X81333Y127650
X71333Y127650
X61333Y127650
X61333Y117650
X71333Y117650
X81333Y117650
X81333Y107650
X71333Y107650
X61333Y107650
X61333Y97650
X61333Y87650
X71333Y87650
X71333Y97650
X81333Y97650
X81333Y87650
T08
X303833Y175150
X303833Y202650
X403833Y202650
X403833Y175150
T09
X403833Y135150
X403833Y100150
X403833Y65150
X271333Y267650
X246333Y267650
T10
X150033Y46950
X102633Y46950
T11
X41333Y40150
X41333Y272650
X328833Y275150
X403833Y42650
M30
