G75*
%MOIN*%
%OFA0B0*%
%FSLAX25Y25*%
%IPPOS*%
%LPD*%
%AMOC8*
5,1,8,0,0,1.08239X$1,22.5*
%
%ADD10R,0.12000X0.12000*%
%ADD11C,0.13200*%
%ADD12OC8,0.13200*%
%ADD13R,0.08200X0.08200*%
%ADD14C,0.08200*%
%ADD15R,0.05550X0.05550*%
%ADD16C,0.05550*%
%ADD17C,0.07400*%
%ADD18C,0.13400*%
%ADD19C,0.13800*%
%ADD20C,0.05209*%
D10*
X0246333Y0267650D03*
X0271333Y0267650D03*
X0403833Y0135150D03*
X0403833Y0100150D03*
X0403833Y0065150D03*
D11*
X0303833Y0175150D03*
X0303833Y0202650D03*
D12*
X0403833Y0202650D03*
X0403833Y0175150D03*
D13*
X0171333Y0277650D03*
X0161333Y0277650D03*
X0151333Y0277650D03*
X0081333Y0087650D03*
X0071333Y0087650D03*
X0061333Y0087650D03*
D14*
X0061333Y0097650D03*
X0061333Y0107650D03*
X0071333Y0107650D03*
X0071333Y0097650D03*
X0081333Y0097650D03*
X0081333Y0107650D03*
X0081333Y0117650D03*
X0071333Y0117650D03*
X0061333Y0117650D03*
X0061333Y0127650D03*
X0071333Y0127650D03*
X0081333Y0127650D03*
X0081333Y0137650D03*
X0071333Y0137650D03*
X0061333Y0137650D03*
X0061333Y0147650D03*
X0061333Y0157650D03*
X0071333Y0157650D03*
X0071333Y0147650D03*
X0081333Y0147650D03*
X0081333Y0157650D03*
X0081333Y0167650D03*
X0071333Y0167650D03*
X0061333Y0167650D03*
X0061333Y0177650D03*
X0071333Y0177650D03*
X0081333Y0177650D03*
X0081333Y0187650D03*
X0071333Y0187650D03*
X0061333Y0187650D03*
X0061333Y0197650D03*
X0061333Y0207650D03*
X0071333Y0207650D03*
X0071333Y0197650D03*
X0081333Y0197650D03*
X0081333Y0207650D03*
X0081333Y0217650D03*
X0071333Y0217650D03*
X0061333Y0217650D03*
X0061333Y0227650D03*
X0071333Y0227650D03*
X0081333Y0227650D03*
X0081333Y0237650D03*
X0071333Y0237650D03*
X0061333Y0237650D03*
X0061333Y0247650D03*
X0071333Y0247650D03*
X0081333Y0247650D03*
X0081333Y0257650D03*
X0071333Y0257650D03*
X0061333Y0257650D03*
X0061333Y0267650D03*
X0061333Y0277650D03*
X0071333Y0277650D03*
X0071333Y0267650D03*
X0081333Y0267650D03*
X0081333Y0277650D03*
X0151333Y0267650D03*
X0151333Y0257650D03*
X0161333Y0257650D03*
X0161333Y0267650D03*
X0171333Y0267650D03*
X0171333Y0257650D03*
X0171333Y0247650D03*
X0161333Y0247650D03*
X0151333Y0247650D03*
X0151333Y0237650D03*
X0161333Y0237650D03*
X0171333Y0237650D03*
X0171333Y0227650D03*
X0161333Y0227650D03*
X0151333Y0227650D03*
X0151333Y0217650D03*
X0161333Y0217650D03*
X0171333Y0217650D03*
X0171333Y0207650D03*
X0161333Y0207650D03*
X0151333Y0207650D03*
X0151333Y0197650D03*
X0151333Y0187650D03*
X0161333Y0187650D03*
X0161333Y0197650D03*
X0171333Y0197650D03*
X0171333Y0187650D03*
X0171333Y0177650D03*
X0161333Y0177650D03*
X0151333Y0177650D03*
X0151333Y0167650D03*
X0161333Y0167650D03*
X0171333Y0167650D03*
X0171333Y0157650D03*
X0161333Y0157650D03*
X0151333Y0157650D03*
X0151333Y0147650D03*
X0151333Y0137650D03*
X0161333Y0137650D03*
X0161333Y0147650D03*
X0171333Y0147650D03*
X0171333Y0137650D03*
X0171333Y0127650D03*
X0161333Y0127650D03*
X0151333Y0127650D03*
X0151333Y0117650D03*
X0161333Y0117650D03*
X0171333Y0117650D03*
X0171333Y0107650D03*
X0161333Y0107650D03*
X0151333Y0107650D03*
X0151333Y0097650D03*
X0151333Y0087650D03*
X0161333Y0087650D03*
X0161333Y0097650D03*
X0171333Y0097650D03*
X0171333Y0087650D03*
D15*
X0206333Y0045150D03*
X0086333Y0062650D03*
X0201333Y0222650D03*
X0201333Y0272650D03*
X0351333Y0235150D03*
D16*
X0351333Y0245150D03*
X0351333Y0255150D03*
X0351333Y0265150D03*
X0351333Y0275150D03*
X0201333Y0262650D03*
X0201333Y0252650D03*
X0201333Y0242650D03*
X0201333Y0212650D03*
X0201333Y0202650D03*
X0201333Y0192650D03*
X0076333Y0062650D03*
X0066333Y0062650D03*
X0056333Y0062650D03*
X0046333Y0062650D03*
X0166333Y0045150D03*
X0176333Y0045150D03*
X0186333Y0045150D03*
X0196333Y0045150D03*
D17*
X0131255Y0057650D03*
X0131255Y0065450D03*
X0121412Y0065450D03*
X0121412Y0057650D03*
D18*
X0102633Y0046950D03*
X0150033Y0046950D03*
D19*
X0041333Y0040150D03*
X0041333Y0272650D03*
X0328833Y0275150D03*
X0403833Y0042650D03*
D20*
X0268833Y0180150D03*
X0248833Y0110150D03*
X0121333Y0115150D03*
M02*
