G75*
%MOIN*%
%OFA0B0*%
%FSLAX25Y25*%
%IPPOS*%
%LPD*%
%AMOC8*
5,1,8,0,0,1.08239X$1,22.5*
%
%ADD10C,0.00000*%
D10*
X0031333Y0040150D02*
X0031333Y0275150D01*
X0031336Y0275392D01*
X0031345Y0275633D01*
X0031359Y0275874D01*
X0031380Y0276115D01*
X0031406Y0276355D01*
X0031438Y0276595D01*
X0031476Y0276834D01*
X0031519Y0277071D01*
X0031569Y0277308D01*
X0031624Y0277543D01*
X0031684Y0277777D01*
X0031751Y0278009D01*
X0031822Y0278240D01*
X0031900Y0278469D01*
X0031983Y0278696D01*
X0032071Y0278921D01*
X0032165Y0279144D01*
X0032264Y0279364D01*
X0032369Y0279582D01*
X0032478Y0279797D01*
X0032593Y0280010D01*
X0032713Y0280220D01*
X0032838Y0280426D01*
X0032968Y0280630D01*
X0033103Y0280831D01*
X0033243Y0281028D01*
X0033387Y0281222D01*
X0033536Y0281412D01*
X0033690Y0281598D01*
X0033848Y0281781D01*
X0034010Y0281960D01*
X0034177Y0282135D01*
X0034348Y0282306D01*
X0034523Y0282473D01*
X0034702Y0282635D01*
X0034885Y0282793D01*
X0035071Y0282947D01*
X0035261Y0283096D01*
X0035455Y0283240D01*
X0035652Y0283380D01*
X0035853Y0283515D01*
X0036057Y0283645D01*
X0036263Y0283770D01*
X0036473Y0283890D01*
X0036686Y0284005D01*
X0036901Y0284114D01*
X0037119Y0284219D01*
X0037339Y0284318D01*
X0037562Y0284412D01*
X0037787Y0284500D01*
X0038014Y0284583D01*
X0038243Y0284661D01*
X0038474Y0284732D01*
X0038706Y0284799D01*
X0038940Y0284859D01*
X0039175Y0284914D01*
X0039412Y0284964D01*
X0039649Y0285007D01*
X0039888Y0285045D01*
X0040128Y0285077D01*
X0040368Y0285103D01*
X0040609Y0285124D01*
X0040850Y0285138D01*
X0041091Y0285147D01*
X0041333Y0285150D01*
X0405333Y0285150D01*
X0405575Y0285147D01*
X0405816Y0285138D01*
X0406057Y0285124D01*
X0406298Y0285103D01*
X0406538Y0285077D01*
X0406778Y0285045D01*
X0407017Y0285007D01*
X0407254Y0284964D01*
X0407491Y0284914D01*
X0407726Y0284859D01*
X0407960Y0284799D01*
X0408192Y0284732D01*
X0408423Y0284661D01*
X0408652Y0284583D01*
X0408879Y0284500D01*
X0409104Y0284412D01*
X0409327Y0284318D01*
X0409547Y0284219D01*
X0409765Y0284114D01*
X0409980Y0284005D01*
X0410193Y0283890D01*
X0410403Y0283770D01*
X0410609Y0283645D01*
X0410813Y0283515D01*
X0411014Y0283380D01*
X0411211Y0283240D01*
X0411405Y0283096D01*
X0411595Y0282947D01*
X0411781Y0282793D01*
X0411964Y0282635D01*
X0412143Y0282473D01*
X0412318Y0282306D01*
X0412489Y0282135D01*
X0412656Y0281960D01*
X0412818Y0281781D01*
X0412976Y0281598D01*
X0413130Y0281412D01*
X0413279Y0281222D01*
X0413423Y0281028D01*
X0413563Y0280831D01*
X0413698Y0280630D01*
X0413828Y0280426D01*
X0413953Y0280220D01*
X0414073Y0280010D01*
X0414188Y0279797D01*
X0414297Y0279582D01*
X0414402Y0279364D01*
X0414501Y0279144D01*
X0414595Y0278921D01*
X0414683Y0278696D01*
X0414766Y0278469D01*
X0414844Y0278240D01*
X0414915Y0278009D01*
X0414982Y0277777D01*
X0415042Y0277543D01*
X0415097Y0277308D01*
X0415147Y0277071D01*
X0415190Y0276834D01*
X0415228Y0276595D01*
X0415260Y0276355D01*
X0415286Y0276115D01*
X0415307Y0275874D01*
X0415321Y0275633D01*
X0415330Y0275392D01*
X0415333Y0275150D01*
X0415333Y0040150D01*
X0415330Y0039908D01*
X0415321Y0039667D01*
X0415307Y0039426D01*
X0415286Y0039185D01*
X0415260Y0038945D01*
X0415228Y0038705D01*
X0415190Y0038466D01*
X0415147Y0038229D01*
X0415097Y0037992D01*
X0415042Y0037757D01*
X0414982Y0037523D01*
X0414915Y0037291D01*
X0414844Y0037060D01*
X0414766Y0036831D01*
X0414683Y0036604D01*
X0414595Y0036379D01*
X0414501Y0036156D01*
X0414402Y0035936D01*
X0414297Y0035718D01*
X0414188Y0035503D01*
X0414073Y0035290D01*
X0413953Y0035080D01*
X0413828Y0034874D01*
X0413698Y0034670D01*
X0413563Y0034469D01*
X0413423Y0034272D01*
X0413279Y0034078D01*
X0413130Y0033888D01*
X0412976Y0033702D01*
X0412818Y0033519D01*
X0412656Y0033340D01*
X0412489Y0033165D01*
X0412318Y0032994D01*
X0412143Y0032827D01*
X0411964Y0032665D01*
X0411781Y0032507D01*
X0411595Y0032353D01*
X0411405Y0032204D01*
X0411211Y0032060D01*
X0411014Y0031920D01*
X0410813Y0031785D01*
X0410609Y0031655D01*
X0410403Y0031530D01*
X0410193Y0031410D01*
X0409980Y0031295D01*
X0409765Y0031186D01*
X0409547Y0031081D01*
X0409327Y0030982D01*
X0409104Y0030888D01*
X0408879Y0030800D01*
X0408652Y0030717D01*
X0408423Y0030639D01*
X0408192Y0030568D01*
X0407960Y0030501D01*
X0407726Y0030441D01*
X0407491Y0030386D01*
X0407254Y0030336D01*
X0407017Y0030293D01*
X0406778Y0030255D01*
X0406538Y0030223D01*
X0406298Y0030197D01*
X0406057Y0030176D01*
X0405816Y0030162D01*
X0405575Y0030153D01*
X0405333Y0030150D01*
X0041333Y0030150D01*
X0034833Y0040150D02*
X0034835Y0040311D01*
X0034841Y0040471D01*
X0034851Y0040632D01*
X0034865Y0040792D01*
X0034883Y0040952D01*
X0034904Y0041111D01*
X0034930Y0041270D01*
X0034960Y0041428D01*
X0034993Y0041585D01*
X0035031Y0041742D01*
X0035072Y0041897D01*
X0035117Y0042051D01*
X0035166Y0042204D01*
X0035219Y0042356D01*
X0035275Y0042507D01*
X0035336Y0042656D01*
X0035399Y0042804D01*
X0035467Y0042950D01*
X0035538Y0043094D01*
X0035612Y0043236D01*
X0035690Y0043377D01*
X0035772Y0043515D01*
X0035857Y0043652D01*
X0035945Y0043786D01*
X0036037Y0043918D01*
X0036132Y0044048D01*
X0036230Y0044176D01*
X0036331Y0044301D01*
X0036435Y0044423D01*
X0036542Y0044543D01*
X0036652Y0044660D01*
X0036765Y0044775D01*
X0036881Y0044886D01*
X0037000Y0044995D01*
X0037121Y0045100D01*
X0037245Y0045203D01*
X0037371Y0045303D01*
X0037499Y0045399D01*
X0037630Y0045492D01*
X0037764Y0045582D01*
X0037899Y0045669D01*
X0038037Y0045752D01*
X0038176Y0045832D01*
X0038318Y0045908D01*
X0038461Y0045981D01*
X0038606Y0046050D01*
X0038753Y0046116D01*
X0038901Y0046178D01*
X0039051Y0046236D01*
X0039202Y0046291D01*
X0039355Y0046342D01*
X0039509Y0046389D01*
X0039664Y0046432D01*
X0039820Y0046471D01*
X0039976Y0046507D01*
X0040134Y0046538D01*
X0040292Y0046566D01*
X0040451Y0046590D01*
X0040611Y0046610D01*
X0040771Y0046626D01*
X0040931Y0046638D01*
X0041092Y0046646D01*
X0041253Y0046650D01*
X0041413Y0046650D01*
X0041574Y0046646D01*
X0041735Y0046638D01*
X0041895Y0046626D01*
X0042055Y0046610D01*
X0042215Y0046590D01*
X0042374Y0046566D01*
X0042532Y0046538D01*
X0042690Y0046507D01*
X0042846Y0046471D01*
X0043002Y0046432D01*
X0043157Y0046389D01*
X0043311Y0046342D01*
X0043464Y0046291D01*
X0043615Y0046236D01*
X0043765Y0046178D01*
X0043913Y0046116D01*
X0044060Y0046050D01*
X0044205Y0045981D01*
X0044348Y0045908D01*
X0044490Y0045832D01*
X0044629Y0045752D01*
X0044767Y0045669D01*
X0044902Y0045582D01*
X0045036Y0045492D01*
X0045167Y0045399D01*
X0045295Y0045303D01*
X0045421Y0045203D01*
X0045545Y0045100D01*
X0045666Y0044995D01*
X0045785Y0044886D01*
X0045901Y0044775D01*
X0046014Y0044660D01*
X0046124Y0044543D01*
X0046231Y0044423D01*
X0046335Y0044301D01*
X0046436Y0044176D01*
X0046534Y0044048D01*
X0046629Y0043918D01*
X0046721Y0043786D01*
X0046809Y0043652D01*
X0046894Y0043515D01*
X0046976Y0043377D01*
X0047054Y0043236D01*
X0047128Y0043094D01*
X0047199Y0042950D01*
X0047267Y0042804D01*
X0047330Y0042656D01*
X0047391Y0042507D01*
X0047447Y0042356D01*
X0047500Y0042204D01*
X0047549Y0042051D01*
X0047594Y0041897D01*
X0047635Y0041742D01*
X0047673Y0041585D01*
X0047706Y0041428D01*
X0047736Y0041270D01*
X0047762Y0041111D01*
X0047783Y0040952D01*
X0047801Y0040792D01*
X0047815Y0040632D01*
X0047825Y0040471D01*
X0047831Y0040311D01*
X0047833Y0040150D01*
X0047831Y0039989D01*
X0047825Y0039829D01*
X0047815Y0039668D01*
X0047801Y0039508D01*
X0047783Y0039348D01*
X0047762Y0039189D01*
X0047736Y0039030D01*
X0047706Y0038872D01*
X0047673Y0038715D01*
X0047635Y0038558D01*
X0047594Y0038403D01*
X0047549Y0038249D01*
X0047500Y0038096D01*
X0047447Y0037944D01*
X0047391Y0037793D01*
X0047330Y0037644D01*
X0047267Y0037496D01*
X0047199Y0037350D01*
X0047128Y0037206D01*
X0047054Y0037064D01*
X0046976Y0036923D01*
X0046894Y0036785D01*
X0046809Y0036648D01*
X0046721Y0036514D01*
X0046629Y0036382D01*
X0046534Y0036252D01*
X0046436Y0036124D01*
X0046335Y0035999D01*
X0046231Y0035877D01*
X0046124Y0035757D01*
X0046014Y0035640D01*
X0045901Y0035525D01*
X0045785Y0035414D01*
X0045666Y0035305D01*
X0045545Y0035200D01*
X0045421Y0035097D01*
X0045295Y0034997D01*
X0045167Y0034901D01*
X0045036Y0034808D01*
X0044902Y0034718D01*
X0044767Y0034631D01*
X0044629Y0034548D01*
X0044490Y0034468D01*
X0044348Y0034392D01*
X0044205Y0034319D01*
X0044060Y0034250D01*
X0043913Y0034184D01*
X0043765Y0034122D01*
X0043615Y0034064D01*
X0043464Y0034009D01*
X0043311Y0033958D01*
X0043157Y0033911D01*
X0043002Y0033868D01*
X0042846Y0033829D01*
X0042690Y0033793D01*
X0042532Y0033762D01*
X0042374Y0033734D01*
X0042215Y0033710D01*
X0042055Y0033690D01*
X0041895Y0033674D01*
X0041735Y0033662D01*
X0041574Y0033654D01*
X0041413Y0033650D01*
X0041253Y0033650D01*
X0041092Y0033654D01*
X0040931Y0033662D01*
X0040771Y0033674D01*
X0040611Y0033690D01*
X0040451Y0033710D01*
X0040292Y0033734D01*
X0040134Y0033762D01*
X0039976Y0033793D01*
X0039820Y0033829D01*
X0039664Y0033868D01*
X0039509Y0033911D01*
X0039355Y0033958D01*
X0039202Y0034009D01*
X0039051Y0034064D01*
X0038901Y0034122D01*
X0038753Y0034184D01*
X0038606Y0034250D01*
X0038461Y0034319D01*
X0038318Y0034392D01*
X0038176Y0034468D01*
X0038037Y0034548D01*
X0037899Y0034631D01*
X0037764Y0034718D01*
X0037630Y0034808D01*
X0037499Y0034901D01*
X0037371Y0034997D01*
X0037245Y0035097D01*
X0037121Y0035200D01*
X0037000Y0035305D01*
X0036881Y0035414D01*
X0036765Y0035525D01*
X0036652Y0035640D01*
X0036542Y0035757D01*
X0036435Y0035877D01*
X0036331Y0035999D01*
X0036230Y0036124D01*
X0036132Y0036252D01*
X0036037Y0036382D01*
X0035945Y0036514D01*
X0035857Y0036648D01*
X0035772Y0036785D01*
X0035690Y0036923D01*
X0035612Y0037064D01*
X0035538Y0037206D01*
X0035467Y0037350D01*
X0035399Y0037496D01*
X0035336Y0037644D01*
X0035275Y0037793D01*
X0035219Y0037944D01*
X0035166Y0038096D01*
X0035117Y0038249D01*
X0035072Y0038403D01*
X0035031Y0038558D01*
X0034993Y0038715D01*
X0034960Y0038872D01*
X0034930Y0039030D01*
X0034904Y0039189D01*
X0034883Y0039348D01*
X0034865Y0039508D01*
X0034851Y0039668D01*
X0034841Y0039829D01*
X0034835Y0039989D01*
X0034833Y0040150D01*
X0031333Y0040150D02*
X0031336Y0039908D01*
X0031345Y0039667D01*
X0031359Y0039426D01*
X0031380Y0039185D01*
X0031406Y0038945D01*
X0031438Y0038705D01*
X0031476Y0038466D01*
X0031519Y0038229D01*
X0031569Y0037992D01*
X0031624Y0037757D01*
X0031684Y0037523D01*
X0031751Y0037291D01*
X0031822Y0037060D01*
X0031900Y0036831D01*
X0031983Y0036604D01*
X0032071Y0036379D01*
X0032165Y0036156D01*
X0032264Y0035936D01*
X0032369Y0035718D01*
X0032478Y0035503D01*
X0032593Y0035290D01*
X0032713Y0035080D01*
X0032838Y0034874D01*
X0032968Y0034670D01*
X0033103Y0034469D01*
X0033243Y0034272D01*
X0033387Y0034078D01*
X0033536Y0033888D01*
X0033690Y0033702D01*
X0033848Y0033519D01*
X0034010Y0033340D01*
X0034177Y0033165D01*
X0034348Y0032994D01*
X0034523Y0032827D01*
X0034702Y0032665D01*
X0034885Y0032507D01*
X0035071Y0032353D01*
X0035261Y0032204D01*
X0035455Y0032060D01*
X0035652Y0031920D01*
X0035853Y0031785D01*
X0036057Y0031655D01*
X0036263Y0031530D01*
X0036473Y0031410D01*
X0036686Y0031295D01*
X0036901Y0031186D01*
X0037119Y0031081D01*
X0037339Y0030982D01*
X0037562Y0030888D01*
X0037787Y0030800D01*
X0038014Y0030717D01*
X0038243Y0030639D01*
X0038474Y0030568D01*
X0038706Y0030501D01*
X0038940Y0030441D01*
X0039175Y0030386D01*
X0039412Y0030336D01*
X0039649Y0030293D01*
X0039888Y0030255D01*
X0040128Y0030223D01*
X0040368Y0030197D01*
X0040609Y0030176D01*
X0040850Y0030162D01*
X0041091Y0030153D01*
X0041333Y0030150D01*
X0034833Y0272650D02*
X0034835Y0272811D01*
X0034841Y0272971D01*
X0034851Y0273132D01*
X0034865Y0273292D01*
X0034883Y0273452D01*
X0034904Y0273611D01*
X0034930Y0273770D01*
X0034960Y0273928D01*
X0034993Y0274085D01*
X0035031Y0274242D01*
X0035072Y0274397D01*
X0035117Y0274551D01*
X0035166Y0274704D01*
X0035219Y0274856D01*
X0035275Y0275007D01*
X0035336Y0275156D01*
X0035399Y0275304D01*
X0035467Y0275450D01*
X0035538Y0275594D01*
X0035612Y0275736D01*
X0035690Y0275877D01*
X0035772Y0276015D01*
X0035857Y0276152D01*
X0035945Y0276286D01*
X0036037Y0276418D01*
X0036132Y0276548D01*
X0036230Y0276676D01*
X0036331Y0276801D01*
X0036435Y0276923D01*
X0036542Y0277043D01*
X0036652Y0277160D01*
X0036765Y0277275D01*
X0036881Y0277386D01*
X0037000Y0277495D01*
X0037121Y0277600D01*
X0037245Y0277703D01*
X0037371Y0277803D01*
X0037499Y0277899D01*
X0037630Y0277992D01*
X0037764Y0278082D01*
X0037899Y0278169D01*
X0038037Y0278252D01*
X0038176Y0278332D01*
X0038318Y0278408D01*
X0038461Y0278481D01*
X0038606Y0278550D01*
X0038753Y0278616D01*
X0038901Y0278678D01*
X0039051Y0278736D01*
X0039202Y0278791D01*
X0039355Y0278842D01*
X0039509Y0278889D01*
X0039664Y0278932D01*
X0039820Y0278971D01*
X0039976Y0279007D01*
X0040134Y0279038D01*
X0040292Y0279066D01*
X0040451Y0279090D01*
X0040611Y0279110D01*
X0040771Y0279126D01*
X0040931Y0279138D01*
X0041092Y0279146D01*
X0041253Y0279150D01*
X0041413Y0279150D01*
X0041574Y0279146D01*
X0041735Y0279138D01*
X0041895Y0279126D01*
X0042055Y0279110D01*
X0042215Y0279090D01*
X0042374Y0279066D01*
X0042532Y0279038D01*
X0042690Y0279007D01*
X0042846Y0278971D01*
X0043002Y0278932D01*
X0043157Y0278889D01*
X0043311Y0278842D01*
X0043464Y0278791D01*
X0043615Y0278736D01*
X0043765Y0278678D01*
X0043913Y0278616D01*
X0044060Y0278550D01*
X0044205Y0278481D01*
X0044348Y0278408D01*
X0044490Y0278332D01*
X0044629Y0278252D01*
X0044767Y0278169D01*
X0044902Y0278082D01*
X0045036Y0277992D01*
X0045167Y0277899D01*
X0045295Y0277803D01*
X0045421Y0277703D01*
X0045545Y0277600D01*
X0045666Y0277495D01*
X0045785Y0277386D01*
X0045901Y0277275D01*
X0046014Y0277160D01*
X0046124Y0277043D01*
X0046231Y0276923D01*
X0046335Y0276801D01*
X0046436Y0276676D01*
X0046534Y0276548D01*
X0046629Y0276418D01*
X0046721Y0276286D01*
X0046809Y0276152D01*
X0046894Y0276015D01*
X0046976Y0275877D01*
X0047054Y0275736D01*
X0047128Y0275594D01*
X0047199Y0275450D01*
X0047267Y0275304D01*
X0047330Y0275156D01*
X0047391Y0275007D01*
X0047447Y0274856D01*
X0047500Y0274704D01*
X0047549Y0274551D01*
X0047594Y0274397D01*
X0047635Y0274242D01*
X0047673Y0274085D01*
X0047706Y0273928D01*
X0047736Y0273770D01*
X0047762Y0273611D01*
X0047783Y0273452D01*
X0047801Y0273292D01*
X0047815Y0273132D01*
X0047825Y0272971D01*
X0047831Y0272811D01*
X0047833Y0272650D01*
X0047831Y0272489D01*
X0047825Y0272329D01*
X0047815Y0272168D01*
X0047801Y0272008D01*
X0047783Y0271848D01*
X0047762Y0271689D01*
X0047736Y0271530D01*
X0047706Y0271372D01*
X0047673Y0271215D01*
X0047635Y0271058D01*
X0047594Y0270903D01*
X0047549Y0270749D01*
X0047500Y0270596D01*
X0047447Y0270444D01*
X0047391Y0270293D01*
X0047330Y0270144D01*
X0047267Y0269996D01*
X0047199Y0269850D01*
X0047128Y0269706D01*
X0047054Y0269564D01*
X0046976Y0269423D01*
X0046894Y0269285D01*
X0046809Y0269148D01*
X0046721Y0269014D01*
X0046629Y0268882D01*
X0046534Y0268752D01*
X0046436Y0268624D01*
X0046335Y0268499D01*
X0046231Y0268377D01*
X0046124Y0268257D01*
X0046014Y0268140D01*
X0045901Y0268025D01*
X0045785Y0267914D01*
X0045666Y0267805D01*
X0045545Y0267700D01*
X0045421Y0267597D01*
X0045295Y0267497D01*
X0045167Y0267401D01*
X0045036Y0267308D01*
X0044902Y0267218D01*
X0044767Y0267131D01*
X0044629Y0267048D01*
X0044490Y0266968D01*
X0044348Y0266892D01*
X0044205Y0266819D01*
X0044060Y0266750D01*
X0043913Y0266684D01*
X0043765Y0266622D01*
X0043615Y0266564D01*
X0043464Y0266509D01*
X0043311Y0266458D01*
X0043157Y0266411D01*
X0043002Y0266368D01*
X0042846Y0266329D01*
X0042690Y0266293D01*
X0042532Y0266262D01*
X0042374Y0266234D01*
X0042215Y0266210D01*
X0042055Y0266190D01*
X0041895Y0266174D01*
X0041735Y0266162D01*
X0041574Y0266154D01*
X0041413Y0266150D01*
X0041253Y0266150D01*
X0041092Y0266154D01*
X0040931Y0266162D01*
X0040771Y0266174D01*
X0040611Y0266190D01*
X0040451Y0266210D01*
X0040292Y0266234D01*
X0040134Y0266262D01*
X0039976Y0266293D01*
X0039820Y0266329D01*
X0039664Y0266368D01*
X0039509Y0266411D01*
X0039355Y0266458D01*
X0039202Y0266509D01*
X0039051Y0266564D01*
X0038901Y0266622D01*
X0038753Y0266684D01*
X0038606Y0266750D01*
X0038461Y0266819D01*
X0038318Y0266892D01*
X0038176Y0266968D01*
X0038037Y0267048D01*
X0037899Y0267131D01*
X0037764Y0267218D01*
X0037630Y0267308D01*
X0037499Y0267401D01*
X0037371Y0267497D01*
X0037245Y0267597D01*
X0037121Y0267700D01*
X0037000Y0267805D01*
X0036881Y0267914D01*
X0036765Y0268025D01*
X0036652Y0268140D01*
X0036542Y0268257D01*
X0036435Y0268377D01*
X0036331Y0268499D01*
X0036230Y0268624D01*
X0036132Y0268752D01*
X0036037Y0268882D01*
X0035945Y0269014D01*
X0035857Y0269148D01*
X0035772Y0269285D01*
X0035690Y0269423D01*
X0035612Y0269564D01*
X0035538Y0269706D01*
X0035467Y0269850D01*
X0035399Y0269996D01*
X0035336Y0270144D01*
X0035275Y0270293D01*
X0035219Y0270444D01*
X0035166Y0270596D01*
X0035117Y0270749D01*
X0035072Y0270903D01*
X0035031Y0271058D01*
X0034993Y0271215D01*
X0034960Y0271372D01*
X0034930Y0271530D01*
X0034904Y0271689D01*
X0034883Y0271848D01*
X0034865Y0272008D01*
X0034851Y0272168D01*
X0034841Y0272329D01*
X0034835Y0272489D01*
X0034833Y0272650D01*
X0322333Y0275150D02*
X0322335Y0275311D01*
X0322341Y0275471D01*
X0322351Y0275632D01*
X0322365Y0275792D01*
X0322383Y0275952D01*
X0322404Y0276111D01*
X0322430Y0276270D01*
X0322460Y0276428D01*
X0322493Y0276585D01*
X0322531Y0276742D01*
X0322572Y0276897D01*
X0322617Y0277051D01*
X0322666Y0277204D01*
X0322719Y0277356D01*
X0322775Y0277507D01*
X0322836Y0277656D01*
X0322899Y0277804D01*
X0322967Y0277950D01*
X0323038Y0278094D01*
X0323112Y0278236D01*
X0323190Y0278377D01*
X0323272Y0278515D01*
X0323357Y0278652D01*
X0323445Y0278786D01*
X0323537Y0278918D01*
X0323632Y0279048D01*
X0323730Y0279176D01*
X0323831Y0279301D01*
X0323935Y0279423D01*
X0324042Y0279543D01*
X0324152Y0279660D01*
X0324265Y0279775D01*
X0324381Y0279886D01*
X0324500Y0279995D01*
X0324621Y0280100D01*
X0324745Y0280203D01*
X0324871Y0280303D01*
X0324999Y0280399D01*
X0325130Y0280492D01*
X0325264Y0280582D01*
X0325399Y0280669D01*
X0325537Y0280752D01*
X0325676Y0280832D01*
X0325818Y0280908D01*
X0325961Y0280981D01*
X0326106Y0281050D01*
X0326253Y0281116D01*
X0326401Y0281178D01*
X0326551Y0281236D01*
X0326702Y0281291D01*
X0326855Y0281342D01*
X0327009Y0281389D01*
X0327164Y0281432D01*
X0327320Y0281471D01*
X0327476Y0281507D01*
X0327634Y0281538D01*
X0327792Y0281566D01*
X0327951Y0281590D01*
X0328111Y0281610D01*
X0328271Y0281626D01*
X0328431Y0281638D01*
X0328592Y0281646D01*
X0328753Y0281650D01*
X0328913Y0281650D01*
X0329074Y0281646D01*
X0329235Y0281638D01*
X0329395Y0281626D01*
X0329555Y0281610D01*
X0329715Y0281590D01*
X0329874Y0281566D01*
X0330032Y0281538D01*
X0330190Y0281507D01*
X0330346Y0281471D01*
X0330502Y0281432D01*
X0330657Y0281389D01*
X0330811Y0281342D01*
X0330964Y0281291D01*
X0331115Y0281236D01*
X0331265Y0281178D01*
X0331413Y0281116D01*
X0331560Y0281050D01*
X0331705Y0280981D01*
X0331848Y0280908D01*
X0331990Y0280832D01*
X0332129Y0280752D01*
X0332267Y0280669D01*
X0332402Y0280582D01*
X0332536Y0280492D01*
X0332667Y0280399D01*
X0332795Y0280303D01*
X0332921Y0280203D01*
X0333045Y0280100D01*
X0333166Y0279995D01*
X0333285Y0279886D01*
X0333401Y0279775D01*
X0333514Y0279660D01*
X0333624Y0279543D01*
X0333731Y0279423D01*
X0333835Y0279301D01*
X0333936Y0279176D01*
X0334034Y0279048D01*
X0334129Y0278918D01*
X0334221Y0278786D01*
X0334309Y0278652D01*
X0334394Y0278515D01*
X0334476Y0278377D01*
X0334554Y0278236D01*
X0334628Y0278094D01*
X0334699Y0277950D01*
X0334767Y0277804D01*
X0334830Y0277656D01*
X0334891Y0277507D01*
X0334947Y0277356D01*
X0335000Y0277204D01*
X0335049Y0277051D01*
X0335094Y0276897D01*
X0335135Y0276742D01*
X0335173Y0276585D01*
X0335206Y0276428D01*
X0335236Y0276270D01*
X0335262Y0276111D01*
X0335283Y0275952D01*
X0335301Y0275792D01*
X0335315Y0275632D01*
X0335325Y0275471D01*
X0335331Y0275311D01*
X0335333Y0275150D01*
X0335331Y0274989D01*
X0335325Y0274829D01*
X0335315Y0274668D01*
X0335301Y0274508D01*
X0335283Y0274348D01*
X0335262Y0274189D01*
X0335236Y0274030D01*
X0335206Y0273872D01*
X0335173Y0273715D01*
X0335135Y0273558D01*
X0335094Y0273403D01*
X0335049Y0273249D01*
X0335000Y0273096D01*
X0334947Y0272944D01*
X0334891Y0272793D01*
X0334830Y0272644D01*
X0334767Y0272496D01*
X0334699Y0272350D01*
X0334628Y0272206D01*
X0334554Y0272064D01*
X0334476Y0271923D01*
X0334394Y0271785D01*
X0334309Y0271648D01*
X0334221Y0271514D01*
X0334129Y0271382D01*
X0334034Y0271252D01*
X0333936Y0271124D01*
X0333835Y0270999D01*
X0333731Y0270877D01*
X0333624Y0270757D01*
X0333514Y0270640D01*
X0333401Y0270525D01*
X0333285Y0270414D01*
X0333166Y0270305D01*
X0333045Y0270200D01*
X0332921Y0270097D01*
X0332795Y0269997D01*
X0332667Y0269901D01*
X0332536Y0269808D01*
X0332402Y0269718D01*
X0332267Y0269631D01*
X0332129Y0269548D01*
X0331990Y0269468D01*
X0331848Y0269392D01*
X0331705Y0269319D01*
X0331560Y0269250D01*
X0331413Y0269184D01*
X0331265Y0269122D01*
X0331115Y0269064D01*
X0330964Y0269009D01*
X0330811Y0268958D01*
X0330657Y0268911D01*
X0330502Y0268868D01*
X0330346Y0268829D01*
X0330190Y0268793D01*
X0330032Y0268762D01*
X0329874Y0268734D01*
X0329715Y0268710D01*
X0329555Y0268690D01*
X0329395Y0268674D01*
X0329235Y0268662D01*
X0329074Y0268654D01*
X0328913Y0268650D01*
X0328753Y0268650D01*
X0328592Y0268654D01*
X0328431Y0268662D01*
X0328271Y0268674D01*
X0328111Y0268690D01*
X0327951Y0268710D01*
X0327792Y0268734D01*
X0327634Y0268762D01*
X0327476Y0268793D01*
X0327320Y0268829D01*
X0327164Y0268868D01*
X0327009Y0268911D01*
X0326855Y0268958D01*
X0326702Y0269009D01*
X0326551Y0269064D01*
X0326401Y0269122D01*
X0326253Y0269184D01*
X0326106Y0269250D01*
X0325961Y0269319D01*
X0325818Y0269392D01*
X0325676Y0269468D01*
X0325537Y0269548D01*
X0325399Y0269631D01*
X0325264Y0269718D01*
X0325130Y0269808D01*
X0324999Y0269901D01*
X0324871Y0269997D01*
X0324745Y0270097D01*
X0324621Y0270200D01*
X0324500Y0270305D01*
X0324381Y0270414D01*
X0324265Y0270525D01*
X0324152Y0270640D01*
X0324042Y0270757D01*
X0323935Y0270877D01*
X0323831Y0270999D01*
X0323730Y0271124D01*
X0323632Y0271252D01*
X0323537Y0271382D01*
X0323445Y0271514D01*
X0323357Y0271648D01*
X0323272Y0271785D01*
X0323190Y0271923D01*
X0323112Y0272064D01*
X0323038Y0272206D01*
X0322967Y0272350D01*
X0322899Y0272496D01*
X0322836Y0272644D01*
X0322775Y0272793D01*
X0322719Y0272944D01*
X0322666Y0273096D01*
X0322617Y0273249D01*
X0322572Y0273403D01*
X0322531Y0273558D01*
X0322493Y0273715D01*
X0322460Y0273872D01*
X0322430Y0274030D01*
X0322404Y0274189D01*
X0322383Y0274348D01*
X0322365Y0274508D01*
X0322351Y0274668D01*
X0322341Y0274829D01*
X0322335Y0274989D01*
X0322333Y0275150D01*
X0397333Y0042650D02*
X0397335Y0042811D01*
X0397341Y0042971D01*
X0397351Y0043132D01*
X0397365Y0043292D01*
X0397383Y0043452D01*
X0397404Y0043611D01*
X0397430Y0043770D01*
X0397460Y0043928D01*
X0397493Y0044085D01*
X0397531Y0044242D01*
X0397572Y0044397D01*
X0397617Y0044551D01*
X0397666Y0044704D01*
X0397719Y0044856D01*
X0397775Y0045007D01*
X0397836Y0045156D01*
X0397899Y0045304D01*
X0397967Y0045450D01*
X0398038Y0045594D01*
X0398112Y0045736D01*
X0398190Y0045877D01*
X0398272Y0046015D01*
X0398357Y0046152D01*
X0398445Y0046286D01*
X0398537Y0046418D01*
X0398632Y0046548D01*
X0398730Y0046676D01*
X0398831Y0046801D01*
X0398935Y0046923D01*
X0399042Y0047043D01*
X0399152Y0047160D01*
X0399265Y0047275D01*
X0399381Y0047386D01*
X0399500Y0047495D01*
X0399621Y0047600D01*
X0399745Y0047703D01*
X0399871Y0047803D01*
X0399999Y0047899D01*
X0400130Y0047992D01*
X0400264Y0048082D01*
X0400399Y0048169D01*
X0400537Y0048252D01*
X0400676Y0048332D01*
X0400818Y0048408D01*
X0400961Y0048481D01*
X0401106Y0048550D01*
X0401253Y0048616D01*
X0401401Y0048678D01*
X0401551Y0048736D01*
X0401702Y0048791D01*
X0401855Y0048842D01*
X0402009Y0048889D01*
X0402164Y0048932D01*
X0402320Y0048971D01*
X0402476Y0049007D01*
X0402634Y0049038D01*
X0402792Y0049066D01*
X0402951Y0049090D01*
X0403111Y0049110D01*
X0403271Y0049126D01*
X0403431Y0049138D01*
X0403592Y0049146D01*
X0403753Y0049150D01*
X0403913Y0049150D01*
X0404074Y0049146D01*
X0404235Y0049138D01*
X0404395Y0049126D01*
X0404555Y0049110D01*
X0404715Y0049090D01*
X0404874Y0049066D01*
X0405032Y0049038D01*
X0405190Y0049007D01*
X0405346Y0048971D01*
X0405502Y0048932D01*
X0405657Y0048889D01*
X0405811Y0048842D01*
X0405964Y0048791D01*
X0406115Y0048736D01*
X0406265Y0048678D01*
X0406413Y0048616D01*
X0406560Y0048550D01*
X0406705Y0048481D01*
X0406848Y0048408D01*
X0406990Y0048332D01*
X0407129Y0048252D01*
X0407267Y0048169D01*
X0407402Y0048082D01*
X0407536Y0047992D01*
X0407667Y0047899D01*
X0407795Y0047803D01*
X0407921Y0047703D01*
X0408045Y0047600D01*
X0408166Y0047495D01*
X0408285Y0047386D01*
X0408401Y0047275D01*
X0408514Y0047160D01*
X0408624Y0047043D01*
X0408731Y0046923D01*
X0408835Y0046801D01*
X0408936Y0046676D01*
X0409034Y0046548D01*
X0409129Y0046418D01*
X0409221Y0046286D01*
X0409309Y0046152D01*
X0409394Y0046015D01*
X0409476Y0045877D01*
X0409554Y0045736D01*
X0409628Y0045594D01*
X0409699Y0045450D01*
X0409767Y0045304D01*
X0409830Y0045156D01*
X0409891Y0045007D01*
X0409947Y0044856D01*
X0410000Y0044704D01*
X0410049Y0044551D01*
X0410094Y0044397D01*
X0410135Y0044242D01*
X0410173Y0044085D01*
X0410206Y0043928D01*
X0410236Y0043770D01*
X0410262Y0043611D01*
X0410283Y0043452D01*
X0410301Y0043292D01*
X0410315Y0043132D01*
X0410325Y0042971D01*
X0410331Y0042811D01*
X0410333Y0042650D01*
X0410331Y0042489D01*
X0410325Y0042329D01*
X0410315Y0042168D01*
X0410301Y0042008D01*
X0410283Y0041848D01*
X0410262Y0041689D01*
X0410236Y0041530D01*
X0410206Y0041372D01*
X0410173Y0041215D01*
X0410135Y0041058D01*
X0410094Y0040903D01*
X0410049Y0040749D01*
X0410000Y0040596D01*
X0409947Y0040444D01*
X0409891Y0040293D01*
X0409830Y0040144D01*
X0409767Y0039996D01*
X0409699Y0039850D01*
X0409628Y0039706D01*
X0409554Y0039564D01*
X0409476Y0039423D01*
X0409394Y0039285D01*
X0409309Y0039148D01*
X0409221Y0039014D01*
X0409129Y0038882D01*
X0409034Y0038752D01*
X0408936Y0038624D01*
X0408835Y0038499D01*
X0408731Y0038377D01*
X0408624Y0038257D01*
X0408514Y0038140D01*
X0408401Y0038025D01*
X0408285Y0037914D01*
X0408166Y0037805D01*
X0408045Y0037700D01*
X0407921Y0037597D01*
X0407795Y0037497D01*
X0407667Y0037401D01*
X0407536Y0037308D01*
X0407402Y0037218D01*
X0407267Y0037131D01*
X0407129Y0037048D01*
X0406990Y0036968D01*
X0406848Y0036892D01*
X0406705Y0036819D01*
X0406560Y0036750D01*
X0406413Y0036684D01*
X0406265Y0036622D01*
X0406115Y0036564D01*
X0405964Y0036509D01*
X0405811Y0036458D01*
X0405657Y0036411D01*
X0405502Y0036368D01*
X0405346Y0036329D01*
X0405190Y0036293D01*
X0405032Y0036262D01*
X0404874Y0036234D01*
X0404715Y0036210D01*
X0404555Y0036190D01*
X0404395Y0036174D01*
X0404235Y0036162D01*
X0404074Y0036154D01*
X0403913Y0036150D01*
X0403753Y0036150D01*
X0403592Y0036154D01*
X0403431Y0036162D01*
X0403271Y0036174D01*
X0403111Y0036190D01*
X0402951Y0036210D01*
X0402792Y0036234D01*
X0402634Y0036262D01*
X0402476Y0036293D01*
X0402320Y0036329D01*
X0402164Y0036368D01*
X0402009Y0036411D01*
X0401855Y0036458D01*
X0401702Y0036509D01*
X0401551Y0036564D01*
X0401401Y0036622D01*
X0401253Y0036684D01*
X0401106Y0036750D01*
X0400961Y0036819D01*
X0400818Y0036892D01*
X0400676Y0036968D01*
X0400537Y0037048D01*
X0400399Y0037131D01*
X0400264Y0037218D01*
X0400130Y0037308D01*
X0399999Y0037401D01*
X0399871Y0037497D01*
X0399745Y0037597D01*
X0399621Y0037700D01*
X0399500Y0037805D01*
X0399381Y0037914D01*
X0399265Y0038025D01*
X0399152Y0038140D01*
X0399042Y0038257D01*
X0398935Y0038377D01*
X0398831Y0038499D01*
X0398730Y0038624D01*
X0398632Y0038752D01*
X0398537Y0038882D01*
X0398445Y0039014D01*
X0398357Y0039148D01*
X0398272Y0039285D01*
X0398190Y0039423D01*
X0398112Y0039564D01*
X0398038Y0039706D01*
X0397967Y0039850D01*
X0397899Y0039996D01*
X0397836Y0040144D01*
X0397775Y0040293D01*
X0397719Y0040444D01*
X0397666Y0040596D01*
X0397617Y0040749D01*
X0397572Y0040903D01*
X0397531Y0041058D01*
X0397493Y0041215D01*
X0397460Y0041372D01*
X0397430Y0041530D01*
X0397404Y0041689D01*
X0397383Y0041848D01*
X0397365Y0042008D01*
X0397351Y0042168D01*
X0397341Y0042329D01*
X0397335Y0042489D01*
X0397333Y0042650D01*
M02*
